<svg width="89" height="415" viewBox="0 0 89 415" fill="none" xmlns="http://www.w3.org/2000/svg">
<path d="M59 357.04C57.8 357.493 56.6267 357.92 55.48 358.32C54.3067 358.72 53.12 359.133 51.92 359.56L51.92 372.12L59 374.64L59 378.68C56.0667 377.613 53.36 376.613 50.88 375.68C48.3733 374.747 46 373.84 43.76 372.96C41.52 372.053 39.3867 371.16 37.36 370.28C35.3067 369.4 33.28 368.48 31.28 367.52L31.28 363.96C33.28 363 35.3067 362.08 37.36 361.2C39.3867 360.32 41.52 359.44 43.76 358.56C46 357.653 48.3733 356.733 50.88 355.8C53.36 354.867 56.0667 353.867 59 352.8L59 357.04ZM48.72 360.68C46.4 361.533 44.16 362.387 42 363.24C39.8133 364.067 37.72 364.933 35.72 365.84C37.72 366.773 39.8133 367.667 42 368.52C44.16 369.347 46.4 370.173 48.72 371L48.72 360.68ZM56.32 344.437C56.32 342.917 56.12 341.797 55.72 341.077C55.32 340.33 54.68 339.957 53.8 339.957C52.8933 339.957 52.1733 340.317 51.64 341.037C51.1067 341.757 50.5067 342.943 49.84 344.597C49.52 345.397 49.2 346.17 48.88 346.917C48.5333 347.637 48.1333 348.263 47.68 348.797C47.2267 349.33 46.68 349.757 46.04 350.077C45.4 350.397 44.6133 350.557 43.68 350.557C41.84 350.557 40.3867 349.877 39.32 348.517C38.2267 347.157 37.68 345.303 37.68 342.957C37.68 342.37 37.72 341.783 37.8 341.197C37.8533 340.61 37.9333 340.063 38.04 339.557C38.12 339.05 38.2133 338.61 38.32 338.237C38.4267 337.837 38.52 337.53 38.6 337.317L41.8 337.997C41.5867 338.397 41.3733 339.023 41.16 339.877C40.92 340.73 40.8 341.757 40.8 342.957C40.8 343.997 41.0133 344.903 41.44 345.677C41.84 346.45 42.48 346.837 43.36 346.837C43.8133 346.837 44.2133 346.757 44.56 346.597C44.9067 346.41 45.2267 346.143 45.52 345.797C45.7867 345.423 46.04 344.97 46.28 344.437C46.52 343.903 46.7733 343.263 47.04 342.517C47.4133 341.53 47.7867 340.65 48.16 339.877C48.5067 339.103 48.92 338.45 49.4 337.917C49.88 337.357 50.4667 336.93 51.16 336.637C51.8267 336.343 52.6533 336.197 53.64 336.197C55.56 336.197 57.0133 336.917 58 338.357C58.9867 339.77 59.48 341.797 59.48 344.437C59.48 346.277 59.32 347.717 59 348.757C58.7067 349.797 58.48 350.503 58.32 350.877L55.12 350.197C55.28 349.77 55.52 349.09 55.84 348.157C56.16 347.223 56.32 345.983 56.32 344.437ZM56.32 326.585C56.32 325.065 56.12 323.945 55.72 323.225C55.32 322.478 54.68 322.105 53.8 322.105C52.8933 322.105 52.1733 322.465 51.64 323.185C51.1067 323.905 50.5067 325.092 49.84 326.745C49.52 327.545 49.2 328.318 48.88 329.065C48.5333 329.785 48.1333 330.412 47.68 330.945C47.2267 331.478 46.68 331.905 46.04 332.225C45.4 332.545 44.6133 332.705 43.68 332.705C41.84 332.705 40.3867 332.025 39.32 330.665C38.2267 329.305 37.68 327.452 37.68 325.105C37.68 324.518 37.72 323.932 37.8 323.345C37.8533 322.758 37.9333 322.212 38.04 321.705C38.12 321.198 38.2133 320.758 38.32 320.385C38.4267 319.985 38.52 319.678 38.6 319.465L41.8 320.145C41.5867 320.545 41.3733 321.172 41.16 322.025C40.92 322.878 40.8 323.905 40.8 325.105C40.8 326.145 41.0133 327.052 41.44 327.825C41.84 328.598 42.48 328.985 43.36 328.985C43.8133 328.985 44.2133 328.905 44.56 328.745C44.9067 328.558 45.2267 328.292 45.52 327.945C45.7867 327.572 46.04 327.118 46.28 326.585C46.52 326.052 46.7733 325.412 47.04 324.665C47.4133 323.678 47.7867 322.798 48.16 322.025C48.5067 321.252 48.92 320.598 49.4 320.065C49.88 319.505 50.4667 319.078 51.16 318.785C51.8267 318.492 52.6533 318.345 53.64 318.345C55.56 318.345 57.0133 319.065 58 320.505C58.9867 321.918 59.48 323.945 59.48 326.585C59.48 328.425 59.32 329.865 59 330.905C58.7067 331.945 58.48 332.652 58.32 333.025L55.12 332.345C55.28 331.918 55.52 331.238 55.84 330.305C56.16 329.372 56.32 328.132 56.32 326.585ZM48.6 295.213C50.2533 295.213 51.7467 295.453 53.08 295.933C54.4133 296.413 55.56 297.093 56.52 297.973C57.48 298.827 58.2267 299.853 58.76 301.053C59.2667 302.253 59.52 303.56 59.52 304.973C59.52 306.387 59.2667 307.693 58.76 308.893C58.2267 310.093 57.48 311.133 56.52 312.013C55.56 312.867 54.4133 313.533 53.08 314.013C51.7467 314.493 50.2533 314.733 48.6 314.733C46.9733 314.733 45.4933 314.493 44.16 314.013C42.8 313.533 41.64 312.867 40.68 312.013C39.72 311.133 38.9867 310.093 38.48 308.893C37.9467 307.693 37.68 306.387 37.68 304.973C37.68 303.56 37.9467 302.253 38.48 301.053C38.9867 299.853 39.72 298.827 40.68 297.973C41.64 297.093 42.8 296.413 44.16 295.933C45.4933 295.453 46.9733 295.213 48.6 295.213ZM48.6 299.093C46.2533 299.093 44.4 299.627 43.04 300.693C41.6533 301.733 40.96 303.16 40.96 304.973C40.96 306.787 41.6533 308.227 43.04 309.293C44.4 310.333 46.2533 310.853 48.6 310.853C50.9467 310.853 52.8133 310.333 54.2 309.293C55.56 308.227 56.24 306.787 56.24 304.973C56.24 303.16 55.56 301.733 54.2 300.693C52.8133 299.627 50.9467 299.093 48.6 299.093ZM59.48 280.94C59.48 282.62 59.2133 284.1 58.68 285.38C58.1467 286.633 57.4 287.7 56.44 288.58C55.48 289.433 54.3467 290.073 53.04 290.5C51.7067 290.926 50.24 291.14 48.64 291.14C47.04 291.14 45.5733 290.913 44.24 290.46C42.9067 289.98 41.76 289.313 40.8 288.46C39.8133 287.606 39.0533 286.566 38.52 285.34C37.96 284.086 37.68 282.7 37.68 281.18C37.68 280.246 37.76 279.313 37.92 278.38C38.08 277.446 38.3333 276.553 38.68 275.7L41.84 276.54C41.5733 277.1 41.36 277.753 41.2 278.5C41.04 279.22 40.96 279.993 40.96 280.82C40.96 282.9 41.6133 284.5 42.92 285.62C44.2267 286.713 46.1333 287.26 48.64 287.26C49.76 287.26 50.7867 287.14 51.72 286.9C52.6533 286.633 53.4533 286.233 54.12 285.7C54.7867 285.14 55.3067 284.433 55.68 283.58C56.0267 282.726 56.2 281.686 56.2 280.46C56.2 279.473 56.1067 278.58 55.92 277.78C55.7333 276.98 55.5333 276.353 55.32 275.9L58.44 275.38C58.5733 275.593 58.7067 275.9 58.84 276.3C58.9467 276.7 59.04 277.153 59.12 277.66C59.2267 278.166 59.3067 278.713 59.36 279.3C59.44 279.86 59.48 280.406 59.48 280.94ZM59 267.666L59 271.386L38.2 271.386L38.2 267.666L59 267.666ZM34.44 269.546C34.44 270.213 34.2267 270.786 33.8 271.266C33.3467 271.719 32.7467 271.946 32 271.946C31.2533 271.946 30.6667 271.719 30.24 271.266C29.7867 270.786 29.56 270.213 29.56 269.546C29.56 268.879 29.7867 268.319 30.24 267.866C30.6667 267.386 31.2533 267.146 32 267.146C32.7467 267.146 33.3467 267.386 33.8 267.866C34.2267 268.319 34.44 268.879 34.44 269.546ZM56.32 254.229C56.32 253.349 56.3067 252.575 56.28 251.909C56.2267 251.215 56.1467 250.642 56.04 250.189L49.84 250.189C49.7067 250.455 49.6 250.895 49.52 251.509C49.4133 252.095 49.36 252.815 49.36 253.669C49.36 254.229 49.4 254.829 49.48 255.469C49.56 256.082 49.7333 256.655 50 257.189C50.24 257.695 50.5867 258.122 51.04 258.469C51.4667 258.815 52.04 258.989 52.76 258.989C54.0933 258.989 55.0267 258.562 55.56 257.709C56.0667 256.855 56.32 255.695 56.32 254.229ZM37.68 254.549C37.68 253.055 37.88 251.802 38.28 250.789C38.6533 249.749 39.2 248.922 39.92 248.309C40.6133 247.669 41.4533 247.215 42.44 246.949C43.4 246.682 44.4667 246.549 45.64 246.549L58.64 246.549C58.6933 246.869 58.7733 247.322 58.88 247.909C58.96 248.469 59.04 249.109 59.12 249.829C59.2 250.549 59.2667 251.335 59.32 252.189C59.4 253.015 59.44 253.842 59.44 254.669C59.44 255.842 59.32 256.922 59.08 257.909C58.84 258.895 58.4667 259.749 57.96 260.469C57.4267 261.189 56.7333 261.749 55.88 262.149C55.0267 262.549 54 262.749 52.8 262.749C51.6533 262.749 50.6667 262.522 49.84 262.069C49.0133 261.589 48.3467 260.949 47.84 260.149C47.3333 259.349 46.96 258.415 46.72 257.349C46.48 256.282 46.36 255.162 46.36 253.989C46.36 253.615 46.3867 253.229 46.44 252.829C46.4667 252.429 46.52 252.055 46.6 251.709C46.6533 251.335 46.7067 251.015 46.76 250.749C46.8133 250.482 46.8533 250.295 46.88 250.189L45.84 250.189C45.2267 250.189 44.6267 250.255 44.04 250.389C43.4267 250.522 42.8933 250.762 42.44 251.109C41.96 251.455 41.5867 251.935 41.32 252.549C41.0267 253.135 40.88 253.909 40.88 254.869C40.88 256.095 40.9733 257.175 41.16 258.109C41.32 259.015 41.4933 259.695 41.68 260.149L38.6 260.589C38.3867 260.109 38.1867 259.309 38 258.189C37.7867 257.069 37.68 255.855 37.68 254.549ZM38.2 236.89L38.2 229.01L41.32 229.01L41.32 236.89L50.92 236.89C51.96 236.89 52.8267 236.81 53.52 236.65C54.1867 236.49 54.72 236.25 55.12 235.93C55.4933 235.61 55.76 235.21 55.92 234.73C56.08 234.25 56.16 233.69 56.16 233.05C56.16 231.93 56.04 231.037 55.8 230.37C55.5333 229.677 55.3467 229.197 55.24 228.93L58.32 228.21C58.5067 228.584 58.7333 229.237 59 230.17C59.2933 231.104 59.44 232.17 59.44 233.37C59.44 234.784 59.2667 235.957 58.92 236.89C58.5467 237.797 58 238.53 57.28 239.09C56.56 239.65 55.68 240.05 54.64 240.29C53.5733 240.504 52.3467 240.61 50.96 240.61L32.4 240.61L31.76 236.89L38.2 236.89ZM48.64 225.827C46.8 225.827 45.2 225.561 43.84 225.027C42.4533 224.494 41.3067 223.787 40.4 222.907C39.4933 222.027 38.8133 221.014 38.36 219.867C37.9067 218.721 37.68 217.547 37.68 216.347C37.68 213.547 38.56 211.401 40.32 209.907C42.0533 208.414 44.7067 207.667 48.28 207.667C48.44 207.667 48.6533 207.667 48.92 207.667C49.16 207.667 49.3867 207.681 49.6 207.707L49.6 221.947C51.76 221.787 53.4 221.161 54.52 220.067C55.64 218.974 56.2 217.267 56.2 214.947C56.2 213.641 56.0933 212.547 55.88 211.667C55.64 210.761 55.4133 210.081 55.2 209.627L58.32 209.107C58.56 209.561 58.8133 210.361 59.08 211.507C59.3467 212.627 59.48 213.907 59.48 215.347C59.48 217.161 59.2133 218.734 58.68 220.067C58.12 221.374 57.36 222.454 56.4 223.307C55.44 224.161 54.3067 224.801 53 225.227C51.6667 225.627 50.2133 225.827 48.64 225.827ZM46.6 211.547C44.92 211.521 43.5467 211.947 42.48 212.827C41.3867 213.681 40.84 214.867 40.84 216.387C40.84 217.241 41.0133 218.001 41.36 218.667C41.68 219.307 42.1067 219.854 42.64 220.307C43.1733 220.761 43.7867 221.121 44.48 221.387C45.1733 221.627 45.88 221.787 46.6 221.867L46.6 211.547ZM56.32 197.483C56.32 195.963 56.12 194.843 55.72 194.123C55.32 193.377 54.68 193.003 53.8 193.003C52.8933 193.003 52.1733 193.363 51.64 194.083C51.1067 194.803 50.5067 195.99 49.84 197.643C49.52 198.443 49.2 199.217 48.88 199.963C48.5333 200.683 48.1333 201.31 47.68 201.843C47.2267 202.377 46.68 202.803 46.04 203.123C45.4 203.443 44.6133 203.603 43.68 203.603C41.84 203.603 40.3867 202.923 39.32 201.563C38.2267 200.203 37.68 198.35 37.68 196.003C37.68 195.417 37.72 194.83 37.8 194.243C37.8533 193.657 37.9333 193.11 38.04 192.603C38.12 192.097 38.2133 191.657 38.32 191.283C38.4267 190.883 38.52 190.577 38.6 190.363L41.8 191.043C41.5867 191.443 41.3733 192.07 41.16 192.923C40.92 193.777 40.8 194.803 40.8 196.003C40.8 197.043 41.0133 197.95 41.44 198.723C41.84 199.497 42.48 199.883 43.36 199.883C43.8133 199.883 44.2133 199.803 44.56 199.643C44.9067 199.457 45.2267 199.19 45.52 198.843C45.7867 198.47 46.04 198.017 46.28 197.483C46.52 196.95 46.7733 196.31 47.04 195.563C47.4133 194.577 47.7867 193.697 48.16 192.923C48.5067 192.15 48.92 191.497 49.4 190.963C49.88 190.403 50.4667 189.977 51.16 189.683C51.8267 189.39 52.6533 189.243 53.64 189.243C55.56 189.243 57.0133 189.963 58 191.403C58.9867 192.817 59.48 194.843 59.48 197.483C59.48 199.323 59.32 200.763 59 201.803C58.7067 202.843 58.48 203.55 58.32 203.923L55.12 203.243C55.28 202.817 55.52 202.137 55.84 201.203C56.16 200.27 56.32 199.03 56.32 197.483Z" fill="#131D25"/>
<path d="M31.6565 68.3423C31.5499 68.3423 31.4966 68.2889 31.4434 68.2355C31.3368 68.1288 31.3901 67.9688 31.4966 67.8621C38.7978 63.0605 52.7607 57.2453 52.9206 57.192C64.3787 52.4971 72.7457 42.4672 75.4637 30.4633C75.517 30.3032 75.6236 30.2499 75.7835 30.2499C75.9434 30.3032 75.9966 30.4099 75.9966 30.57C73.2787 42.7873 64.7517 52.9239 53.1871 57.7255C53.0272 57.7788 39.1176 63.5407 31.8697 68.3423C31.7631 68.3423 31.7098 68.3423 31.6565 68.3423Z" fill="#98B2B9"/>
<path d="M12.151 105.368C11.9378 105.368 11.7779 105.208 11.7779 104.994L11.7246 103.767C11.7246 85.041 23.7156 68.609 41.5156 62.9538C46.9516 61.2466 52.7073 60.6064 58.4629 61.1399C60.5947 61.3533 62.7264 60.8198 64.5917 59.6461C72.3725 54.6845 77.2755 46.3618 77.7552 37.2388C77.8085 35.8517 77.8084 34.4646 77.6486 33.1308C77.4354 30.6233 76.7426 29.0761 75.7833 28.8627C74.824 28.6493 73.545 29.8764 72.2659 32.0638C65.018 45.2414 51.215 53.3507 36.2929 53.3507C32.6689 53.3507 29.0983 52.8705 25.6342 51.9636C25.421 51.9102 25.3144 51.6968 25.3677 51.5368C25.421 51.3234 25.6342 51.2167 25.7941 51.27C29.2048 52.177 32.7755 52.6571 36.2929 52.6571C51.0019 52.6571 64.5384 44.6545 71.733 31.797C73.1719 29.2362 74.6641 27.9558 75.9965 28.2225C77.2755 28.4893 78.1815 30.2499 78.448 33.1308C78.5546 34.5179 78.6079 35.9584 78.5546 37.3455C78.0749 46.6819 73.012 55.218 65.0713 60.2863C63.0994 61.5133 60.7545 62.1002 58.5162 61.8868C52.8671 61.3533 47.218 61.9935 41.8887 63.6474C24.3552 69.1958 12.5773 85.3077 12.5773 103.767L12.6306 104.941C12.524 105.208 12.3641 105.368 12.151 105.368C12.2042 105.368 12.2042 105.368 12.151 105.368Z" fill="#98B2B9"/>
<mask id="mask0_20_257" style="mask-type:luminance" maskUnits="userSpaceOnUse" x="12" y="59" width="77" height="73">
<path d="M12.2575 106.595L12.1509 103.82C12.1509 84.8809 24.5682 68.8224 41.7287 63.3806C45.779 62.1002 50.0958 61.4066 54.5725 61.4066C55.9048 61.4066 57.2371 61.46 58.5161 61.62C60.7545 61.8334 62.9928 61.2466 64.8581 60.0729C72.479 55.2179 79.3006 72.6103 79.8335 63.0605C79.8868 61.62 88.8401 75.918 88.7335 74.5309C88.2006 68.8757 87.8808 105.634 85.1096 110.596C78.1281 123.133 78.288 131.936 62.9395 131.936C59.2622 131.936 22.0635 130.709 18.6527 129.802L12.2575 106.595Z" fill="white"/>
</mask>
<g mask="url(#mask0_20_257)">
<path d="M36.4526 87.1217C34.161 87.1217 27.4993 83.2804 27.3927 83.2271C26.2736 82.4802 26.0071 80.9864 26.7532 79.9193C27.1263 79.3858 27.6592 79.0124 28.2987 78.9057C28.9382 78.799 29.5778 78.9057 30.1107 79.2791C30.2173 79.3325 38.158 85.4678 37.1987 86.9083C37.0388 87.015 36.7724 87.1217 36.4526 87.1217ZM28.7251 79.5459C28.6185 79.5459 28.5119 79.5459 28.4053 79.5992C27.9789 79.7059 27.6059 79.9193 27.3394 80.2928C26.8065 81.0397 27.0197 82.1067 27.8191 82.6402C29.1514 83.5472 35.44 86.6949 36.5592 86.4281C36.346 85.3611 31.0167 80.7196 29.6843 79.8126C29.4179 79.6526 29.0981 79.5459 28.7251 79.5459Z" fill="#98B2B9"/>
<path d="M64.325 107.448C63.8453 107.448 63.419 107.288 62.9926 107.021C62.886 106.968 54.9453 100.833 55.9046 99.3923C56.1178 99.0722 56.4908 98.5387 60.8609 100.566C62.9926 101.526 65.1777 102.753 65.6573 103.02C66.1902 103.394 66.5633 103.927 66.6699 104.567C66.7764 105.208 66.6699 105.848 66.2968 106.381C65.9238 106.915 65.3908 107.288 64.7513 107.395C64.6447 107.395 64.4848 107.448 64.325 107.448ZM56.5441 99.8192C56.7573 100.886 62.0866 105.528 63.419 106.435C63.792 106.701 64.2184 106.755 64.698 106.701C65.1244 106.595 65.4974 106.381 65.7639 106.008C66.0304 105.634 66.0836 105.208 66.0304 104.727C65.9238 104.301 65.7106 103.927 65.3375 103.66C63.9519 102.753 57.61 99.6058 56.5441 99.8192Z" fill="#98B2B9"/>
<path d="M46.5251 102.06C41.6221 102.06 37.5718 98.0586 37.5718 93.0969C37.5718 88.1887 41.5688 84.134 46.5251 84.134C51.4281 84.134 55.4784 88.1353 55.4784 93.0969C55.4784 98.0586 51.4814 102.06 46.5251 102.06ZM46.5251 84.8809C41.9951 84.8809 38.3179 88.5621 38.3179 93.0969C38.3179 97.6318 41.9951 101.313 46.5251 101.313C51.055 101.313 54.7323 97.6318 54.7323 93.0969C54.7323 88.6155 51.055 84.8809 46.5251 84.8809Z" fill="#98B2B9"/>
<path d="M46.5253 116.945C33.4151 116.945 22.7031 106.275 22.7031 93.0969C22.7031 79.9193 33.3618 69.2491 46.5253 69.2491C59.6355 69.2491 70.3474 79.9193 70.3474 93.0969C70.3474 106.275 59.6887 116.945 46.5253 116.945ZM46.5253 69.9961C33.7881 69.9961 23.4492 80.3461 23.4492 93.0969C23.4492 105.848 33.7881 116.198 46.5253 116.198C59.2624 116.198 69.6013 105.848 69.6013 93.0969C69.6013 80.3994 59.2624 69.9961 46.5253 69.9961Z" fill="#98B2B9"/>
<path d="M46.5252 105.154C39.9168 105.154 34.5342 99.7657 34.5342 93.1503C34.5342 86.5348 39.9168 81.1464 46.5252 81.1464C53.1336 81.1464 58.5162 86.5348 58.5162 93.1503C58.5695 99.7657 53.1869 105.154 46.5252 105.154ZM46.5252 81.8399C40.2899 81.8399 35.227 86.9082 35.227 93.1503C35.227 99.3923 40.2899 104.461 46.5252 104.461C52.7605 104.461 57.8234 99.3923 57.8234 93.1503C57.8234 86.9082 52.7605 81.8399 46.5252 81.8399Z" fill="#98B2B9"/>
<path d="M46.5252 81.8399C44.8198 81.8399 44.127 71.81 44.127 71.7033C44.127 70.3695 45.1928 69.3025 46.5252 69.3025C47.8575 69.3025 48.9234 70.3695 48.9234 71.7033C48.9234 71.81 48.2838 81.8399 46.5252 81.8399ZM46.5252 69.9961C45.6192 69.9961 44.8731 70.743 44.8731 71.6499C44.8731 73.2504 45.779 80.2394 46.5252 81.0396C47.2713 80.2927 48.1773 73.2504 48.1773 71.6499C48.2305 70.7963 47.4844 69.9961 46.5252 69.9961Z" fill="#98B2B9"/>
<path d="M46.5252 116.945C45.1928 116.945 44.127 115.878 44.127 114.544C44.127 114.437 44.8198 104.407 46.5252 104.407C48.2305 104.407 48.9234 114.437 48.9234 114.544C48.9234 115.878 47.8575 116.945 46.5252 116.945ZM46.5252 105.207C45.779 105.954 44.8731 112.997 44.8731 114.597C44.8731 115.504 45.6192 116.251 46.5252 116.251C47.4311 116.251 48.1773 115.504 48.1773 114.597C48.2305 112.943 47.3246 105.954 46.5252 105.207Z" fill="#98B2B9"/>
<path d="M46.5252 81.8399C44.8198 81.8399 44.127 71.81 44.127 71.7033C44.127 70.3695 45.1928 69.3025 46.5252 69.3025C47.8575 69.3025 48.9234 70.3695 48.9234 71.7033C48.9234 71.81 48.2838 81.8399 46.5252 81.8399ZM46.5252 69.9961C45.6192 69.9961 44.8731 70.743 44.8731 71.6499C44.8731 73.2504 45.779 80.2394 46.5252 81.0396C47.2713 80.2927 48.1773 73.2504 48.1773 71.6499C48.2305 70.7963 47.4844 69.9961 46.5252 69.9961Z" fill="#98B2B9"/>
<path d="M46.5252 116.945C45.1928 116.945 44.127 115.878 44.127 114.544C44.127 114.437 44.8198 104.407 46.5252 104.407C48.2305 104.407 48.9234 114.437 48.9234 114.544C48.9234 115.878 47.8575 116.945 46.5252 116.945ZM46.5252 105.207C45.779 105.954 44.8731 112.997 44.8731 114.597C44.8731 115.504 45.6192 116.251 46.5252 116.251C47.4311 116.251 48.1773 115.504 48.1773 114.597C48.2305 112.943 47.3246 105.954 46.5252 105.207Z" fill="#98B2B9"/>
<path d="M44.2332 82.0533C42.5278 82.0533 40.023 72.6636 39.9697 72.5569C39.7033 71.2765 40.5559 69.996 41.835 69.7293C43.114 69.4625 44.3931 70.3162 44.6595 71.5966C44.6595 71.7033 45.9919 81.6798 44.2865 81.9999C44.2865 82.0533 44.2865 82.0533 44.2332 82.0533ZM42.3679 70.4229C42.2613 70.4229 42.1547 70.4229 42.0482 70.4762C41.1422 70.6363 40.5559 71.5432 40.7158 72.4502C41.0356 73.9974 43.2739 80.7195 44.1799 81.3064C44.7661 80.3994 44.2865 73.3571 44.02 71.81C43.8601 71.0097 43.1673 70.4229 42.3679 70.4229Z" fill="#98B2B9"/>
<path d="M50.735 116.571C50.2553 116.571 49.829 116.411 49.4027 116.144C48.8697 115.771 48.4966 115.237 48.3901 114.597C48.2835 114.064 48.017 111.556 47.9104 109.209C47.7505 104.407 48.3901 104.247 48.7631 104.194C49.1362 104.14 49.7757 103.98 51.4278 108.515C52.2272 110.703 52.9733 113.103 53.0799 113.637C53.1865 114.277 53.0799 114.917 52.7068 115.451C52.3338 115.984 51.8008 116.358 51.1613 116.464C51.0547 116.518 50.8949 116.571 50.735 116.571ZM48.8697 104.941C48.2835 105.848 48.7631 112.89 49.0296 114.437C49.1362 114.864 49.3493 115.237 49.7224 115.504C50.0955 115.771 50.5218 115.824 51.0015 115.771C51.4278 115.664 51.8009 115.451 52.0673 115.077C52.3338 114.704 52.3871 114.277 52.3338 113.797C52.0673 112.25 49.7757 105.528 48.8697 104.941Z" fill="#98B2B9"/>
<path d="M41.942 82.7468C41.5157 82.7468 40.7163 82.2667 38.6911 78.9589C37.4654 76.9316 36.2929 74.7442 36.0797 74.2107C35.8133 73.6239 35.8133 72.9837 36.0797 72.3968C36.3462 71.81 36.7725 71.3298 37.3588 71.1164C38.5845 70.5829 39.9701 71.1697 40.5031 72.3968C40.7163 72.9303 41.4624 75.2777 41.9953 77.5718C43.1145 82.2667 42.4749 82.5334 42.1552 82.6401C42.1552 82.6935 42.0486 82.7468 41.942 82.7468ZM38.3713 71.6499C38.1582 71.6499 37.945 71.7033 37.7318 71.7566C37.3055 71.9167 36.9857 72.2368 36.8258 72.6636C36.666 73.0904 36.666 73.5172 36.8258 73.944C37.4121 75.4378 40.9294 81.5731 41.942 81.9466C42.3684 80.9329 40.5031 74.104 39.9168 72.6636C39.6504 72.0234 39.0109 71.6499 38.3713 71.6499Z" fill="#98B2B9"/>
<path d="M54.7326 115.344C54.4129 115.344 54.0931 115.291 53.8266 115.184C53.2404 114.917 52.7608 114.49 52.5476 113.904C52.4943 113.797 49.2967 104.301 50.8955 103.607C52.4943 102.967 56.9177 111.93 56.9709 112.036C57.2374 112.623 57.2374 113.263 56.9709 113.85C56.7045 114.437 56.2781 114.917 55.6919 115.131C55.3721 115.291 55.0524 115.344 54.7326 115.344ZM51.1619 104.247C50.7356 105.261 52.6009 112.09 53.1871 113.53C53.347 113.957 53.6667 114.277 54.0931 114.437C54.5194 114.597 54.9458 114.597 55.3721 114.437C55.7985 114.277 56.1182 113.957 56.2781 113.53C56.438 113.103 56.438 112.677 56.2781 112.25C55.6919 110.809 52.1745 104.674 51.1619 104.247Z" fill="#98B2B9"/>
<path d="M39.9698 83.8139C38.1578 83.8139 32.7219 76.7182 32.6686 76.6649C32.2955 76.1314 32.1889 75.4912 32.2955 74.851C32.4021 74.2107 32.7752 73.6772 33.3081 73.3038C33.841 72.9303 34.4805 72.8236 35.1201 72.9303C35.7596 73.037 36.2925 73.4105 36.6656 73.944C36.7189 74.0507 41.7285 82.7468 40.2895 83.7072C40.1829 83.7605 40.0764 83.8139 39.9698 83.8139ZM34.6404 73.6239C34.3207 73.6239 34.0009 73.7306 33.7344 73.8906C33.3614 74.1574 33.0949 74.5309 33.0416 74.9577C32.935 75.3845 33.0416 75.8646 33.3081 76.2381C34.2141 77.5718 38.8506 82.9069 39.9165 83.1203C40.1296 82.0533 36.9853 75.7046 36.1326 74.4241C35.8662 74.0507 35.4931 73.7839 35.0668 73.7306C34.8536 73.6239 34.747 73.6239 34.6404 73.6239Z" fill="#98B2B9"/>
<path d="M58.4628 113.37C57.6634 113.37 56.9173 112.997 56.491 112.303C56.4377 112.196 51.4281 103.5 52.867 102.54C53.1868 102.327 53.7197 101.953 57.0239 105.528C58.6227 107.235 60.1682 109.155 60.488 109.636C60.861 110.169 60.9676 110.809 60.861 111.45C60.7544 112.09 60.3814 112.623 59.8484 112.997C59.3688 113.21 58.8892 113.37 58.4628 113.37ZM57.0239 111.876C57.5568 112.623 58.5694 112.837 59.3688 112.356C59.7419 112.09 60.0083 111.716 60.0616 111.289C60.1682 110.863 60.0616 110.383 59.7952 110.009C58.8892 108.675 54.2526 103.34 53.1868 103.127C53.0269 104.194 56.1712 110.543 57.0239 111.876Z" fill="#98B2B9"/>
<path d="M38.1049 85.3077C36.0797 85.3077 29.7378 79.7593 29.6845 79.7059C29.2049 79.2257 28.9917 78.6389 28.9917 77.9987C28.9917 77.3585 29.2582 76.7716 29.6845 76.2915C30.1109 75.8647 30.7504 75.5979 31.3899 75.5979C32.0294 75.5979 32.6157 75.8647 33.0953 76.2915C33.5216 76.7183 35.0671 78.5855 36.4528 80.5062C39.2773 84.4008 38.7977 84.8809 38.5312 85.1477C38.4779 85.2544 38.318 85.3077 38.1049 85.3077ZM31.3899 76.2915C30.9636 76.2915 30.5372 76.4515 30.2175 76.7716C29.5779 77.4118 29.5779 78.4788 30.2175 79.119C31.3366 80.2394 36.9857 84.5608 37.9983 84.5608C37.9983 83.4938 33.6815 77.892 32.5624 76.7716C32.2426 76.4515 31.8163 76.2915 31.3899 76.2915Z" fill="#98B2B9"/>
<path d="M61.6606 110.703C61.0211 110.703 60.4348 110.436 59.9552 110.009C59.9019 109.956 53.2935 102.38 54.5193 101.153C55.745 99.9258 63.3127 106.541 63.366 106.595C63.8456 107.075 64.0588 107.662 64.0588 108.302C64.0588 108.942 63.7923 109.529 63.366 110.009C62.9397 110.436 62.3001 110.703 61.6606 110.703ZM55.0522 101.633C55.0522 102.7 59.369 108.302 60.4881 109.422C61.1277 110.062 62.1935 110.062 62.8331 109.422C63.4726 108.782 63.4726 107.715 62.8331 107.075C61.7139 105.954 56.1714 101.633 55.0522 101.633Z" fill="#98B2B9"/>
<path d="M34.9602 89.2556C34.2141 89.2556 33.0416 89.0956 31.0165 88.6154C28.7249 88.0819 26.3799 87.335 25.847 87.1216C24.6213 86.6414 24.035 85.201 24.568 83.9739C24.8344 83.387 25.2608 82.9069 25.847 82.6935C26.4332 82.4267 27.0728 82.4267 27.659 82.6935C28.1919 82.9069 30.3769 84.0806 32.4021 85.3077C36.5057 87.8151 36.2392 88.4553 36.1326 88.7754C36.026 88.9888 35.9195 89.2556 34.9602 89.2556ZM26.753 83.227C26.5398 83.227 26.3266 83.2803 26.1135 83.3337C25.6871 83.4937 25.3674 83.8138 25.2075 84.2406C24.8344 85.0942 25.2608 86.0546 26.1135 86.428C27.6057 87.0149 34.4272 88.8822 35.3865 88.4553C34.9602 87.4417 28.8314 83.9205 27.3925 83.3337C27.1793 83.2803 26.9662 83.227 26.753 83.227Z" fill="#98B2B9"/>
<path d="M66.2965 103.714C65.9767 103.714 65.657 103.66 65.3905 103.554C65.2839 103.5 56.2773 99.0722 56.9701 97.4716C57.6097 95.8711 67.1492 99.0722 67.2558 99.1255C67.842 99.3923 68.3216 99.8191 68.5348 100.406C68.8012 100.993 68.8012 101.633 68.5348 102.22C68.2683 102.807 67.842 103.287 67.2558 103.5C66.936 103.66 66.6162 103.714 66.2965 103.714ZM57.6629 97.7384C58.0893 98.7521 64.218 102.273 65.657 102.86C66.0833 103.02 66.5096 103.02 66.936 102.86C67.3623 102.7 67.6821 102.38 67.842 101.953C68.0019 101.526 68.0019 101.099 67.842 100.673C67.6821 100.246 67.3623 99.9258 66.936 99.7657C65.4971 99.1789 58.6755 97.3116 57.6629 97.7384Z" fill="#98B2B9"/>
<path d="M31.7629 91.8164C28.7784 91.8164 25.1012 91.3363 25.0479 91.3363C23.7688 91.0695 22.9161 89.7891 23.1826 88.5087C23.4491 87.2283 24.7281 86.3747 26.0072 86.6414C26.1137 86.6414 35.8131 89.2556 35.4401 90.9628C35.3335 91.603 33.7347 91.8164 31.7629 91.8164ZM25.5275 87.2816C24.7281 87.2816 24.0353 87.8151 23.8754 88.6154C23.7155 89.5223 24.3018 90.4293 25.2078 90.5894C26.7533 90.9095 33.8413 91.3896 34.694 90.7494C34.1078 89.8425 27.3928 87.6017 25.8473 87.2816C25.7407 87.2816 25.6341 87.2816 25.5275 87.2816Z" fill="#98B2B9"/>
<path d="M67.523 99.7123C67.3631 99.7123 67.2032 99.7123 67.0433 99.659C66.5104 99.5523 64.1122 98.8587 61.9272 98.0051C57.3972 96.3512 57.5571 95.6576 57.6104 95.3375C57.6637 94.9641 57.8236 94.3239 62.62 94.4839C64.9649 94.5906 67.4164 94.804 68.0026 94.9641C68.6421 95.0708 69.1751 95.4442 69.5481 95.9778C69.9212 96.5113 70.0278 97.1515 69.9212 97.7917C69.8146 98.4319 69.4415 98.9654 68.9086 99.3388C68.4822 99.5522 68.0026 99.7123 67.523 99.7123ZM58.3565 95.4976C58.9427 96.4046 65.6577 98.6453 67.2032 98.9654C67.6295 99.0721 68.1092 98.9654 68.4822 98.6986C68.8553 98.4319 69.1218 98.0584 69.1751 97.6316C69.2816 97.2048 69.1751 96.7247 68.9086 96.3512C68.6421 95.9778 68.2691 95.711 67.8427 95.6577C66.2972 95.3375 59.2625 94.8574 58.3565 95.4976Z" fill="#98B2B9"/>
<path d="M25.1546 95.5511C23.8222 95.5511 22.7563 94.4841 22.7563 93.1503C22.7563 91.8165 23.8222 90.7495 25.1546 90.7495C25.2611 90.7495 35.2803 91.4431 35.2803 93.1503C35.2803 94.8575 25.2611 95.5511 25.1546 95.5511ZM25.1546 91.4431C24.2486 91.4431 23.5025 92.19 23.5025 93.0969C23.5025 94.0039 24.2486 94.7508 25.1546 94.7508C26.7534 94.7508 33.7348 93.8438 34.5342 93.0969C33.7348 92.35 26.7534 91.4431 25.1546 91.4431Z" fill="#98B2B9"/>
<path d="M67.949 95.5511C67.8424 95.5511 57.8232 94.8575 57.8232 93.1503C57.8232 91.4431 67.8424 90.7495 67.949 90.7495C69.2813 90.7495 70.3472 91.8165 70.3472 93.1503C70.3472 94.4307 69.2813 95.5511 67.949 95.5511ZM58.5694 93.1503C59.3155 93.8972 66.3502 94.8042 67.949 94.8042C68.855 94.8042 69.6011 94.0573 69.6011 93.1503C69.6011 92.2433 68.855 91.4964 67.949 91.4964C66.3502 91.4431 59.3688 92.35 58.5694 93.1503Z" fill="#98B2B9"/>
<path d="M25.5275 99.7124C24.4084 99.7124 23.3958 98.9121 23.1826 97.7917C22.9161 96.5113 23.7688 95.2309 25.0479 94.9642C25.1545 94.9642 35.1203 93.6304 35.4401 95.3376C35.7599 97.0448 26.1137 99.659 26.0072 99.659C25.8473 99.7124 25.6874 99.7124 25.5275 99.7124ZM32.0293 95.1776C29.5778 95.1776 26.2203 95.4443 25.2078 95.6577C24.3018 95.8178 23.7155 96.7247 23.8754 97.6317C24.0353 98.5387 24.9413 99.1255 25.8473 98.9655C27.3928 98.6454 34.1078 96.4046 34.694 95.4977C34.4275 95.2843 33.3617 95.1776 32.0293 95.1776Z" fill="#98B2B9"/>
<path d="M61.1278 91.7632C57.7703 91.7632 57.6637 91.2297 57.6104 90.9096C57.5571 90.5361 57.3972 89.8959 61.9272 88.242C64.1122 87.4418 66.5104 86.6949 67.0433 86.5882C67.6828 86.4815 68.3224 86.5882 68.8553 86.9616C69.3882 87.3351 69.7613 87.8686 69.8679 88.5088C69.9744 89.149 69.8679 89.7892 69.4948 90.3227C69.1218 90.8562 68.5888 91.2297 67.9493 91.3364C67.4164 91.4431 64.9116 91.7098 62.5667 91.8165C62.087 91.7632 61.5541 91.7632 61.1278 91.7632ZM58.3565 90.7495C59.2625 91.3364 66.2972 90.8562 67.8427 90.5895C68.2691 90.4828 68.6421 90.2694 68.9086 89.8959C69.1751 89.5225 69.2283 89.0956 69.1751 88.6155C69.0685 88.1887 68.8553 87.8152 68.4822 87.5485C68.1092 87.2817 67.6828 87.2284 67.2032 87.2817C65.6577 87.6018 58.9427 89.8426 58.3565 90.7495Z" fill="#98B2B9"/>
<path d="M26.753 103.714C26.4332 103.714 26.1135 103.66 25.847 103.554C25.2608 103.287 24.7811 102.86 24.568 102.273C24.0883 101.046 24.6213 99.6589 25.847 99.1254C26.3799 98.912 28.7249 98.1651 31.0165 97.6316C35.7063 96.5113 35.9728 97.1515 36.0794 97.4716C36.2392 97.7917 36.4524 98.4319 32.3488 100.939C30.3237 102.166 28.1386 103.34 27.6057 103.554C27.3925 103.66 27.0728 103.714 26.753 103.714ZM34.9602 97.685C33.0949 97.685 27.4458 99.2321 26.1668 99.7656C25.3141 100.139 24.8877 101.099 25.2608 101.953C25.4207 102.38 25.7404 102.7 26.1668 102.86C26.5931 103.02 27.0195 103.02 27.4458 102.86C28.938 102.273 35.0668 98.752 35.4398 97.7383C35.3332 97.685 35.1734 97.685 34.9602 97.685Z" fill="#98B2B9"/>
<path d="M58.2492 89.2556C57.5564 89.2556 57.0768 89.1489 56.9702 88.8288C56.3307 87.2283 65.284 82.8002 65.3905 82.7468C65.9768 82.4801 66.6163 82.4801 67.2025 82.7468C67.7887 83.0136 68.2684 83.4404 68.4816 84.0272C68.748 84.6141 68.748 85.2543 68.4816 85.8411C68.2151 86.428 67.7887 86.9082 67.2025 87.1216C67.1492 87.1749 61.0205 89.2556 58.2492 89.2556ZM57.663 88.5087C58.6756 88.9355 65.4971 87.0682 66.936 86.4814C67.3624 86.3213 67.6822 86.0012 67.842 85.5744C68.0019 85.1476 68.0019 84.7208 67.842 84.294C67.6822 83.8672 67.3624 83.5471 66.936 83.387C66.5097 83.227 66.0834 83.227 65.657 83.387C64.2181 83.9739 58.0893 87.495 57.663 88.5087Z" fill="#98B2B9"/>
<path d="M28.7252 107.448C28.5653 107.448 28.4055 107.448 28.2456 107.395C27.6061 107.288 27.0731 106.915 26.7001 106.381C25.954 105.261 26.2737 103.767 27.3396 103.073C27.4462 103.02 36.133 98.0051 37.0923 99.4455C38.0516 100.886 30.1109 107.021 30.0043 107.075C29.6845 107.288 29.2049 107.448 28.7252 107.448ZM27.8193 103.66C27.0731 104.194 26.86 105.207 27.3396 106.008C27.6061 106.381 27.9791 106.648 28.4055 106.701C28.8318 106.808 29.3115 106.701 29.6845 106.434C31.0169 105.528 36.3462 100.886 36.5594 99.819C35.4402 99.6056 29.1516 102.753 27.8193 103.66Z" fill="#98B2B9"/>
<path d="M56.5978 87.1749C56.1182 87.1749 56.0116 87.0149 55.9583 86.8548C54.999 85.4143 62.9397 79.279 63.0463 79.2257C63.5793 78.8522 64.2188 78.7455 64.8583 78.8522C65.4978 78.9589 66.0308 79.3324 66.4038 79.8659C66.7769 80.3994 66.8835 81.0396 66.7769 81.6798C66.6703 82.32 66.2973 82.8535 65.7643 83.227C65.2847 83.5471 63.0996 84.7208 60.9679 85.6811C58.4098 86.8548 57.1841 87.1749 56.5978 87.1749ZM56.5445 86.428C57.6104 86.6414 63.9523 83.4937 65.2314 82.6401C65.6044 82.3733 65.8709 81.9999 65.9242 81.5731C66.0308 81.1463 65.9242 80.6661 65.6577 80.2927C65.3913 79.9192 65.0182 79.6525 64.5919 79.5991C64.1655 79.4924 63.6859 79.5991 63.3128 79.8659C62.0871 80.7195 56.7577 85.361 56.5445 86.428Z" fill="#98B2B9"/>
<path d="M31.3899 110.703C30.7504 110.703 30.1642 110.436 29.6845 110.009C29.2049 109.529 28.9917 108.942 28.9917 108.302C28.9917 107.662 29.2582 107.075 29.6845 106.595C29.7378 106.541 37.3055 99.9258 38.5312 101.153C39.757 102.38 33.1486 109.956 33.0953 110.009C32.669 110.436 32.0294 110.703 31.3899 110.703ZM37.9983 101.633C36.9324 101.633 31.3366 105.954 30.2175 107.075C29.5779 107.715 29.5779 108.782 30.2175 109.422C30.857 110.062 31.9228 110.062 32.5624 109.422C33.7348 108.355 38.0516 102.753 37.9983 101.633Z" fill="#98B2B9"/>
<path d="M54.9454 85.3077C54.7855 85.3077 54.6256 85.2544 54.519 85.1477C54.2525 84.8809 53.7729 84.4008 56.5975 80.5062C57.9831 78.5855 59.5819 76.6649 59.955 76.2915C60.3813 75.8647 61.0208 75.5979 61.6603 75.5979C62.2999 75.5979 62.8861 75.8647 63.3657 76.2915C63.8454 76.7716 64.0585 77.3585 64.0585 77.9987C64.0585 78.6389 63.7921 79.2257 63.3657 79.7059C63.3124 79.7593 56.9705 85.3077 54.9454 85.3077ZM55.052 84.6142C56.1711 84.6142 61.7136 80.2928 62.8328 79.1724C63.4723 78.5322 63.4723 77.4652 62.8328 76.825C62.1933 76.1848 61.1274 76.1848 60.4879 76.825C59.3687 77.892 55.052 83.4938 55.052 84.6142Z" fill="#98B2B9"/>
<path d="M34.6406 113.37C34.161 113.37 33.7346 113.21 33.3083 112.943C32.1891 112.196 31.9226 110.703 32.6687 109.636C32.722 109.529 38.8508 101.58 40.2897 102.54C41.7286 103.5 36.719 112.196 36.6657 112.303C36.2927 112.837 35.7598 113.21 35.1202 113.317C34.9604 113.317 34.8005 113.37 34.6406 113.37ZM33.255 110.009C32.722 110.756 32.9352 111.823 33.7346 112.356C34.1077 112.623 34.534 112.677 35.0137 112.623C35.44 112.517 35.8131 112.303 36.0795 111.93C36.9855 110.596 40.1298 104.247 39.8633 103.234C38.7975 103.34 34.161 108.675 33.255 110.009Z" fill="#98B2B9"/>
<path d="M53.1868 83.8673C53.0269 83.8673 52.9203 83.8139 52.867 83.7606C51.4281 82.8002 56.4377 74.1041 56.491 73.9974C57.2371 72.877 58.7293 72.6103 59.7952 73.3572C60.3281 73.7306 60.7011 74.2641 60.8077 74.9043C60.9143 75.5445 60.8077 76.1848 60.4347 76.7183C60.1149 77.1984 58.5694 79.119 56.9706 80.8263C54.5724 83.3337 53.6131 83.8673 53.1868 83.8673ZM58.4628 73.6239C57.9299 73.6239 57.3969 73.8907 57.0772 74.3708C56.1712 75.7046 53.0269 82.0533 53.2934 83.067C54.3592 82.8536 58.9958 77.5185 59.9018 76.1848C60.1682 75.8113 60.2215 75.3845 60.1682 74.9043C60.0616 74.4775 59.8484 74.1041 59.4754 73.8373C59.1023 73.7306 58.7826 73.6239 58.4628 73.6239Z" fill="#98B2B9"/>
<path d="M38.3712 115.344C38.0515 115.344 37.7317 115.291 37.4652 115.184C36.879 114.917 36.3994 114.491 36.1862 113.904C35.9197 113.317 35.9197 112.677 36.1862 112.09C36.3994 111.556 37.5718 109.369 38.7976 107.342C41.3023 103.234 41.9419 103.5 42.2616 103.607C42.5814 103.767 43.2209 103.98 42.1017 108.675C41.5688 110.969 40.8227 113.317 40.6095 113.85C40.1832 114.757 39.2772 115.344 38.3712 115.344ZM41.9419 104.247C40.9293 104.674 37.4119 110.809 36.8257 112.25C36.6658 112.677 36.6658 113.103 36.8257 113.53C36.9856 113.957 37.3053 114.277 37.7317 114.437C38.5844 114.811 39.5437 114.384 39.9167 113.53C40.5029 112.09 42.3682 105.261 41.9419 104.247Z" fill="#98B2B9"/>
<path d="M51.0549 82.6935C51.0016 82.6935 50.9483 82.6935 50.895 82.6402C49.2962 82 52.4938 72.4502 52.5471 72.3435C52.8136 71.7567 53.2399 71.2765 53.8261 71.0631C54.4124 70.7963 55.0519 70.7963 55.6381 71.0631C56.2243 71.3299 56.704 71.7567 56.9171 72.3435C57.1836 72.9304 57.1836 73.5706 56.9171 74.1574C56.9171 74.3175 52.7603 82.6935 51.0549 82.6935ZM54.7321 71.65C54.519 71.65 54.3058 71.7033 54.0926 71.7567C53.6663 71.9167 53.3465 72.2368 53.1866 72.6636C52.6004 74.1574 50.7351 80.9863 51.1615 81.9466C52.174 81.5198 55.6914 75.3845 56.2776 73.944C56.4375 73.5172 56.4375 73.0904 56.2776 72.6636C56.1177 72.2368 55.798 71.9167 55.3717 71.7567C55.1585 71.7033 54.9453 71.65 54.7321 71.65Z" fill="#98B2B9"/>
<path d="M42.3683 116.518C42.2085 116.518 42.0486 116.518 41.8887 116.464C40.6097 116.198 39.757 114.917 40.0234 113.637C40.0234 113.53 42.6881 103.874 44.3402 104.194C46.0456 104.514 44.7132 114.49 44.7132 114.597C44.5001 115.771 43.4875 116.518 42.3683 116.518ZM40.7162 113.797C40.5564 114.704 41.1426 115.611 42.0486 115.771C42.9546 115.931 43.8606 115.344 44.0204 114.437C44.3402 112.89 44.8198 105.794 44.1803 104.941C43.2743 105.528 41.036 112.25 40.7162 113.797Z" fill="#98B2B9"/>
<path d="M48.9235 82.0533C48.8702 82.0533 48.8169 82.0533 48.7636 82.0533C48.3906 81.9999 47.751 81.8399 47.9109 77.0383C48.0175 74.6909 48.2307 72.2368 48.3906 71.6499C48.4971 71.0097 48.8702 70.4762 49.4031 70.1027C49.9361 69.7293 50.5756 69.6226 51.2151 69.7293C51.8546 69.836 52.3876 70.2094 52.7606 70.7429C53.1337 71.2765 53.2403 71.9167 53.1337 72.5569C53.0271 73.0904 52.3343 75.4912 51.4816 77.6785C49.9894 81.6265 49.2965 82.0533 48.9235 82.0533ZM50.7355 70.4228C50.4157 70.4228 50.0959 70.5295 49.8295 70.6896C49.4564 70.9563 49.19 71.3298 49.1367 71.7566C48.8169 73.3038 48.3373 80.3994 48.9768 81.253C49.8828 80.6662 52.1211 73.944 52.4409 72.3968C52.5474 71.97 52.4409 71.4899 52.1744 71.1164C51.9079 70.7429 51.5349 70.4762 51.1085 70.4228C50.9486 70.4228 50.8421 70.4228 50.7355 70.4228Z" fill="#98B2B9"/>
<path d="M46.5249 130.122C45.086 130.122 43.9136 128.949 43.9136 127.508C43.9136 127.401 44.713 116.251 46.5249 116.251C48.3902 116.251 49.1363 127.401 49.1363 127.508C49.1896 128.949 48.0172 130.122 46.5249 130.122ZM46.5249 116.998C45.6723 117.638 44.6064 125.534 44.6064 127.508C44.6064 128.575 45.4591 129.429 46.5249 129.429C47.5908 129.429 48.4435 128.575 48.4435 127.508C48.4435 125.534 47.3776 117.638 46.5249 116.998Z" fill="#98B2B9"/>
<path d="M46.5249 69.996C44.6597 69.996 43.9136 58.8458 43.9136 58.7391C43.9136 57.2986 45.086 56.1249 46.5249 56.1249C47.9639 56.1249 49.1363 57.2986 49.1363 58.7391C49.1896 58.8991 48.3902 69.996 46.5249 69.996ZM46.5249 56.8718C45.4591 56.8718 44.6064 57.7254 44.6064 58.7924C44.6064 60.713 45.6723 68.6623 46.5249 69.3025C47.3776 68.6623 48.4435 60.7664 48.4435 58.7924C48.4435 57.7254 47.5908 56.8718 46.5249 56.8718Z" fill="#98B2B9"/>
<path d="M51.428 129.749C50.1489 129.749 49.0298 128.788 48.8166 127.508C48.8166 127.401 47.9639 116.251 49.8292 115.984C51.6944 115.718 54.0393 126.601 54.0393 126.761C54.2525 128.202 53.2399 129.535 51.801 129.749C51.6944 129.749 51.5345 129.749 51.428 129.749ZM49.5627 127.401C49.7226 128.468 50.6819 129.162 51.7477 129.002C52.8136 128.842 53.5064 127.882 53.3465 126.815C53.08 124.894 50.895 117.211 49.989 116.678C49.1896 117.478 49.2429 125.481 49.5627 127.401Z" fill="#98B2B9"/>
<path d="M43.114 70.2628C42.6877 70.2628 41.9949 69.836 40.5559 65.3012C39.7565 62.7937 39.117 60.1262 39.0637 59.486C38.9571 58.7924 39.117 58.0989 39.5434 57.512C39.9697 56.9252 40.5559 56.6051 41.2487 56.4984C42.6877 56.285 44.02 57.2986 44.2332 58.7391C44.3398 59.3793 44.4463 62.1002 44.3931 64.7677C44.2865 70.1028 43.5937 70.2095 43.2206 70.2628C43.2206 70.2628 43.1673 70.2628 43.114 70.2628ZM41.6751 57.1919C41.5685 57.1919 41.5152 57.1919 41.4086 57.1919C40.929 57.2453 40.4493 57.512 40.1296 57.9388C39.8098 58.3656 39.7032 58.8458 39.7565 59.3793C40.023 61.2999 42.208 68.9824 43.114 69.5159C43.8601 68.769 43.8068 60.7664 43.4871 58.8458C43.4338 57.8855 42.5811 57.1919 41.6751 57.1919Z" fill="#98B2B9"/>
<path d="M56.2245 128.735C55.1054 128.735 54.0395 127.988 53.7198 126.868C53.6665 126.761 51.3215 115.878 53.0802 115.344C54.8389 114.811 58.7293 125.267 58.7826 125.374C59.209 126.761 58.4096 128.255 57.0239 128.628C56.7042 128.682 56.4377 128.735 56.2245 128.735ZM53.2401 115.984C52.6539 116.838 53.8263 124.734 54.3593 126.601C54.679 127.615 55.6916 128.202 56.7042 127.881C57.7168 127.561 58.303 126.548 57.9832 125.534C57.5569 123.987 54.2527 116.411 53.2401 115.984Z" fill="#98B2B9"/>
<path d="M39.8101 71.0098C39.3838 71.0098 38.5843 70.4763 36.6658 66.475C35.5466 64.1275 34.534 61.5667 34.3209 60.9265C34.1077 60.2329 34.2143 59.5394 34.534 58.8992C34.8538 58.259 35.44 57.8321 36.0796 57.6187C37.4652 57.1919 38.9574 57.9922 39.3304 59.3793C39.3837 59.486 41.7287 70.3695 39.97 70.9031C39.97 70.9564 39.9167 71.0098 39.8101 71.0098ZM36.879 58.259C36.7191 58.259 36.5059 58.259 36.346 58.3123C35.8664 58.4724 35.44 58.7925 35.2269 59.2193C34.9604 59.6461 34.9071 60.1796 35.067 60.6597C35.5999 62.527 38.8508 69.7827 39.8634 70.2095C40.4496 69.3559 39.2772 61.46 38.7442 59.5927C38.4778 58.7925 37.6784 58.259 36.879 58.259Z" fill="#98B2B9"/>
<path d="M60.8078 127.028C60.488 127.028 60.1683 126.975 59.9018 126.868C59.2623 126.601 58.7293 126.121 58.4096 125.481C58.1431 124.894 57.2371 122.28 56.5443 119.772C55.1054 114.597 55.7982 114.33 56.118 114.17C57.8234 113.423 63.1527 123.187 63.1527 123.293C63.7389 124.627 63.1527 126.174 61.8736 126.761C61.5539 126.921 61.1808 127.028 60.8078 127.028ZM56.4377 114.811C55.9581 115.771 58.2497 123.4 59.0491 125.161C59.2623 125.641 59.6353 125.961 60.115 126.174C60.5946 126.334 61.1276 126.334 61.5539 126.121C62.5132 125.694 62.9395 124.574 62.5132 123.613C61.7138 121.8 57.4503 115.077 56.4377 114.811Z" fill="#98B2B9"/>
<path d="M36.6657 72.1834C36.186 72.1834 35.3334 71.6499 32.9884 68.1287C31.5495 65.9414 30.1639 63.5406 29.8974 62.9537C29.631 62.3135 29.5777 61.62 29.8441 60.9264C30.1106 60.2862 30.5902 59.7527 31.2298 59.4326C31.8693 59.1658 32.5621 59.1125 33.2549 59.3792C33.8944 59.646 34.4274 60.1261 34.7471 60.7664C34.8004 60.8731 38.6908 71.3298 37.0387 72.0767C36.8789 72.13 36.7723 72.1834 36.6657 72.1834ZM32.2956 59.9661C32.0292 59.9661 31.7627 60.0194 31.4962 60.1261C31.0166 60.3395 30.6968 60.713 30.4837 61.1932C30.3238 61.6733 30.3238 62.2068 30.5369 62.6336C31.3363 64.3942 35.5998 71.1164 36.6124 71.3831C37.092 70.4228 34.8004 62.7937 34.001 61.0331C33.7878 60.5529 33.4148 60.2328 32.9351 60.0194C32.722 60.0194 32.5088 59.9661 32.2956 59.9661Z" fill="#98B2B9"/>
<path d="M65.1245 124.68C64.9114 124.68 64.7515 124.681 64.5383 124.627C63.8455 124.467 63.2593 124.094 62.8862 123.453C62.8329 123.347 57.4503 113.584 59.0491 112.57C60.5946 111.556 67.2563 120.519 67.3096 120.626C67.6826 121.213 67.8425 121.906 67.6826 122.6C67.5227 123.293 67.1497 123.88 66.5101 124.254C66.0838 124.52 65.6042 124.68 65.1245 124.68ZM59.4221 113.21C59.1024 114.224 62.4598 121.426 63.4724 123.08C63.7389 123.507 64.1652 123.827 64.6449 123.934C65.1245 124.04 65.6575 123.934 66.0838 123.667C66.5102 123.4 66.8299 122.973 66.9365 122.493C67.0431 122.013 66.9365 121.479 66.67 121.053C65.6574 119.345 60.488 113.317 59.4221 113.21Z" fill="#98B2B9"/>
<path d="M33.788 73.7839C31.8162 73.7839 25.8473 65.7813 25.794 65.6746C24.9946 64.4476 25.3677 62.7937 26.5934 62.0468C27.8192 61.2465 29.4713 61.62 30.2174 62.847C30.5371 63.3806 31.8162 65.8347 32.882 68.2355C35.0138 73.1437 34.4275 73.5172 34.0545 73.7306C34.0012 73.7306 33.8946 73.7839 33.788 73.7839ZM27.979 62.3135C27.606 62.3135 27.2862 62.4202 26.9665 62.6336C26.0605 63.2205 25.8473 64.3942 26.3802 65.2478C27.4461 66.9017 32.6156 72.9303 33.6814 73.037C34.0012 72.0234 30.6437 64.821 29.6311 63.1671C29.2581 62.6336 28.6186 62.3135 27.979 62.3135Z" fill="#98B2B9"/>
<path d="M69.0146 121.693C68.9613 121.693 68.908 121.693 68.8014 121.693C68.1086 121.64 67.4691 121.319 66.9895 120.786C66.5631 120.306 64.9643 118.065 63.5787 115.824C60.7541 111.289 61.3404 110.809 61.6068 110.543C61.9266 110.276 62.4596 109.796 66.5631 113.263C68.5883 114.971 70.5601 116.838 70.9865 117.318C71.9458 118.438 71.8392 120.092 70.72 121.053C70.2404 121.479 69.6542 121.693 69.0146 121.693ZM62.1398 111.129C61.9266 112.143 66.2967 118.865 67.5757 120.306C68.2685 121.106 69.4943 121.213 70.2404 120.519C71.0398 119.826 71.1464 118.599 70.4536 117.852C69.1745 116.358 63.2589 111.129 62.1398 111.129Z" fill="#98B2B9"/>
<path d="M30.9635 75.8646C30.4306 75.8646 29.3114 75.3845 26.4869 72.9837C24.4617 71.2765 22.4899 69.4092 22.0635 68.929C21.5839 68.3955 21.3707 67.702 21.424 67.0084C21.4773 66.3148 21.7971 65.6746 22.33 65.1945C22.8629 64.7143 23.5557 64.5009 24.2486 64.5543C24.9414 64.6076 25.5809 64.9277 26.0605 65.4612C26.4869 65.9414 28.0857 68.1821 29.4713 70.4228C32.2959 74.9576 31.7096 75.4378 31.4432 75.7046C31.3366 75.7579 31.23 75.8646 30.9635 75.8646ZM24.0887 65.2478C23.609 65.2478 23.1827 65.4079 22.8629 65.728C22.4899 66.0481 22.2234 66.5282 22.2234 67.0084C22.1701 67.5419 22.33 68.0221 22.703 68.3955C23.9821 69.8893 29.951 75.1177 31.0168 75.0643C31.23 74.0507 26.8599 67.3285 25.5809 65.888C25.2611 65.5146 24.7815 65.2478 24.3019 65.2478C24.142 65.2478 24.142 65.2478 24.0887 65.2478Z" fill="#98B2B9"/>
<path d="M72.4787 118.225C71.8925 118.225 71.253 118.012 70.7733 117.585C70.2937 117.158 68.3752 115.184 66.7231 113.157C63.3123 109.049 63.7919 108.515 64.0051 108.195C65.2308 106.808 74.1308 113.477 74.2374 113.584C75.3566 114.544 75.4632 116.198 74.5039 117.318C73.9177 117.958 73.2249 118.225 72.4787 118.225ZM64.538 108.729C64.4847 109.796 69.7608 115.771 71.1997 117.051C71.9991 117.745 73.2248 117.638 73.8644 116.838C74.1841 116.464 74.344 115.984 74.344 115.451C74.2907 114.917 74.0775 114.491 73.7045 114.17C72.2656 112.89 65.6039 108.569 64.538 108.729Z" fill="#98B2B9"/>
<path d="M28.565 78.2654C27.9788 78.2654 26.753 77.8386 23.8752 76.0247C21.6368 74.6376 19.3985 73.0371 18.9189 72.6103C18.3859 72.1301 18.0662 71.4899 18.0129 70.7963C17.9596 70.1028 18.1728 69.4092 18.6524 68.8757C19.6117 67.7554 21.2638 67.6487 22.3829 68.609C22.8626 69.0358 24.7811 71.0097 26.4332 73.0371C29.844 77.1451 29.3644 77.6786 29.1512 77.9987C28.9913 78.1054 28.8847 78.2654 28.565 78.2654ZM20.6243 68.7157C20.0913 68.7157 19.5584 68.9291 19.1853 69.3559C18.8656 69.7293 18.7057 70.2095 18.7057 70.743C18.759 71.2765 18.9722 71.7033 19.3452 72.0234C20.8374 73.3038 27.4991 77.6252 28.5117 77.4652C28.565 76.3982 23.2889 70.4229 21.85 69.1425C21.477 68.8757 21.0506 68.7157 20.6243 68.7157Z" fill="#98B2B9"/>
<path d="M75.4101 114.33C74.9305 114.33 74.3975 114.17 73.9712 113.904C73.8646 113.85 64.9646 107.181 65.9239 105.634C66.9365 104.087 76.6891 109.422 76.7957 109.476C78.0215 110.276 78.3945 111.876 77.5951 113.103C77.2221 113.69 76.6358 114.117 75.943 114.277C75.7832 114.33 75.57 114.33 75.4101 114.33ZM74.3975 113.317C74.8239 113.584 75.3568 113.69 75.8364 113.584C76.3161 113.477 76.7424 113.157 77.0089 112.73C77.5951 111.823 77.3287 110.649 76.4227 110.116C74.7706 109.049 67.576 105.688 66.5634 106.061C66.67 107.075 72.7454 112.25 74.3975 113.317Z" fill="#98B2B9"/>
<path d="M26.38 80.9863C25.6871 80.9863 24.4081 80.6662 21.6369 79.4392C19.2386 78.3722 16.7871 77.0917 16.2542 76.7716C15.668 76.3982 15.2416 75.8113 15.0818 75.1178C14.9219 74.4242 15.0818 73.7307 15.4548 73.1438C16.2542 71.9167 17.853 71.5433 19.0788 72.3435C19.6117 72.6636 21.7967 74.3709 23.7153 76.1314C27.7123 79.7059 27.2859 80.2928 27.0728 80.6129C27.0195 80.7729 26.9129 80.9863 26.38 80.9863ZM17.6931 72.6636C17.0536 72.6636 16.4674 72.9837 16.0943 73.5173C15.8279 73.9441 15.7213 74.4776 15.8279 74.9577C15.9345 75.4379 16.2542 75.8647 16.6806 76.1848C18.3327 77.2518 25.5273 80.6129 26.5398 80.2394C26.4333 79.1724 20.4111 73.9974 18.759 72.9304C18.386 72.7703 18.0129 72.6636 17.6931 72.6636Z" fill="#98B2B9"/>
<path d="M77.7552 110.009C77.3821 110.009 77.0091 109.956 76.6893 109.796C76.5827 109.742 66.7767 104.407 67.5761 102.753C68.3222 101.046 78.7678 104.994 78.8743 105.047C79.5139 105.314 79.9935 105.848 80.26 106.541C80.5264 107.182 80.4731 107.928 80.2067 108.569C79.727 109.476 78.7678 110.009 77.7552 110.009ZM76.9558 109.156C77.9151 109.582 79.0342 109.155 79.4606 108.195C79.6737 107.715 79.6737 107.235 79.5139 106.755C79.354 106.275 78.9809 105.901 78.5013 105.688C76.7426 104.887 69.1217 102.593 68.1624 103.074C68.4821 104.034 75.1971 108.302 76.9558 109.156Z" fill="#98B2B9"/>
<path d="M24.4618 83.9739C23.7157 83.9739 22.33 83.7605 19.9318 83.1203C17.4271 82.4268 14.8157 81.5198 14.2295 81.2531C12.8971 80.6662 12.3109 79.0657 12.9504 77.7853C13.2169 77.1451 13.7498 76.6649 14.4426 76.3982C15.0822 76.1314 15.8283 76.1848 16.4678 76.4515C17.054 76.7183 19.4522 78.1054 21.6372 79.5458C26.0606 82.4801 25.7941 83.1737 25.6342 83.5471C25.4744 83.7072 25.3145 83.9739 24.4618 83.9739ZM15.3486 76.9317C15.1354 76.9317 14.9223 76.985 14.6558 77.0384C14.1762 77.1984 13.8031 77.5719 13.5899 78.052C13.1636 79.0123 13.5899 80.1327 14.5492 80.5595C16.3079 81.3598 23.9289 83.6538 24.8881 83.1737C24.6217 82.16 17.9067 77.892 16.148 77.0917C15.8815 76.985 15.6151 76.9317 15.3486 76.9317Z" fill="#98B2B9"/>
<path d="M79.4603 105.421C79.1938 105.421 78.9806 105.368 78.7142 105.314C78.6076 105.261 68.1621 101.42 68.695 99.6057C69.2279 97.8451 80.0998 100.193 80.2064 100.246C81.592 100.673 82.3914 102.113 81.9651 103.5C81.7519 104.194 81.3256 104.727 80.686 105.047C80.313 105.314 79.8866 105.421 79.4603 105.421ZM78.9273 104.621C79.407 104.781 79.9399 104.727 80.3663 104.461C80.7926 104.194 81.1124 103.82 81.2722 103.34C81.592 102.327 81.0058 101.26 79.9932 100.993C78.1279 100.459 70.2405 99.2323 69.3878 99.8725C69.8142 100.833 77.0621 104.087 78.9273 104.621Z" fill="#98B2B9"/>
<path d="M22.3299 87.2817C21.5305 87.2817 20.4113 87.2283 18.8125 87.0149C16.2011 86.6948 13.4832 86.1613 12.897 86.0013C11.5113 85.5745 10.7119 84.134 11.1383 82.7469C11.5646 81.3598 13.0035 80.5595 14.3892 80.9863C14.9754 81.1464 17.5335 82.16 19.9317 83.3337C24.7281 85.6278 24.5682 86.3214 24.4083 86.6948C24.3017 86.8549 24.1952 87.2817 22.3299 87.2817ZM13.6431 81.5198C12.8437 81.5198 12.0443 82.0533 11.8311 82.9069C11.5113 83.9206 12.0976 84.9876 13.1101 85.2544C14.9754 85.7879 22.8628 87.0149 23.7155 86.3747C23.3425 85.4144 16.0413 82.1067 14.176 81.5732C13.9628 81.5732 13.803 81.5198 13.6431 81.5198Z" fill="#98B2B9"/>
<path d="M80.5262 100.673C80.4196 100.673 80.2597 100.673 80.1531 100.619C80.0465 100.619 69.1747 98.2719 69.3879 96.4046C69.6543 94.5907 80.7926 95.3909 80.8992 95.3909C82.3381 95.6043 83.3507 96.9381 83.1376 98.3786C82.9244 99.7123 81.8052 100.673 80.5262 100.673ZM70.1339 96.5113C70.6669 97.4182 78.3411 99.6056 80.2597 99.8724C81.3256 100.032 82.2849 99.2855 82.4447 98.2719C82.6046 97.2048 81.8585 96.2445 80.8459 96.0845C78.8741 95.8711 70.8801 95.8177 70.1339 96.5113Z" fill="#98B2B9"/>
<path d="M17.2139 91.0163C14.9223 91.0163 12.7905 90.9095 12.2043 90.8028C11.5115 90.6961 10.872 90.3227 10.4989 89.7892C10.0726 89.2023 9.91269 88.5088 10.0193 87.8152C10.1259 87.1217 10.4989 86.4814 11.0319 86.108C11.6181 85.6812 12.3109 85.5211 13.0037 85.6278C13.1103 85.6278 23.9822 87.9753 23.769 89.8425C23.7157 90.216 23.6091 90.9629 18.2798 91.0163C17.8534 91.0163 17.5337 91.0163 17.2139 91.0163ZM12.5774 86.3214C12.151 86.3214 11.778 86.4281 11.4582 86.6948C11.0319 87.015 10.7654 87.4418 10.7121 87.9753C10.6588 88.4554 10.7654 88.9889 11.0851 89.4157C11.4049 89.8425 11.8313 90.1093 12.3642 90.1626C14.2828 90.4294 22.2768 90.4827 23.0229 89.7892C22.49 88.8822 14.8157 86.6948 12.8971 86.4281C12.7373 86.3214 12.684 86.3214 12.5774 86.3214Z" fill="#98B2B9"/>
<path d="M80.846 95.7644C80.7394 95.7644 69.6011 94.9641 69.6011 93.1502C69.6011 91.3363 80.7394 90.536 80.846 90.536C82.2849 90.536 83.4574 91.7097 83.4574 93.1502C83.5107 94.5907 82.2849 95.7644 80.846 95.7644ZM70.3472 93.1502C70.9867 94.0038 78.8741 95.0708 80.846 95.0708C81.9119 95.0708 82.7646 94.2172 82.7646 93.1502C82.7646 92.0832 81.9119 91.2296 80.846 91.2296C78.9274 91.2296 71.04 92.2966 70.3472 93.1502Z" fill="#98B2B9"/>
<path d="M12.2574 95.7644C10.8184 95.7644 9.646 94.5907 9.646 93.1502C9.646 91.7097 10.8184 90.536 12.2574 90.536C12.364 90.536 23.5023 91.3363 23.5023 93.1502C23.5023 94.9641 12.364 95.7644 12.2574 95.7644ZM12.2574 91.2296C11.1915 91.2296 10.3388 92.0832 10.3388 93.1502C10.3388 94.2172 11.1915 95.0708 12.2574 95.0708C14.1759 95.0708 22.1167 94.0038 22.7562 93.1502C22.0634 92.2966 14.1759 91.2296 12.2574 91.2296Z" fill="#98B2B9"/>
<path d="M75.6767 91.0162C72.6923 91.0162 69.548 90.8028 69.3881 89.8424C69.1217 88.0285 79.9935 85.6278 80.1534 85.6278C81.5923 85.4143 82.9246 86.428 83.1378 87.8685C83.351 89.3089 82.3384 90.6427 80.8995 90.8561C80.8462 90.8561 78.3414 91.0162 75.6767 91.0162ZM70.1342 89.7357C70.8803 90.4827 78.8743 90.4293 80.7929 90.1092C81.8588 89.9492 82.5516 88.9888 82.3917 87.9218C82.2318 86.8548 81.2725 86.1613 80.2067 86.3213C78.2881 86.6414 70.6671 88.8288 70.1342 89.7357Z" fill="#98B2B9"/>
<path d="M12.5774 100.673C11.9911 100.673 11.4582 100.513 11.0319 100.139C10.4456 99.7123 10.1259 99.1255 10.0193 98.4319C9.91269 97.7383 10.0726 97.0448 10.4989 96.4579C10.9253 95.8711 11.5115 95.551 12.2043 95.4443C12.8438 95.3376 15.5618 95.2309 18.2265 95.2842C23.5558 95.3909 23.6624 96.0845 23.7157 96.4579C23.769 96.8314 23.8756 97.5783 18.7594 99.1255C16.2546 99.9257 13.5899 100.566 12.9504 100.619C12.8438 100.619 12.684 100.673 12.5774 100.673ZM12.3109 96.1378C11.8313 96.1912 11.3516 96.4579 11.0319 96.8847C10.7121 97.3115 10.6055 97.7917 10.6588 98.3252C10.7121 98.8054 10.9786 99.2855 11.4049 99.6056C11.8313 99.9257 12.3109 100.032 12.8438 99.9791C14.7624 99.7123 22.4367 97.5249 22.9696 96.618C22.2235 95.8177 14.2295 95.8711 12.3109 96.1378Z" fill="#98B2B9"/>
<path d="M70.9866 87.2817C69.7609 87.2817 68.8549 87.1216 68.695 86.6414C68.1621 84.8809 78.6076 80.9863 78.7142 80.9329C79.407 80.7195 80.0998 80.8262 80.7393 81.1463C81.3788 81.4664 81.8052 82.0533 82.0184 82.6935C82.4447 84.0806 81.6453 85.5744 80.2597 85.9479C80.1531 86.0012 74.3441 87.2817 70.9866 87.2817ZM69.3878 86.428C70.2405 87.0149 78.1279 85.8412 79.9932 85.3077C81.0058 84.9876 81.592 83.9739 81.2722 82.9602C81.1124 82.4801 80.7926 82.0533 80.3662 81.8399C79.9399 81.5731 79.407 81.5198 78.9273 81.6798C77.0621 82.16 69.8142 85.4144 69.3878 86.428Z" fill="#98B2B9"/>
<path d="M13.6431 105.421C12.5239 105.421 11.458 104.674 11.1383 103.554C10.7119 102.167 11.5113 100.673 12.897 100.299C13.4832 100.139 16.2011 99.6057 18.8125 99.2856C24.0886 98.592 24.3017 99.2856 24.4083 99.659C24.5149 100.033 24.7281 100.726 19.9317 103.02C17.5868 104.141 15.0287 105.154 14.3892 105.368C14.1227 105.421 13.8562 105.421 13.6431 105.421ZM13.1101 100.993C12.0976 101.313 11.5113 102.327 11.8311 103.34C12.1509 104.354 13.2167 104.941 14.176 104.621C16.0413 104.087 23.2892 100.833 23.7155 99.8191C22.8095 99.2322 14.9754 100.406 13.1101 100.993Z" fill="#98B2B9"/>
<path d="M68.7484 83.9739C68.1089 83.9739 67.6825 83.8672 67.5227 83.5471C66.7765 81.8399 76.5292 76.5048 76.6358 76.5048C77.9682 75.918 79.5137 76.5048 80.0999 77.7852C80.3664 78.4255 80.4197 79.119 80.1532 79.8126C79.8867 80.4528 79.4071 80.9863 78.7676 81.3064C78.7676 81.3064 71.6795 83.9739 68.7484 83.9739ZM68.2155 83.227C69.1747 83.7072 76.7957 81.4131 78.5544 80.6128C79.034 80.3994 79.3538 80.026 79.567 79.5458C79.7268 79.0657 79.7268 78.5322 79.5137 78.1053C79.0873 77.145 77.9682 76.7182 77.0089 77.145C75.1969 77.9453 68.4819 82.2134 68.2155 83.227Z" fill="#98B2B9"/>
<path d="M15.3484 110.009C15.0286 110.009 14.7088 109.956 14.4424 109.849C13.8029 109.582 13.2699 109.102 12.9502 108.462C12.6837 107.822 12.6304 107.128 12.8969 106.435C13.1633 105.794 13.643 105.261 14.2825 104.941C14.8687 104.674 17.4801 103.767 19.9849 103.073C25.1544 101.633 25.4208 102.327 25.5807 102.647C25.7406 103.02 26.0603 103.66 21.5837 106.648C19.3987 108.088 17.0005 109.476 16.4142 109.742C16.0945 109.956 15.7214 110.009 15.3484 110.009ZM24.4615 102.967C22.5963 102.967 16.1478 104.941 14.549 105.634C14.0693 105.848 13.7496 106.221 13.5364 106.701C13.3765 107.181 13.3765 107.715 13.5897 108.142C13.8029 108.622 14.1759 108.942 14.6556 109.155C15.1352 109.315 15.6681 109.315 16.0945 109.102C17.8532 108.302 24.5681 104.034 24.8346 103.02C24.7813 102.967 24.6214 102.967 24.4615 102.967Z" fill="#98B2B9"/>
<path d="M66.7234 80.9329C66.3504 80.9329 66.0839 80.8262 65.9773 80.6662C64.9647 79.119 73.918 72.4502 74.0246 72.3968C74.6108 72.0233 75.3036 71.8633 75.9964 72.0233C76.6893 72.1834 77.2755 72.5569 77.6486 73.1971C78.448 74.4241 78.0749 76.0246 76.8492 76.8249C76.7426 76.8249 69.2815 80.9329 66.7234 80.9329ZM66.5635 80.2393C67.5761 80.6128 74.7707 77.1984 76.4228 76.1847C77.3288 75.5978 77.542 74.4241 77.009 73.5705C76.7426 73.1437 76.3162 72.8236 75.8366 72.7169C75.3569 72.6102 74.824 72.7169 74.3976 72.9837C72.7455 73.9973 66.6701 79.1723 66.5635 80.2393Z" fill="#98B2B9"/>
<path d="M17.6931 114.33C16.8404 114.33 15.9877 113.904 15.4548 113.103C15.0818 112.517 14.9219 111.823 15.0818 111.129C15.2416 110.436 15.6147 109.849 16.2542 109.476C16.7871 109.155 19.2386 107.875 21.6369 106.808C26.5398 104.674 26.9129 105.261 27.1261 105.634C27.3392 105.954 27.7123 106.595 23.7686 110.116C21.7967 111.876 19.665 113.584 19.1321 113.904C18.6524 114.17 18.1728 114.33 17.6931 114.33ZM26.3267 106.008C24.8345 106.008 18.2261 109.102 16.6806 110.116C16.2542 110.383 15.9345 110.809 15.8279 111.343C15.7213 111.823 15.8279 112.356 16.0943 112.783C16.6806 113.69 17.853 113.904 18.7057 113.37C20.3578 112.303 26.38 107.128 26.4866 106.061C26.4333 106.008 26.38 106.008 26.3267 106.008Z" fill="#98B2B9"/>
<path d="M64.5382 78.2654C64.2184 78.2654 64.0585 78.1054 64.0053 77.9987C63.7388 77.6786 63.2592 77.1451 66.7232 73.0371C68.4286 71.0097 70.2939 69.0358 70.7735 68.609C71.8927 67.6487 73.5448 67.7554 74.5041 68.8757C74.9837 69.4092 75.1969 70.1028 75.1436 70.7963C75.0903 71.4899 74.7705 72.1301 74.2376 72.6103C73.758 73.0371 71.5196 74.6376 69.2813 76.0247C66.3502 77.8386 65.1244 78.2654 64.5382 78.2654ZM64.5382 77.5185C65.5508 77.6786 72.2657 73.3572 73.7047 72.0768C74.0777 71.7567 74.3442 71.2765 74.3442 70.7963C74.3975 70.2628 74.2376 69.7827 73.8645 69.4092C73.1717 68.609 71.946 68.5023 71.1999 69.1958C69.7609 70.4762 64.4849 76.4515 64.5382 77.5185Z" fill="#98B2B9"/>
<path d="M20.6243 118.225C19.8782 118.225 19.1321 117.905 18.6525 117.318C17.6932 116.198 17.7998 114.544 18.9189 113.583C19.0255 113.53 27.9255 106.808 29.1513 108.195C29.4177 108.515 29.8974 109.049 26.4333 113.157C24.7279 115.184 22.8626 117.158 22.383 117.585C21.8501 118.065 21.2105 118.225 20.6243 118.225ZM28.4584 108.729C27.2327 108.729 20.7842 112.943 19.3453 114.17C18.9722 114.49 18.7058 114.971 18.7058 115.451C18.6525 115.984 18.8123 116.464 19.1854 116.838C19.8782 117.638 21.104 117.745 21.8501 117.051C23.3423 115.771 28.565 109.796 28.5117 108.729C28.5117 108.729 28.5117 108.729 28.4584 108.729Z" fill="#98B2B9"/>
<path d="M62.0865 75.8646C61.8733 75.8646 61.7134 75.7579 61.6601 75.7046C61.3404 75.4378 60.8075 74.9576 63.632 70.4228C65.0176 68.1821 66.6164 65.9414 67.0428 65.4612C67.5224 64.9277 68.1619 64.6076 68.8548 64.5543C69.5476 64.5009 70.2404 64.7143 70.7733 65.1945C71.8925 66.1548 71.9991 67.8087 71.0398 68.929C70.6134 69.4092 68.6416 71.3298 66.6164 72.9837C63.7386 75.3311 62.6194 75.8646 62.0865 75.8646ZM62.1398 75.1177C63.2589 75.1177 69.1745 69.8893 70.4536 68.4489C71.1464 67.6486 71.0398 66.4215 70.2404 65.7813C69.441 65.0878 68.2152 65.1945 67.5757 65.9947C66.2967 67.3819 61.9266 74.0507 62.1398 75.1177Z" fill="#98B2B9"/>
<path d="M24.0886 121.693C23.4491 121.693 22.8629 121.479 22.3832 121.053C21.8503 120.572 21.5305 119.932 21.4772 119.239C21.4239 118.545 21.6371 117.852 22.1168 117.318C22.1701 117.211 30.0575 109.315 31.4431 110.543C31.7629 110.809 32.2958 111.289 29.4712 115.824C28.0856 118.065 26.4868 120.306 26.0605 120.786C25.5808 121.319 24.9413 121.64 24.2485 121.693C24.1952 121.693 24.1419 121.693 24.0886 121.693ZM22.6497 117.852C22.3299 118.225 22.1701 118.705 22.1701 119.239C22.2233 119.772 22.4365 120.199 22.8096 120.519C23.1826 120.839 23.6623 120.999 24.1952 120.999C24.7281 120.946 25.1545 120.733 25.4742 120.359C26.7533 118.865 31.1233 112.196 30.9102 111.183C29.8443 111.129 23.8754 116.358 22.6497 117.852Z" fill="#98B2B9"/>
<path d="M59.3156 73.784C59.209 73.784 59.1024 73.784 59.0491 73.7306C57.5036 72.717 62.833 62.9538 62.8863 62.8471C63.2593 62.2602 63.8455 61.8334 64.5384 61.6734C65.2312 61.5133 65.924 61.6734 66.5102 62.0468C67.0965 62.4203 67.5228 63.0071 67.6827 63.7007C67.8426 64.3943 67.6827 65.0878 67.3096 65.6747C67.2563 65.728 61.2875 73.784 59.3156 73.784ZM65.0713 62.3136C64.9114 62.3136 64.8048 62.3136 64.645 62.3669C64.1653 62.4736 63.739 62.7937 63.4725 63.2205C62.4066 64.8744 59.0492 72.0768 59.4222 73.0904C60.4881 72.9837 65.6575 66.9017 66.7234 65.3012C66.9899 64.8744 67.0965 64.3409 66.9899 63.8607C66.8833 63.3806 66.5635 62.9538 66.1372 62.687C65.8174 62.4203 65.4443 62.3136 65.0713 62.3136Z" fill="#98B2B9"/>
<path d="M27.9791 124.68C27.4995 124.68 27.0198 124.52 26.5402 124.254C25.3144 123.453 24.9414 121.853 25.7408 120.626C25.7941 120.519 32.4558 111.61 34.0013 112.57C34.321 112.783 34.9606 113.157 32.8288 118.065C31.763 120.466 30.4839 122.92 30.1642 123.453C29.6845 124.2 28.8318 124.68 27.9791 124.68ZM26.3803 120.999C25.7941 121.906 26.0606 123.08 26.9665 123.613C27.8725 124.2 29.045 123.934 29.5779 123.027C30.6438 121.373 34.0013 114.17 33.6282 113.157C32.6156 113.317 27.4462 119.345 26.3803 120.999Z" fill="#98B2B9"/>
<path d="M56.3312 72.13C56.2779 72.13 56.1713 72.13 56.118 72.0767C55.745 71.9166 55.1054 71.5965 56.5444 66.4749C57.2372 63.9674 58.1432 61.3532 58.4096 60.7664C58.6761 60.1261 59.2091 59.646 59.9019 59.3792C60.5414 59.1125 61.2875 59.1658 61.927 59.4326C63.2594 60.0194 63.8456 61.62 63.206 62.9004C63.1528 63.0604 58.1965 72.13 56.3312 72.13ZM60.8078 59.9661C60.5947 59.9661 60.3815 60.0194 60.115 60.0728C59.6354 60.2328 59.2623 60.6063 59.0492 61.0865C58.2498 62.847 55.9582 70.4762 56.4378 71.4365C57.4504 71.1697 61.7138 64.4475 62.5132 62.687C62.9396 61.7267 62.5132 60.6063 61.554 60.1795C61.3408 60.0194 61.0743 59.9661 60.8078 59.9661Z" fill="#98B2B9"/>
<path d="M32.2956 127.028C31.9226 127.028 31.5495 126.921 31.2298 126.814C30.5902 126.548 30.1106 126.014 29.8441 125.321C29.5777 124.68 29.631 123.934 29.8974 123.293C30.1639 122.706 31.5495 120.306 32.9884 118.118C35.9196 113.69 36.6124 113.957 36.9854 114.117C38.6908 114.864 34.7471 125.321 34.6938 125.427C34.4274 126.068 33.8944 126.548 33.2016 126.814C32.9351 126.975 32.6154 127.028 32.2956 127.028ZM36.6657 114.811C35.6531 115.077 31.3896 121.8 30.5902 123.56C30.3771 124.04 30.3771 124.52 30.5369 125.001C30.6968 125.481 31.0699 125.854 31.5495 126.068C32.0292 126.281 32.5088 126.281 32.9884 126.121C33.4681 125.961 33.8411 125.587 34.0543 125.107C34.8537 123.4 37.1453 115.771 36.6657 114.811Z" fill="#98B2B9"/>
<path d="M53.1869 70.9564C53.1336 70.9564 53.0803 70.9564 53.027 70.9564C51.2683 70.4229 53.6132 59.5394 53.6665 59.4327C54.0929 58.0455 55.5318 57.2453 56.9174 57.6721C58.303 58.0989 59.1024 59.5394 58.6761 60.9265C58.7294 61.0332 54.9989 70.9564 53.1869 70.9564ZM56.2246 58.2589C55.4252 58.2589 54.6258 58.7925 54.4126 59.6461C53.8797 61.5133 52.6539 69.4092 53.2935 70.2628C54.306 69.836 57.6102 62.3136 58.0899 60.7131C58.4096 59.6994 57.8234 58.6324 56.8108 58.3656C56.5444 58.2589 56.3845 58.2589 56.2246 58.2589Z" fill="#98B2B9"/>
<path d="M36.8789 128.735C36.6124 128.735 36.3992 128.682 36.1328 128.628C35.44 128.415 34.907 127.988 34.5873 127.348C34.2675 126.708 34.1609 126.014 34.3741 125.321C34.534 124.734 35.5465 122.173 36.719 119.772C39.0106 114.971 39.7034 115.131 40.0765 115.291C41.8352 115.824 39.4903 126.708 39.437 126.815C39.0639 127.988 37.998 128.735 36.8789 128.735ZM39.81 115.984C38.8507 116.358 35.5466 123.667 35.0136 125.534C34.8537 126.014 34.907 126.548 35.1735 126.975C35.44 127.401 35.813 127.721 36.2927 127.882C37.3052 128.202 38.3711 127.615 38.6376 126.601C39.2771 124.734 40.4495 116.891 39.81 115.984Z" fill="#98B2B9"/>
<path d="M49.8826 70.2628H49.8293C48.0174 69.9961 48.8168 58.8458 48.8168 58.7391C49.0299 57.2986 50.3623 56.285 51.8012 56.4984C53.2401 56.7118 54.2527 58.0455 54.0395 59.486C54.0395 59.5927 51.6946 70.2628 49.8826 70.2628ZM51.4281 57.1919C50.4689 57.1919 49.6695 57.8855 49.5629 58.8458C49.2964 60.7664 49.2431 68.769 49.9359 69.5159C50.8419 68.9824 53.0269 61.2999 53.2934 59.3793C53.4533 58.3123 52.7072 57.352 51.6946 57.1919C51.588 57.2453 51.5347 57.1919 51.4281 57.1919Z" fill="#98B2B9"/>
<path d="M41.6755 129.749C41.5689 129.749 41.409 129.749 41.3025 129.695C40.6096 129.589 39.9701 129.215 39.5971 128.682C39.1707 128.095 39.0108 127.401 39.1174 126.708C39.224 126.068 39.8635 123.4 40.6097 120.893C42.2085 115.771 42.9013 115.878 43.2743 115.931C43.6474 115.984 44.3935 116.091 44.4468 121.426C44.5001 124.04 44.3402 126.815 44.2869 127.455C44.1803 128.148 43.8073 128.788 43.2743 129.162C42.7947 129.589 42.2085 129.749 41.6755 129.749ZM43.1677 116.731C42.2617 117.265 40.0767 124.947 39.8102 126.868C39.757 127.348 39.8635 127.882 40.1833 128.308C40.5031 128.735 40.9294 129.002 41.4623 129.055C41.942 129.109 42.4749 129.002 42.9013 128.682C43.3276 128.362 43.5941 127.935 43.6474 127.401C43.8072 125.481 43.8605 117.478 43.1677 116.731Z" fill="#98B2B9"/>
</g>
<path d="M45.5 415C42.4265 415 40 412.493 40 409.5C40 406.426 42.5074 404 45.5 404C48.5736 404 51 406.507 51 409.5C51.0809 412.493 48.5736 415 45.5 415ZM45.5 404.971C43.0735 404.971 41.0515 406.993 41.0515 409.419C41.0515 411.846 43.0735 413.868 45.5 413.868C47.9265 413.868 49.9486 411.846 49.9486 409.419C49.9486 406.993 47.9265 404.971 45.5 404.971Z" fill="#98B2B9"/>
</svg>
