<svg width="111" height="449" viewBox="0 0 111 449" fill="none" xmlns="http://www.w3.org/2000/svg">
<path d="M66.904 394.672C66.936 394.32 66.968 393.92 67 393.472C67 392.992 67 392.432 67 391.792C67 388.048 66.056 385.28 64.168 383.488C62.28 381.664 59.672 380.752 56.344 380.752C52.856 380.752 50.216 381.616 48.424 383.344C46.632 385.072 45.736 387.808 45.736 391.552C45.736 392.064 45.752 392.592 45.784 393.136C45.784 393.68 45.816 394.192 45.88 394.672L66.904 394.672ZM56.344 373.024C59.224 373.024 61.736 373.472 63.88 374.368C66.024 375.264 67.8 376.544 69.208 378.208C70.616 379.84 71.672 381.84 72.376 384.208C73.08 386.576 73.432 389.232 73.432 392.176C73.432 393.52 73.368 395.088 73.24 396.88C73.144 398.672 72.92 400.432 72.568 402.16L40.168 402.16C39.848 400.432 39.64 398.64 39.544 396.784C39.416 394.896 39.352 393.28 39.352 391.936C39.352 389.088 39.672 386.512 40.312 384.208C40.952 381.872 41.96 379.872 43.336 378.208C44.712 376.544 46.472 375.264 48.616 374.368C50.76 373.472 53.336 373.024 56.344 373.024ZM73 360.097L73 367.249L47.752 367.249L47.752 360.097L73 360.097ZM40.456 359.425C41.768 359.425 42.808 359.857 43.576 360.721C44.312 361.553 44.68 362.545 44.68 363.697C44.68 364.849 44.312 365.857 43.576 366.721C42.808 367.553 41.768 367.969 40.456 367.969C39.144 367.969 38.12 367.553 37.384 366.721C36.616 365.857 36.232 364.849 36.232 363.697C36.232 362.545 36.616 361.553 37.384 360.721C38.12 359.857 39.144 359.425 40.456 359.425ZM68.008 343.726C68.008 343.022 67.992 342.35 67.96 341.71C67.928 341.07 67.88 340.558 67.816 340.174L62.392 340.174C62.328 340.462 62.264 340.894 62.2 341.47C62.136 342.046 62.104 342.574 62.104 343.054C62.104 343.726 62.152 344.366 62.248 344.974C62.312 345.55 62.456 346.062 62.68 346.51C62.904 346.958 63.208 347.31 63.592 347.566C63.976 347.822 64.456 347.95 65.032 347.95C66.152 347.95 66.936 347.582 67.384 346.846C67.8 346.078 68.008 345.038 68.008 343.726ZM47.08 344.302C47.08 342.19 47.32 340.43 47.8 339.022C48.28 337.614 48.968 336.494 49.864 335.662C50.76 334.798 51.848 334.19 53.128 333.838C54.408 333.486 55.832 333.31 57.4 333.31L72.28 333.31C72.504 334.334 72.76 335.758 73.048 337.582C73.368 339.406 73.528 341.614 73.528 344.206C73.528 345.838 73.384 347.326 73.096 348.67C72.808 349.982 72.344 351.118 71.704 352.078C71.032 353.038 70.168 353.774 69.112 354.286C68.056 354.798 66.76 355.054 65.224 355.054C63.752 355.054 62.504 354.766 61.48 354.19C60.456 353.582 59.64 352.782 59.032 351.79C58.424 350.798 57.992 349.662 57.736 348.382C57.448 347.102 57.304 345.774 57.304 344.398C57.304 343.47 57.352 342.654 57.448 341.95C57.512 341.214 57.608 340.622 57.736 340.174L57.064 340.174C55.848 340.174 54.872 340.542 54.136 341.278C53.4 342.014 53.032 343.294 53.032 345.118C53.032 346.334 53.128 347.534 53.32 348.718C53.48 349.902 53.72 350.926 54.04 351.79L48.28 352.702C48.152 352.286 48.024 351.774 47.896 351.166C47.736 350.526 47.608 349.838 47.512 349.102C47.384 348.366 47.288 347.598 47.224 346.798C47.128 345.966 47.08 345.134 47.08 344.302ZM59.608 312.971C57.304 312.971 55.672 313.275 54.712 313.883C53.752 314.459 53.272 315.467 53.272 316.907C53.272 317.355 53.304 317.819 53.368 318.299C53.4 318.779 53.448 319.243 53.512 319.691L73 319.691L73 326.843L48.616 326.843C48.456 326.235 48.296 325.531 48.136 324.731C47.944 323.899 47.784 323.035 47.656 322.139C47.496 321.211 47.384 320.267 47.32 319.307C47.224 318.347 47.176 317.403 47.176 316.475C47.176 314.651 47.416 313.179 47.896 312.059C48.344 310.907 48.888 309.963 49.528 309.227C48.792 308.203 48.216 307.035 47.8 305.723C47.384 304.379 47.176 303.147 47.176 302.027C47.176 300.011 47.464 298.363 48.04 297.083C48.584 295.771 49.368 294.731 50.392 293.963C51.416 293.195 52.632 292.667 54.04 292.379C55.448 292.091 57.016 291.947 58.744 291.947L73 291.947L73 299.099L59.608 299.099C57.304 299.099 55.672 299.403 54.712 300.011C53.752 300.587 53.272 301.595 53.272 303.035C53.272 303.419 53.368 303.963 53.56 304.667C53.752 305.339 53.992 305.899 54.28 306.347C55.016 306.123 55.8 305.979 56.632 305.915C57.432 305.851 58.296 305.819 59.224 305.819L73 305.819L73 312.971L59.608 312.971ZM60.328 261.836C62.312 261.836 64.136 262.124 65.8 262.7C67.432 263.276 68.84 264.108 70.024 265.196C71.176 266.284 72.072 267.596 72.712 269.132C73.352 270.636 73.672 272.332 73.672 274.22C73.672 276.076 73.352 277.772 72.712 279.308C72.072 280.812 71.176 282.108 70.024 283.196C68.84 284.284 67.432 285.132 65.8 285.74C64.136 286.348 62.312 286.652 60.328 286.652C58.344 286.652 56.536 286.348 54.904 285.74C53.272 285.1 51.88 284.236 50.728 283.148C49.576 282.028 48.68 280.716 48.04 279.212C47.4 277.676 47.08 276.012 47.08 274.22C47.08 272.396 47.4 270.732 48.04 269.228C48.68 267.692 49.576 266.38 50.728 265.292C51.88 264.204 53.272 263.356 54.904 262.748C56.536 262.14 58.344 261.836 60.328 261.836ZM60.328 269.132C58.12 269.132 56.392 269.58 55.144 270.476C53.864 271.34 53.224 272.588 53.224 274.22C53.224 275.852 53.864 277.116 55.144 278.012C56.392 278.908 58.12 279.356 60.328 279.356C62.536 279.356 64.296 278.908 65.608 278.012C66.888 277.116 67.528 275.852 67.528 274.22C67.528 272.588 66.888 271.34 65.608 270.476C64.296 269.58 62.536 269.132 60.328 269.132ZM48.616 256.296C48.264 255.08 47.944 253.512 47.656 251.592C47.336 249.672 47.176 247.656 47.176 245.544C47.176 243.4 47.464 241.624 48.04 240.216C48.584 238.776 49.368 237.64 50.392 236.808C51.416 235.976 52.632 235.384 54.04 235.032C55.448 234.68 57.016 234.504 58.744 234.504L73 234.504L73 241.656L59.608 241.656C57.304 241.656 55.672 241.96 54.712 242.568C53.752 243.176 53.272 244.312 53.272 245.976C53.272 246.488 53.304 247.032 53.368 247.608C53.4 248.184 53.448 248.696 53.512 249.144L73 249.144L73 256.296L48.616 256.296ZM60.184 221.935C62.392 221.935 64.168 221.439 65.512 220.447C66.856 219.455 67.528 217.983 67.528 216.031C67.528 215.391 67.512 214.799 67.48 214.255C67.416 213.711 67.352 213.263 67.288 212.911L54.28 212.911C53.992 213.359 53.752 213.951 53.56 214.687C53.368 215.391 53.272 216.111 53.272 216.847C53.272 220.239 55.576 221.935 60.184 221.935ZM72.184 205.759C72.376 206.399 72.568 207.135 72.76 207.967C72.92 208.799 73.064 209.679 73.192 210.607C73.32 211.503 73.416 212.431 73.48 213.391C73.576 214.319 73.624 215.215 73.624 216.079C73.624 218.159 73.32 220.015 72.712 221.647C72.104 223.279 71.24 224.655 70.12 225.775C68.968 226.895 67.592 227.759 65.992 228.367C64.36 228.943 62.536 229.231 60.52 229.231C58.472 229.231 56.632 228.975 55 228.463C53.336 227.951 51.928 227.215 50.776 226.255C49.624 225.295 48.744 224.127 48.136 222.751C47.528 221.343 47.224 219.743 47.224 217.951C47.224 216.959 47.32 216.079 47.512 215.311C47.704 214.511 47.976 213.711 48.328 212.911L36.904 212.911L35.752 205.759L72.184 205.759Z" fill="#131D25"/>
<path d="M39.4814 85.2358C39.3485 85.2358 39.282 85.1693 39.2155 85.1027C39.0826 84.9697 39.1491 84.7701 39.282 84.637C48.388 78.6485 65.8023 71.3958 66.0017 71.3293C80.2922 65.4739 90.7275 52.9647 94.1173 37.9935C94.1838 37.7939 94.3167 37.7274 94.5161 37.7274C94.7155 37.7939 94.782 37.927 94.782 38.1266C91.3922 53.3639 80.7574 66.0062 66.3341 71.9947C66.1347 72.0612 48.7868 79.2474 39.7473 85.2358C39.6143 85.2358 39.5479 85.2358 39.4814 85.2358Z" fill="#01B1DF"/>
<path d="M15.1543 131.413C14.8884 131.413 14.689 131.214 14.689 130.948L14.6226 129.417C14.6226 106.062 29.5776 85.5685 51.7776 78.5154C58.5573 76.3862 65.7357 75.5877 72.9142 76.2531C75.5729 76.5193 78.2315 75.8539 80.5579 74.39C90.2621 68.202 96.3771 57.822 96.9753 46.4439C97.0417 44.7139 97.0417 42.9839 96.8423 41.3204C96.5765 38.1931 95.7124 36.2635 94.516 35.9973C93.3196 35.7312 91.7243 37.2616 90.1291 39.9896C81.0896 56.4246 63.8747 66.5385 45.2639 66.5385C40.7441 66.5385 36.2908 65.9396 31.9705 64.8085C31.7046 64.742 31.5717 64.4758 31.6381 64.2762C31.7046 64.01 31.9705 63.8769 32.1699 63.9435C36.4238 65.0746 40.8771 65.6735 45.2639 65.6735C63.6088 65.6735 80.4914 55.6927 89.4645 39.657C91.2591 36.4631 93.1201 34.8662 94.7818 35.1989C96.377 35.5316 97.507 37.7273 97.8393 41.3204C97.9723 43.0504 98.0387 44.847 97.9723 46.577C97.3741 58.2212 91.0597 68.8673 81.1561 75.1885C78.6968 76.7189 75.7722 77.4508 72.9806 77.1846C65.9351 76.5193 58.8896 77.3177 52.2429 79.3804C30.3753 86.3004 15.686 106.395 15.686 129.417L15.7525 130.881C15.6196 131.214 15.4202 131.413 15.1543 131.413C15.2208 131.413 15.2208 131.413 15.1543 131.413Z" fill="#01B1DF"/>
<mask id="mask0_20_3" style="mask-type:luminance" maskUnits="userSpaceOnUse" x="15" y="73" width="96" height="92">
<path d="M15.2872 132.944L15.1543 129.484C15.1543 105.863 30.6411 85.8346 52.0435 79.0477C57.095 77.4508 62.4789 76.5858 68.0621 76.5858C69.7238 76.5858 71.3854 76.6523 72.9806 76.8519C75.7723 77.1181 78.5639 76.3862 80.8902 74.9223C90.395 68.8673 98.9028 90.5589 99.5675 78.6485C99.6339 76.8519 110.8 94.6842 110.667 92.9542C110.003 85.9012 109.604 131.746 106.148 137.934C97.4405 153.571 97.6399 164.55 78.4974 164.55C73.9112 164.55 27.5172 163.019 23.2633 161.888L15.2872 132.944Z" fill="white"/>
</mask>
<g mask="url(#mask0_20_3)">
<path d="M45.463 108.657C42.6049 108.657 34.2965 103.867 34.1636 103.8C32.7678 102.868 32.4355 101.005 33.366 99.6746C33.8313 99.0092 34.4959 98.5434 35.2935 98.4104C36.0911 98.2773 36.8887 98.4104 37.5534 98.8761C37.6863 98.9427 47.5899 106.595 46.3935 108.391C46.1941 108.524 45.8618 108.657 45.463 108.657ZM35.8253 99.2088C35.6923 99.2088 35.5594 99.2088 35.4265 99.2754C34.8947 99.4084 34.4294 99.6746 34.0971 100.14C33.4324 101.072 33.6983 102.403 34.6953 103.068C36.357 104.199 44.2001 108.125 45.5959 107.792C45.3301 106.462 38.6834 100.673 37.0217 99.5415C36.6893 99.3419 36.2905 99.2088 35.8253 99.2088Z" fill="#01B1DF"/>
<path d="M80.2251 134.008C79.6269 134.008 79.0952 133.809 78.5634 133.476C78.4305 133.41 68.5269 125.758 69.7233 123.961C69.9892 123.562 70.4544 122.897 75.9047 125.425C78.5634 126.623 81.2886 128.153 81.8868 128.486C82.5514 128.952 83.0167 129.617 83.1496 130.415C83.2826 131.214 83.1497 132.012 82.6844 132.678C82.2191 133.343 81.5544 133.809 80.7568 133.942C80.6239 133.942 80.4245 134.008 80.2251 134.008ZM70.5209 124.493C70.7867 125.824 77.4335 131.613 79.0951 132.744C79.5604 133.077 80.0922 133.143 80.6904 133.077C81.2221 132.944 81.6874 132.678 82.0197 132.212C82.352 131.746 82.4185 131.214 82.352 130.615C82.2191 130.083 81.9532 129.617 81.4879 129.284C79.7598 128.153 71.8502 124.227 70.5209 124.493Z" fill="#01B1DF"/>
<path d="M58.0253 127.288C51.9104 127.288 46.8589 122.298 46.8589 116.11C46.8589 109.988 51.8439 104.931 58.0253 104.931C64.1403 104.931 69.1918 109.922 69.1918 116.11C69.1918 122.298 64.2068 127.288 58.0253 127.288ZM58.0253 105.863C52.3756 105.863 47.7894 110.454 47.7894 116.11C47.7894 121.765 52.3756 126.357 58.0253 126.357C63.675 126.357 68.2613 121.765 68.2613 116.11C68.2613 110.52 63.675 105.863 58.0253 105.863Z" fill="#01B1DF"/>
<path d="M58.0257 145.852C41.6748 145.852 28.3149 132.545 28.3149 116.11C28.3149 99.6746 41.6083 86.3669 58.0257 86.3669C74.3766 86.3669 87.7365 99.6746 87.7365 116.11C87.7365 132.545 74.4431 145.852 58.0257 145.852ZM58.0257 87.2985C42.1401 87.2985 29.2455 100.207 29.2455 116.11C29.2455 132.012 42.1401 144.921 58.0257 144.921C73.9113 144.921 86.8059 132.012 86.8059 116.11C86.8059 100.273 73.9113 87.2985 58.0257 87.2985Z" fill="#01B1DF"/>
<path d="M58.0254 131.147C49.7835 131.147 43.0703 124.427 43.0703 116.176C43.0703 107.925 49.7835 101.205 58.0254 101.205C66.2673 101.205 72.9805 107.925 72.9805 116.176C73.047 124.427 66.3338 131.147 58.0254 131.147ZM58.0254 102.07C50.2488 102.07 43.9344 108.391 43.9344 116.176C43.9344 123.961 50.2488 130.282 58.0254 130.282C65.802 130.282 72.1164 123.961 72.1164 116.176C72.1164 108.391 65.802 102.07 58.0254 102.07Z" fill="#01B1DF"/>
<path d="M58.0257 102.07C55.8987 102.07 55.0347 89.5608 55.0347 89.4277C55.0347 87.7642 56.364 86.4335 58.0257 86.4335C59.6874 86.4335 61.0167 87.7642 61.0167 89.4277C61.0167 89.5608 60.2191 102.07 58.0257 102.07ZM58.0257 87.2985C56.8957 87.2985 55.9652 88.23 55.9652 89.3612C55.9652 91.3573 57.0951 100.074 58.0257 101.072C58.9562 100.14 60.0862 91.3573 60.0862 89.3612C60.1526 88.2966 59.2221 87.2985 58.0257 87.2985Z" fill="#01B1DF"/>
<path d="M58.0257 145.852C56.364 145.852 55.0347 144.522 55.0347 142.858C55.0347 142.725 55.8987 130.216 58.0257 130.216C60.1526 130.216 61.0167 142.725 61.0167 142.858C61.0167 144.522 59.6874 145.852 58.0257 145.852ZM58.0257 131.214C57.0951 132.145 55.9652 140.929 55.9652 142.925C55.9652 144.056 56.8957 144.987 58.0257 144.987C59.1556 144.987 60.0862 144.056 60.0862 142.925C60.1526 140.862 59.0227 132.145 58.0257 131.214Z" fill="#01B1DF"/>
<path d="M58.0257 102.07C55.8987 102.07 55.0347 89.5608 55.0347 89.4277C55.0347 87.7642 56.364 86.4335 58.0257 86.4335C59.6874 86.4335 61.0167 87.7642 61.0167 89.4277C61.0167 89.5608 60.2191 102.07 58.0257 102.07ZM58.0257 87.2985C56.8957 87.2985 55.9652 88.23 55.9652 89.3612C55.9652 91.3573 57.0951 100.074 58.0257 101.072C58.9562 100.14 60.0862 91.3573 60.0862 89.3612C60.1526 88.2966 59.2221 87.2985 58.0257 87.2985Z" fill="#01B1DF"/>
<path d="M58.0257 145.852C56.364 145.852 55.0347 144.522 55.0347 142.858C55.0347 142.725 55.8987 130.216 58.0257 130.216C60.1526 130.216 61.0167 142.725 61.0167 142.858C61.0167 144.522 59.6874 145.852 58.0257 145.852ZM58.0257 131.214C57.0951 132.145 55.9652 140.929 55.9652 142.925C55.9652 144.056 56.8957 144.987 58.0257 144.987C59.1556 144.987 60.0862 144.056 60.0862 142.925C60.1526 140.862 59.0227 132.145 58.0257 131.214Z" fill="#01B1DF"/>
<path d="M55.1673 102.336C53.0404 102.336 49.9164 90.6254 49.85 90.4923C49.5176 88.8954 50.5811 87.2985 52.1763 86.9658C53.7715 86.6331 55.3667 87.6977 55.699 89.2946C55.699 89.4277 57.3607 101.87 55.2338 102.27C55.2338 102.336 55.2338 102.336 55.1673 102.336ZM52.841 87.8308C52.708 87.8308 52.5751 87.8308 52.4422 87.8973C51.3122 88.097 50.5811 89.2281 50.7805 90.3593C51.1793 92.2889 53.9709 100.673 55.1008 101.405C55.832 100.273 55.2338 91.4904 54.9015 89.5608C54.7021 88.5627 53.838 87.8308 52.841 87.8308Z" fill="#01B1DF"/>
<path d="M63.2763 145.387C62.6781 145.387 62.1464 145.187 61.6147 144.854C60.95 144.388 60.4847 143.723 60.3518 142.925C60.2188 142.259 59.8865 139.132 59.7536 136.204C59.5542 130.216 60.3518 130.016 60.817 129.95C61.2823 129.883 62.0799 129.683 64.1404 135.339C65.1374 138.067 66.0679 141.062 66.2009 141.727C66.3338 142.525 66.2009 143.324 65.7356 143.989C65.2703 144.655 64.6057 145.12 63.8081 145.253C63.6751 145.32 63.4757 145.387 63.2763 145.387ZM60.95 130.881C60.2188 132.012 60.817 140.795 61.1494 142.725C61.2823 143.257 61.5482 143.723 62.0134 144.056C62.4787 144.388 63.0105 144.455 63.6087 144.388C64.1404 144.255 64.6057 143.989 64.938 143.523C65.2703 143.058 65.3368 142.525 65.2703 141.927C64.938 139.997 62.0799 131.613 60.95 130.881Z" fill="#01B1DF"/>
<path d="M52.3092 103.201C51.7774 103.201 50.7804 102.602 48.2547 98.477C46.7259 95.9485 45.2637 93.2204 44.9978 92.555C44.6655 91.8231 44.6655 91.0247 44.9978 90.2927C45.3301 89.5608 45.8619 88.962 46.593 88.6958C48.1217 88.0304 49.8499 88.7623 50.5145 90.2927C50.7804 90.9581 51.7109 93.8858 52.3756 96.747C53.7714 102.602 52.9738 102.935 52.575 103.068C52.575 103.135 52.4421 103.201 52.3092 103.201ZM47.8559 89.3612C47.59 89.3612 47.3241 89.4277 47.0582 89.4943C46.5265 89.6939 46.1277 90.0931 45.9283 90.6254C45.7289 91.1577 45.7289 91.69 45.9283 92.2224C46.6595 94.0854 51.0463 101.737 52.3092 102.203C52.8409 100.939 50.5145 92.422 49.7834 90.6254C49.4511 89.827 48.6535 89.3612 47.8559 89.3612Z" fill="#01B1DF"/>
<path d="M68.2614 143.856C67.8626 143.856 67.4638 143.79 67.1315 143.657C66.4003 143.324 65.8021 142.792 65.5362 142.06C65.4698 141.927 61.4817 130.083 63.4758 129.218C65.4698 128.419 70.9866 139.598 71.053 139.731C71.3854 140.463 71.3854 141.261 71.053 141.993C70.7207 142.725 70.1889 143.324 69.4578 143.59C69.059 143.79 68.6602 143.856 68.2614 143.856ZM63.8081 130.016C63.2764 131.28 65.6027 139.797 66.3338 141.594C66.5332 142.126 66.932 142.525 67.4638 142.725C67.9955 142.925 68.5273 142.925 69.059 142.725C69.5907 142.525 69.9895 142.126 70.1889 141.594C70.3883 141.062 70.3883 140.529 70.1889 139.997C69.4578 138.2 65.071 130.548 63.8081 130.016Z" fill="#01B1DF"/>
<path d="M49.8501 104.532C47.5902 104.532 40.8106 95.6823 40.7441 95.6158C40.2788 94.9504 40.1459 94.1519 40.2788 93.3535C40.4118 92.555 40.877 91.8896 41.5417 91.4239C42.2064 90.9581 43.004 90.825 43.8016 90.9581C44.5992 91.0912 45.2639 91.5569 45.7291 92.2223C45.7956 92.3554 52.0435 103.201 50.2489 104.399C50.116 104.465 49.983 104.532 49.8501 104.532ZM43.2034 91.8231C42.8046 91.8231 42.4058 91.9562 42.0734 92.1558C41.6082 92.4885 41.2758 92.9542 41.2094 93.4866C41.0764 94.0189 41.2094 94.6177 41.5417 95.0835C42.6717 96.7469 48.4543 103.401 49.7836 103.667C50.0495 102.336 46.1279 94.4181 45.0645 92.8212C44.7321 92.3554 44.2669 92.0227 43.7351 91.9562C43.4692 91.8231 43.3363 91.8231 43.2034 91.8231Z" fill="#01B1DF"/>
<path d="M72.9141 141.394C71.9171 141.394 70.9866 140.928 70.4549 140.063C70.3884 139.93 64.1405 129.085 65.9351 127.887C66.3339 127.621 66.9986 127.155 71.1195 131.613C73.1135 133.742 75.0411 136.138 75.4399 136.737C75.9052 137.402 76.0381 138.2 75.9052 138.999C75.7722 139.797 75.3069 140.463 74.6423 140.928C74.0441 141.195 73.4459 141.394 72.9141 141.394ZM71.1195 139.531C71.7842 140.463 73.0471 140.729 74.0441 140.13C74.5094 139.797 74.8417 139.332 74.9082 138.799C75.0411 138.267 74.9082 137.668 74.5758 137.202C73.4459 135.539 67.6632 128.885 66.3339 128.619C66.1345 129.95 70.0561 137.868 71.1195 139.531Z" fill="#01B1DF"/>
<path d="M47.5236 106.395C44.9978 106.395 37.0883 99.475 37.0218 99.4085C36.4236 98.8096 36.1577 98.0777 36.1577 97.2793C36.1577 96.4808 36.4901 95.7489 37.0218 95.15C37.5535 94.6177 38.3511 94.285 39.1487 94.285C39.9463 94.285 40.6775 94.6177 41.2757 95.15C41.8074 95.6823 43.735 98.0112 45.4631 100.407C48.9859 105.264 48.3877 105.863 48.0553 106.195C47.9888 106.329 47.7895 106.395 47.5236 106.395ZM39.1487 95.15C38.617 95.15 38.0853 95.3496 37.6865 95.7489C36.8889 96.5473 36.8889 97.8781 37.6865 98.6766C39.0823 100.074 46.1278 105.463 47.3906 105.463C47.3906 104.133 42.0068 97.1462 40.611 95.7489C40.2122 95.3496 39.6805 95.15 39.1487 95.15Z" fill="#01B1DF"/>
<path d="M76.9018 138.067C76.1042 138.067 75.3731 137.735 74.7749 137.202C74.7084 137.136 66.4665 127.687 67.9952 126.157C69.524 124.627 78.9623 132.877 79.0288 132.944C79.627 133.543 79.8928 134.275 79.8928 135.073C79.8928 135.872 79.5605 136.603 79.0288 137.202C78.497 137.735 77.6994 138.067 76.9018 138.067ZM68.6599 126.756C68.6599 128.087 74.0437 135.073 75.4395 136.47C76.2371 137.269 77.5665 137.269 78.3641 136.47C79.1617 135.672 79.1617 134.341 78.3641 133.543C76.9683 132.145 70.0557 126.756 68.6599 126.756Z" fill="#01B1DF"/>
<path d="M43.6022 111.319C42.6717 111.319 41.2094 111.119 38.6837 110.52C35.8256 109.855 32.901 108.923 32.2364 108.657C30.7076 108.058 29.9765 106.262 30.6412 104.732C30.9735 104 31.5052 103.401 32.2364 103.135C32.9675 102.802 33.7651 102.802 34.4962 103.135C35.1609 103.401 37.8861 104.865 40.4118 106.395C45.5298 109.522 45.1974 110.321 45.0645 110.72C44.9316 110.986 44.7987 111.319 43.6022 111.319ZM33.3663 103.8C33.1005 103.8 32.8346 103.867 32.5687 103.933C32.037 104.133 31.6382 104.532 31.4388 105.064C30.9735 106.129 31.5052 107.327 32.5687 107.792C34.4298 108.524 42.9376 110.853 44.134 110.321C43.6022 109.057 35.9585 104.665 34.1639 103.933C33.898 103.867 33.6322 103.8 33.3663 103.8Z" fill="#01B1DF"/>
<path d="M82.685 129.351C82.2862 129.351 81.8874 129.284 81.5551 129.151C81.4221 129.085 70.1892 123.562 71.0533 121.566C71.8509 119.57 83.7485 123.562 83.8814 123.629C84.6125 123.961 85.2107 124.494 85.4766 125.225C85.8089 125.957 85.8089 126.756 85.4766 127.488C85.1442 128.22 84.6125 128.819 83.8814 129.085C83.4826 129.284 83.0838 129.351 82.685 129.351ZM71.9173 121.899C72.4491 123.163 80.0928 127.554 81.8874 128.286C82.4191 128.486 82.9508 128.486 83.4826 128.286C84.0143 128.087 84.4131 127.687 84.6125 127.155C84.8119 126.623 84.8119 126.09 84.6125 125.558C84.4131 125.026 84.0143 124.627 83.4826 124.427C81.688 123.695 73.1802 121.366 71.9173 121.899Z" fill="#01B1DF"/>
<path d="M39.6141 114.513C35.892 114.513 31.3058 113.914 31.2393 113.914C29.6441 113.581 28.5806 111.984 28.9129 110.387C29.2453 108.79 30.8405 107.726 32.4357 108.059C32.5686 108.059 44.6656 111.319 44.2004 113.448C44.0674 114.247 42.0734 114.513 39.6141 114.513ZM31.8375 108.857C30.8405 108.857 29.9764 109.522 29.777 110.52C29.5776 111.652 30.3087 112.783 31.4387 112.982C33.3662 113.382 42.2064 113.98 43.2698 113.182C42.5387 112.051 34.1638 109.256 32.2363 108.857C32.1034 108.857 31.9704 108.857 31.8375 108.857Z" fill="#01B1DF"/>
<path d="M84.2135 124.36C84.0141 124.36 83.8147 124.36 83.6153 124.294C82.9506 124.161 79.9596 123.296 77.2344 122.231C71.5847 120.168 71.7841 119.303 71.8506 118.904C71.917 118.438 72.1165 117.64 78.0985 117.84C81.023 117.973 84.0805 118.239 84.8117 118.438C85.6093 118.572 86.2739 119.037 86.7392 119.703C87.2045 120.368 87.3374 121.167 87.2045 121.965C87.0716 122.763 86.6063 123.429 85.9416 123.895C85.4099 124.161 84.8117 124.36 84.2135 124.36ZM72.7811 119.104C73.5123 120.235 81.8871 123.03 83.8146 123.429C84.3464 123.562 84.9446 123.429 85.4099 123.096C85.8751 122.763 86.2075 122.298 86.2739 121.765C86.4069 121.233 86.2739 120.634 85.9416 120.169C85.6093 119.703 85.144 119.37 84.6123 119.303C82.6847 118.904 73.9111 118.305 72.7811 119.104Z" fill="#01B1DF"/>
<path d="M31.3724 119.17C29.7107 119.17 28.3813 117.84 28.3813 116.176C28.3813 114.513 29.7107 113.182 31.3724 113.182C31.5053 113.182 44.0011 114.047 44.0011 116.176C44.0011 118.305 31.5053 119.17 31.3724 119.17ZM31.3724 114.047C30.2424 114.047 29.3119 114.978 29.3119 116.11C29.3119 117.241 30.2424 118.172 31.3724 118.172C33.3664 118.172 42.0735 117.041 43.0706 116.11C42.0735 115.178 33.3664 114.047 31.3724 114.047Z" fill="#01B1DF"/>
<path d="M84.7454 119.17C84.6125 119.17 72.1167 118.305 72.1167 116.176C72.1167 114.047 84.6125 113.182 84.7454 113.182C86.4071 113.182 87.7365 114.513 87.7365 116.176C87.7365 117.773 86.4071 119.17 84.7454 119.17ZM73.0473 116.176C73.9778 117.108 82.7514 118.239 84.7454 118.239C85.8754 118.239 86.8059 117.307 86.8059 116.176C86.8059 115.045 85.8754 114.113 84.7454 114.113C82.7514 114.047 74.0443 115.178 73.0473 116.176Z" fill="#01B1DF"/>
<path d="M31.8375 124.36C30.4417 124.36 29.1788 123.362 28.9129 121.965C28.5806 120.368 29.6441 118.771 31.2393 118.438C31.3722 118.438 43.8016 116.775 44.2004 118.904C44.5992 121.033 32.5686 124.294 32.4357 124.294C32.2363 124.36 32.0369 124.36 31.8375 124.36ZM39.9465 118.705C36.889 118.705 32.7016 119.037 31.4387 119.303C30.3087 119.503 29.5776 120.634 29.777 121.765C29.9764 122.897 31.1064 123.628 32.2363 123.429C34.1638 123.03 42.5387 120.235 43.2698 119.104C42.9375 118.838 41.6082 118.705 39.9465 118.705Z" fill="#01B1DF"/>
<path d="M76.2374 114.446C72.05 114.446 71.917 113.781 71.8506 113.382C71.7841 112.916 71.5847 112.117 77.2344 110.055C79.9596 109.057 82.9506 108.125 83.6153 107.992C84.4129 107.859 85.2105 107.992 85.8751 108.458C86.5398 108.923 87.0051 109.589 87.138 110.387C87.2709 111.186 87.138 111.984 86.6728 112.65C86.2075 113.315 85.5428 113.781 84.7452 113.914C84.0805 114.047 80.9566 114.38 78.032 114.513C77.4338 114.446 76.7692 114.446 76.2374 114.446ZM72.7811 113.182C73.9111 113.914 82.6847 113.315 84.6123 112.982C85.144 112.849 85.6093 112.583 85.9416 112.117C86.2739 111.652 86.3404 111.119 86.2739 110.52C86.141 109.988 85.8751 109.522 85.4099 109.19C84.9446 108.857 84.4128 108.79 83.8146 108.857C81.8871 109.256 73.5123 112.051 72.7811 113.182Z" fill="#01B1DF"/>
<path d="M33.3661 129.351C32.9673 129.351 32.5685 129.284 32.2362 129.151C31.5051 128.819 30.9069 128.286 30.641 127.554C30.0428 126.024 30.7075 124.294 32.2362 123.629C32.9009 123.362 35.8254 122.431 38.6835 121.765C44.5326 120.368 44.8649 121.167 44.9979 121.566C45.1973 121.965 45.4632 122.764 40.3452 125.891C37.8194 127.421 35.0943 128.885 34.4296 129.151C34.1637 129.284 33.7649 129.351 33.3661 129.351ZM43.6021 121.832C41.2757 121.832 34.2302 123.762 32.635 124.427C31.5715 124.893 31.0398 126.09 31.5051 127.155C31.7045 127.687 32.1033 128.087 32.635 128.286C33.1667 128.486 33.6985 128.486 34.2302 128.286C36.0913 127.554 43.735 123.163 44.2003 121.899C44.0673 121.832 43.8679 121.832 43.6021 121.832Z" fill="#01B1DF"/>
<path d="M72.6482 111.319C71.7841 111.319 71.1859 111.186 71.053 110.787C70.2554 108.79 81.4218 103.268 81.5548 103.201C82.2859 102.868 83.0835 102.868 83.8146 103.201C84.5458 103.534 85.144 104.066 85.4099 104.798C85.7422 105.53 85.7422 106.328 85.4099 107.06C85.0775 107.792 84.5458 108.391 83.8146 108.657C83.7482 108.724 76.1045 111.319 72.6482 111.319ZM71.917 110.387C73.1799 110.92 81.6877 108.591 83.4823 107.859C84.014 107.659 84.4128 107.26 84.6122 106.728C84.8116 106.195 84.8116 105.663 84.6122 105.131C84.4128 104.598 84.014 104.199 83.4823 104C82.9506 103.8 82.4188 103.8 81.8871 104C80.0925 104.732 72.4488 109.123 71.917 110.387Z" fill="#01B1DF"/>
<path d="M35.8254 134.008C35.626 134.008 35.4266 134.008 35.2272 133.942C34.4296 133.809 33.7649 133.343 33.2996 132.678C32.3691 131.28 32.7679 129.417 34.0972 128.552C34.2302 128.486 45.0643 122.231 46.2607 124.028C47.4571 125.824 37.5535 133.476 37.4206 133.543C37.0218 133.809 36.4236 134.008 35.8254 134.008ZM34.6954 129.284C33.7649 129.95 33.499 131.214 34.0972 132.212C34.4296 132.678 34.8948 133.01 35.4266 133.077C35.9583 133.21 36.5565 133.077 37.0218 132.744C38.6835 131.613 45.3302 125.824 45.596 124.493C44.2002 124.227 36.3571 128.153 34.6954 129.284Z" fill="#01B1DF"/>
<path d="M70.5878 108.724C69.9896 108.724 69.8567 108.524 69.7902 108.325C68.5938 106.528 78.4974 98.8761 78.6303 98.8096C79.295 98.3438 80.0926 98.2108 80.8902 98.3438C81.6878 98.4769 82.3525 98.9427 82.8177 99.6081C83.283 100.273 83.4159 101.072 83.283 101.87C83.1501 102.669 82.6848 103.334 82.0202 103.8C81.422 104.199 78.6968 105.663 76.0381 106.861C72.8477 108.325 71.319 108.724 70.5878 108.724ZM70.5213 107.792C71.8507 108.058 79.7603 104.133 81.3555 103.068C81.8208 102.735 82.1531 102.27 82.2196 101.737C82.3525 101.205 82.2196 100.606 81.8872 100.14C81.5549 99.6746 81.0896 99.3419 80.5579 99.2754C80.0261 99.1423 79.4279 99.2754 78.9626 99.6081C77.4339 100.673 70.7872 106.462 70.5213 107.792Z" fill="#01B1DF"/>
<path d="M39.1487 138.067C38.3511 138.067 37.62 137.735 37.0218 137.202C36.4236 136.603 36.1577 135.872 36.1577 135.073C36.1577 134.275 36.4901 133.543 37.0218 132.944C37.0883 132.877 46.5266 124.627 48.0553 126.157C49.5841 127.687 41.3422 137.136 41.2757 137.202C40.744 137.735 39.9463 138.067 39.1487 138.067ZM47.3906 126.756C46.0613 126.756 39.0823 132.145 37.6865 133.543C36.8889 134.341 36.8889 135.672 37.6865 136.47C38.4841 137.269 39.8134 137.269 40.611 136.47C42.0733 135.14 47.4571 128.153 47.3906 126.756Z" fill="#01B1DF"/>
<path d="M68.5273 106.395C68.3279 106.395 68.1285 106.329 67.9956 106.195C67.6633 105.863 67.0651 105.264 70.5878 100.407C72.316 98.0112 74.31 95.6158 74.7752 95.15C75.307 94.6177 76.1046 94.285 76.9022 94.285C77.6998 94.285 78.431 94.6177 79.0292 95.15C79.6274 95.7489 79.8932 96.4808 79.8932 97.2793C79.8932 98.0777 79.5609 98.8096 79.0292 99.4085C78.9627 99.475 71.0531 106.395 68.5273 106.395ZM68.6603 105.53C70.0561 105.53 76.9687 100.14 78.3645 98.7431C79.1621 97.9446 79.1621 96.6139 78.3645 95.8154C77.5669 95.017 76.2375 95.017 75.4399 95.8154C74.0441 97.1462 68.6603 104.133 68.6603 105.53Z" fill="#01B1DF"/>
<path d="M43.2032 141.394C42.605 141.394 42.0733 141.195 41.5415 140.862C40.1457 139.93 39.8134 138.067 40.7439 136.737C40.8104 136.604 48.4541 126.689 50.2487 127.887C52.0433 129.085 45.7954 139.93 45.7289 140.064C45.2637 140.729 44.599 141.195 43.8014 141.328C43.602 141.328 43.4026 141.394 43.2032 141.394ZM41.4751 137.202C40.8104 138.134 41.0763 139.465 42.0733 140.13C42.5385 140.463 43.0703 140.529 43.6685 140.463C44.2002 140.33 44.6655 140.064 44.9978 139.598C46.1278 137.934 50.0493 130.016 49.717 128.752C48.3876 128.885 42.605 135.539 41.4751 137.202Z" fill="#01B1DF"/>
<path d="M66.3339 104.598C66.1345 104.598 66.0016 104.532 65.9351 104.465C64.1405 103.268 70.3884 92.4219 70.4549 92.2889C71.3854 90.8915 73.2465 90.5589 74.5758 91.4904C75.2405 91.9562 75.7057 92.6215 75.8387 93.42C75.9716 94.2185 75.8387 95.0169 75.3734 95.6823C74.9746 96.2812 73.0471 98.6765 71.0531 100.806C68.0621 103.933 66.8656 104.598 66.3339 104.598ZM72.9141 91.8231C72.2495 91.8231 71.5848 92.1558 71.186 92.7546C70.056 94.4181 66.1345 102.336 66.4668 103.6C67.7962 103.334 73.5788 96.6804 74.7088 95.0169C75.0411 94.5512 75.1076 94.0188 75.0411 93.42C74.9082 92.8877 74.6423 92.4219 74.177 92.0892C73.7117 91.9562 73.3129 91.8231 72.9141 91.8231Z" fill="#01B1DF"/>
<path d="M47.8562 143.856C47.4574 143.856 47.0586 143.79 46.7263 143.656C45.9952 143.324 45.397 142.791 45.1311 142.06C44.7988 141.328 44.7988 140.529 45.1311 139.797C45.397 139.132 46.8592 136.404 48.388 133.875C51.5119 128.752 52.3095 129.085 52.7083 129.218C53.1071 129.417 53.9047 129.683 52.5089 135.539C51.8443 138.4 50.9137 141.328 50.6479 141.993C50.1161 143.124 48.9862 143.856 47.8562 143.856ZM52.3095 130.016C51.0467 130.548 46.6598 138.2 45.9287 139.997C45.7293 140.529 45.7293 141.061 45.9287 141.594C46.1281 142.126 46.5269 142.525 47.0586 142.725C48.1221 143.191 49.3185 142.658 49.7838 141.594C50.5149 139.797 52.8413 131.28 52.3095 130.016Z" fill="#01B1DF"/>
<path d="M63.6752 103.135C63.6087 103.135 63.5422 103.135 63.4758 103.068C61.4817 102.27 65.4698 90.3592 65.5362 90.2261C65.8686 89.4942 66.4003 88.8954 67.1314 88.6292C67.8626 88.2965 68.6602 88.2965 69.3913 88.6292C70.1225 88.9619 70.7207 89.4942 70.9865 90.2261C71.3189 90.9581 71.3189 91.7565 70.9865 92.4885C70.9865 92.6881 65.8021 103.135 63.6752 103.135ZM68.2614 89.3611C67.9955 89.3611 67.7297 89.4277 67.4638 89.4942C66.932 89.6938 66.5332 90.0931 66.3338 90.6254C65.6027 92.4884 63.2764 101.005 63.8081 102.203C65.071 101.671 69.4578 94.0188 70.1889 92.2223C70.3883 91.69 70.3883 91.1577 70.1889 90.6254C69.9895 90.0931 69.5907 89.6938 69.059 89.4942C68.7931 89.4277 68.5273 89.3611 68.2614 89.3611Z" fill="#01B1DF"/>
<path d="M52.8409 145.32C52.6415 145.32 52.4421 145.32 52.2427 145.253C50.6475 144.921 49.584 143.324 49.9164 141.727C49.9164 141.594 53.2397 129.55 55.3002 129.95C57.4271 130.349 55.7655 142.792 55.7655 142.925C55.4996 144.388 54.2367 145.32 52.8409 145.32ZM50.7804 141.927C50.581 143.058 51.3122 144.189 52.4421 144.388C53.572 144.588 54.702 143.856 54.9014 142.725C55.3002 140.795 55.8984 131.946 55.1008 130.881C53.9708 131.613 51.1792 139.997 50.7804 141.927Z" fill="#01B1DF"/>
<path d="M61.0164 102.336C60.95 102.336 60.8835 102.336 60.817 102.336C60.3518 102.27 59.5542 102.07 59.7536 96.0815C59.8865 93.1539 60.1524 90.0931 60.3518 89.3612C60.4847 88.5627 60.95 87.8973 61.6147 87.4315C62.2793 86.9658 63.0769 86.8327 63.8745 86.9658C64.6721 87.0989 65.3368 87.5646 65.8021 88.23C66.2673 88.8954 66.4003 89.6939 66.2673 90.4923C66.1344 91.1577 65.2703 94.1519 64.2069 96.88C62.3458 101.804 61.4817 102.336 61.0164 102.336ZM63.2763 87.8308C62.8775 87.8308 62.4787 87.9639 62.1464 88.1635C61.6811 88.4962 61.3488 88.9619 61.2823 89.4942C60.8835 91.4239 60.2853 100.273 61.0829 101.338C62.2128 100.606 65.0045 92.2223 65.4033 90.2927C65.5362 89.7604 65.4033 89.1616 65.0709 88.6958C64.7386 88.23 64.2733 87.8973 63.7416 87.8308C63.5422 87.8308 63.4093 87.8308 63.2763 87.8308Z" fill="#01B1DF"/>
<path d="M58.0254 162.287C56.2308 162.287 54.7686 160.823 54.7686 159.027C54.7686 158.894 55.7656 144.987 58.0254 144.987C60.3518 144.987 61.2823 158.894 61.2823 159.027C61.3488 160.823 59.8865 162.287 58.0254 162.287ZM58.0254 145.919C56.962 146.717 55.6326 156.565 55.6326 159.027C55.6326 160.358 56.6961 161.422 58.0254 161.422C59.3548 161.422 60.4183 160.358 60.4183 159.027C60.4183 156.565 59.0889 146.717 58.0254 145.919Z" fill="#01B1DF"/>
<path d="M58.0254 87.2985C55.6991 87.2985 54.7686 73.3919 54.7686 73.2589C54.7686 71.4623 56.2308 69.9985 58.0254 69.9985C59.82 69.9985 61.2823 71.4623 61.2823 73.2589C61.3488 73.4585 60.3518 87.2985 58.0254 87.2985ZM58.0254 70.93C56.6961 70.93 55.6326 71.9946 55.6326 73.3254C55.6326 75.7208 56.962 85.635 58.0254 86.4335C59.0889 85.635 60.4183 75.7873 60.4183 73.3254C60.4183 71.9946 59.3548 70.93 58.0254 70.93Z" fill="#01B1DF"/>
<path d="M64.1401 161.822C62.5449 161.822 61.1491 160.624 60.8832 159.027C60.8832 158.894 59.8197 144.987 62.1461 144.655C64.4724 144.322 67.397 157.896 67.397 158.095C67.6629 159.892 66.4 161.555 64.6054 161.822C64.4724 161.822 64.273 161.822 64.1401 161.822ZM61.8138 158.894C62.0132 160.225 63.2096 161.09 64.5389 160.89C65.8682 160.69 66.7323 159.493 66.5329 158.162C66.2006 155.767 63.4754 146.185 62.3455 145.52C61.3485 146.518 61.415 156.499 61.8138 158.894Z" fill="#01B1DF"/>
<path d="M53.7716 87.6312C53.2398 87.6312 52.3758 87.0988 50.5811 81.4431C49.5841 78.3158 48.7865 74.9888 48.7201 74.1904C48.5871 73.3254 48.7865 72.4604 49.3183 71.7285C49.85 70.9965 50.5811 70.5973 51.4452 70.4642C53.2398 70.1981 54.9015 71.4623 55.1674 73.2588C55.3003 74.0573 55.4332 77.4508 55.3668 80.7777C55.2338 87.4315 54.3698 87.5646 53.9045 87.6312C53.9045 87.6312 53.838 87.6312 53.7716 87.6312ZM51.977 71.3292C51.844 71.3292 51.7776 71.3292 51.6446 71.3292C51.0464 71.3958 50.4482 71.7285 50.0494 72.2608C49.6506 72.7931 49.5177 73.3919 49.5841 74.0573C49.9165 76.4527 52.6416 86.0342 53.7716 86.6996C54.7021 85.7681 54.6356 75.7873 54.2368 73.3919C54.1704 72.1942 53.1069 71.3292 51.977 71.3292Z" fill="#01B1DF"/>
<path d="M70.1227 160.557C68.7269 160.557 67.3975 159.626 66.9987 158.228C66.9323 158.095 64.0077 144.522 66.2011 143.856C68.3945 143.191 73.2466 156.232 73.3131 156.365C73.8448 158.095 72.8478 159.958 71.1197 160.424C70.7209 160.491 70.3885 160.557 70.1227 160.557ZM66.4005 144.655C65.6694 145.719 67.1317 155.567 67.7963 157.896C68.1951 159.16 69.458 159.892 70.7209 159.493C71.9838 159.093 72.7149 157.829 72.3161 156.565C71.7843 154.635 67.6634 145.187 66.4005 144.655Z" fill="#01B1DF"/>
<path d="M49.6505 88.5627C49.1187 88.5627 48.1217 87.8973 45.7289 82.907C44.3331 79.9793 43.0702 76.7854 42.8043 75.987C42.5385 75.122 42.6714 74.257 43.0702 73.4585C43.469 72.66 44.2002 72.1277 44.9978 71.8616C46.7259 71.3293 48.587 72.3273 49.0522 74.0573C49.1187 74.1904 52.0433 87.7643 49.8498 88.4297C49.8498 88.4962 49.7834 88.5627 49.6505 88.5627ZM45.9948 72.66C45.7954 72.66 45.5295 72.66 45.3301 72.7266C44.7319 72.9262 44.2002 73.3254 43.9343 73.8577C43.602 74.39 43.5355 75.0554 43.7349 75.6543C44.3995 77.9831 48.454 87.0324 49.7169 87.5647C50.448 86.5 48.9858 76.6523 48.3211 74.3235C47.9888 73.3254 46.9918 72.66 45.9948 72.66Z" fill="#01B1DF"/>
<path d="M75.8385 158.428C75.4397 158.428 75.041 158.362 74.7086 158.228C73.911 157.896 73.2463 157.297 72.8475 156.498C72.5152 155.767 71.3853 152.506 70.5212 149.379C68.7266 142.925 69.5906 142.592 69.9895 142.392C72.1164 141.461 78.7631 153.637 78.7631 153.77C79.4943 155.434 78.7631 157.363 77.1679 158.095C76.7691 158.295 76.3038 158.428 75.8385 158.428ZM70.3883 143.191C69.7901 144.388 72.6481 153.903 73.6451 156.099C73.911 156.698 74.3763 157.097 74.9745 157.363C75.5727 157.563 76.2374 157.563 76.7691 157.297C77.9655 156.765 78.4972 155.367 77.9655 154.17C76.9685 151.907 71.6512 143.523 70.3883 143.191Z" fill="#01B1DF"/>
<path d="M45.7292 90.0266C45.131 90.0266 44.0675 89.3612 41.143 84.9697C39.3484 82.2416 37.6202 79.2473 37.2879 78.5154C36.9556 77.717 36.8891 76.852 37.2214 75.987C37.5538 75.1885 38.152 74.5231 38.9496 74.1239C39.7472 73.7912 40.6112 73.7247 41.4753 74.0574C42.2729 74.39 42.9376 74.9889 43.3364 75.7874C43.4029 75.9204 48.255 88.962 46.1945 89.8935C45.9951 89.96 45.8621 90.0266 45.7292 90.0266ZM40.2789 74.7893C39.9466 74.7893 39.6142 74.8558 39.2819 74.9889C38.6837 75.255 38.2849 75.7208 38.019 76.3197C37.8196 76.9185 37.8196 77.5839 38.0855 78.1162C39.0825 80.312 44.3999 88.6958 45.6627 89.0285C46.261 87.8308 43.4029 78.3158 42.4058 76.12C42.14 75.5212 41.6747 75.122 41.0765 74.8558C40.8106 74.8558 40.5448 74.7893 40.2789 74.7893Z" fill="#01B1DF"/>
<path d="M81.2226 155.5C80.9567 155.5 80.7573 155.5 80.4914 155.434C79.6274 155.234 78.8963 154.768 78.431 153.97C78.3645 153.837 71.6513 141.66 73.6453 140.396C75.5729 139.132 83.8813 150.31 83.9477 150.443C84.413 151.175 84.6124 152.04 84.413 152.905C84.2136 153.77 83.7483 154.502 82.9507 154.968C82.419 155.301 81.8208 155.5 81.2226 155.5ZM74.1106 141.195C73.7118 142.459 77.8992 151.442 79.1621 153.504C79.4944 154.037 80.0262 154.436 80.6244 154.569C81.2226 154.702 81.8873 154.569 82.419 154.236C82.9507 153.903 83.3495 153.371 83.4825 152.772C83.6154 152.173 83.4825 151.508 83.1501 150.976C81.8873 148.847 75.44 141.328 74.1106 141.195Z" fill="#01B1DF"/>
<path d="M42.14 92.0227C39.6807 92.0227 32.2364 82.0419 32.1699 81.9088C31.1729 80.3785 31.6382 78.3158 33.1669 77.3842C34.6957 76.3862 36.7562 76.8519 37.6867 78.3823C38.0855 79.0477 39.6807 82.1085 41.01 85.1027C43.6687 91.2242 42.9376 91.69 42.4723 91.9561C42.4058 91.9561 42.2729 92.0227 42.14 92.0227ZM34.8951 77.7169C34.4298 77.7169 34.031 77.85 33.6322 78.1161C32.5023 78.8481 32.2364 80.3119 32.9011 81.3765C34.2304 83.4392 40.6777 90.9581 42.0071 91.0911C42.4059 89.8269 38.2184 80.8442 36.9556 78.7815C36.4903 78.1161 35.6927 77.7169 34.8951 77.7169Z" fill="#01B1DF"/>
<path d="M86.0746 151.774C86.0081 151.774 85.9416 151.774 85.8087 151.774C84.9446 151.708 84.147 151.309 83.5488 150.643C83.0171 150.044 81.0231 147.25 79.2949 144.455C75.7722 138.799 76.5033 138.2 76.8356 137.868C77.2344 137.535 77.8991 136.936 83.0171 141.261C85.5428 143.39 88.0021 145.719 88.5339 146.318C89.7303 147.715 89.5973 149.778 88.2015 150.976C87.6033 151.508 86.8722 151.774 86.0746 151.774ZM77.5003 138.6C77.2344 139.864 82.6847 148.248 84.2799 150.044C85.144 151.042 86.6728 151.175 87.6033 150.31C88.6003 149.445 88.7333 147.915 87.8692 146.984C86.274 145.12 78.8961 138.6 77.5003 138.6Z" fill="#01B1DF"/>
<path d="M38.617 94.6177C37.9524 94.6177 36.5566 94.0189 33.0338 91.0246C30.5081 88.8954 28.0488 86.5666 27.517 85.9677C26.9188 85.3023 26.653 84.4373 26.7194 83.5723C26.7859 82.7073 27.1847 81.9089 27.8494 81.31C28.514 80.7112 29.3781 80.445 30.2422 80.5116C31.1063 80.5781 31.9039 80.9773 32.5021 81.6427C33.0338 82.2416 35.0278 85.0362 36.756 87.8308C40.2787 93.4866 39.5476 94.0854 39.2152 94.4181C39.0823 94.4846 38.9494 94.6177 38.617 94.6177ZM30.0428 81.3766C29.4446 81.3766 28.9128 81.5762 28.514 81.9754C28.0488 82.3746 27.7164 82.9735 27.7164 83.5723C27.65 84.2377 27.8494 84.8366 28.3146 85.3023C29.9099 87.1654 37.3542 93.6862 38.6835 93.6196C38.9494 92.3554 33.4991 83.9716 31.9039 82.175C31.5051 81.7093 30.9069 81.3766 30.3087 81.3766C30.1093 81.3766 30.1093 81.3766 30.0428 81.3766Z" fill="#01B1DF"/>
<path d="M90.395 147.449C89.6639 147.449 88.8663 147.183 88.268 146.651C87.6698 146.118 85.277 143.657 83.2166 141.128C78.9627 136.005 79.5609 135.339 79.8267 134.94C81.3555 133.21 92.4555 141.527 92.5884 141.66C93.9842 142.858 94.1172 144.921 92.9207 146.318C92.1896 147.117 91.3255 147.449 90.395 147.449ZM80.4914 135.605C80.4249 136.936 87.0052 144.388 88.7998 145.985C89.7968 146.85 91.3255 146.717 92.1231 145.719C92.5219 145.253 92.7213 144.655 92.7213 143.989C92.6549 143.324 92.389 142.792 91.9237 142.392C90.1291 140.795 81.8207 135.406 80.4914 135.605Z" fill="#01B1DF"/>
<path d="M35.626 97.6119C34.8949 97.6119 33.3661 97.0796 29.7769 94.8173C26.9853 93.0873 24.1937 91.0911 23.5955 90.5588C22.9308 89.96 22.532 89.1615 22.4655 88.2965C22.3991 87.4315 22.6649 86.5665 23.2631 85.9011C24.4596 84.5038 26.52 84.3708 27.9158 85.5685C28.514 86.1008 30.9069 88.5627 32.9673 91.0911C37.2212 96.2146 36.623 96.88 36.3572 97.2792C36.1578 97.4123 36.0248 97.6119 35.626 97.6119ZM25.7224 85.7015C25.0578 85.7015 24.3931 85.9677 23.9278 86.5C23.529 86.9658 23.3296 87.5646 23.3296 88.23C23.3961 88.8954 23.6619 89.4277 24.1272 89.8269C25.9883 91.4238 34.2967 96.8134 35.5596 96.6138C35.626 95.2831 29.0458 87.8308 27.2512 86.2338C26.7859 85.9011 26.2542 85.7015 25.7224 85.7015Z" fill="#01B1DF"/>
<path d="M94.0507 142.592C93.4525 142.592 92.7878 142.392 92.2561 142.06C92.1232 141.993 81.0232 133.676 82.2196 131.746C83.4825 129.817 95.6459 136.47 95.7788 136.537C97.3076 137.535 97.7729 139.531 96.7758 141.062C96.3106 141.794 95.5795 142.326 94.7154 142.525C94.516 142.592 94.2501 142.592 94.0507 142.592ZM92.7878 141.328C93.3196 141.66 93.9842 141.794 94.5824 141.66C95.1806 141.527 95.7124 141.128 96.0447 140.596C96.7759 139.465 96.4435 138.001 95.3136 137.335C93.2531 136.005 84.2801 131.813 83.0172 132.279C83.1501 133.543 90.7273 139.997 92.7878 141.328Z" fill="#01B1DF"/>
<path d="M32.9009 101.005C32.0369 101.005 30.4417 100.606 26.9854 99.0758C23.9943 97.745 20.9369 96.1481 20.2722 95.7488C19.541 95.2831 19.0093 94.5511 18.8099 93.6861C18.6105 92.8211 18.8099 91.9561 19.2752 91.2242C20.2722 89.6938 22.2662 89.2281 23.7949 90.2261C24.4596 90.6254 27.1848 92.7546 29.5776 94.9504C34.5626 99.4084 34.0309 100.14 33.765 100.54C33.6985 100.739 33.5656 101.005 32.9009 101.005ZM22.0668 90.6254C21.2692 90.6254 20.5381 91.0246 20.0728 91.69C19.7405 92.2223 19.6075 92.8877 19.7405 93.4865C19.8734 94.0854 20.2722 94.6177 20.8039 95.0169C22.8644 96.3477 31.8374 100.54 33.1003 100.074C32.9674 98.7431 25.4566 92.2888 23.3961 90.9581C22.9309 90.7584 22.4656 90.6254 22.0668 90.6254Z" fill="#01B1DF"/>
<path d="M96.9752 137.202C96.5099 137.202 96.0447 137.136 95.6459 136.936C95.5129 136.87 83.283 130.216 84.28 128.153C85.2105 126.024 98.2381 130.948 98.371 131.014C99.1686 131.347 99.7668 132.012 100.099 132.877C100.431 133.676 100.365 134.607 100.033 135.406C99.4345 136.537 98.2381 137.202 96.9752 137.202ZM95.9782 136.138C97.1746 136.67 98.5704 136.138 99.1021 134.94C99.368 134.341 99.368 133.742 99.1686 133.144C98.9692 132.545 98.5039 132.079 97.9057 131.813C95.7123 130.815 86.2075 127.954 85.0111 128.552C85.4099 129.75 93.7848 135.073 95.9782 136.138Z" fill="#01B1DF"/>
<path d="M30.5082 104.732C29.5776 104.732 27.8495 104.465 24.8585 103.667C21.7345 102.802 18.4776 101.671 17.7465 101.338C16.0848 100.606 15.3537 98.61 16.1513 97.0131C16.4836 96.2147 17.1483 95.6158 18.0124 95.2831C18.81 94.9504 19.7405 95.017 20.5381 95.3497C21.2692 95.6824 24.2603 97.4124 26.9854 99.2089C32.5022 102.869 32.1698 103.734 31.9704 104.199C31.771 104.399 31.5716 104.732 30.5082 104.732ZM19.1423 95.9485C18.8764 95.9485 18.6106 96.015 18.2782 96.0816C17.68 96.2812 17.2147 96.747 16.9489 97.3458C16.4171 98.5435 16.9489 99.9408 18.1453 100.473C20.3387 101.471 29.8435 104.332 31.0399 103.734C30.7076 102.469 22.3327 97.1462 20.1393 96.1481C19.807 96.015 19.4746 95.9485 19.1423 95.9485Z" fill="#01B1DF"/>
<path d="M99.1023 131.48C98.7699 131.48 98.5041 131.414 98.1718 131.347C98.0388 131.28 85.0113 126.49 85.676 124.227C86.3406 122.032 99.8999 124.959 100.033 125.026C101.761 125.558 102.758 127.355 102.226 129.085C101.96 129.95 101.429 130.615 100.631 131.014C100.166 131.347 99.634 131.48 99.1023 131.48ZM98.4376 130.482C99.0358 130.682 99.7005 130.615 100.232 130.282C100.764 129.95 101.163 129.484 101.362 128.885C101.761 127.621 101.03 126.29 99.7669 125.957C97.4406 125.292 87.6035 123.762 86.54 124.56C87.0718 125.758 96.1113 129.817 98.4376 130.482Z" fill="#01B1DF"/>
<path d="M27.8494 108.857C26.8523 108.857 25.4565 108.79 23.4625 108.524C20.2056 108.125 16.8158 107.46 16.0847 107.26C14.3566 106.728 13.3595 104.931 13.8913 103.201C14.423 101.471 16.2176 100.473 17.9458 101.005C18.6769 101.205 21.8673 102.469 24.8583 103.933C30.8404 106.794 30.641 107.659 30.4416 108.125C30.3086 108.325 30.1757 108.857 27.8494 108.857ZM17.0152 101.671C16.0182 101.671 15.0212 102.336 14.7554 103.401C14.3566 104.665 15.0877 105.996 16.3506 106.329C18.6769 106.994 28.514 108.524 29.5775 107.726C29.1122 106.528 20.0062 102.403 17.6799 101.737C17.414 101.737 17.2146 101.671 17.0152 101.671Z" fill="#01B1DF"/>
<path d="M100.432 125.558C100.299 125.558 100.099 125.558 99.9663 125.492C99.8334 125.492 86.2741 122.564 86.54 120.235C86.8723 117.973 100.764 118.971 100.897 118.971C102.691 119.237 103.954 120.9 103.688 122.697C103.423 124.36 102.027 125.558 100.432 125.558ZM87.4705 120.368C88.1352 121.499 97.7064 124.227 100.099 124.56C101.429 124.76 102.625 123.828 102.824 122.564C103.024 121.233 102.093 120.035 100.83 119.836C98.3711 119.57 88.401 119.503 87.4705 120.368Z" fill="#01B1DF"/>
<path d="M21.4685 113.515C18.6104 113.515 15.9517 113.382 15.2206 113.248C14.3565 113.115 13.5589 112.65 13.0937 111.984C12.5619 111.252 12.3625 110.387 12.4954 109.522C12.6284 108.657 13.0937 107.859 13.7583 107.393C14.4895 106.861 15.3535 106.661 16.2176 106.794C16.3505 106.794 29.9098 109.722 29.644 112.051C29.5775 112.516 29.4445 113.448 22.7978 113.515C22.2661 113.515 21.8673 113.515 21.4685 113.515ZM15.6859 107.659C15.1541 107.659 14.6889 107.792 14.2901 108.125C13.7583 108.524 13.426 109.056 13.3595 109.722C13.2931 110.321 13.426 110.986 13.8248 111.518C14.2236 112.051 14.7553 112.383 15.42 112.45C17.8128 112.783 27.7829 112.849 28.7134 111.984C28.0488 110.853 18.4775 108.125 16.0847 107.792C15.8853 107.659 15.8188 107.659 15.6859 107.659Z" fill="#01B1DF"/>
<path d="M100.83 119.437C100.697 119.437 86.8057 118.438 86.8057 116.176C86.8057 113.914 100.697 112.916 100.83 112.916C102.625 112.916 104.087 114.38 104.087 116.176C104.154 117.973 102.625 119.437 100.83 119.437ZM87.7362 116.176C88.5338 117.241 98.371 118.572 100.83 118.572C102.16 118.572 103.223 117.507 103.223 116.176C103.223 114.845 102.16 113.781 100.83 113.781C98.4374 113.781 88.6003 115.112 87.7362 116.176Z" fill="#01B1DF"/>
<path d="M15.2872 119.437C13.4925 119.437 12.0303 117.973 12.0303 116.176C12.0303 114.38 13.4925 112.916 15.2872 112.916C15.4201 112.916 29.3117 113.914 29.3117 116.176C29.3117 118.438 15.4201 119.437 15.2872 119.437ZM15.2872 113.781C13.9578 113.781 12.8943 114.845 12.8943 116.176C12.8943 117.507 13.9578 118.572 15.2872 118.572C17.68 118.572 27.5836 117.241 28.3812 116.176C27.5171 115.112 17.68 113.781 15.2872 113.781Z" fill="#01B1DF"/>
<path d="M94.3828 113.515C90.6607 113.515 86.7391 113.248 86.5397 112.051C86.2074 109.788 99.7667 106.794 99.9661 106.794C101.761 106.528 103.422 107.792 103.688 109.589C103.954 111.385 102.691 113.049 100.897 113.315C100.83 113.315 97.7062 113.515 94.3828 113.515ZM87.4702 111.918C88.4008 112.849 98.3708 112.783 100.764 112.383C102.093 112.184 102.957 110.986 102.758 109.655C102.558 108.325 101.362 107.46 100.033 107.659C97.6397 108.058 88.1349 110.786 87.4702 111.918Z" fill="#01B1DF"/>
<path d="M15.6859 125.558C14.9547 125.558 14.2901 125.359 13.7583 124.893C13.0272 124.36 12.6284 123.629 12.4954 122.764C12.3625 121.899 12.5619 121.034 13.0937 120.302C13.6254 119.57 14.3565 119.17 15.2206 119.037C16.0182 118.904 19.408 118.771 22.7314 118.838C29.3781 118.971 29.511 119.836 29.5775 120.302C29.644 120.767 29.7769 121.699 23.3961 123.629C20.2721 124.627 16.9487 125.425 16.1511 125.492C16.0182 125.492 15.8188 125.558 15.6859 125.558ZM15.3535 119.902C14.7553 119.969 14.1571 120.302 13.7583 120.834C13.3595 121.366 13.2266 121.965 13.2931 122.63C13.3595 123.229 13.6919 123.828 14.2236 124.227C14.7553 124.627 15.3535 124.76 16.0182 124.693C18.411 124.36 27.9823 121.632 28.647 120.501C27.7164 119.503 17.7464 119.57 15.3535 119.902Z" fill="#01B1DF"/>
<path d="M88.534 108.857C87.0053 108.857 85.8754 108.657 85.676 108.058C85.0113 105.863 98.0388 101.005 98.1718 100.939C99.0358 100.673 99.8999 100.806 100.698 101.205C101.495 101.604 102.027 102.336 102.293 103.135C102.824 104.865 101.827 106.728 100.099 107.194C99.9663 107.26 92.7215 108.857 88.534 108.857ZM86.54 107.792C87.6035 108.524 97.4406 107.06 99.7669 106.395C101.03 105.996 101.761 104.732 101.362 103.467C101.163 102.868 100.764 102.336 100.232 102.07C99.7005 101.737 99.0358 101.671 98.4376 101.87C96.1113 102.469 87.0718 106.528 86.54 107.792Z" fill="#01B1DF"/>
<path d="M17.0152 131.48C15.6194 131.48 14.2901 130.548 13.8913 129.151C13.3595 127.421 14.3566 125.558 16.0847 125.092C16.8158 124.893 20.2056 124.227 23.4625 123.828C30.0428 122.963 30.3086 123.828 30.4416 124.294C30.5745 124.76 30.8404 125.625 24.8583 128.486C21.9338 129.883 18.7434 131.147 17.9458 131.413C17.6134 131.48 17.2811 131.48 17.0152 131.48ZM16.3506 125.957C15.0877 126.357 14.3566 127.621 14.7554 128.885C15.1542 130.149 16.4835 130.881 17.6799 130.482C20.0062 129.817 29.0458 125.758 29.5775 124.493C28.4476 123.762 18.6769 125.225 16.3506 125.957Z" fill="#01B1DF"/>
<path d="M85.7421 104.732C84.9445 104.732 84.4128 104.598 84.2134 104.199C83.2828 102.07 95.4463 95.4162 95.5792 95.4162C97.2409 94.6842 99.1685 95.4162 99.8996 97.0131C100.232 97.8115 100.298 98.6766 99.9661 99.5416C99.6338 100.34 99.0355 101.005 98.2379 101.405C98.2379 101.405 89.3978 104.732 85.7421 104.732ZM85.0774 103.8C86.2739 104.399 95.7787 101.538 97.9721 100.54C98.5703 100.273 98.9691 99.8077 99.2349 99.2089C99.4343 98.61 99.4343 97.9446 99.1685 97.4123C98.6367 96.2146 97.2409 95.6823 96.0445 96.2146C93.7846 97.2127 85.4098 102.536 85.0774 103.8Z" fill="#01B1DF"/>
<path d="M19.1422 137.202C18.7434 137.202 18.3446 137.136 18.0123 137.003C17.2146 136.67 16.55 136.071 16.1512 135.273C15.8188 134.474 15.7524 133.609 16.0847 132.744C16.417 131.946 17.0152 131.28 17.8128 130.881C18.544 130.548 21.8009 129.417 24.9248 128.552C31.3721 126.756 31.7045 127.621 31.9039 128.02C32.1033 128.486 32.5021 129.284 26.9188 133.01C24.1937 134.807 21.2027 136.537 20.4715 136.87C20.0727 137.136 19.6075 137.202 19.1422 137.202ZM30.5081 128.419C28.1817 128.419 20.1392 130.881 18.1452 131.746C17.547 132.012 17.1482 132.478 16.8823 133.077C16.6829 133.676 16.6829 134.341 16.9488 134.873C17.2146 135.472 17.6799 135.872 18.2781 136.138C18.8763 136.337 19.541 136.337 20.0727 136.071C22.2661 135.073 30.641 129.75 30.9733 128.486C30.9069 128.419 30.7075 128.419 30.5081 128.419Z" fill="#01B1DF"/>
<path d="M83.2166 100.939C82.7514 100.939 82.419 100.806 82.2861 100.606C81.0232 98.6766 92.1897 90.3593 92.3226 90.2927C93.0538 89.827 93.9178 89.6273 94.7819 89.827C95.646 90.0266 96.3771 90.4923 96.8424 91.2908C97.8394 92.8212 97.3741 94.8173 95.8454 95.8154C95.7124 95.8154 86.4071 100.939 83.2166 100.939ZM83.0172 100.074C84.2801 100.54 93.2532 96.2812 95.3136 95.017C96.4436 94.285 96.7094 92.8212 96.0448 91.7566C95.7124 91.2243 95.1807 90.825 94.5825 90.692C93.9843 90.5589 93.3196 90.692 92.7879 91.0246C90.7274 92.2889 83.1502 98.7431 83.0172 100.074Z" fill="#01B1DF"/>
<path d="M22.0668 142.592C21.0033 142.592 19.9399 142.06 19.2752 141.062C18.8099 140.33 18.6105 139.465 18.8099 138.6C19.0093 137.735 19.4746 137.003 20.2722 136.537C20.9369 136.138 23.9943 134.541 26.9854 133.21C33.1003 130.548 33.5656 131.28 33.8315 131.746C34.0973 132.145 34.5626 132.944 29.644 137.335C27.1848 139.531 24.5261 141.66 23.8614 142.06C23.2632 142.392 22.665 142.592 22.0668 142.592ZM32.8345 132.212C30.9734 132.212 22.7315 136.071 20.8039 137.335C20.2722 137.668 19.8734 138.2 19.7405 138.866C19.6075 139.465 19.7405 140.13 20.0728 140.662C20.8039 141.793 22.2662 142.06 23.3297 141.394C25.3902 140.063 32.9009 133.609 33.0339 132.278C32.9674 132.212 32.9009 132.212 32.8345 132.212Z" fill="#01B1DF"/>
<path d="M80.4912 97.6119C80.0924 97.6119 79.8929 97.4123 79.8265 97.2792C79.4941 96.88 78.896 96.2146 83.2163 91.0911C85.3433 88.5627 87.6696 86.1008 88.2678 85.5685C89.6636 84.3708 91.7241 84.5038 92.9205 85.9011C93.5187 86.5665 93.7846 87.4315 93.7181 88.2965C93.6516 89.1615 93.2528 89.96 92.5882 90.5588C91.99 91.0911 89.1984 93.0873 86.4067 94.8173C82.751 97.0796 81.2223 97.6119 80.4912 97.6119ZM80.4912 96.6804C81.754 96.88 90.1289 91.4904 91.9235 89.8935C92.3888 89.4942 92.7211 88.8954 92.7211 88.2965C92.7876 87.6311 92.5882 87.0323 92.1229 86.5665C91.2588 85.5685 89.7301 85.4354 88.7995 86.3004C87.0049 87.8973 80.4247 95.3496 80.4912 96.6804Z" fill="#01B1DF"/>
<path d="M25.7227 147.449C24.7922 147.449 23.8616 147.05 23.2634 146.318C22.067 144.921 22.2 142.858 23.5958 141.66C23.7287 141.594 34.8287 133.21 36.3575 134.94C36.6898 135.339 37.288 136.005 32.9676 141.128C30.8407 143.657 28.5143 146.118 27.9161 146.651C27.2515 147.25 26.4539 147.449 25.7227 147.449ZM35.4934 135.605C33.9646 135.605 25.9221 140.862 24.1275 142.392C23.6622 142.792 23.3299 143.39 23.3299 143.989C23.2634 144.655 23.4628 145.253 23.9281 145.719C24.7922 146.717 26.3209 146.85 27.2515 145.985C29.1125 144.388 35.6263 136.936 35.5599 135.605C35.5599 135.605 35.5598 135.605 35.4934 135.605Z" fill="#01B1DF"/>
<path d="M77.4338 94.6177C77.1679 94.6177 76.9685 94.4846 76.9021 94.4181C76.5033 94.0854 75.8386 93.4866 79.3614 87.8308C81.0895 85.0362 83.0835 82.2416 83.6152 81.6427C84.2134 80.9773 85.0111 80.5781 85.8751 80.5116C86.7392 80.445 87.6033 80.7112 88.2679 81.31C89.6637 82.5077 89.7967 84.5704 88.6003 85.9677C88.0685 86.5666 85.6093 88.962 83.0835 91.0246C79.4943 93.9523 78.0985 94.6177 77.4338 94.6177ZM77.5003 93.6862C78.8961 93.6862 86.2739 87.1654 87.8691 85.3689C88.7332 84.3708 88.6003 82.8404 87.6033 82.042C86.6063 81.177 85.0775 81.31 84.2799 82.3081C82.6847 84.0381 77.2344 92.3554 77.5003 93.6862Z" fill="#01B1DF"/>
<path d="M30.0428 151.774C29.2451 151.774 28.514 151.508 27.9158 150.976C27.2511 150.377 26.8523 149.578 26.7858 148.713C26.7194 147.848 26.9853 146.983 27.5835 146.318C27.6499 146.185 37.4871 136.337 39.2152 137.868C39.614 138.2 40.2787 138.799 36.7559 144.455C35.0278 147.25 33.0338 150.044 32.502 150.643C31.9038 151.308 31.1062 151.708 30.2421 151.774C30.1757 151.774 30.1092 151.774 30.0428 151.774ZM28.2481 146.983C27.8493 147.449 27.6499 148.048 27.6499 148.713C27.7164 149.379 27.9823 149.911 28.4475 150.31C28.9128 150.71 29.511 150.909 30.1757 150.909C30.8403 150.843 31.3721 150.577 31.7709 150.111C33.3661 148.248 38.8164 139.93 38.5505 138.666C37.2212 138.6 29.7769 145.12 28.2481 146.983Z" fill="#01B1DF"/>
<path d="M73.9778 92.0227C73.8449 92.0227 73.7119 92.0227 73.6455 91.9561C71.7179 90.6919 78.3647 78.5154 78.4311 78.3823C78.8964 77.6504 79.6275 77.1181 80.4916 76.9184C81.3557 76.7188 82.2197 76.9184 82.9509 77.3842C83.682 77.85 84.2138 78.5819 84.4132 79.4469C84.6126 80.3119 84.4131 81.1769 83.9479 81.9088C83.8814 81.9754 76.4371 92.0227 73.9778 92.0227ZM81.1563 77.7169C80.9568 77.7169 80.8239 77.7169 80.6245 77.7834C80.0263 77.9165 79.4946 78.3158 79.1622 78.8481C77.8329 80.9108 73.6455 89.8934 74.1108 91.1577C75.4401 91.0246 81.8874 83.4392 83.2168 81.4431C83.5491 80.9108 83.682 80.2454 83.5491 79.6465C83.4162 79.0477 83.0173 78.5154 82.4856 78.1827C82.0868 77.85 81.6215 77.7169 81.1563 77.7169Z" fill="#01B1DF"/>
<path d="M34.8951 155.5C34.2969 155.5 33.6987 155.301 33.1005 154.968C31.5718 153.97 31.1065 151.974 32.1035 150.444C32.17 150.31 40.4784 139.199 42.4059 140.396C42.8047 140.662 43.6023 141.128 40.9436 147.25C39.6143 150.244 38.0191 153.305 37.6203 153.97C37.0221 154.902 35.9586 155.5 34.8951 155.5ZM32.9011 150.909C32.17 152.04 32.5023 153.504 33.6323 154.17C34.7622 154.902 36.2245 154.569 36.8891 153.438C38.2185 151.375 42.4059 142.392 41.9406 141.128C40.6778 141.328 34.2305 148.847 32.9011 150.909Z" fill="#01B1DF"/>
<path d="M70.2556 89.96C70.1891 89.96 70.0562 89.96 69.9897 89.8935C69.5245 89.6939 68.7268 89.2947 70.5215 82.907C71.3855 79.7797 72.5155 76.5193 72.8478 75.7874C73.1801 74.9889 73.8448 74.39 74.7089 74.0574C75.5065 73.7247 76.437 73.7912 77.2347 74.1239C78.8963 74.8558 79.6274 76.852 78.8298 78.4489C78.7634 78.6485 72.582 89.96 70.2556 89.96ZM75.8388 74.7893C75.573 74.7893 75.3071 74.8558 74.9748 74.9223C74.3766 75.122 73.9113 75.5877 73.6454 76.1866C72.6484 78.3824 69.7903 87.8973 70.3886 89.095C71.6514 88.7623 76.9688 80.3785 77.9658 78.1827C78.4975 76.985 77.9658 75.5877 76.7694 75.0554C76.5035 74.8558 76.1712 74.7893 75.8388 74.7893Z" fill="#01B1DF"/>
<path d="M40.2789 158.428C39.8136 158.428 39.3484 158.295 38.9496 158.162C38.152 157.829 37.5538 157.164 37.2214 156.299C36.8891 155.5 36.9556 154.569 37.2879 153.77C37.6202 153.038 39.3484 150.044 41.143 147.316C44.7987 141.793 45.6627 142.126 46.128 142.326C48.255 143.257 43.3364 156.299 43.2699 156.432C42.9376 157.23 42.2729 157.829 41.4088 158.162C41.0765 158.362 40.6777 158.428 40.2789 158.428ZM45.7292 143.191C44.4663 143.523 39.149 151.907 38.152 154.103C37.8861 154.702 37.8861 155.301 38.0855 155.9C38.2849 156.498 38.7502 156.964 39.3484 157.23C39.9466 157.497 40.5448 157.497 41.143 157.297C41.7412 157.097 42.2064 156.632 42.4723 156.033C43.4693 153.903 46.3274 144.388 45.7292 143.191Z" fill="#01B1DF"/>
<path d="M66.3341 88.4962C66.2676 88.4962 66.2012 88.4962 66.1347 88.4962C63.9413 87.8308 66.8658 74.257 66.9323 74.1239C67.4641 72.3939 69.2586 71.3958 70.9868 71.9281C72.7149 72.4604 73.7119 74.257 73.1802 75.987C73.2467 76.12 68.594 88.4962 66.3341 88.4962ZM70.1227 72.66C69.1257 72.66 68.1287 73.3254 67.8628 74.39C67.1982 76.7189 65.6694 86.5666 66.467 87.6312C67.7299 87.0989 71.8509 77.717 72.4491 75.7208C72.8479 74.4566 72.1167 73.1258 70.8538 72.7931C70.5215 72.66 70.3221 72.66 70.1227 72.66Z" fill="#01B1DF"/>
<path d="M45.9952 160.557C45.6629 160.557 45.397 160.491 45.0646 160.424C44.2006 160.158 43.5359 159.626 43.1371 158.827C42.7383 158.029 42.6054 157.164 42.8712 156.299C43.0706 155.567 44.3335 152.373 45.7958 149.379C48.6539 143.39 49.5179 143.59 49.9832 143.79C52.1766 144.455 49.2521 158.029 49.1856 158.162C48.7203 159.626 47.391 160.557 45.9952 160.557ZM49.6509 144.655C48.4545 145.12 44.3335 154.236 43.6688 156.565C43.4694 157.164 43.5359 157.829 43.8682 158.362C44.2006 158.894 44.6658 159.293 45.2641 159.493C46.5269 159.892 47.8563 159.16 48.1886 157.896C48.9862 155.567 50.4485 145.786 49.6509 144.655Z" fill="#01B1DF"/>
<path d="M62.213 87.6312H62.1465C59.8866 87.2985 60.8836 73.3919 60.8836 73.2588C61.1495 71.4623 62.8112 70.1981 64.6058 70.4642C66.4004 70.7304 67.6633 72.3938 67.3974 74.1904C67.3974 74.3235 64.4728 87.6312 62.213 87.6312ZM64.1405 71.3292C62.9441 71.3292 61.9471 72.1942 61.8142 73.3919C61.4818 75.7873 61.4154 85.7681 62.2794 86.6996C63.4094 86.0342 66.1345 76.4527 66.4669 74.0573C66.6663 72.7265 65.7357 71.5288 64.4728 71.3292C64.3399 71.3958 64.2734 71.3292 64.1405 71.3292Z" fill="#01B1DF"/>
<path d="M51.9774 161.822C51.8444 161.822 51.645 161.822 51.5121 161.755C50.648 161.622 49.8504 161.156 49.3852 160.491C48.8534 159.759 48.654 158.894 48.787 158.029C48.9199 157.23 49.7175 153.904 50.648 150.776C52.6421 144.389 53.5061 144.522 53.9714 144.588C54.4367 144.655 55.3672 144.788 55.4337 151.442C55.5001 154.702 55.3007 158.162 55.2343 158.96C55.1013 159.825 54.6361 160.624 53.9714 161.09C53.3732 161.622 52.6421 161.822 51.9774 161.822ZM53.8385 145.586C52.7085 146.252 49.9834 155.833 49.651 158.229C49.5846 158.827 49.7175 159.493 50.1163 160.025C50.5151 160.557 51.0468 160.89 51.7115 160.957C52.3097 161.023 52.9744 160.89 53.5061 160.491C54.0379 160.092 54.3702 159.559 54.4367 158.894C54.6361 156.499 54.7025 146.518 53.8385 145.586Z" fill="#01B1DF"/>
</g>
<path d="M57.8 448.6C54 448.6 51 445.5 51 441.8C51 438 54.1 435 57.8 435C61.6 435 64.6 438.1 64.6 441.8C64.7 445.5 61.6 448.6 57.8 448.6ZM57.8 436.2C54.8 436.2 52.3 438.7 52.3 441.7C52.3 444.7 54.8 447.2 57.8 447.2C60.8 447.2 63.3 444.7 63.3 441.7C63.3 438.7 60.8 436.2 57.8 436.2Z" fill="#131D25"/>
</svg>
