<svg width="112" height="353" viewBox="0 0 112 353" fill="none" xmlns="http://www.w3.org/2000/svg">
<path d="M45.5209 290.319C45.5209 293.807 46.4969 296.335 48.4489 297.903C50.3689 299.439 53.0089 300.207 56.3689 300.207C58.0009 300.207 59.4889 300.015 60.8329 299.631C62.1449 299.247 63.2809 298.671 64.2409 297.903C65.2009 297.135 65.9529 296.175 66.4969 295.023C67.0089 293.871 67.2649 292.527 67.2649 290.991C67.2649 290.159 67.2489 289.455 67.2169 288.879C67.1849 288.271 67.1209 287.743 67.0249 287.295L55.4569 287.295L55.4569 279.807L71.9209 279.807C72.2729 280.703 72.6409 282.143 73.0249 284.127C73.4409 286.111 73.6489 288.559 73.6489 291.471C73.6489 293.967 73.2649 296.239 72.4969 298.287C71.7289 300.303 70.6089 302.031 69.1369 303.471C67.6649 304.911 65.8569 306.031 63.7129 306.831C61.5689 307.599 59.1209 307.983 56.3689 307.983C53.5849 307.983 51.1209 307.551 48.9769 306.687C46.8329 305.823 45.0249 304.639 43.5529 303.135C42.0489 301.631 40.9129 299.871 40.1449 297.855C39.3769 295.807 38.9929 293.631 38.9929 291.327C38.9929 289.759 39.1049 288.351 39.3289 287.103C39.5209 285.823 39.7609 284.735 40.0489 283.839C40.3049 282.911 40.5769 282.159 40.8649 281.583C41.1529 280.975 41.3769 280.543 41.5369 280.287L47.5369 282.447C46.9929 283.471 46.5289 284.655 46.1449 285.999C45.7289 287.311 45.5209 288.751 45.5209 290.319ZM60.3529 249.704C62.3369 249.704 64.1609 249.992 65.8249 250.568C67.4569 251.144 68.8649 251.976 70.0489 253.064C71.2009 254.152 72.0969 255.464 72.7369 257C73.3769 258.504 73.6969 260.2 73.6969 262.088C73.6969 263.944 73.3769 265.64 72.7369 267.176C72.0969 268.68 71.2009 269.976 70.0489 271.064C68.8649 272.152 67.4569 273 65.8249 273.608C64.1609 274.216 62.3369 274.52 60.3529 274.52C58.3689 274.52 56.5609 274.216 54.9289 273.608C53.2969 272.968 51.9049 272.104 50.7529 271.016C49.6009 269.896 48.7049 268.584 48.0649 267.08C47.4249 265.544 47.1049 263.88 47.1049 262.088C47.1049 260.264 47.4249 258.6 48.0649 257.096C48.7049 255.56 49.6009 254.248 50.7529 253.16C51.9049 252.072 53.2969 251.224 54.9289 250.616C56.5609 250.008 58.3689 249.704 60.3529 249.704ZM60.3529 257C58.1449 257 56.4169 257.448 55.1689 258.344C53.8889 259.208 53.2489 260.456 53.2489 262.088C53.2489 263.72 53.8889 264.984 55.1689 265.88C56.4169 266.776 58.1449 267.224 60.3529 267.224C62.5609 267.224 64.3209 266.776 65.6329 265.88C66.9129 264.984 67.5529 263.72 67.5529 262.088C67.5529 260.456 66.9129 259.208 65.6329 258.344C64.3209 257.448 62.5609 257 60.3529 257ZM73.5049 234.083C73.4729 236.163 73.2489 237.859 72.8329 239.171C72.4169 240.451 71.8409 241.475 71.1049 242.243C70.3369 242.979 69.4249 243.491 68.3689 243.779C67.2809 244.035 66.0649 244.163 64.7209 244.163L36.9289 244.163L35.7769 237.011L63.2809 237.011C63.9209 237.011 64.4969 236.963 65.0089 236.867C65.5209 236.771 65.9529 236.595 66.3049 236.339C66.6569 236.051 66.9449 235.651 67.1689 235.139C67.3929 234.627 67.5369 233.939 67.6009 233.075L73.5049 234.083ZM60.2089 222.88C62.4169 222.88 64.1929 222.384 65.5369 221.392C66.8809 220.4 67.5529 218.928 67.5529 216.976C67.5529 216.336 67.5369 215.744 67.5049 215.2C67.4409 214.656 67.3769 214.208 67.3129 213.856L54.3049 213.856C54.0169 214.304 53.7769 214.896 53.5849 215.632C53.3929 216.336 53.2969 217.056 53.2969 217.792C53.2969 221.184 55.6009 222.88 60.2089 222.88ZM72.2089 206.704C72.4009 207.344 72.5929 208.08 72.7849 208.912C72.9449 209.744 73.0889 210.624 73.2169 211.552C73.3449 212.448 73.4409 213.376 73.5049 214.336C73.6009 215.264 73.6489 216.16 73.6489 217.024C73.6489 219.104 73.3449 220.96 72.7369 222.592C72.1289 224.224 71.2649 225.6 70.1449 226.72C68.9929 227.84 67.6169 228.704 66.0169 229.312C64.3849 229.888 62.5609 230.176 60.5449 230.176C58.4969 230.176 56.6569 229.92 55.0249 229.408C53.3609 228.896 51.9529 228.16 50.8009 227.2C49.6489 226.24 48.7689 225.072 48.1609 223.696C47.5529 222.288 47.2489 220.688 47.2489 218.896C47.2489 217.904 47.3449 217.024 47.5369 216.256C47.7289 215.456 48.0009 214.656 48.3529 213.856L36.9289 213.856L35.7769 206.704L72.2089 206.704Z" fill="#131D25"/>
<path d="M39.5063 85.6186C39.3734 85.6186 39.3069 85.5521 39.2404 85.4856C39.1075 85.3525 39.174 85.1529 39.3069 85.0198C48.4129 79.0313 65.8272 71.7786 66.0266 71.7121C80.3171 65.8567 90.7524 53.3475 94.1422 38.3763C94.2087 38.1767 94.3416 38.1102 94.541 38.1102C94.7404 38.1767 94.8069 38.3098 94.8069 38.5094C91.4171 53.7467 80.7823 66.389 66.359 72.3775C66.1596 72.444 48.8117 79.6302 39.7722 85.6186C39.6392 85.6186 39.5728 85.6186 39.5063 85.6186Z" fill="#808485"/>
<path d="M15.1792 131.796C14.9133 131.796 14.7139 131.597 14.7139 131.331L14.6475 129.8C14.6475 106.445 29.6025 85.9513 51.8025 78.8982C58.5822 76.769 65.7606 75.9705 72.9391 76.6359C75.5978 76.9021 78.2565 76.2367 80.5828 74.7728C90.287 68.5848 96.402 58.2048 97.0002 46.8267C97.0666 45.0967 97.0666 43.3667 96.8672 41.7032C96.6014 38.5759 95.7373 36.6463 94.5409 36.3801C93.3445 36.114 91.7492 37.6444 90.154 40.3725C81.1145 56.8075 63.8996 66.9213 45.2888 66.9213C40.769 66.9213 36.3157 66.3225 31.9954 65.1913C31.7295 65.1248 31.5966 64.8586 31.663 64.659C31.7295 64.3928 31.9954 64.2598 32.1948 64.3263C36.4487 65.4575 40.902 66.0563 45.2888 66.0563C63.6337 66.0563 80.5163 56.0755 89.4894 40.0398C91.284 36.8459 93.1451 35.249 94.8067 35.5817C96.4019 35.9144 97.5319 38.1101 97.8642 41.7032C97.9972 43.4332 98.0636 45.2298 97.9972 46.9598C97.399 58.604 91.0846 69.2501 81.181 75.5713C78.7217 77.1017 75.7972 77.8336 73.0055 77.5675C65.96 76.9021 58.9145 77.7005 52.2678 79.7632C30.4002 86.6832 15.7109 106.778 15.7109 129.8L15.7774 131.264C15.6445 131.597 15.4451 131.796 15.1792 131.796C15.2457 131.796 15.2457 131.796 15.1792 131.796Z" fill="#808485"/>
<mask id="mask0_161_2221" style="mask-type:luminance" maskUnits="userSpaceOnUse" x="15" y="74" width="96" height="91">
<path d="M15.3121 133.327L15.1792 129.867C15.1792 106.246 30.666 86.2174 52.0684 79.4305C57.1199 77.8336 62.5038 76.9686 68.087 76.9686C69.7487 76.9686 71.4103 77.0351 73.0055 77.2348C75.7972 77.5009 78.5888 76.769 80.9151 75.3051C90.4199 69.2501 98.9277 90.9417 99.5924 79.0313C99.6588 77.2348 110.825 95.0671 110.692 93.3371C110.028 86.284 109.629 132.129 106.173 138.317C97.4654 153.954 97.6648 164.932 78.5223 164.932C73.9361 164.932 27.5421 163.402 23.2882 162.271L15.3121 133.327Z" fill="white"/>
</mask>
<g mask="url(#mask0_161_2221)">
<path d="M45.4879 109.04C42.6298 109.04 34.3214 104.249 34.1885 104.183C32.7927 103.251 32.4604 101.388 33.3909 100.057C33.8562 99.3921 34.5208 98.9263 35.3184 98.7932C36.116 98.6602 36.9136 98.7932 37.5783 99.259C37.7112 99.3255 47.6148 106.977 46.4184 108.774C46.219 108.907 45.8867 109.04 45.4879 109.04ZM35.8502 99.5917C35.7172 99.5917 35.5843 99.5917 35.4514 99.6582C34.9196 99.7913 34.4544 100.057 34.122 100.523C33.4573 101.455 33.7232 102.786 34.7202 103.451C36.3819 104.582 44.225 108.508 45.6208 108.175C45.355 106.844 38.7083 101.056 37.0466 99.9244C36.7142 99.7248 36.3154 99.5917 35.8502 99.5917Z" fill="#808485"/>
<path d="M80.25 134.391C79.6518 134.391 79.1201 134.192 78.5883 133.859C78.4554 133.792 68.5518 126.141 69.7482 124.344C70.0141 123.945 70.4793 123.279 75.9296 125.808C78.5883 127.006 81.3135 128.536 81.9117 128.869C82.5763 129.334 83.0416 130 83.1745 130.798C83.3075 131.597 83.1746 132.395 82.7093 133.061C82.244 133.726 81.5793 134.192 80.7817 134.325C80.6488 134.325 80.4494 134.391 80.25 134.391ZM70.5458 124.876C70.8116 126.207 77.4584 131.996 79.12 133.127C79.5853 133.46 80.1171 133.526 80.7153 133.46C81.247 133.327 81.7123 133.061 82.0446 132.595C82.377 132.129 82.4434 131.597 82.377 130.998C82.244 130.466 81.9781 130 81.5128 129.667C79.7847 128.536 71.8751 124.61 70.5458 124.876Z" fill="#808485"/>
<path d="M58.0502 127.671C51.9353 127.671 46.8838 122.681 46.8838 116.492C46.8838 110.371 51.8688 105.314 58.0502 105.314C64.1652 105.314 69.2167 110.304 69.2167 116.492C69.2167 122.681 64.2317 127.671 58.0502 127.671ZM58.0502 106.246C52.4005 106.246 47.8143 110.837 47.8143 116.492C47.8143 122.148 52.4005 126.739 58.0502 126.739C63.6999 126.739 68.2862 122.148 68.2862 116.492C68.2862 110.903 63.6999 106.246 58.0502 106.246Z" fill="#808485"/>
<path d="M58.0506 146.235C41.6997 146.235 28.3398 132.927 28.3398 116.492C28.3398 100.057 41.6332 86.7498 58.0506 86.7498C74.4015 86.7498 87.7614 100.057 87.7614 116.492C87.7614 132.927 74.468 146.235 58.0506 146.235ZM58.0506 87.6813C42.165 87.6813 29.2704 100.59 29.2704 116.492C29.2704 132.395 42.165 145.304 58.0506 145.304C73.9362 145.304 86.8308 132.395 86.8308 116.492C86.8308 100.656 73.9362 87.6813 58.0506 87.6813Z" fill="#808485"/>
<path d="M58.0503 131.53C49.8084 131.53 43.0952 124.81 43.0952 116.559C43.0952 108.308 49.8084 101.588 58.0503 101.588C66.2922 101.588 73.0054 108.308 73.0054 116.559C73.0719 124.81 66.3587 131.53 58.0503 131.53ZM58.0503 102.453C50.2737 102.453 43.9593 108.774 43.9593 116.559C43.9593 124.344 50.2737 130.665 58.0503 130.665C65.827 130.665 72.1413 124.344 72.1413 116.559C72.1413 108.774 65.827 102.453 58.0503 102.453Z" fill="#808485"/>
<path d="M58.0506 102.453C55.9236 102.453 55.0596 89.9436 55.0596 89.8105C55.0596 88.1471 56.3889 86.8163 58.0506 86.8163C59.7123 86.8163 61.0416 88.1471 61.0416 89.8105C61.0416 89.9436 60.244 102.453 58.0506 102.453ZM58.0506 87.6813C56.9206 87.6813 55.9901 88.6128 55.9901 89.744C55.9901 91.7401 57.12 100.457 58.0506 101.455C58.9811 100.523 60.1111 91.7401 60.1111 89.744C60.1775 88.6794 59.247 87.6813 58.0506 87.6813Z" fill="#808485"/>
<path d="M58.0506 146.235C56.3889 146.235 55.0596 144.904 55.0596 143.241C55.0596 143.108 55.9236 130.599 58.0506 130.599C60.1775 130.599 61.0416 143.108 61.0416 143.241C61.0416 144.904 59.7123 146.235 58.0506 146.235ZM58.0506 131.597C57.12 132.528 55.9901 141.311 55.9901 143.307C55.9901 144.439 56.9206 145.37 58.0506 145.37C59.1805 145.37 60.1111 144.439 60.1111 143.307C60.1775 141.245 59.0476 132.528 58.0506 131.597Z" fill="#808485"/>
<path d="M58.0506 102.453C55.9236 102.453 55.0596 89.9436 55.0596 89.8105C55.0596 88.1471 56.3889 86.8163 58.0506 86.8163C59.7123 86.8163 61.0416 88.1471 61.0416 89.8105C61.0416 89.9436 60.244 102.453 58.0506 102.453ZM58.0506 87.6813C56.9206 87.6813 55.9901 88.6128 55.9901 89.744C55.9901 91.7401 57.12 100.457 58.0506 101.455C58.9811 100.523 60.1111 91.7401 60.1111 89.744C60.1775 88.6794 59.247 87.6813 58.0506 87.6813Z" fill="#808485"/>
<path d="M58.0506 146.235C56.3889 146.235 55.0596 144.904 55.0596 143.241C55.0596 143.108 55.9236 130.599 58.0506 130.599C60.1775 130.599 61.0416 143.108 61.0416 143.241C61.0416 144.904 59.7123 146.235 58.0506 146.235ZM58.0506 131.597C57.12 132.528 55.9901 141.311 55.9901 143.307C55.9901 144.439 56.9206 145.37 58.0506 145.37C59.1805 145.37 60.1111 144.439 60.1111 143.307C60.1775 141.245 59.0476 132.528 58.0506 131.597Z" fill="#808485"/>
<path d="M55.1922 102.719C53.0653 102.719 49.9413 91.0082 49.8749 90.8752C49.5425 89.2782 50.606 87.6813 52.2012 87.3486C53.7964 87.0159 55.3916 88.0805 55.7239 89.6775C55.7239 89.8105 57.3856 102.253 55.2587 102.652C55.2587 102.719 55.2587 102.719 55.1922 102.719ZM52.8659 88.2136C52.7329 88.2136 52.6 88.2136 52.4671 88.2802C51.3371 88.4798 50.606 89.6109 50.8054 90.7421C51.2042 92.6717 53.9958 101.056 55.1257 101.787C55.8569 100.656 55.2587 91.8732 54.9264 89.9436C54.727 88.9455 53.8629 88.2136 52.8659 88.2136Z" fill="#808485"/>
<path d="M63.3012 145.769C62.703 145.769 62.1713 145.57 61.6396 145.237C60.9749 144.771 60.5096 144.106 60.3767 143.307C60.2437 142.642 59.9114 139.515 59.7785 136.587C59.5791 130.599 60.3767 130.399 60.8419 130.332C61.3072 130.266 62.1048 130.066 64.1653 135.722C65.1623 138.45 66.0928 141.444 66.2258 142.11C66.3587 142.908 66.2258 143.707 65.7605 144.372C65.2952 145.037 64.6306 145.503 63.833 145.636C63.7 145.703 63.5006 145.769 63.3012 145.769ZM60.9749 131.264C60.2437 132.395 60.8419 141.178 61.1743 143.108C61.3072 143.64 61.5731 144.106 62.0383 144.439C62.5036 144.771 63.0354 144.838 63.6336 144.771C64.1653 144.638 64.6306 144.372 64.9629 143.906C65.2952 143.441 65.3617 142.908 65.2952 142.309C64.9629 140.38 62.1048 131.996 60.9749 131.264Z" fill="#808485"/>
<path d="M52.3341 103.584C51.8023 103.584 50.8053 102.985 48.2796 98.8598C46.7508 96.3313 45.2886 93.6032 45.0227 92.9379C44.6904 92.2059 44.6904 91.4075 45.0227 90.6755C45.355 89.9436 45.8868 89.3448 46.6179 89.0786C48.1466 88.4132 49.8748 89.1452 50.5394 90.6755C50.8053 91.3409 51.7358 94.2686 52.4005 97.1298C53.7963 102.985 52.9987 103.318 52.5999 103.451C52.5999 103.517 52.467 103.584 52.3341 103.584ZM47.8808 89.744C47.6149 89.744 47.349 89.8105 47.0832 89.8771C46.5514 90.0767 46.1526 90.4759 45.9532 91.0082C45.7538 91.5405 45.7538 92.0729 45.9532 92.6052C46.6844 94.4682 51.0712 102.12 52.3341 102.586C52.8658 101.322 50.5394 92.8048 49.8083 91.0082C49.476 90.2098 48.6784 89.744 47.8808 89.744Z" fill="#808485"/>
<path d="M68.2863 144.239C67.8875 144.239 67.4887 144.172 67.1564 144.039C66.4252 143.707 65.827 143.174 65.5611 142.442C65.4947 142.309 61.5067 130.466 63.5007 129.601C65.4947 128.802 71.0115 139.981 71.0779 140.114C71.4103 140.846 71.4103 141.644 71.0779 142.376C70.7456 143.108 70.2138 143.707 69.4827 143.973C69.0839 144.172 68.6851 144.239 68.2863 144.239ZM63.833 130.399C63.3013 131.663 65.6276 140.18 66.3587 141.977C66.5581 142.509 66.957 142.908 67.4887 143.108C68.0204 143.307 68.5522 143.307 69.0839 143.108C69.6157 142.908 70.0144 142.509 70.2138 141.977C70.4132 141.444 70.4132 140.912 70.2138 140.38C69.4827 138.583 65.0959 130.931 63.833 130.399Z" fill="#808485"/>
<path d="M49.875 104.915C47.6151 104.915 40.8355 96.0651 40.769 95.9986C40.3037 95.3332 40.1708 94.5348 40.3037 93.7363C40.4367 92.9378 40.9019 92.2724 41.5666 91.8067C42.2313 91.3409 43.0289 91.2078 43.8265 91.3409C44.6241 91.474 45.2888 91.9398 45.754 92.6051C45.8205 92.7382 52.0684 103.584 50.2738 104.782C50.1409 104.848 50.0079 104.915 49.875 104.915ZM43.2283 92.2059C42.8295 92.2059 42.4307 92.339 42.0983 92.5386C41.6331 92.8713 41.3007 93.3371 41.2343 93.8694C41.1013 94.4017 41.2343 95.0005 41.5666 95.4663C42.6966 97.1297 48.4792 103.784 49.8085 104.05C50.0744 102.719 46.1528 94.8009 45.0894 93.204C44.757 92.7382 44.2918 92.4055 43.76 92.339C43.4941 92.2059 43.3612 92.2059 43.2283 92.2059Z" fill="#808485"/>
<path d="M72.939 141.777C71.942 141.777 71.0115 141.311 70.4798 140.446C70.4133 140.313 64.1654 129.467 65.96 128.27C66.3588 128.004 67.0235 127.538 71.1444 131.996C73.1384 134.125 75.066 136.52 75.4648 137.119C75.9301 137.785 76.063 138.583 75.9301 139.382C75.7971 140.18 75.3318 140.845 74.6672 141.311C74.069 141.577 73.4708 141.777 72.939 141.777ZM71.1444 139.914C71.8091 140.845 73.072 141.112 74.069 140.513C74.5343 140.18 74.8666 139.714 74.9331 139.182C75.066 138.65 74.9331 138.051 74.6007 137.585C73.4708 135.922 67.6881 129.268 66.3588 129.002C66.1594 130.332 70.081 138.25 71.1444 139.914Z" fill="#808485"/>
<path d="M47.5485 106.778C45.0227 106.778 37.1132 99.8578 37.0467 99.7913C36.4485 99.1925 36.1826 98.4605 36.1826 97.6621C36.1826 96.8636 36.515 96.1317 37.0467 95.5328C37.5784 95.0005 38.376 94.6678 39.1736 94.6678C39.9712 94.6678 40.7024 95.0005 41.3006 95.5328C41.8323 96.0652 43.7599 98.394 45.488 100.789C49.0108 105.647 48.4126 106.246 48.0802 106.578C48.0138 106.711 47.8144 106.778 47.5485 106.778ZM39.1736 95.5328C38.6419 95.5328 38.1102 95.7325 37.7114 96.1317C36.9138 96.9302 36.9138 98.2609 37.7114 99.0594C39.1072 100.457 46.1527 105.846 47.4155 105.846C47.4155 104.516 42.0317 97.529 40.6359 96.1317C40.2371 95.7325 39.7054 95.5328 39.1736 95.5328Z" fill="#808485"/>
<path d="M76.9267 138.45C76.1291 138.45 75.398 138.117 74.7998 137.585C74.7333 137.519 66.4914 128.07 68.0201 126.54C69.5489 125.009 78.9872 133.26 79.0537 133.327C79.6519 133.926 79.9177 134.657 79.9177 135.456C79.9177 136.254 79.5854 136.986 79.0537 137.585C78.5219 138.117 77.7243 138.45 76.9267 138.45ZM68.6848 127.139C68.6848 128.469 74.0686 135.456 75.4644 136.853C76.2621 137.652 77.5914 137.652 78.389 136.853C79.1866 136.055 79.1866 134.724 78.389 133.926C76.9932 132.528 70.0806 127.139 68.6848 127.139Z" fill="#808485"/>
<path d="M43.6271 111.702C42.6966 111.702 41.2343 111.502 38.7086 110.903C35.8505 110.238 32.9259 109.306 32.2613 109.04C30.7325 108.441 30.0014 106.645 30.6661 105.114C30.9984 104.382 31.5301 103.784 32.2613 103.517C32.9924 103.185 33.79 103.185 34.5212 103.517C35.1858 103.784 37.911 105.247 40.4367 106.778C45.5547 109.905 45.2223 110.704 45.0894 111.103C44.9565 111.369 44.8236 111.702 43.6271 111.702ZM33.3912 104.183C33.1254 104.183 32.8595 104.249 32.5936 104.316C32.0619 104.516 31.6631 104.915 31.4637 105.447C30.9984 106.512 31.5301 107.709 32.5936 108.175C34.4547 108.907 42.9625 111.236 44.1589 110.704C43.6271 109.439 35.9834 105.048 34.1888 104.316C33.9229 104.249 33.6571 104.183 33.3912 104.183Z" fill="#808485"/>
<path d="M82.7099 129.734C82.3111 129.734 81.9123 129.667 81.58 129.534C81.447 129.467 70.2141 123.945 71.0782 121.949C71.8758 119.952 83.7734 123.945 83.9063 124.011C84.6374 124.344 85.2356 124.876 85.5015 125.608C85.8338 126.34 85.8338 127.139 85.5015 127.871C85.1692 128.602 84.6374 129.201 83.9063 129.467C83.5075 129.667 83.1087 129.734 82.7099 129.734ZM71.9422 122.281C72.474 123.546 80.1177 127.937 81.9123 128.669C82.444 128.869 82.9757 128.869 83.5075 128.669C84.0392 128.469 84.438 128.07 84.6374 127.538C84.8368 127.006 84.8368 126.473 84.6374 125.941C84.438 125.409 84.0392 125.009 83.5075 124.81C81.7129 124.078 73.2051 121.749 71.9422 122.281Z" fill="#808485"/>
<path d="M39.639 114.896C35.9169 114.896 31.3307 114.297 31.2642 114.297C29.669 113.964 28.6055 112.367 28.9378 110.77C29.2702 109.173 30.8654 108.109 32.4606 108.441C32.5935 108.441 44.6905 111.702 44.2253 113.831C44.0923 114.629 42.0983 114.896 39.639 114.896ZM31.8624 109.24C30.8654 109.24 30.0013 109.905 29.8019 110.903C29.6025 112.034 30.3336 113.166 31.4636 113.365C33.3911 113.764 42.2313 114.363 43.2947 113.565C42.5636 112.434 34.1887 109.639 32.2612 109.24C32.1283 109.24 31.9953 109.24 31.8624 109.24Z" fill="#808485"/>
<path d="M84.2384 124.743C84.039 124.743 83.8396 124.743 83.6402 124.677C82.9755 124.544 79.9845 123.679 77.2593 122.614C71.6096 120.551 71.809 119.686 71.8755 119.287C71.9419 118.821 72.1414 118.023 78.1234 118.222C81.0479 118.355 84.1054 118.622 84.8366 118.821C85.6342 118.954 86.2988 119.42 86.7641 120.085C87.2294 120.751 87.3623 121.549 87.2294 122.348C87.0965 123.146 86.6312 123.812 85.9665 124.277C85.4348 124.544 84.8366 124.743 84.2384 124.743ZM72.806 119.487C73.5372 120.618 81.912 123.412 83.8395 123.812C84.3713 123.945 84.9695 123.812 85.4348 123.479C85.9 123.146 86.2324 122.68 86.2988 122.148C86.4318 121.616 86.2988 121.017 85.9665 120.551C85.6342 120.085 85.1689 119.753 84.6372 119.686C82.7096 119.287 73.936 118.688 72.806 119.487Z" fill="#808485"/>
<path d="M31.3973 119.553C29.7356 119.553 28.4062 118.222 28.4062 116.559C28.4062 114.896 29.7356 113.565 31.3973 113.565C31.5302 113.565 44.026 114.43 44.026 116.559C44.026 118.688 31.5302 119.553 31.3973 119.553ZM31.3973 114.43C30.2673 114.43 29.3368 115.361 29.3368 116.492C29.3368 117.624 30.2673 118.555 31.3973 118.555C33.3913 118.555 42.0984 117.424 43.0955 116.492C42.0984 115.561 33.3913 114.43 31.3973 114.43Z" fill="#808485"/>
<path d="M84.7703 119.553C84.6374 119.553 72.1416 118.688 72.1416 116.559C72.1416 114.43 84.6374 113.565 84.7703 113.565C86.432 113.565 87.7614 114.896 87.7614 116.559C87.7614 118.156 86.432 119.553 84.7703 119.553ZM73.0722 116.559C74.0027 117.491 82.7763 118.622 84.7703 118.622C85.9003 118.622 86.8308 117.69 86.8308 116.559C86.8308 115.428 85.9003 114.496 84.7703 114.496C82.7763 114.43 74.0692 115.561 73.0722 116.559Z" fill="#808485"/>
<path d="M31.8624 124.743C30.4666 124.743 29.2037 123.745 28.9378 122.348C28.6055 120.751 29.669 119.154 31.2642 118.821C31.3971 118.821 43.8265 117.158 44.2253 119.287C44.6241 121.416 32.5935 124.677 32.4606 124.677C32.2612 124.743 32.0618 124.743 31.8624 124.743ZM39.9714 119.087C36.9139 119.087 32.7265 119.42 31.4636 119.686C30.3336 119.886 29.6025 121.017 29.8019 122.148C30.0013 123.279 31.1313 124.011 32.2612 123.812C34.1887 123.412 42.5636 120.618 43.2947 119.487C42.9624 119.221 41.6331 119.087 39.9714 119.087Z" fill="#808485"/>
<path d="M76.2623 114.829C72.0749 114.829 71.9419 114.164 71.8755 113.764C71.809 113.299 71.6096 112.5 77.2593 110.437C79.9845 109.439 82.9755 108.508 83.6402 108.375C84.4378 108.242 85.2354 108.375 85.9001 108.841C86.5647 109.306 87.03 109.972 87.1629 110.77C87.2958 111.569 87.1629 112.367 86.6977 113.032C86.2324 113.698 85.5677 114.164 84.7701 114.297C84.1054 114.43 80.9815 114.762 78.0569 114.896C77.4587 114.829 76.7941 114.829 76.2623 114.829ZM72.806 113.565C73.936 114.297 82.7096 113.698 84.6372 113.365C85.1689 113.232 85.6342 112.966 85.9665 112.5C86.2988 112.034 86.3653 111.502 86.2988 110.903C86.1659 110.371 85.9 109.905 85.4348 109.572C84.9695 109.24 84.4378 109.173 83.8395 109.24C81.912 109.639 73.5372 112.434 72.806 113.565Z" fill="#808485"/>
<path d="M33.391 129.734C32.9922 129.734 32.5934 129.667 32.2611 129.534C31.53 129.201 30.9318 128.669 30.6659 127.937C30.0677 126.407 30.7324 124.677 32.2611 124.011C32.9258 123.745 35.8503 122.814 38.7084 122.148C44.5575 120.751 44.8899 121.549 45.0228 121.949C45.2222 122.348 45.4881 123.146 40.3701 126.274C37.8443 127.804 35.1192 129.268 34.4545 129.534C34.1886 129.667 33.7898 129.734 33.391 129.734ZM43.627 122.215C41.3006 122.215 34.2551 124.144 32.6599 124.81C31.5964 125.276 31.0647 126.473 31.53 127.538C31.7294 128.07 32.1282 128.469 32.6599 128.669C33.1916 128.869 33.7234 128.869 34.2551 128.669C36.1162 127.937 43.7599 123.546 44.2252 122.281C44.0922 122.215 43.8928 122.215 43.627 122.215Z" fill="#808485"/>
<path d="M72.6731 111.702C71.809 111.702 71.2108 111.569 71.0779 111.169C70.2803 109.173 81.4467 103.651 81.5797 103.584C82.3108 103.251 83.1084 103.251 83.8395 103.584C84.5707 103.917 85.1689 104.449 85.4348 105.181C85.7671 105.913 85.7671 106.711 85.4348 107.443C85.1024 108.175 84.5707 108.774 83.8395 109.04C83.7731 109.107 76.1294 111.702 72.6731 111.702ZM71.9419 110.77C73.2048 111.302 81.7126 108.974 83.5072 108.242C84.0389 108.042 84.4377 107.643 84.6371 107.111C84.8365 106.578 84.8365 106.046 84.6371 105.514C84.4377 104.981 84.0389 104.582 83.5072 104.382C82.9755 104.183 82.4437 104.183 81.912 104.382C80.1174 105.114 72.4737 109.506 71.9419 110.77Z" fill="#808485"/>
<path d="M35.8503 134.391C35.6509 134.391 35.4515 134.391 35.2521 134.325C34.4545 134.192 33.7898 133.726 33.3245 133.061C32.394 131.663 32.7928 129.8 34.1221 128.935C34.2551 128.869 45.0892 122.614 46.2856 124.411C47.482 126.207 37.5784 133.859 37.4455 133.926C37.0467 134.192 36.4485 134.391 35.8503 134.391ZM34.7203 129.667C33.7898 130.332 33.5239 131.597 34.1221 132.595C34.4545 133.061 34.9197 133.393 35.4515 133.46C35.9832 133.593 36.5814 133.46 37.0467 133.127C38.7084 131.996 45.3551 126.207 45.6209 124.876C44.2251 124.61 36.382 128.536 34.7203 129.667Z" fill="#808485"/>
<path d="M70.6127 109.107C70.0145 109.107 69.8816 108.907 69.8151 108.707C68.6187 106.911 78.5223 99.259 78.6552 99.1925C79.3199 98.7267 80.1175 98.5936 80.9151 98.7267C81.7127 98.8598 82.3774 99.3255 82.8426 99.9909C83.3079 100.656 83.4408 101.455 83.3079 102.253C83.175 103.052 82.7097 103.717 82.0451 104.183C81.4469 104.582 78.7217 106.046 76.063 107.244C72.8726 108.707 71.3439 109.107 70.6127 109.107ZM70.5462 108.175C71.8756 108.441 79.7852 104.516 81.3804 103.451C81.8457 103.118 82.178 102.652 82.2445 102.12C82.3774 101.588 82.2445 100.989 81.9121 100.523C81.5798 100.057 81.1145 99.7248 80.5828 99.6582C80.051 99.5252 79.4528 99.6582 78.9875 99.9909C77.4588 101.056 70.8121 106.844 70.5462 108.175Z" fill="#808485"/>
<path d="M39.1736 138.45C38.376 138.45 37.6449 138.117 37.0467 137.585C36.4485 136.986 36.1826 136.254 36.1826 135.456C36.1826 134.657 36.515 133.926 37.0467 133.327C37.1132 133.26 46.5515 125.009 48.0802 126.54C49.609 128.07 41.3671 137.519 41.3006 137.585C40.7689 138.117 39.9712 138.45 39.1736 138.45ZM47.4155 127.139C46.0862 127.139 39.1072 132.528 37.7114 133.926C36.9138 134.724 36.9138 136.055 37.7114 136.853C38.509 137.652 39.8383 137.652 40.6359 136.853C42.0982 135.522 47.482 128.536 47.4155 127.139Z" fill="#808485"/>
<path d="M68.5522 106.778C68.3528 106.778 68.1534 106.711 68.0205 106.578C67.6882 106.246 67.09 105.647 70.6127 100.789C72.3409 98.394 74.3349 95.9986 74.8002 95.5328C75.3319 95.0005 76.1295 94.6678 76.9271 94.6678C77.7247 94.6678 78.4559 95.0005 79.0541 95.5328C79.6523 96.1317 79.9181 96.8636 79.9181 97.6621C79.9181 98.4605 79.5858 99.1925 79.0541 99.7913C78.9876 99.8578 71.078 106.778 68.5522 106.778ZM68.6852 105.913C70.081 105.913 76.9936 100.523 78.3894 99.1259C79.187 98.3275 79.187 96.9967 78.3894 96.1982C77.5918 95.3998 76.2624 95.3998 75.4648 96.1982C74.069 97.529 68.6852 104.516 68.6852 105.913Z" fill="#808485"/>
<path d="M43.2281 141.777C42.6299 141.777 42.0982 141.577 41.5664 141.245C40.1706 140.313 39.8383 138.45 40.7688 137.119C40.8353 136.986 48.479 127.072 50.2736 128.27C52.0682 129.467 45.8203 140.313 45.7538 140.446C45.2886 141.112 44.6239 141.577 43.8263 141.711C43.6269 141.711 43.4275 141.777 43.2281 141.777ZM41.5 137.585C40.8353 138.517 41.1012 139.847 42.0982 140.513C42.5634 140.846 43.0952 140.912 43.6934 140.846C44.2251 140.712 44.6904 140.446 45.0227 139.981C46.1527 138.317 50.0742 130.399 49.7419 129.135C48.4125 129.268 42.6299 135.922 41.5 137.585Z" fill="#808485"/>
<path d="M66.3588 104.981C66.1594 104.981 66.0265 104.915 65.96 104.848C64.1654 103.651 70.4133 92.8047 70.4798 92.6717C71.4103 91.2744 73.2714 90.9417 74.6007 91.8732C75.2654 92.339 75.7306 93.0044 75.8636 93.8028C75.9965 94.6013 75.8636 95.3997 75.3983 96.0651C74.9995 96.664 73.072 99.0594 71.078 101.189C68.087 104.316 66.8905 104.981 66.3588 104.981ZM72.939 92.2059C72.2744 92.2059 71.6097 92.5386 71.2109 93.1374C70.0809 94.8009 66.1594 102.719 66.4917 103.983C67.8211 103.717 73.6037 97.0632 74.7337 95.3997C75.066 94.934 75.1325 94.4017 75.066 93.8028C74.9331 93.2705 74.6672 92.8047 74.2019 92.472C73.7366 92.339 73.3378 92.2059 72.939 92.2059Z" fill="#808485"/>
<path d="M47.8811 144.239C47.4823 144.239 47.0835 144.172 46.7512 144.039C46.0201 143.707 45.4219 143.174 45.156 142.442C44.8237 141.711 44.8237 140.912 45.156 140.18C45.4219 139.515 46.8841 136.787 48.4129 134.258C51.5368 129.135 52.3344 129.467 52.7332 129.601C53.132 129.8 53.9296 130.066 52.5338 135.922C51.8692 138.783 50.9386 141.711 50.6728 142.376C50.141 143.507 49.0111 144.239 47.8811 144.239ZM52.3344 130.399C51.0716 130.931 46.6847 138.583 45.9536 140.38C45.7542 140.912 45.7542 141.444 45.9536 141.977C46.153 142.509 46.5518 142.908 47.0835 143.108C48.147 143.574 49.3434 143.041 49.8087 141.977C50.5398 140.18 52.8662 131.663 52.3344 130.399Z" fill="#808485"/>
<path d="M63.7001 103.517C63.6336 103.517 63.5671 103.517 63.5007 103.451C61.5067 102.652 65.4947 90.742 65.5611 90.609C65.8935 89.877 66.4252 89.2782 67.1564 89.012C67.8875 88.6793 68.6851 88.6793 69.4162 89.012C70.1474 89.3447 70.7456 89.877 71.0114 90.609C71.3438 91.3409 71.3438 92.1393 71.0114 92.8713C71.0114 93.0709 65.827 103.517 63.7001 103.517ZM68.2863 89.744C68.0204 89.744 67.7546 89.8105 67.4887 89.877C66.957 90.0766 66.5581 90.4759 66.3587 91.0082C65.6276 92.8713 63.3013 101.388 63.833 102.586C65.0959 102.054 69.4827 94.4017 70.2138 92.6051C70.4132 92.0728 70.4132 91.5405 70.2138 91.0082C70.0144 90.4759 69.6156 90.0766 69.0839 89.877C68.818 89.8105 68.5522 89.744 68.2863 89.744Z" fill="#808485"/>
<path d="M52.8658 145.703C52.6664 145.703 52.467 145.703 52.2676 145.636C50.6724 145.304 49.6089 143.707 49.9413 142.11C49.9413 141.977 53.2646 129.933 55.3251 130.332C57.452 130.732 55.7904 143.174 55.7904 143.307C55.5245 144.771 54.2616 145.703 52.8658 145.703ZM50.8053 142.309C50.6059 143.441 51.3371 144.572 52.467 144.771C53.5969 144.971 54.7269 144.239 54.9263 143.108C55.3251 141.178 55.9233 132.329 55.1257 131.264C53.9957 131.996 51.2041 140.38 50.8053 142.309Z" fill="#808485"/>
<path d="M61.0413 102.719C60.9749 102.719 60.9084 102.719 60.8419 102.719C60.3767 102.652 59.5791 102.453 59.7785 96.4644C59.9114 93.5367 60.1773 90.4759 60.3767 89.744C60.5096 88.9455 60.9749 88.2801 61.6396 87.8144C62.3042 87.3486 63.1018 87.2155 63.8994 87.3486C64.697 87.4817 65.3617 87.9474 65.827 88.6128C66.2922 89.2782 66.4252 90.0767 66.2922 90.8751C66.1593 91.5405 65.2952 94.5348 64.2318 97.2628C62.3707 102.187 61.5066 102.719 61.0413 102.719ZM63.3012 88.2136C62.9024 88.2136 62.5036 88.3467 62.1713 88.5463C61.706 88.879 61.3737 89.3447 61.3072 89.8771C60.9084 91.8067 60.3102 100.656 61.1078 101.721C62.2377 100.989 65.0294 92.6051 65.4282 90.6755C65.5611 90.1432 65.4282 89.5444 65.0958 89.0786C64.7635 88.6128 64.2982 88.2801 63.7665 88.2136C63.5671 88.2136 63.4342 88.2136 63.3012 88.2136Z" fill="#808485"/>
<path d="M58.0503 162.67C56.2557 162.67 54.7935 161.206 54.7935 159.41C54.7935 159.277 55.7905 145.37 58.0503 145.37C60.3767 145.37 61.3072 159.277 61.3072 159.41C61.3737 161.206 59.9114 162.67 58.0503 162.67ZM58.0503 146.302C56.9869 147.1 55.6575 156.948 55.6575 159.41C55.6575 160.741 56.721 161.805 58.0503 161.805C59.3797 161.805 60.4432 160.741 60.4432 159.41C60.4432 156.948 59.1138 147.1 58.0503 146.302Z" fill="#808485"/>
<path d="M58.0503 87.6813C55.724 87.6813 54.7935 73.7747 54.7935 73.6417C54.7935 71.8451 56.2557 70.3813 58.0503 70.3813C59.8449 70.3813 61.3072 71.8451 61.3072 73.6417C61.3737 73.8413 60.3767 87.6813 58.0503 87.6813ZM58.0503 71.3128C56.721 71.3128 55.6575 72.3774 55.6575 73.7082C55.6575 76.1036 56.9869 86.0178 58.0503 86.8163C59.1138 86.0178 60.4432 76.1701 60.4432 73.7082C60.4432 72.3774 59.3797 71.3128 58.0503 71.3128Z" fill="#808485"/>
<path d="M64.165 162.204C62.5698 162.204 61.174 161.007 60.9081 159.41C60.9081 159.277 59.8446 145.37 62.171 145.037C64.4973 144.705 67.4219 158.279 67.4219 158.478C67.6878 160.275 66.4249 161.938 64.6303 162.204C64.4973 162.204 64.2979 162.204 64.165 162.204ZM61.8387 159.277C62.0381 160.607 63.2345 161.472 64.5638 161.273C65.8932 161.073 66.7572 159.876 66.5578 158.545C66.2255 156.149 63.5003 146.568 62.3704 145.902C61.3734 146.901 61.4399 156.881 61.8387 159.277Z" fill="#808485"/>
<path d="M53.7965 88.014C53.2647 88.014 52.4007 87.4817 50.606 81.8259C49.609 78.6986 48.8114 75.3717 48.745 74.5732C48.612 73.7082 48.8114 72.8432 49.3432 72.1113C49.8749 71.3794 50.606 70.9801 51.4701 70.847C53.2647 70.5809 54.9264 71.8451 55.1923 73.6417C55.3252 74.4401 55.4581 77.8336 55.3917 81.1605C55.2587 87.8144 54.3947 87.9474 53.9294 88.014C53.9294 88.014 53.8629 88.014 53.7965 88.014ZM52.0019 71.712C51.8689 71.712 51.8025 71.712 51.6695 71.712C51.0713 71.7786 50.4731 72.1113 50.0743 72.6436C49.6755 73.1759 49.5426 73.7747 49.609 74.4401C49.9414 76.8355 52.6665 86.417 53.7965 87.0824C54.727 86.1509 54.6605 76.1701 54.2617 73.7747C54.1953 72.577 53.1318 71.712 52.0019 71.712Z" fill="#808485"/>
<path d="M70.1476 160.94C68.7518 160.94 67.4224 160.009 67.0236 158.611C66.9572 158.478 64.0326 144.904 66.226 144.239C68.4194 143.574 73.2715 156.615 73.338 156.748C73.8697 158.478 72.8727 160.341 71.1446 160.807C70.7458 160.874 70.4135 160.94 70.1476 160.94ZM66.4254 145.037C65.6943 146.102 67.1566 155.95 67.8212 158.279C68.22 159.543 69.4829 160.275 70.7458 159.876C72.0087 159.476 72.7398 158.212 72.341 156.948C71.8093 155.018 67.6883 145.57 66.4254 145.037Z" fill="#808485"/>
<path d="M49.6754 88.9455C49.1436 88.9455 48.1466 88.2802 45.7538 83.2898C44.358 80.3621 43.0951 77.1682 42.8292 76.3698C42.5634 75.5048 42.6963 74.6398 43.0951 73.8413C43.4939 73.0429 44.2251 72.5105 45.0227 72.2444C46.7508 71.7121 48.6119 72.7102 49.0771 74.4402C49.1436 74.5732 52.0682 88.1471 49.8748 88.8125C49.8748 88.879 49.8083 88.9455 49.6754 88.9455ZM46.0197 73.0429C45.8203 73.0429 45.5544 73.0429 45.355 73.1094C44.7568 73.309 44.2251 73.7082 43.9592 74.2405C43.6269 74.7729 43.5604 75.4382 43.7598 76.0371C44.4244 78.3659 48.4789 87.4152 49.7418 87.9475C50.4729 86.8829 49.0107 77.0352 48.346 74.7063C48.0137 73.7082 47.0167 73.0429 46.0197 73.0429Z" fill="#808485"/>
<path d="M75.8634 158.811C75.4646 158.811 75.0659 158.744 74.7335 158.611C73.9359 158.279 73.2712 157.68 72.8724 156.881C72.5401 156.149 71.4102 152.889 70.5461 149.762C68.7515 143.307 69.6156 142.975 70.0144 142.775C72.1413 141.844 78.788 154.02 78.788 154.153C79.5192 155.817 78.788 157.746 77.1928 158.478C76.794 158.678 76.3287 158.811 75.8634 158.811ZM70.4132 143.574C69.815 144.771 72.673 154.286 73.67 156.482C73.9359 157.081 74.4012 157.48 74.9994 157.746C75.5976 157.946 76.2623 157.946 76.794 157.68C77.9904 157.147 78.5221 155.75 77.9904 154.552C76.9934 152.29 71.6761 143.906 70.4132 143.574Z" fill="#808485"/>
<path d="M45.7541 90.4094C45.1559 90.4094 44.0924 89.744 41.1679 85.3525C39.3733 82.6244 37.6451 79.6302 37.3128 78.8982C36.9805 78.0998 36.914 77.2348 37.2463 76.3698C37.5787 75.5713 38.1769 74.9059 38.9745 74.5067C39.7721 74.174 40.6361 74.1075 41.5002 74.4402C42.2978 74.7729 42.9625 75.3717 43.3613 76.1702C43.4278 76.3032 48.2799 89.3448 46.2194 90.2763C46.02 90.3429 45.887 90.4094 45.7541 90.4094ZM40.3038 75.1721C39.9715 75.1721 39.6391 75.2386 39.3068 75.3717C38.7086 75.6379 38.3098 76.1036 38.0439 76.7025C37.8445 77.3013 37.8445 77.9667 38.1104 78.499C39.1074 80.6948 44.4248 89.0786 45.6877 89.4113C46.2859 88.2136 43.4278 78.6986 42.4307 76.5029C42.1649 75.904 41.6996 75.5048 41.1014 75.2386C40.8355 75.2386 40.5697 75.1721 40.3038 75.1721Z" fill="#808485"/>
<path d="M81.2475 155.883C80.9816 155.883 80.7822 155.883 80.5163 155.817C79.6523 155.617 78.9212 155.151 78.4559 154.353C78.3894 154.22 71.6762 142.043 73.6702 140.779C75.5978 139.515 83.9062 150.693 83.9726 150.826C84.4379 151.558 84.6373 152.423 84.4379 153.288C84.2385 154.153 83.7732 154.885 82.9756 155.351C82.4439 155.684 81.8457 155.883 81.2475 155.883ZM74.1355 141.577C73.7367 142.842 77.9241 151.824 79.187 153.887C79.5193 154.419 80.0511 154.819 80.6493 154.952C81.2475 155.085 81.9122 154.952 82.4439 154.619C82.9756 154.286 83.3744 153.754 83.5074 153.155C83.6403 152.556 83.5074 151.891 83.175 151.359C81.9122 149.229 75.4649 141.711 74.1355 141.577Z" fill="#808485"/>
<path d="M42.1649 92.4055C39.7056 92.4055 32.2613 82.4247 32.1948 82.2917C31.1978 80.7613 31.6631 78.6986 33.1918 77.767C34.7206 76.769 36.7811 77.2347 37.7116 78.7651C38.1104 79.4305 39.7056 82.4913 41.035 85.4855C43.6936 91.607 42.9625 92.0728 42.4972 92.339C42.4307 92.339 42.2978 92.4055 42.1649 92.4055ZM34.92 78.0997C34.4547 78.0997 34.0559 78.2328 33.6571 78.499C32.5272 79.2309 32.2613 80.6947 32.926 81.7593C34.2553 83.822 40.7026 91.3409 42.032 91.474C42.4308 90.2097 38.2433 81.227 36.9805 79.1643C36.5152 78.499 35.7176 78.0997 34.92 78.0997Z" fill="#808485"/>
<path d="M86.0995 152.157C86.033 152.157 85.9665 152.157 85.8336 152.157C84.9695 152.091 84.1719 151.691 83.5737 151.026C83.042 150.427 81.048 147.632 79.3198 144.838C75.7971 139.182 76.5282 138.583 76.8605 138.251C77.2593 137.918 77.924 137.319 83.042 141.644C85.5678 143.773 88.027 146.102 88.5588 146.701C89.7552 148.098 89.6222 150.161 88.2264 151.359C87.6282 151.891 86.8971 152.157 86.0995 152.157ZM77.5252 138.982C77.2593 140.247 82.7096 148.631 84.3049 150.427C85.1689 151.425 86.6977 151.558 87.6282 150.693C88.6252 149.828 88.7582 148.298 87.8941 147.366C86.2989 145.503 78.921 138.982 77.5252 138.982Z" fill="#808485"/>
<path d="M38.6419 95.0005C37.9773 95.0005 36.5815 94.4017 33.0587 91.4075C30.533 89.2782 28.0737 86.9494 27.5419 86.3505C26.9437 85.6851 26.6779 84.8201 26.7443 83.9551C26.8108 83.0901 27.2096 82.2917 27.8743 81.6928C28.5389 81.094 29.403 80.8278 30.2671 80.8944C31.1312 80.9609 31.9288 81.3601 32.527 82.0255C33.0587 82.6244 35.0527 85.419 36.7809 88.2136C40.3036 93.8694 39.5725 94.4682 39.2401 94.8009C39.1072 94.8675 38.9743 95.0005 38.6419 95.0005ZM30.0677 81.7594C29.4695 81.7594 28.9377 81.959 28.5389 82.3582C28.0737 82.7575 27.7414 83.3563 27.7414 83.9551C27.6749 84.6205 27.8743 85.2194 28.3396 85.6851C29.9348 87.5482 37.3791 94.069 38.7084 94.0025C38.9743 92.7382 33.524 84.3544 31.9288 82.5578C31.53 82.0921 30.9318 81.7594 30.3336 81.7594C30.1342 81.7594 30.1342 81.7594 30.0677 81.7594Z" fill="#808485"/>
<path d="M90.4199 147.832C89.6888 147.832 88.8912 147.566 88.293 147.034C87.6947 146.501 85.3019 144.039 83.2415 141.511C78.9876 136.387 79.5858 135.722 79.8516 135.323C81.3804 133.593 92.4804 141.91 92.6133 142.043C94.0091 143.241 94.1421 145.304 92.9456 146.701C92.2145 147.499 91.3504 147.832 90.4199 147.832ZM80.5163 135.988C80.4498 137.319 87.0301 144.771 88.8247 146.368C89.8217 147.233 91.3504 147.1 92.148 146.102C92.5468 145.636 92.7463 145.037 92.7463 144.372C92.6798 143.707 92.4139 143.174 91.9486 142.775C90.154 141.178 81.8456 135.789 80.5163 135.988Z" fill="#808485"/>
<path d="M35.6509 97.9947C34.9198 97.9947 33.391 97.4624 29.8018 95.2001C27.0102 93.4701 24.2186 91.474 23.6204 90.9417C22.9557 90.3428 22.5569 89.5443 22.4904 88.6793C22.424 87.8143 22.6898 86.9493 23.2881 86.284C24.4845 84.8867 26.5449 84.7536 27.9407 85.9513C28.5389 86.4836 30.9318 88.9455 32.9922 91.474C37.2461 96.5974 36.6479 97.2628 36.3821 97.662C36.1827 97.7951 36.0497 97.9947 35.6509 97.9947ZM25.7473 86.0843C25.0827 86.0843 24.418 86.3505 23.9527 86.8828C23.5539 87.3486 23.3545 87.9474 23.3545 88.6128C23.421 89.2782 23.6868 89.8105 24.1521 90.2097C26.0132 91.8066 34.3216 97.1963 35.5845 96.9966C35.6509 95.6659 29.0707 88.2136 27.2761 86.6167C26.8108 86.284 26.2791 86.0843 25.7473 86.0843Z" fill="#808485"/>
<path d="M94.0756 142.975C93.4774 142.975 92.8127 142.775 92.281 142.442C92.1481 142.376 81.0481 134.059 82.2445 132.129C83.5074 130.199 95.6708 136.853 95.8037 136.92C97.3325 137.918 97.7978 139.914 96.8007 141.444C96.3355 142.176 95.6044 142.709 94.7403 142.908C94.5409 142.975 94.275 142.975 94.0756 142.975ZM92.8127 141.71C93.3445 142.043 94.0091 142.176 94.6073 142.043C95.2055 141.91 95.7373 141.511 96.0696 140.979C96.8008 139.847 96.4684 138.384 95.3385 137.718C93.278 136.387 84.305 132.195 83.0421 132.661C83.175 133.925 90.7522 140.38 92.8127 141.71Z" fill="#808485"/>
<path d="M32.9258 101.388C32.0618 101.388 30.4666 100.989 27.0103 99.4586C24.0192 98.1278 20.9618 96.5309 20.2971 96.1316C19.566 95.6659 19.0342 94.934 18.8348 94.069C18.6354 93.204 18.8348 92.339 19.3001 91.607C20.2971 90.0767 22.2911 89.6109 23.8198 90.609C24.4845 91.0082 27.2097 93.1374 29.6025 95.3332C34.5875 99.7913 34.0558 100.523 33.7899 100.922C33.7234 101.122 33.5905 101.388 32.9258 101.388ZM22.0917 91.0082C21.2941 91.0082 20.563 91.4074 20.0977 92.0728C19.7654 92.6051 19.6324 93.2705 19.7654 93.8693C19.8983 94.4682 20.2971 95.0005 20.8288 95.3997C22.8893 96.7305 31.8624 100.922 33.1252 100.457C32.9923 99.1259 25.4815 92.6716 23.421 91.3409C22.9558 91.1413 22.4905 91.0082 22.0917 91.0082Z" fill="#808485"/>
<path d="M97.0001 137.585C96.5348 137.585 96.0696 137.519 95.6708 137.319C95.5378 137.252 83.3079 130.599 84.3049 128.536C85.2354 126.407 98.263 131.331 98.3959 131.397C99.1935 131.73 99.7917 132.395 100.124 133.26C100.456 134.059 100.39 134.99 100.058 135.789C99.4594 136.92 98.263 137.585 97.0001 137.585ZM96.0031 136.521C97.1995 137.053 98.5953 136.521 99.127 135.323C99.3929 134.724 99.3929 134.125 99.1935 133.526C98.9941 132.927 98.5288 132.462 97.9306 132.196C95.7372 131.197 86.2324 128.336 85.036 128.935C85.4348 130.133 93.8097 135.456 96.0031 136.521Z" fill="#808485"/>
<path d="M30.5331 105.114C29.6025 105.114 27.8744 104.848 24.8834 104.05C21.7594 103.185 18.5025 102.054 17.7714 101.721C16.1097 100.989 15.3786 98.9929 16.1762 97.3959C16.5085 96.5975 17.1732 95.9986 18.0373 95.6659C18.8349 95.3332 19.7654 95.3998 20.563 95.7325C21.2941 96.0652 24.2852 97.7952 27.0103 99.5917C32.5271 103.251 32.1947 104.116 31.9953 104.582C31.7959 104.782 31.5965 105.114 30.5331 105.114ZM19.1672 96.3313C18.9013 96.3313 18.6355 96.3979 18.3031 96.4644C17.7049 96.664 17.2397 97.1298 16.9738 97.7286C16.442 98.9263 16.9738 100.324 18.1702 100.856C20.3636 101.854 29.8684 104.715 31.0648 104.116C30.7325 102.852 22.3576 97.529 20.1642 96.5309C19.8319 96.3979 19.4995 96.3313 19.1672 96.3313Z" fill="#808485"/>
<path d="M99.1272 131.863C98.7948 131.863 98.529 131.796 98.1967 131.73C98.0637 131.663 85.0362 126.872 85.7009 124.61C86.3655 122.414 99.9248 125.342 100.058 125.409C101.786 125.941 102.783 127.737 102.251 129.467C101.985 130.332 101.454 130.998 100.656 131.397C100.191 131.73 99.6589 131.863 99.1272 131.863ZM98.4625 130.865C99.0607 131.064 99.7254 130.998 100.257 130.665C100.789 130.332 101.188 129.867 101.387 129.268C101.786 128.004 101.055 126.673 99.7918 126.34C97.4655 125.675 87.6284 124.144 86.5649 124.943C87.0967 126.141 96.1362 130.199 98.4625 130.865Z" fill="#808485"/>
<path d="M27.8743 109.24C26.8772 109.24 25.4814 109.173 23.4874 108.907C20.2305 108.508 16.8407 107.842 16.1096 107.643C14.3815 107.11 13.3844 105.314 13.9162 103.584C14.4479 101.854 16.2425 100.856 17.9707 101.388C18.7018 101.588 21.8922 102.852 24.8832 104.316C30.8653 107.177 30.6659 108.042 30.4665 108.508C30.3335 108.707 30.2006 109.24 27.8743 109.24ZM17.0401 102.054C16.0431 102.054 15.0461 102.719 14.7803 103.784C14.3815 105.048 15.1126 106.379 16.3755 106.711C18.7018 107.377 28.5389 108.907 29.6024 108.109C29.1371 106.911 20.0311 102.785 17.7048 102.12C17.4389 102.12 17.2395 102.054 17.0401 102.054Z" fill="#808485"/>
<path d="M100.456 125.941C100.324 125.941 100.124 125.941 99.9912 125.874C99.8583 125.874 86.299 122.947 86.5649 120.618C86.8972 118.356 100.789 119.354 100.922 119.354C102.716 119.62 103.979 121.283 103.713 123.08C103.448 124.743 102.052 125.941 100.456 125.941ZM87.4954 120.751C88.1601 121.882 97.7313 124.61 100.124 124.943C101.453 125.142 102.65 124.211 102.849 122.947C103.049 121.616 102.118 120.418 100.855 120.219C98.396 119.952 88.4259 119.886 87.4954 120.751Z" fill="#808485"/>
<path d="M21.4934 113.897C18.6353 113.897 15.9766 113.764 15.2455 113.631C14.3814 113.498 13.5838 113.032 13.1186 112.367C12.5868 111.635 12.3874 110.77 12.5203 109.905C12.6533 109.04 13.1186 108.242 13.7832 107.776C14.5144 107.244 15.3784 107.044 16.2425 107.177C16.3754 107.177 29.9347 110.105 29.6689 112.434C29.6024 112.899 29.4694 113.831 22.8227 113.897C22.291 113.897 21.8922 113.897 21.4934 113.897ZM15.7108 108.042C15.179 108.042 14.7138 108.175 14.315 108.508C13.7832 108.907 13.4509 109.439 13.3844 110.105C13.318 110.704 13.4509 111.369 13.8497 111.901C14.2485 112.434 14.7802 112.766 15.4449 112.833C17.8377 113.166 27.8078 113.232 28.7383 112.367C28.0737 111.236 18.5024 108.508 16.1096 108.175C15.9102 108.042 15.8437 108.042 15.7108 108.042Z" fill="#808485"/>
<path d="M100.855 119.819C100.722 119.819 86.8306 118.821 86.8306 116.559C86.8306 114.297 100.722 113.299 100.855 113.299C102.65 113.299 104.112 114.762 104.112 116.559C104.178 118.356 102.65 119.819 100.855 119.819ZM87.7611 116.559C88.5587 117.624 98.3959 118.954 100.855 118.954C102.184 118.954 103.248 117.89 103.248 116.559C103.248 115.228 102.184 114.164 100.855 114.164C98.4623 114.164 88.6252 115.494 87.7611 116.559Z" fill="#808485"/>
<path d="M15.3121 119.819C13.5174 119.819 12.0552 118.356 12.0552 116.559C12.0552 114.762 13.5174 113.299 15.3121 113.299C15.445 113.299 29.3366 114.297 29.3366 116.559C29.3366 118.821 15.445 119.819 15.3121 119.819ZM15.3121 114.164C13.9827 114.164 12.9192 115.228 12.9192 116.559C12.9192 117.89 13.9827 118.954 15.3121 118.954C17.7049 118.954 27.6085 117.624 28.4061 116.559C27.542 115.494 17.7049 114.164 15.3121 114.164Z" fill="#808485"/>
<path d="M94.4077 113.897C90.6856 113.897 86.764 113.631 86.5646 112.434C86.2323 110.171 99.7916 107.177 99.991 107.177C101.786 106.911 103.447 108.175 103.713 109.972C103.979 111.768 102.716 113.432 100.921 113.698C100.855 113.698 97.7311 113.897 94.4077 113.897ZM87.4951 112.301C88.4257 113.232 98.3957 113.166 100.789 112.766C102.118 112.567 102.982 111.369 102.783 110.038C102.583 108.707 101.387 107.842 100.057 108.042C97.6646 108.441 88.1598 111.169 87.4951 112.301Z" fill="#808485"/>
<path d="M15.7108 125.941C14.9796 125.941 14.315 125.741 13.7832 125.276C13.0521 124.743 12.6533 124.011 12.5203 123.146C12.3874 122.281 12.5868 121.416 13.1186 120.684C13.6503 119.952 14.3814 119.553 15.2455 119.42C16.0431 119.287 19.4329 119.154 22.7563 119.221C29.403 119.354 29.5359 120.219 29.6024 120.684C29.6689 121.15 29.8018 122.082 23.421 124.011C20.297 125.009 16.9736 125.808 16.176 125.874C16.0431 125.874 15.8437 125.941 15.7108 125.941ZM15.3784 120.285C14.7802 120.352 14.182 120.684 13.7832 121.217C13.3844 121.749 13.2515 122.348 13.318 123.013C13.3844 123.612 13.7168 124.211 14.2485 124.61C14.7802 125.009 15.3784 125.142 16.0431 125.076C18.4359 124.743 28.0072 122.015 28.6719 120.884C27.7413 119.886 17.7713 119.952 15.3784 120.285Z" fill="#808485"/>
<path d="M88.5589 109.24C87.0302 109.24 85.9003 109.04 85.7009 108.441C85.0362 106.246 98.0637 101.388 98.1967 101.322C99.0607 101.056 99.9248 101.189 100.722 101.588C101.52 101.987 102.052 102.719 102.318 103.517C102.849 105.247 101.852 107.111 100.124 107.576C99.9912 107.643 92.7464 109.24 88.5589 109.24ZM86.5649 108.175C87.6284 108.907 97.4655 107.443 99.7918 106.778C101.055 106.379 101.786 105.114 101.387 103.85C101.188 103.251 100.789 102.719 100.257 102.453C99.7254 102.12 99.0607 102.054 98.4625 102.253C96.1362 102.852 87.0967 106.911 86.5649 108.175Z" fill="#808485"/>
<path d="M17.0401 131.863C15.6443 131.863 14.315 130.931 13.9162 129.534C13.3844 127.804 14.3815 125.941 16.1096 125.475C16.8407 125.276 20.2305 124.61 23.4874 124.211C30.0677 123.346 30.3335 124.211 30.4665 124.677C30.5994 125.142 30.8653 126.007 24.8832 128.869C21.9587 130.266 18.7683 131.53 17.9707 131.796C17.6383 131.863 17.306 131.863 17.0401 131.863ZM16.3755 126.34C15.1126 126.739 14.3815 128.004 14.7803 129.268C15.1791 130.532 16.5084 131.264 17.7048 130.865C20.0312 130.199 29.0707 126.141 29.6024 124.876C28.4725 124.144 18.7018 125.608 16.3755 126.34Z" fill="#808485"/>
<path d="M85.767 105.114C84.9694 105.114 84.4377 104.981 84.2383 104.582C83.3077 102.453 95.4712 95.799 95.6041 95.799C97.2658 95.067 99.1934 95.799 99.9245 97.3959C100.257 98.1944 100.323 99.0594 99.991 99.9244C99.6587 100.723 99.0604 101.388 98.2628 101.787C98.2628 101.787 89.4227 105.114 85.767 105.114ZM85.1024 104.183C86.2988 104.782 95.8036 101.921 97.997 100.922C98.5952 100.656 98.994 100.191 99.2598 99.5917C99.4592 98.9928 99.4592 98.3274 99.1934 97.7951C98.6616 96.5974 97.2658 96.0651 96.0694 96.5974C93.8095 97.5955 85.4347 102.919 85.1024 104.183Z" fill="#808485"/>
<path d="M19.1671 137.585C18.7683 137.585 18.3695 137.519 18.0372 137.386C17.2396 137.053 16.5749 136.454 16.1761 135.656C15.8437 134.857 15.7773 133.992 16.1096 133.127C16.4419 132.329 17.0401 131.663 17.8377 131.264C18.5689 130.931 21.8258 129.8 24.9497 128.935C31.397 127.139 31.7294 128.004 31.9288 128.403C32.1282 128.869 32.527 129.667 26.9437 133.393C24.2186 135.19 21.2276 136.92 20.4964 137.252C20.0976 137.519 19.6324 137.585 19.1671 137.585ZM30.533 128.802C28.2066 128.802 20.1641 131.264 18.1701 132.129C17.5719 132.395 17.1731 132.861 16.9072 133.46C16.7078 134.059 16.7078 134.724 16.9737 135.256C17.2395 135.855 17.7048 136.254 18.303 136.521C18.9012 136.72 19.5659 136.72 20.0976 136.454C22.2911 135.456 30.6659 130.133 30.9982 128.869C30.9318 128.802 30.7324 128.802 30.533 128.802Z" fill="#808485"/>
<path d="M83.2415 101.322C82.7763 101.322 82.4439 101.189 82.311 100.989C81.0481 99.0594 92.2146 90.7421 92.3475 90.6755C93.0787 90.2098 93.9427 90.0102 94.8068 90.2098C95.6709 90.4094 96.402 90.8752 96.8673 91.6736C97.8643 93.204 97.399 95.2002 95.8703 96.1982C95.7373 96.1982 86.432 101.322 83.2415 101.322ZM83.0421 100.457C84.305 100.922 93.2781 96.664 95.3386 95.3998C96.4685 94.6678 96.7343 93.204 96.0697 92.1394C95.7373 91.6071 95.2056 91.2078 94.6074 91.0748C94.0092 90.9417 93.3445 91.0748 92.8128 91.4075C90.7523 92.6717 83.1751 99.1259 83.0421 100.457Z" fill="#808485"/>
<path d="M22.0917 142.975C21.0282 142.975 19.9648 142.442 19.3001 141.444C18.8348 140.712 18.6354 139.847 18.8348 138.982C19.0342 138.117 19.4995 137.385 20.2971 136.92C20.9618 136.52 24.0192 134.924 27.0103 133.593C33.1252 130.931 33.5905 131.663 33.8564 132.129C34.1222 132.528 34.5875 133.327 29.669 137.718C27.2097 139.914 24.551 142.043 23.8863 142.442C23.2881 142.775 22.6899 142.975 22.0917 142.975ZM32.8594 132.595C30.9983 132.595 22.7564 136.454 20.8288 137.718C20.2971 138.051 19.8983 138.583 19.7654 139.249C19.6324 139.847 19.7654 140.513 20.0977 141.045C20.8288 142.176 22.2911 142.442 23.3546 141.777C25.4151 140.446 32.9258 133.992 33.0588 132.661C32.9923 132.595 32.9258 132.595 32.8594 132.595Z" fill="#808485"/>
<path d="M80.5161 97.9947C80.1173 97.9947 79.9179 97.7951 79.8514 97.662C79.519 97.2628 78.9209 96.5974 83.2412 91.474C85.3682 88.9455 87.6945 86.4836 88.2927 85.9513C89.6885 84.7536 91.749 84.8867 92.9454 86.284C93.5436 86.9493 93.8095 87.8143 93.743 88.6793C93.6765 89.5443 93.2777 90.3428 92.6131 90.9417C92.0149 91.474 89.2233 93.4701 86.4316 95.2001C82.776 97.4624 81.2472 97.9947 80.5161 97.9947ZM80.5161 97.0632C81.7789 97.2628 90.1538 91.8732 91.9484 90.2763C92.4137 89.877 92.746 89.2782 92.746 88.6793C92.8125 88.014 92.6131 87.4151 92.1478 86.9493C91.2837 85.9513 89.755 85.8182 88.8244 86.6832C87.0298 88.2801 80.4496 95.7324 80.5161 97.0632Z" fill="#808485"/>
<path d="M25.7476 147.832C24.8171 147.832 23.8865 147.433 23.2883 146.701C22.0919 145.304 22.2249 143.241 23.6207 142.043C23.7536 141.977 34.8536 133.593 36.3824 135.323C36.7147 135.722 37.3129 136.387 32.9925 141.511C30.8656 144.039 28.5392 146.501 27.941 147.034C27.2764 147.632 26.4788 147.832 25.7476 147.832ZM35.5183 135.988C33.9895 135.988 25.947 141.245 24.1524 142.775C23.6871 143.174 23.3548 143.773 23.3548 144.372C23.2883 145.037 23.4877 145.636 23.953 146.102C24.8171 147.1 26.3458 147.233 27.2764 146.368C29.1374 144.771 35.6512 137.319 35.5848 135.988C35.5848 135.988 35.5847 135.988 35.5183 135.988Z" fill="#808485"/>
<path d="M77.4587 95.0005C77.1928 95.0005 76.9934 94.8675 76.927 94.8009C76.5282 94.4682 75.8635 93.8694 79.3863 88.2136C81.1144 85.419 83.1084 82.6244 83.6401 82.0255C84.2383 81.3601 85.036 80.9609 85.9 80.8944C86.7641 80.8278 87.6282 81.094 88.2928 81.6928C89.6886 82.8905 89.8216 84.9532 88.6252 86.3505C88.0934 86.9494 85.6342 89.3448 83.1084 91.4075C79.5192 94.3352 78.1234 95.0005 77.4587 95.0005ZM77.5252 94.069C78.921 94.069 86.2988 87.5482 87.894 85.7517C88.7581 84.7536 88.6252 83.2232 87.6282 82.4248C86.6312 81.5598 85.1024 81.6928 84.3048 82.6909C82.7096 84.4209 77.2593 92.7382 77.5252 94.069Z" fill="#808485"/>
<path d="M30.0677 152.157C29.27 152.157 28.5389 151.891 27.9407 151.359C27.276 150.76 26.8772 149.961 26.8108 149.096C26.7443 148.231 27.0102 147.366 27.6084 146.701C27.6748 146.568 37.512 136.72 39.2401 138.251C39.6389 138.583 40.3036 139.182 36.7808 144.838C35.0527 147.632 33.0587 150.427 32.5269 151.026C31.9287 151.691 31.1311 152.091 30.267 152.157C30.2006 152.157 30.1341 152.157 30.0677 152.157ZM28.273 147.366C27.8742 147.832 27.6748 148.431 27.6748 149.096C27.7413 149.762 28.0072 150.294 28.4724 150.693C28.9377 151.092 29.5359 151.292 30.2006 151.292C30.8652 151.226 31.397 150.959 31.7958 150.494C33.391 148.631 38.8413 140.313 38.5754 139.049C37.2461 138.982 29.8018 145.503 28.273 147.366Z" fill="#808485"/>
<path d="M74.0027 92.4055C73.8698 92.4055 73.7368 92.4055 73.6704 92.3389C71.7428 91.0747 78.3896 78.8982 78.456 78.7651C78.9213 78.0332 79.6524 77.5009 80.5165 77.3013C81.3806 77.1016 82.2446 77.3013 82.9758 77.767C83.7069 78.2328 84.2387 78.9647 84.4381 79.8297C84.6375 80.6947 84.438 81.5597 83.9728 82.2916C83.9063 82.3582 76.462 92.4055 74.0027 92.4055ZM81.1812 78.0997C80.9818 78.0997 80.8488 78.0997 80.6494 78.1663C80.0512 78.2993 79.5195 78.6986 79.1871 79.2309C77.8578 81.2936 73.6704 90.2763 74.1357 91.5405C75.465 91.4074 81.9123 83.822 83.2417 81.8259C83.574 81.2936 83.7069 80.6282 83.574 80.0293C83.4411 79.4305 83.0422 78.8982 82.5105 78.5655C82.1117 78.2328 81.6464 78.0997 81.1812 78.0997Z" fill="#808485"/>
<path d="M34.92 155.883C34.3218 155.883 33.7236 155.684 33.1254 155.351C31.5967 154.353 31.1314 152.357 32.1284 150.826C32.1949 150.693 40.5033 139.581 42.4308 140.779C42.8296 141.045 43.6272 141.511 40.9685 147.632C39.6392 150.627 38.044 153.687 37.6452 154.353C37.047 155.284 35.9835 155.883 34.92 155.883ZM32.926 151.292C32.1949 152.423 32.5272 153.887 33.6572 154.552C34.7871 155.284 36.2494 154.952 36.914 153.821C38.2434 151.758 42.4308 142.775 41.9656 141.511C40.7027 141.711 34.2554 149.229 32.926 151.292Z" fill="#808485"/>
<path d="M70.2805 90.3429C70.214 90.3429 70.0811 90.3429 70.0146 90.2763C69.5494 90.0767 68.7517 89.6775 70.5464 83.2898C71.4104 80.1625 72.5404 76.9021 72.8727 76.1702C73.205 75.3717 73.8697 74.7729 74.7338 74.4402C75.5314 74.1075 76.462 74.174 77.2596 74.5067C78.9212 75.2386 79.6523 77.2348 78.8547 78.8317C78.7883 79.0313 72.6069 90.3429 70.2805 90.3429ZM75.8637 75.1721C75.5979 75.1721 75.332 75.2386 74.9997 75.3052C74.4015 75.5048 73.9362 75.9705 73.6703 76.5694C72.6733 78.7652 69.8153 88.2802 70.4135 89.4779C71.6763 89.1452 76.9937 80.7613 77.9907 78.5655C78.5224 77.3679 77.9907 75.9705 76.7943 75.4382C76.5284 75.2386 76.1961 75.1721 75.8637 75.1721Z" fill="#808485"/>
<path d="M40.3038 158.811C39.8385 158.811 39.3733 158.678 38.9745 158.545C38.1769 158.212 37.5787 157.547 37.2463 156.682C36.914 155.883 36.9805 154.952 37.3128 154.153C37.6451 153.421 39.3733 150.427 41.1679 147.699C44.8236 142.176 45.6876 142.509 46.1529 142.709C48.2799 143.64 43.3613 156.682 43.2948 156.815C42.9625 157.613 42.2978 158.212 41.4337 158.545C41.1014 158.744 40.7026 158.811 40.3038 158.811ZM45.7541 143.574C44.4912 143.906 39.1739 152.29 38.1769 154.486C37.911 155.085 37.911 155.684 38.1104 156.282C38.3098 156.881 38.7751 157.347 39.3733 157.613C39.9715 157.879 40.5697 157.879 41.1679 157.68C41.7661 157.48 42.2314 157.014 42.4972 156.415C43.4942 154.286 46.3523 144.771 45.7541 143.574Z" fill="#808485"/>
<path d="M66.359 88.879C66.2925 88.879 66.2261 88.879 66.1596 88.879C63.9662 88.2136 66.8907 74.6398 66.9572 74.5067C67.489 72.7767 69.2835 71.7786 71.0117 72.3109C72.7398 72.8432 73.7368 74.6398 73.2051 76.3698C73.2716 76.5028 68.6189 88.879 66.359 88.879ZM70.1476 73.0428C69.1506 73.0428 68.1536 73.7082 67.8877 74.7728C67.2231 77.1017 65.6943 86.9494 66.4919 88.014C67.7548 87.4817 71.8758 78.0998 72.474 76.1036C72.8728 74.8394 72.1416 73.5086 70.8787 73.1759C70.5464 73.0428 70.347 73.0428 70.1476 73.0428Z" fill="#808485"/>
<path d="M46.0201 160.94C45.6878 160.94 45.4219 160.874 45.0895 160.807C44.2255 160.541 43.5608 160.009 43.162 159.21C42.7632 158.412 42.6303 157.547 42.8961 156.682C43.0955 155.95 44.3584 152.756 45.8207 149.762C48.6788 143.773 49.5428 143.973 50.0081 144.172C52.2015 144.838 49.277 158.412 49.2105 158.545C48.7452 160.009 47.4159 160.94 46.0201 160.94ZM49.6758 145.037C48.4794 145.503 44.3584 154.619 43.6937 156.948C43.4943 157.547 43.5608 158.212 43.8931 158.744C44.2255 159.277 44.6907 159.676 45.289 159.876C46.5518 160.275 47.8812 159.543 48.2135 158.279C49.0111 155.95 50.4734 146.169 49.6758 145.037Z" fill="#808485"/>
<path d="M62.2379 88.014H62.1714C59.9115 87.6813 60.9085 73.7747 60.9085 73.6417C61.1744 71.8451 62.8361 70.5809 64.6307 70.847C66.4253 71.1132 67.6882 72.7767 67.4223 74.5732C67.4223 74.7063 64.4977 88.014 62.2379 88.014ZM64.1654 71.712C62.969 71.712 61.972 72.577 61.8391 73.7747C61.5067 76.1701 61.4403 86.1509 62.3043 87.0824C63.4343 86.417 66.1594 76.8355 66.4918 74.4401C66.6912 73.1094 65.7606 71.9117 64.4977 71.712C64.3648 71.7786 64.2983 71.712 64.1654 71.712Z" fill="#808485"/>
<path d="M52.0023 162.204C51.8694 162.204 51.6699 162.204 51.537 162.138C50.6729 162.005 49.8753 161.539 49.4101 160.874C48.8783 160.142 48.6789 159.277 48.8119 158.412C48.9448 157.613 49.7424 154.286 50.6729 151.159C52.667 144.771 53.531 144.904 53.9963 144.971C54.4616 145.037 55.3921 145.171 55.4586 151.824C55.525 155.085 55.3256 158.545 55.2592 159.343C55.1262 160.208 54.661 161.007 53.9963 161.472C53.3981 162.005 52.667 162.204 52.0023 162.204ZM53.8634 145.969C52.7334 146.634 50.0083 156.216 49.6759 158.611C49.6095 159.21 49.7424 159.876 50.1412 160.408C50.54 160.94 51.0717 161.273 51.7364 161.339C52.3346 161.406 52.9993 161.273 53.531 160.874C54.0628 160.474 54.3951 159.942 54.4616 159.277C54.661 156.881 54.7274 146.901 53.8634 145.969Z" fill="#808485"/>
</g>
<path d="M57.8249 352.983C54.0249 352.983 51.0249 349.883 51.0249 346.183C51.0249 342.383 54.1249 339.383 57.8249 339.383C61.6249 339.383 64.6249 342.483 64.6249 346.183C64.7249 349.883 61.6249 352.983 57.8249 352.983ZM57.8249 340.583C54.8249 340.583 52.3249 343.083 52.3249 346.083C52.3249 349.083 54.8249 351.583 57.8249 351.583C60.8249 351.583 63.3249 349.083 63.3249 346.083C63.3249 343.083 60.8249 340.583 57.8249 340.583Z" fill="#131D25"/>
</svg>
