<svg width="138" height="454" viewBox="0 0 138 454" fill="none" xmlns="http://www.w3.org/2000/svg">
<path d="M80.16 402.12C79.52 402.387 78.7067 402.747 77.72 403.2C76.7333 403.627 75.6667 404.093 74.52 404.6C73.3733 405.107 72.2 405.653 71 406.24C69.7733 406.8 68.6267 407.333 67.56 407.84C66.4667 408.347 65.4933 408.827 64.64 409.28C63.7867 409.707 63.1333 410.053 62.68 410.32C65.8267 410.613 69.24 410.853 72.92 411.04C76.5733 411.227 80.2667 411.387 84 411.52L84 415.32C81.6 415.213 79.1867 415.093 76.76 414.96C74.3067 414.827 71.9067 414.68 69.56 414.52C67.1867 414.333 64.88 414.147 62.64 413.96C60.4 413.747 58.28 413.52 56.28 413.28L56.28 409.88C57.4533 409.16 58.84 408.387 60.44 407.56C62.04 406.733 63.72 405.907 65.48 405.08C67.2133 404.253 68.96 403.453 70.72 402.68C72.4533 401.907 74.04 401.2 75.48 400.56C74.04 399.92 72.4533 399.213 70.72 398.44C68.96 397.667 67.2133 396.867 65.48 396.04C63.72 395.213 62.04 394.387 60.44 393.56C58.84 392.733 57.4533 391.96 56.28 391.24L56.28 387.84C65.2133 386.933 74.4533 386.253 84 385.8L84 389.6C80.2667 389.733 76.5733 389.893 72.92 390.08C69.24 390.267 65.8267 390.507 62.68 390.8C63.1333 391.067 63.7867 391.427 64.64 391.88C65.4933 392.307 66.4667 392.773 67.56 393.28C68.6267 393.787 69.7733 394.333 71 394.92C72.2 395.48 73.3733 396.013 74.52 396.52C75.6667 397.027 76.7333 397.507 77.72 397.96C78.7067 398.387 79.52 398.733 80.16 399L80.16 402.12ZM56.28 379.716L56.28 375.836L84 375.836L84 379.716L56.28 379.716ZM56.28 350.454L59.64 350.454L59.64 359.174L84 359.174L84 363.054L59.64 363.054L59.64 371.774L56.28 371.774L56.28 350.454ZM84 346.357L56.28 346.357L56.28 329.437L59.6 329.437L59.6 342.477L67.84 342.477L67.84 330.877L71.08 330.877L71.08 342.477L80.68 342.477L80.68 328.437L84 328.437L84 346.357ZM84 323.505L56.28 323.505L56.28 306.785L59.6 306.785L59.6 319.625L67.96 319.625L67.96 308.225L71.24 308.225L71.24 319.625L84 319.625L84 323.505ZM70.36 275.843L70.36 271.963L83.32 271.963C83.4267 272.283 83.5467 272.75 83.68 273.363C83.8133 273.95 83.9467 274.643 84.08 275.443C84.2133 276.216 84.32 277.07 84.4 278.003C84.5067 278.936 84.56 279.883 84.56 280.843C84.56 282.79 84.24 284.563 83.6 286.163C82.96 287.763 82.0267 289.136 80.8 290.283C79.5733 291.43 78.0667 292.323 76.28 292.963C74.4933 293.576 72.44 293.883 70.12 293.883C67.8 293.883 65.7467 293.536 63.96 292.843C62.1467 292.123 60.6267 291.163 59.4 289.963C58.1733 288.763 57.24 287.363 56.6 285.763C55.96 284.136 55.64 282.403 55.64 280.563C55.64 279.31 55.72 278.203 55.88 277.243C56.04 276.256 56.2267 275.416 56.44 274.723C56.6533 274.03 56.8667 273.47 57.08 273.043C57.2933 272.59 57.4533 272.283 57.56 272.123L60.8 273.363C60.2933 274.136 59.88 275.163 59.56 276.443C59.2133 277.723 59.04 279.03 59.04 280.363C59.04 281.776 59.2933 283.07 59.8 284.243C60.3067 285.39 61.04 286.376 62 287.203C62.96 288.003 64.1333 288.63 65.52 289.083C66.88 289.536 68.4133 289.763 70.12 289.763C71.7733 289.763 73.28 289.576 74.64 289.203C76 288.803 77.1733 288.216 78.16 287.443C79.12 286.643 79.8667 285.67 80.4 284.523C80.9333 283.35 81.2 281.976 81.2 280.403C81.2 279.283 81.1467 278.336 81.04 277.563C80.9067 276.763 80.7867 276.19 80.68 275.843L70.36 275.843ZM62.76 258.448C62.76 258.128 62.7867 257.768 62.84 257.368C62.8667 256.941 62.92 256.528 63 256.128C63.0533 255.728 63.12 255.368 63.2 255.048C63.2533 254.701 63.3067 254.448 63.36 254.288L66.6 254.928C66.4933 255.221 66.3733 255.715 66.24 256.408C66.08 257.075 66 257.941 66 259.008C66 259.701 66.08 260.395 66.24 261.088C66.3733 261.755 66.4667 262.195 66.52 262.408L84 262.408L84 266.128L64.08 266.128C63.76 265.248 63.4667 264.155 63.2 262.848C62.9067 261.541 62.76 260.075 62.76 258.448ZM73.64 251.858C71.8 251.858 70.2 251.592 68.84 251.058C67.4533 250.525 66.3067 249.818 65.4 248.938C64.4933 248.058 63.8133 247.045 63.36 245.898C62.9067 244.752 62.68 243.578 62.68 242.378C62.68 239.578 63.56 237.432 65.32 235.938C67.0533 234.445 69.7067 233.698 73.28 233.698C73.44 233.698 73.6533 233.698 73.92 233.698C74.16 233.698 74.3867 233.712 74.6 233.738L74.6 247.978C76.76 247.818 78.4 247.192 79.52 246.098C80.64 245.005 81.2 243.298 81.2 240.978C81.2 239.672 81.0933 238.578 80.88 237.698C80.64 236.792 80.4133 236.112 80.2 235.658L83.32 235.138C83.56 235.592 83.8133 236.392 84.08 237.538C84.3467 238.658 84.48 239.938 84.48 241.378C84.48 243.192 84.2133 244.765 83.68 246.098C83.12 247.405 82.36 248.485 81.4 249.338C80.44 250.192 79.3067 250.832 78 251.258C76.6667 251.658 75.2133 251.858 73.64 251.858ZM71.6 237.578C69.92 237.552 68.5467 237.978 67.48 238.858C66.3867 239.712 65.84 240.898 65.84 242.418C65.84 243.272 66.0133 244.032 66.36 244.698C66.68 245.338 67.1067 245.885 67.64 246.338C68.1733 246.792 68.7867 247.152 69.48 247.418C70.1733 247.658 70.88 247.818 71.6 247.898L71.6 237.578ZM73.64 229.515C71.8 229.515 70.2 229.248 68.84 228.715C67.4533 228.181 66.3067 227.475 65.4 226.595C64.4933 225.715 63.8133 224.701 63.36 223.555C62.9067 222.408 62.68 221.235 62.68 220.035C62.68 217.235 63.56 215.088 65.32 213.595C67.0533 212.101 69.7067 211.355 73.28 211.355C73.44 211.355 73.6533 211.355 73.92 211.355C74.16 211.355 74.3867 211.368 74.6 211.395L74.6 225.635C76.76 225.475 78.4 224.848 79.52 223.755C80.64 222.661 81.2 220.955 81.2 218.635C81.2 217.328 81.0933 216.235 80.88 215.355C80.64 214.448 80.4133 213.768 80.2 213.315L83.32 212.795C83.56 213.248 83.8133 214.048 84.08 215.195C84.3467 216.315 84.48 217.595 84.48 219.035C84.48 220.848 84.2133 222.421 83.68 223.755C83.12 225.061 82.36 226.141 81.4 226.995C80.44 227.848 79.3067 228.488 78 228.915C76.6667 229.315 75.2133 229.515 73.64 229.515ZM71.6 215.235C69.92 215.208 68.5467 215.635 67.48 216.515C66.3867 217.368 65.84 218.555 65.84 220.075C65.84 220.928 66.0133 221.688 66.36 222.355C66.68 222.995 67.1067 223.541 67.64 223.995C68.1733 224.448 68.7867 224.808 69.48 225.075C70.1733 225.315 70.88 225.475 71.6 225.555L71.6 215.235ZM84.48 196.971C84.48 198.651 84.2133 200.131 83.68 201.411C83.1467 202.664 82.4 203.731 81.44 204.611C80.48 205.464 79.3467 206.104 78.04 206.531C76.7067 206.958 75.24 207.171 73.64 207.171C72.04 207.171 70.5733 206.944 69.24 206.491C67.9067 206.011 66.76 205.344 65.8 204.491C64.8133 203.638 64.0533 202.598 63.52 201.371C62.96 200.118 62.68 198.731 62.68 197.211C62.68 196.278 62.76 195.344 62.92 194.411C63.08 193.478 63.3333 192.584 63.68 191.731L66.84 192.571C66.5733 193.131 66.36 193.784 66.2 194.531C66.04 195.251 65.96 196.024 65.96 196.851C65.96 198.931 66.6133 200.531 67.92 201.651C69.2267 202.744 71.1333 203.291 73.64 203.291C74.76 203.291 75.7867 203.171 76.72 202.931C77.6533 202.664 78.4533 202.264 79.12 201.731C79.7867 201.171 80.3067 200.464 80.68 199.611C81.0267 198.758 81.2 197.718 81.2 196.491C81.2 195.504 81.1067 194.611 80.92 193.811C80.7333 193.011 80.5333 192.384 80.32 191.931L83.44 191.411C83.5733 191.624 83.7067 191.931 83.84 192.331C83.9467 192.731 84.04 193.184 84.12 193.691C84.2267 194.198 84.3067 194.744 84.36 195.331C84.44 195.891 84.48 196.438 84.48 196.971ZM73.64 188.577C71.8 188.577 70.2 188.311 68.84 187.777C67.4533 187.244 66.3067 186.537 65.4 185.657C64.4933 184.777 63.8133 183.764 63.36 182.617C62.9067 181.471 62.68 180.297 62.68 179.097C62.68 176.297 63.56 174.151 65.32 172.657C67.0533 171.164 69.7067 170.417 73.28 170.417C73.44 170.417 73.6533 170.417 73.92 170.417C74.16 170.417 74.3867 170.431 74.6 170.457L74.6 184.697C76.76 184.537 78.4 183.911 79.52 182.817C80.64 181.724 81.2 180.017 81.2 177.697C81.2 176.391 81.0933 175.297 80.88 174.417C80.64 173.511 80.4133 172.831 80.2 172.377L83.32 171.857C83.56 172.311 83.8133 173.111 84.08 174.257C84.3467 175.377 84.48 176.657 84.48 178.097C84.48 179.911 84.2133 181.484 83.68 182.817C83.12 184.124 82.36 185.204 81.4 186.057C80.44 186.911 79.3067 187.551 78 187.977C76.6667 188.377 75.2133 188.577 73.64 188.577ZM71.6 174.297C69.92 174.271 68.5467 174.697 67.48 175.577C66.3867 176.431 65.84 177.617 65.84 179.137C65.84 179.991 66.0133 180.751 66.36 181.417C66.68 182.057 67.1067 182.604 67.64 183.057C68.1733 183.511 68.7867 183.871 69.48 184.137C70.1733 184.377 70.88 184.537 71.6 184.617L71.6 174.297ZM130 396.04C128.8 396.493 127.627 396.92 126.48 397.32C125.307 397.72 124.12 398.133 122.92 398.56L122.92 411.12L130 413.64L130 417.68C127.067 416.613 124.36 415.613 121.88 414.68C119.373 413.747 117 412.84 114.76 411.96C112.52 411.053 110.387 410.16 108.36 409.28C106.307 408.4 104.28 407.48 102.28 406.52L102.28 402.96C104.28 402 106.307 401.08 108.36 400.2C110.387 399.32 112.52 398.44 114.76 397.56C117 396.653 119.373 395.733 121.88 394.8C124.36 393.867 127.067 392.867 130 391.8L130 396.04ZM119.72 399.68C117.4 400.533 115.16 401.387 113 402.24C110.813 403.067 108.72 403.933 106.72 404.84C108.72 405.773 110.813 406.667 113 407.52C115.16 408.347 117.4 409.173 119.72 410L119.72 399.68ZM130.4 382.037C130.347 384.33 129.853 385.957 128.92 386.917C127.987 387.877 126.533 388.357 124.56 388.357L99.6 388.357L98.96 384.637L123.96 384.637C124.573 384.637 125.08 384.583 125.48 384.477C125.88 384.37 126.2 384.197 126.44 383.957C126.68 383.717 126.867 383.397 127 382.997C127.107 382.597 127.2 382.103 127.28 381.517L130.4 382.037ZM129.4 360.779C129.613 361.632 129.84 362.766 130.08 364.179C130.32 365.566 130.44 367.179 130.44 369.019C130.44 370.619 130.213 371.966 129.76 373.059C129.28 374.152 128.613 375.032 127.76 375.699C126.907 376.366 125.907 376.846 124.76 377.139C123.587 377.432 122.293 377.579 120.88 377.579L109.2 377.579L109.2 373.859L120.08 373.859C122.613 373.859 124.427 373.459 125.52 372.659C126.613 371.859 127.16 370.512 127.16 368.619C127.16 368.219 127.147 367.806 127.12 367.379C127.093 366.952 127.067 366.552 127.04 366.179C126.987 365.806 126.947 365.472 126.92 365.179C126.867 364.859 126.813 364.632 126.76 364.499L109.2 364.499L109.2 360.779L129.4 360.779ZM109.8 354.37C109.587 353.517 109.36 352.397 109.12 351.01C108.88 349.597 108.76 347.97 108.76 346.13C108.76 344.797 108.947 343.677 109.32 342.77C109.667 341.864 110.187 341.104 110.88 340.49C110.747 340.304 110.56 340.01 110.32 339.61C110.08 339.21 109.853 338.717 109.64 338.13C109.4 337.544 109.2 336.89 109.04 336.17C108.853 335.45 108.76 334.677 108.76 333.85C108.76 332.25 109 330.944 109.48 329.93C109.933 328.917 110.587 328.13 111.44 327.57C112.293 326.984 113.307 326.597 114.48 326.41C115.653 326.197 116.933 326.09 118.32 326.09L130 326.09L130 329.81L119.12 329.81C117.893 329.81 116.84 329.877 115.96 330.01C115.08 330.117 114.347 330.344 113.76 330.69C113.173 331.01 112.747 331.464 112.48 332.05C112.187 332.61 112.04 333.344 112.04 334.25C112.04 335.504 112.213 336.544 112.56 337.37C112.88 338.17 113.173 338.717 113.44 339.01C114.133 338.797 114.893 338.637 115.72 338.53C116.547 338.424 117.413 338.37 118.32 338.37L130 338.37L130 342.09L119.12 342.09C117.893 342.09 116.84 342.157 115.96 342.29C115.08 342.424 114.347 342.664 113.76 343.01C113.173 343.33 112.747 343.784 112.48 344.37C112.187 344.93 112.04 345.65 112.04 346.53C112.04 346.904 112.053 347.304 112.08 347.73C112.107 348.157 112.147 348.57 112.2 348.97C112.227 349.344 112.267 349.69 112.32 350.01C112.373 350.33 112.413 350.544 112.44 350.65L130 350.65L130 354.37L109.8 354.37ZM109.8 319.917C109.587 319.064 109.36 317.931 109.12 316.517C108.88 315.104 108.76 313.477 108.76 311.637C108.76 309.984 109 308.611 109.48 307.517C109.933 306.424 110.587 305.557 111.44 304.917C112.267 304.251 113.267 303.784 114.44 303.517C115.613 303.251 116.907 303.117 118.32 303.117L130 303.117L130 306.837L119.12 306.837C117.84 306.837 116.747 306.931 115.84 307.117C114.933 307.277 114.2 307.557 113.64 307.957C113.08 308.357 112.68 308.891 112.44 309.557C112.173 310.224 112.04 311.051 112.04 312.037C112.04 312.437 112.053 312.851 112.08 313.277C112.107 313.704 112.147 314.117 112.2 314.517C112.227 314.891 112.267 315.237 112.32 315.557C112.373 315.851 112.413 316.064 112.44 316.197L130 316.197L130 319.917L109.8 319.917ZM130 293.228L130 296.948L109.2 296.948L109.2 293.228L130 293.228ZM105.44 295.108C105.44 295.775 105.227 296.348 104.8 296.828C104.347 297.282 103.747 297.508 103 297.508C102.253 297.508 101.667 297.282 101.24 296.828C100.787 296.348 100.56 295.775 100.56 295.108C100.56 294.442 100.787 293.882 101.24 293.428C101.667 292.948 102.253 292.708 103 292.708C103.747 292.708 104.347 292.948 104.8 293.428C105.227 293.882 105.44 294.442 105.44 295.108Z" fill="#131D25"/>
<path d="M56.6565 68.3421C56.5499 68.3421 56.4966 68.2888 56.4434 68.2354C56.3368 68.1287 56.3901 67.9687 56.4966 67.862C63.7978 63.0604 77.7607 57.2452 77.9206 57.1918C89.3787 52.497 97.7457 42.4671 100.464 30.4632C100.517 30.3031 100.624 30.2498 100.783 30.2498C100.943 30.3031 100.997 30.4098 100.997 30.5699C98.2787 42.7872 89.7517 52.9238 78.1871 57.7253C78.0272 57.7787 64.1176 63.5406 56.8697 68.3421C56.7631 68.3421 56.7098 68.3421 56.6565 68.3421Z" fill="#5E696B"/>
<path d="M37.151 105.367C36.9378 105.367 36.7779 105.207 36.7779 104.994L36.7246 103.767C36.7246 85.0409 48.7156 68.6089 66.5156 62.9537C71.9516 61.2465 77.7073 60.6063 83.4629 61.1398C85.5947 61.3532 87.7264 60.8197 89.5917 59.6459C97.3725 54.6843 102.276 46.3616 102.755 37.2387C102.808 35.8516 102.808 34.4644 102.649 33.1307C102.435 30.6232 101.743 29.076 100.783 28.8626C99.824 28.6492 98.545 29.8763 97.2659 32.0637C90.018 45.2413 76.215 53.3506 61.2929 53.3506C57.6689 53.3506 54.0983 52.8704 50.6342 51.9635C50.421 51.9101 50.3144 51.6967 50.3677 51.5366C50.421 51.3232 50.6342 51.2165 50.7941 51.2699C54.2048 52.1769 57.7755 52.657 61.2929 52.657C76.0019 52.657 89.5384 44.6544 96.733 31.7969C98.1719 29.2361 99.6641 27.9557 100.996 28.2224C102.275 28.4892 103.182 30.2497 103.448 33.1307C103.555 34.5178 103.608 35.9583 103.555 37.3454C103.075 46.6817 98.012 55.2178 90.0713 60.2862C88.0994 61.5132 85.7545 62.1001 83.5162 61.8867C77.8671 61.3532 72.218 61.9934 66.8887 63.6472C49.3552 69.1957 37.5773 85.3076 37.5773 103.767L37.6306 104.941C37.524 105.207 37.3641 105.367 37.151 105.367C37.2042 105.367 37.2042 105.367 37.151 105.367Z" fill="#5E696B"/>
<mask id="mask0_20_511" style="mask-type:luminance" maskUnits="userSpaceOnUse" x="37" y="59" width="77" height="73">
<path d="M37.2575 106.595L37.1509 103.82C37.1509 84.8808 49.5682 68.8222 66.7287 63.3805C70.779 62.1001 75.0958 61.4065 79.5725 61.4065C80.9048 61.4065 82.2371 61.4599 83.5161 61.6199C85.7545 61.8333 87.9928 61.2464 89.8581 60.0727C97.479 55.2178 104.301 72.6101 104.834 63.0604C104.887 61.6199 113.84 75.9179 113.734 74.5308C113.201 68.8756 112.881 105.634 110.11 110.596C103.128 123.133 103.288 131.936 87.9395 131.936C84.2622 131.936 47.0635 130.709 43.6527 129.802L37.2575 106.595Z" fill="white"/>
</mask>
<g mask="url(#mask0_20_511)">
<path d="M61.4526 87.1214C59.161 87.1214 52.4993 83.2802 52.3927 83.2268C51.2736 82.4799 51.0071 80.9861 51.7532 79.9191C52.1263 79.3856 52.6592 79.0121 53.2987 78.9054C53.9382 78.7987 54.5778 78.9054 55.1107 79.2789C55.2173 79.3322 63.158 85.4676 62.1987 86.908C62.0388 87.0147 61.7724 87.1214 61.4526 87.1214ZM53.7251 79.5456C53.6185 79.5456 53.5119 79.5456 53.4053 79.599C52.9789 79.7057 52.6059 79.9191 52.3394 80.2925C51.8065 81.0395 52.0197 82.1065 52.8191 82.64C54.1514 83.5469 60.44 86.6946 61.5592 86.4279C61.346 85.3609 56.0167 80.7194 54.6843 79.8124C54.4179 79.6523 54.0981 79.5456 53.7251 79.5456Z" fill="#5E696B"/>
<path d="M89.325 107.448C88.8453 107.448 88.419 107.288 87.9926 107.021C87.886 106.968 79.9453 100.833 80.9046 99.3921C81.1178 99.072 81.4908 98.5385 85.8609 100.566C87.9926 101.526 90.1777 102.753 90.6573 103.02C91.1902 103.393 91.5633 103.927 91.6699 104.567C91.7764 105.207 91.6699 105.848 91.2968 106.381C90.9238 106.915 90.3908 107.288 89.7513 107.395C89.6447 107.395 89.4848 107.448 89.325 107.448ZM81.5441 99.8189C81.7573 100.886 87.0866 105.527 88.419 106.434C88.792 106.701 89.2184 106.754 89.698 106.701C90.1244 106.594 90.4974 106.381 90.7639 106.008C91.0304 105.634 91.0836 105.207 91.0304 104.727C90.9238 104.3 90.7106 103.927 90.3375 103.66C88.9519 102.753 82.61 99.6055 81.5441 99.8189Z" fill="#5E696B"/>
<path d="M71.5251 102.06C66.6221 102.06 62.5718 98.0583 62.5718 93.0967C62.5718 88.1884 66.5688 84.1338 71.5251 84.1338C76.4281 84.1338 80.4784 88.1351 80.4784 93.0967C80.4784 98.0583 76.4814 102.06 71.5251 102.06ZM71.5251 84.8807C66.9951 84.8807 63.3179 88.5619 63.3179 93.0967C63.3179 97.6315 66.9951 101.313 71.5251 101.313C76.055 101.313 79.7323 97.6315 79.7323 93.0967C79.7323 88.6152 76.055 84.8807 71.5251 84.8807Z" fill="#5E696B"/>
<path d="M71.5253 116.945C58.4151 116.945 47.7031 106.274 47.7031 93.0968C47.7031 79.9192 58.3618 69.249 71.5253 69.249C84.6355 69.249 95.3474 79.9192 95.3474 93.0968C95.3474 106.274 84.6887 116.945 71.5253 116.945ZM71.5253 69.9959C58.7881 69.9959 48.4492 80.346 48.4492 93.0968C48.4492 105.848 58.7881 116.198 71.5253 116.198C84.2624 116.198 94.6013 105.848 94.6013 93.0968C94.6013 80.3993 84.2624 69.9959 71.5253 69.9959Z" fill="#5E696B"/>
<path d="M71.5252 105.154C64.9168 105.154 59.5342 99.7656 59.5342 93.1501C59.5342 86.5347 64.9168 81.1462 71.5252 81.1462C78.1336 81.1462 83.5162 86.5347 83.5162 93.1501C83.5695 99.7656 78.1869 105.154 71.5252 105.154ZM71.5252 81.8398C65.2899 81.8398 60.227 86.9081 60.227 93.1501C60.227 99.3922 65.2899 104.46 71.5252 104.46C77.7605 104.46 82.8234 99.3922 82.8234 93.1501C82.8234 86.9081 77.7605 81.8398 71.5252 81.8398Z" fill="#5E696B"/>
<path d="M71.5252 81.8397C69.8198 81.8397 69.127 71.8097 69.127 71.703C69.127 70.3693 70.1928 69.3022 71.5252 69.3022C72.8575 69.3022 73.9234 70.3693 73.9234 71.703C73.9234 71.8097 73.2838 81.8397 71.5252 81.8397ZM71.5252 69.9958C70.6192 69.9958 69.8731 70.7427 69.8731 71.6497C69.8731 73.2502 70.779 80.2391 71.5252 81.0394C72.2713 80.2925 73.1773 73.2502 73.1773 71.6497C73.2305 70.7961 72.4844 69.9958 71.5252 69.9958Z" fill="#5E696B"/>
<path d="M71.5252 116.945C70.1928 116.945 69.127 115.878 69.127 114.544C69.127 114.437 69.8198 104.407 71.5252 104.407C73.2305 104.407 73.9234 114.437 73.9234 114.544C73.9234 115.878 72.8575 116.945 71.5252 116.945ZM71.5252 105.207C70.779 105.954 69.8731 112.997 69.8731 114.597C69.8731 115.504 70.6192 116.251 71.5252 116.251C72.4311 116.251 73.1773 115.504 73.1773 114.597C73.2305 112.943 72.3246 105.954 71.5252 105.207Z" fill="#5E696B"/>
<path d="M71.5252 81.8397C69.8198 81.8397 69.127 71.8097 69.127 71.703C69.127 70.3693 70.1928 69.3022 71.5252 69.3022C72.8575 69.3022 73.9234 70.3693 73.9234 71.703C73.9234 71.8097 73.2838 81.8397 71.5252 81.8397ZM71.5252 69.9958C70.6192 69.9958 69.8731 70.7427 69.8731 71.6497C69.8731 73.2502 70.779 80.2391 71.5252 81.0394C72.2713 80.2925 73.1773 73.2502 73.1773 71.6497C73.2305 70.7961 72.4844 69.9958 71.5252 69.9958Z" fill="#5E696B"/>
<path d="M71.5252 116.944C70.1928 116.944 69.127 115.877 69.127 114.544C69.127 114.437 69.8198 104.407 71.5252 104.407C73.2305 104.407 73.9234 114.437 73.9234 114.544C73.9234 115.877 72.8575 116.944 71.5252 116.944ZM71.5252 105.207C70.779 105.954 69.8731 112.996 69.8731 114.597C69.8731 115.504 70.6192 116.251 71.5252 116.251C72.4311 116.251 73.1773 115.504 73.1773 114.597C73.2305 112.943 72.3246 105.954 71.5252 105.207Z" fill="#5E696B"/>
<path d="M69.2332 82.0531C67.5278 82.0531 65.023 72.6633 64.9697 72.5566C64.7033 71.2762 65.5559 69.9958 66.835 69.7291C68.114 69.4623 69.3931 70.3159 69.6595 71.5963C69.6595 71.703 70.9919 81.6796 69.2865 81.9997C69.2865 82.0531 69.2865 82.0531 69.2332 82.0531ZM67.3679 70.4226C67.2613 70.4226 67.1547 70.4226 67.0482 70.476C66.1422 70.636 65.5559 71.543 65.7158 72.4499C66.0356 73.9971 68.2739 80.7193 69.1799 81.3061C69.7661 80.3992 69.2865 73.3569 69.02 71.8097C68.8601 71.0095 68.1673 70.4226 67.3679 70.4226Z" fill="#5E696B"/>
<path d="M75.735 116.571C75.2553 116.571 74.829 116.411 74.4027 116.144C73.8697 115.771 73.4966 115.237 73.3901 114.597C73.2835 114.064 73.017 111.556 72.9104 109.209C72.7505 104.407 73.3901 104.247 73.7631 104.194C74.1362 104.14 74.7757 103.98 76.4278 108.515C77.2272 110.702 77.9733 113.103 78.0799 113.637C78.1865 114.277 78.0799 114.917 77.7068 115.451C77.3338 115.984 76.8008 116.358 76.1613 116.464C76.0547 116.518 75.8949 116.571 75.735 116.571ZM73.8697 104.941C73.2835 105.848 73.7631 112.89 74.0296 114.437C74.1362 114.864 74.3493 115.237 74.7224 115.504C75.0955 115.771 75.5218 115.824 76.0015 115.771C76.4278 115.664 76.8009 115.451 77.0673 115.077C77.3338 114.704 77.3871 114.277 77.3338 113.797C77.0673 112.25 74.7757 105.527 73.8697 104.941Z" fill="#5E696B"/>
<path d="M66.942 82.7467C66.5157 82.7467 65.7163 82.2666 63.6911 78.9588C62.4654 76.9315 61.2929 74.7441 61.0797 74.2106C60.8133 73.6238 60.8133 72.9835 61.0797 72.3967C61.3462 71.8098 61.7725 71.3297 62.3588 71.1163C63.5845 70.5828 64.9701 71.1696 65.5031 72.3967C65.7163 72.9302 66.4624 75.2776 66.9953 77.5717C68.1145 82.2666 67.4749 82.5333 67.1552 82.64C67.1552 82.6934 67.0486 82.7467 66.942 82.7467ZM63.3713 71.6498C63.1582 71.6498 62.945 71.7031 62.7318 71.7565C62.3055 71.9165 61.9857 72.2366 61.8258 72.6634C61.666 73.0902 61.666 73.5171 61.8258 73.9439C62.4121 75.4377 65.9294 81.573 66.942 81.9465C67.3684 80.9328 65.5031 74.1039 64.9168 72.6634C64.6504 72.0232 64.0109 71.6498 63.3713 71.6498Z" fill="#5E696B"/>
<path d="M79.7326 115.344C79.4129 115.344 79.0931 115.291 78.8266 115.184C78.2404 114.917 77.7608 114.49 77.5476 113.904C77.4943 113.797 74.2967 104.301 75.8955 103.607C77.4943 102.967 81.9177 111.93 81.9709 112.036C82.2374 112.623 82.2374 113.263 81.9709 113.85C81.7045 114.437 81.2781 114.917 80.6919 115.131C80.3721 115.291 80.0524 115.344 79.7326 115.344ZM76.1619 104.247C75.7356 105.261 77.6009 112.09 78.1871 113.53C78.347 113.957 78.6667 114.277 79.0931 114.437C79.5194 114.597 79.9458 114.597 80.3721 114.437C80.7985 114.277 81.1182 113.957 81.2781 113.53C81.438 113.103 81.438 112.677 81.2781 112.25C80.6919 110.809 77.1745 104.674 76.1619 104.247Z" fill="#5E696B"/>
<path d="M64.9698 83.8139C63.1578 83.8139 57.7219 76.7182 57.6686 76.6649C57.2955 76.1314 57.1889 75.4912 57.2955 74.851C57.4021 74.2107 57.7752 73.6772 58.3081 73.3038C58.841 72.9303 59.4805 72.8236 60.1201 72.9303C60.7596 73.037 61.2925 73.4105 61.6656 73.944C61.7189 74.0507 66.7285 82.7468 65.2895 83.7072C65.1829 83.7605 65.0764 83.8139 64.9698 83.8139ZM59.6404 73.6239C59.3207 73.6239 59.0009 73.7306 58.7344 73.8906C58.3614 74.1574 58.0949 74.5309 58.0416 74.9577C57.935 75.3845 58.0416 75.8646 58.3081 76.2381C59.2141 77.5718 63.8506 82.9069 64.9165 83.1203C65.1296 82.0533 61.9853 75.7046 61.1326 74.4241C60.8662 74.0507 60.4931 73.7839 60.0668 73.7306C59.8536 73.6239 59.747 73.6239 59.6404 73.6239Z" fill="#5E696B"/>
<path d="M83.4628 113.37C82.6634 113.37 81.9173 112.997 81.491 112.303C81.4377 112.196 76.4281 103.5 77.867 102.54C78.1868 102.326 78.7197 101.953 82.0239 105.527C83.6227 107.235 85.1682 109.155 85.488 109.635C85.861 110.169 85.9676 110.809 85.861 111.449C85.7544 112.09 85.3814 112.623 84.8484 112.997C84.3688 113.21 83.8892 113.37 83.4628 113.37ZM82.0239 111.876C82.5568 112.623 83.5694 112.837 84.3688 112.356C84.7419 112.09 85.0083 111.716 85.0616 111.289C85.1682 110.863 85.0616 110.382 84.7952 110.009C83.8892 108.675 79.2526 103.34 78.1868 103.127C78.0269 104.194 81.1712 110.542 82.0239 111.876Z" fill="#5E696B"/>
<path d="M63.1049 85.3075C61.0797 85.3075 54.7378 79.759 54.6845 79.7057C54.2049 79.2255 53.9917 78.6386 53.9917 77.9984C53.9917 77.3582 54.2582 76.7714 54.6845 76.2912C55.1109 75.8644 55.7504 75.5977 56.3899 75.5977C57.0294 75.5977 57.6157 75.8644 58.0953 76.2912C58.5216 76.718 60.0671 78.5853 61.4528 80.5059C64.2773 84.4005 63.7977 84.8807 63.5312 85.1474C63.4779 85.2541 63.318 85.3075 63.1049 85.3075ZM56.3899 76.2912C55.9636 76.2912 55.5372 76.4513 55.2175 76.7714C54.5779 77.4116 54.5779 78.4786 55.2175 79.1188C56.3366 80.2392 61.9857 84.5606 62.9983 84.5606C62.9983 83.4936 58.6815 77.8917 57.5624 76.7714C57.2426 76.4513 56.8163 76.2912 56.3899 76.2912Z" fill="#5E696B"/>
<path d="M86.6606 110.703C86.0211 110.703 85.4348 110.436 84.9552 110.009C84.9019 109.956 78.2935 102.38 79.5193 101.153C80.745 99.9257 88.3127 106.541 88.366 106.595C88.8456 107.075 89.0588 107.662 89.0588 108.302C89.0588 108.942 88.7923 109.529 88.366 110.009C87.9397 110.436 87.3001 110.703 86.6606 110.703ZM80.0522 101.633C80.0522 102.7 84.369 108.302 85.4881 109.422C86.1277 110.062 87.1935 110.062 87.8331 109.422C88.4726 108.782 88.4726 107.715 87.8331 107.075C86.7139 105.954 81.1714 101.633 80.0522 101.633Z" fill="#5E696B"/>
<path d="M59.9602 89.2556C59.2141 89.2556 58.0416 89.0956 56.0165 88.6154C53.7249 88.0819 51.3799 87.335 50.847 87.1216C49.6213 86.6414 49.035 85.201 49.568 83.9739C49.8344 83.387 50.2608 82.9069 50.847 82.6935C51.4332 82.4267 52.0728 82.4267 52.659 82.6935C53.1919 82.9069 55.3769 84.0806 57.4021 85.3077C61.5057 87.8151 61.2392 88.4553 61.1326 88.7754C61.026 88.9888 60.9195 89.2556 59.9602 89.2556ZM51.753 83.227C51.5398 83.227 51.3266 83.2803 51.1135 83.3337C50.6871 83.4937 50.3674 83.8138 50.2075 84.2406C49.8344 85.0942 50.2608 86.0546 51.1135 86.428C52.6057 87.0149 59.4272 88.8822 60.3865 88.4553C59.9602 87.4417 53.8314 83.9205 52.3925 83.3337C52.1793 83.2803 51.9662 83.227 51.753 83.227Z" fill="#5E696B"/>
<path d="M91.2965 103.714C90.9767 103.714 90.657 103.66 90.3905 103.554C90.2839 103.5 81.2773 99.0722 81.9701 97.4716C82.6097 95.8711 92.1492 99.0722 92.2558 99.1255C92.842 99.3923 93.3216 99.8191 93.5348 100.406C93.8012 100.993 93.8012 101.633 93.5348 102.22C93.2683 102.807 92.842 103.287 92.2558 103.5C91.936 103.66 91.6162 103.714 91.2965 103.714ZM82.6629 97.7384C83.0893 98.7521 89.218 102.273 90.657 102.86C91.0833 103.02 91.5096 103.02 91.936 102.86C92.3623 102.7 92.6821 102.38 92.842 101.953C93.0019 101.526 93.0019 101.099 92.842 100.673C92.6821 100.246 92.3623 99.9258 91.936 99.7657C90.4971 99.1789 83.6755 97.3116 82.6629 97.7384Z" fill="#5E696B"/>
<path d="M56.7629 91.8164C53.7784 91.8164 50.1012 91.3363 50.0479 91.3363C48.7688 91.0695 47.9161 89.7891 48.1826 88.5087C48.4491 87.2283 49.7281 86.3747 51.0072 86.6414C51.1137 86.6414 60.8131 89.2556 60.4401 90.9628C60.3335 91.603 58.7347 91.8164 56.7629 91.8164ZM50.5275 87.2816C49.7281 87.2816 49.0353 87.8151 48.8754 88.6154C48.7155 89.5223 49.3018 90.4293 50.2078 90.5894C51.7533 90.9095 58.8413 91.3896 59.694 90.7494C59.1078 89.8425 52.3928 87.6017 50.8473 87.2816C50.7407 87.2816 50.6341 87.2816 50.5275 87.2816Z" fill="#5E696B"/>
<path d="M92.523 99.7123C92.3631 99.7123 92.2032 99.7123 92.0433 99.659C91.5104 99.5523 89.1122 98.8587 86.9272 98.0051C82.3972 96.3512 82.5571 95.6576 82.6104 95.3375C82.6637 94.9641 82.8236 94.3239 87.62 94.4839C89.9649 94.5906 92.4164 94.804 93.0026 94.9641C93.6421 95.0708 94.1751 95.4442 94.5481 95.9778C94.9212 96.5113 95.0278 97.1515 94.9212 97.7917C94.8146 98.4319 94.4415 98.9654 93.9086 99.3388C93.4822 99.5522 93.0026 99.7123 92.523 99.7123ZM83.3565 95.4976C83.9427 96.4046 90.6577 98.6453 92.2032 98.9654C92.6295 99.0721 93.1092 98.9654 93.4822 98.6986C93.8553 98.4319 94.1218 98.0584 94.1751 97.6316C94.2816 97.2048 94.1751 96.7247 93.9086 96.3512C93.6421 95.9778 93.2691 95.711 92.8427 95.6577C91.2972 95.3375 84.2625 94.8574 83.3565 95.4976Z" fill="#5E696B"/>
<path d="M50.1546 95.5508C48.8222 95.5508 47.7563 94.4838 47.7563 93.15C47.7563 91.8163 48.8222 90.7493 50.1546 90.7493C50.2611 90.7493 60.2803 91.4428 60.2803 93.15C60.2803 94.8573 50.2611 95.5508 50.1546 95.5508ZM50.1546 91.4428C49.2486 91.4428 48.5025 92.1897 48.5025 93.0967C48.5025 94.0037 49.2486 94.7506 50.1546 94.7506C51.7534 94.7506 58.7348 93.8436 59.5342 93.0967C58.7348 92.3498 51.7534 91.4428 50.1546 91.4428Z" fill="#5E696B"/>
<path d="M92.949 95.5508C92.8424 95.5508 82.8232 94.8573 82.8232 93.15C82.8232 91.4428 92.8424 90.7493 92.949 90.7493C94.2813 90.7493 95.3472 91.8163 95.3472 93.15C95.3472 94.4305 94.2813 95.5508 92.949 95.5508ZM83.5694 93.15C84.3155 93.897 91.3502 94.8039 92.949 94.8039C93.855 94.8039 94.6011 94.057 94.6011 93.15C94.6011 92.2431 93.855 91.4962 92.949 91.4962C91.3502 91.4428 84.3688 92.3498 83.5694 93.15Z" fill="#5E696B"/>
<path d="M50.5275 99.7124C49.4084 99.7124 48.3958 98.9121 48.1826 97.7917C47.9161 96.5113 48.7688 95.2309 50.0479 94.9642C50.1545 94.9642 60.1203 93.6304 60.4401 95.3376C60.7599 97.0448 51.1137 99.659 51.0072 99.659C50.8473 99.7124 50.6874 99.7124 50.5275 99.7124ZM57.0293 95.1776C54.5778 95.1776 51.2203 95.4443 50.2078 95.6577C49.3018 95.8178 48.7155 96.7247 48.8754 97.6317C49.0353 98.5387 49.9413 99.1255 50.8473 98.9655C52.3928 98.6454 59.1078 96.4046 59.694 95.4977C59.4275 95.2843 58.3617 95.1776 57.0293 95.1776Z" fill="#5E696B"/>
<path d="M86.1278 91.7631C82.7703 91.7631 82.6637 91.2295 82.6104 90.9094C82.5571 90.536 82.3972 89.8958 86.9272 88.2419C89.1122 87.4417 91.5104 86.6947 92.0433 86.588C92.6828 86.4813 93.3224 86.588 93.8553 86.9615C94.3882 87.335 94.7613 87.8685 94.8679 88.5087C94.9744 89.1489 94.8679 89.7891 94.4948 90.3226C94.1218 90.8561 93.5888 91.2295 92.9493 91.3362C92.4164 91.443 89.9116 91.7097 87.5667 91.8164C87.087 91.7631 86.5541 91.7631 86.1278 91.7631ZM83.3565 90.7494C84.2625 91.3363 91.2972 90.8561 92.8427 90.5893C93.2691 90.4826 93.6421 90.2692 93.9086 89.8958C94.1751 89.5223 94.2283 89.0955 94.1751 88.6154C94.0685 88.1886 93.8553 87.8151 93.4822 87.5484C93.1092 87.2816 92.6828 87.2283 92.2032 87.2816C90.6577 87.6017 83.9427 89.8424 83.3565 90.7494Z" fill="#5E696B"/>
<path d="M51.753 103.713C51.4332 103.713 51.1135 103.66 50.847 103.553C50.2608 103.287 49.7811 102.86 49.568 102.273C49.0883 101.046 49.6213 99.6588 50.847 99.1253C51.3799 98.9119 53.7249 98.165 56.0165 97.6315C60.7063 96.5111 60.9728 97.1513 61.0794 97.4714C61.2392 97.7915 61.4524 98.4318 57.3488 100.939C55.3237 102.166 53.1386 103.34 52.6057 103.553C52.3925 103.66 52.0728 103.713 51.753 103.713ZM59.9602 97.6848C58.0949 97.6848 52.4458 99.232 51.1668 99.7655C50.3141 100.139 49.8877 101.099 50.2608 101.953C50.4207 102.38 50.7404 102.7 51.1668 102.86C51.5931 103.02 52.0195 103.02 52.4458 102.86C53.938 102.273 60.0668 98.7519 60.4398 97.7382C60.3332 97.6848 60.1734 97.6848 59.9602 97.6848Z" fill="#5E696B"/>
<path d="M83.2492 89.2555C82.5564 89.2555 82.0768 89.1488 81.9702 88.8287C81.3307 87.2281 90.284 82.8 90.3905 82.7467C90.9768 82.4799 91.6163 82.4799 92.2025 82.7467C92.7887 83.0134 93.2684 83.4403 93.4816 84.0271C93.748 84.614 93.748 85.2542 93.4816 85.841C93.2151 86.4279 92.7887 86.908 92.2025 87.1214C92.1492 87.1748 86.0205 89.2555 83.2492 89.2555ZM82.663 88.5086C83.6756 88.9354 90.4971 87.0681 91.936 86.4812C92.3624 86.3212 92.6822 86.0011 92.842 85.5743C93.0019 85.1475 93.0019 84.7207 92.842 84.2939C92.6822 83.8671 92.3624 83.547 91.936 83.3869C91.5097 83.2269 91.0834 83.2269 90.657 83.3869C89.2181 83.9738 83.0893 87.4949 82.663 88.5086Z" fill="#5E696B"/>
<path d="M53.7252 107.448C53.5653 107.448 53.4055 107.448 53.2456 107.395C52.6061 107.288 52.0731 106.915 51.7001 106.381C50.954 105.261 51.2737 103.767 52.3396 103.073C52.4462 103.02 61.133 98.005 62.0923 99.4454C63.0516 100.886 55.1109 107.021 55.0043 107.075C54.6845 107.288 54.2049 107.448 53.7252 107.448ZM52.8193 103.66C52.0731 104.194 51.86 105.207 52.3396 106.008C52.6061 106.381 52.9791 106.648 53.4055 106.701C53.8318 106.808 54.3115 106.701 54.6845 106.434C56.0169 105.527 61.3462 100.886 61.5594 99.8189C60.4402 99.6055 54.1516 102.753 52.8193 103.66Z" fill="#5E696B"/>
<path d="M81.5978 87.1749C81.1182 87.1749 81.0116 87.0149 80.9583 86.8548C79.999 85.4143 87.9397 79.279 88.0463 79.2257C88.5793 78.8522 89.2188 78.7455 89.8583 78.8522C90.4978 78.9589 91.0308 79.3324 91.4038 79.8659C91.7769 80.3994 91.8835 81.0396 91.7769 81.6798C91.6703 82.32 91.2973 82.8535 90.7643 83.227C90.2847 83.5471 88.0996 84.7208 85.9679 85.6811C83.4098 86.8548 82.1841 87.1749 81.5978 87.1749ZM81.5445 86.428C82.6104 86.6414 88.9523 83.4937 90.2314 82.6401C90.6044 82.3733 90.8709 81.9999 90.9242 81.5731C91.0308 81.1463 90.9242 80.6661 90.6577 80.2927C90.3913 79.9192 90.0182 79.6525 89.5919 79.5991C89.1655 79.4924 88.6859 79.5991 88.3128 79.8659C87.0871 80.7195 81.7577 85.361 81.5445 86.428Z" fill="#5E696B"/>
<path d="M56.3899 110.703C55.7504 110.703 55.1642 110.436 54.6845 110.009C54.2049 109.529 53.9917 108.942 53.9917 108.302C53.9917 107.662 54.2582 107.075 54.6845 106.595C54.7378 106.541 62.3055 99.9257 63.5312 101.153C64.757 102.38 58.1486 109.956 58.0953 110.009C57.669 110.436 57.0294 110.703 56.3899 110.703ZM62.9983 101.633C61.9324 101.633 56.3366 105.954 55.2175 107.075C54.5779 107.715 54.5779 108.782 55.2175 109.422C55.857 110.062 56.9228 110.062 57.5624 109.422C58.7348 108.355 63.0516 102.753 62.9983 101.633Z" fill="#5E696B"/>
<path d="M79.9454 85.3075C79.7855 85.3075 79.6256 85.2541 79.519 85.1474C79.2525 84.8807 78.7729 84.4005 81.5975 80.5059C82.9831 78.5853 84.5819 76.6647 84.955 76.2912C85.3813 75.8644 86.0208 75.5977 86.6603 75.5977C87.2999 75.5977 87.8861 75.8644 88.3657 76.2912C88.8454 76.7714 89.0585 77.3582 89.0585 77.9984C89.0585 78.6386 88.7921 79.2255 88.3657 79.7057C88.3124 79.759 81.9705 85.3075 79.9454 85.3075ZM80.052 84.6139C81.1711 84.6139 86.7136 80.2925 87.8328 79.1721C88.4723 78.5319 88.4723 77.4649 87.8328 76.8247C87.1933 76.1845 86.1274 76.1845 85.4879 76.8247C84.3687 77.8917 80.052 83.4936 80.052 84.6139Z" fill="#5E696B"/>
<path d="M59.6406 113.37C59.161 113.37 58.7346 113.21 58.3083 112.943C57.1891 112.196 56.9226 110.702 57.6687 109.635C57.722 109.529 63.8508 101.579 65.2897 102.54C66.7286 103.5 61.719 112.196 61.6657 112.303C61.2927 112.836 60.7598 113.21 60.1202 113.317C59.9604 113.317 59.8005 113.37 59.6406 113.37ZM58.255 110.009C57.722 110.756 57.9352 111.823 58.7346 112.356C59.1077 112.623 59.534 112.676 60.0137 112.623C60.44 112.516 60.8131 112.303 61.0795 111.929C61.9855 110.596 65.1298 104.247 64.8633 103.233C63.7975 103.34 59.161 108.675 58.255 110.009Z" fill="#5E696B"/>
<path d="M78.1868 83.867C78.0269 83.867 77.9203 83.8137 77.867 83.7603C76.4281 82.8 81.4377 74.1038 81.491 73.9971C82.2371 72.8768 83.7293 72.61 84.7952 73.3569C85.3281 73.7304 85.7011 74.2639 85.8077 74.9041C85.9143 75.5443 85.8077 76.1845 85.4347 76.718C85.1149 77.1982 83.5694 79.1188 81.9706 80.826C79.5724 83.3335 78.6131 83.867 78.1868 83.867ZM83.4628 73.6237C82.9299 73.6237 82.3969 73.8904 82.0772 74.3706C81.1712 75.7044 78.0269 82.0531 78.2934 83.0667C79.3592 82.8533 83.9958 77.5183 84.9018 76.1845C85.1682 75.8111 85.2215 75.3843 85.1682 74.9041C85.0616 74.4773 84.8484 74.1038 84.4754 73.8371C84.1023 73.7304 83.7826 73.6237 83.4628 73.6237Z" fill="#5E696B"/>
<path d="M63.3712 115.344C63.0515 115.344 62.7317 115.291 62.4652 115.184C61.879 114.917 61.3994 114.49 61.1862 113.904C60.9197 113.317 60.9197 112.676 61.1862 112.09C61.3994 111.556 62.5718 109.369 63.7976 107.341C66.3023 103.233 66.9419 103.5 67.2616 103.607C67.5814 103.767 68.2209 103.98 67.1017 108.675C66.5688 110.969 65.8227 113.317 65.6095 113.85C65.1832 114.757 64.2772 115.344 63.3712 115.344ZM66.9419 104.247C65.9293 104.674 62.4119 110.809 61.8257 112.25C61.6658 112.676 61.6658 113.103 61.8257 113.53C61.9856 113.957 62.3053 114.277 62.7317 114.437C63.5844 114.811 64.5437 114.384 64.9167 113.53C65.5029 112.09 67.3682 105.261 66.9419 104.247Z" fill="#5E696B"/>
<path d="M76.0549 82.6933C76.0016 82.6933 75.9483 82.6933 75.895 82.6399C74.2962 81.9997 77.4938 72.45 77.5471 72.3433C77.8136 71.7564 78.2399 71.2763 78.8261 71.0629C79.4124 70.7961 80.0519 70.7961 80.6381 71.0629C81.2243 71.3296 81.704 71.7564 81.9171 72.3433C82.1836 72.9301 82.1836 73.5703 81.9171 74.1572C81.9171 74.3172 77.7603 82.6933 76.0549 82.6933ZM79.7321 71.6497C79.519 71.6497 79.3058 71.7031 79.0926 71.7564C78.6663 71.9165 78.3465 72.2366 78.1866 72.6634C77.6004 74.1572 75.7351 80.9861 76.1615 81.9464C77.174 81.5196 80.6914 75.3843 81.2776 73.9438C81.4375 73.517 81.4375 73.0902 81.2776 72.6634C81.1177 72.2366 80.798 71.9165 80.3717 71.7564C80.1585 71.7031 79.9453 71.6497 79.7321 71.6497Z" fill="#5E696B"/>
<path d="M67.3683 116.518C67.2085 116.518 67.0486 116.518 66.8887 116.464C65.6097 116.197 64.757 114.917 65.0234 113.637C65.0234 113.53 67.6881 103.873 69.3402 104.194C71.0456 104.514 69.7132 114.49 69.7132 114.597C69.5001 115.771 68.4875 116.518 67.3683 116.518ZM65.7162 113.797C65.5564 114.704 66.1426 115.611 67.0486 115.771C67.9546 115.931 68.8606 115.344 69.0204 114.437C69.3402 112.89 69.8198 105.794 69.1803 104.94C68.2743 105.527 66.036 112.25 65.7162 113.797Z" fill="#5E696B"/>
<path d="M73.9235 82.0532C73.8702 82.0532 73.8169 82.0532 73.7636 82.0532C73.3906 81.9998 72.751 81.8398 72.9109 77.0382C73.0175 74.6908 73.2307 72.2366 73.3906 71.6498C73.4971 71.0096 73.8702 70.4761 74.4031 70.1026C74.9361 69.7292 75.5756 69.6225 76.2151 69.7292C76.8546 69.8359 77.3876 70.2093 77.7606 70.7428C78.1337 71.2763 78.2403 71.9165 78.1337 72.5567C78.0271 73.0903 77.3343 75.491 76.4816 77.6784C74.9894 81.6264 74.2965 82.0532 73.9235 82.0532ZM75.7355 70.4227C75.4157 70.4227 75.0959 70.5294 74.8295 70.6895C74.4564 70.9562 74.19 71.3297 74.1367 71.7565C73.8169 73.3037 73.3373 80.3993 73.9768 81.2529C74.8828 80.666 77.1211 73.9439 77.4409 72.3967C77.5474 71.9699 77.4409 71.4897 77.1744 71.1163C76.9079 70.7428 76.5349 70.4761 76.1085 70.4227C75.9486 70.4227 75.8421 70.4227 75.7355 70.4227Z" fill="#5E696B"/>
<path d="M71.5249 130.122C70.086 130.122 68.9136 128.948 68.9136 127.508C68.9136 127.401 69.713 116.251 71.5249 116.251C73.3902 116.251 74.1363 127.401 74.1363 127.508C74.1896 128.948 73.0172 130.122 71.5249 130.122ZM71.5249 116.998C70.6723 117.638 69.6064 125.534 69.6064 127.508C69.6064 128.575 70.4591 129.429 71.5249 129.429C72.5908 129.429 73.4435 128.575 73.4435 127.508C73.4435 125.534 72.3776 117.638 71.5249 116.998Z" fill="#5E696B"/>
<path d="M71.5249 69.9959C69.6597 69.9959 68.9136 58.8456 68.9136 58.7389C68.9136 57.2985 70.086 56.1248 71.5249 56.1248C72.9639 56.1248 74.1363 57.2985 74.1363 58.7389C74.1896 58.899 73.3902 69.9959 71.5249 69.9959ZM71.5249 56.8717C70.4591 56.8717 69.6064 57.7253 69.6064 58.7923C69.6064 60.7129 70.6723 68.6622 71.5249 69.3024C72.3776 68.6622 73.4435 60.7663 73.4435 58.7923C73.4435 57.7253 72.5908 56.8717 71.5249 56.8717Z" fill="#5E696B"/>
<path d="M76.428 129.749C75.1489 129.749 74.0298 128.788 73.8166 127.508C73.8166 127.401 72.9639 116.251 74.8292 115.984C76.6944 115.718 79.0393 126.601 79.0393 126.761C79.2525 128.202 78.2399 129.535 76.801 129.749C76.6944 129.749 76.5345 129.749 76.428 129.749ZM74.5627 127.401C74.7226 128.468 75.6819 129.162 76.7477 129.002C77.8136 128.842 78.5064 127.882 78.3465 126.815C78.08 124.894 75.895 117.211 74.989 116.678C74.1896 117.478 74.2429 125.481 74.5627 127.401Z" fill="#5E696B"/>
<path d="M68.114 70.2626C67.6877 70.2626 66.9949 69.8358 65.5559 65.301C64.7565 62.7935 64.117 60.126 64.0637 59.4857C63.9571 58.7922 64.117 58.0986 64.5434 57.5118C64.9697 56.9249 65.5559 56.6048 66.2487 56.4981C67.6877 56.2847 69.02 57.2984 69.2332 58.7388C69.3398 59.379 69.4463 62.0999 69.3931 64.7675C69.2865 70.1025 68.5937 70.2092 68.2206 70.2626C68.2206 70.2626 68.1673 70.2626 68.114 70.2626ZM66.6751 57.1917C66.5685 57.1917 66.5152 57.1917 66.4086 57.1917C65.929 57.245 65.4493 57.5118 65.1296 57.9386C64.8098 58.3654 64.7032 58.8455 64.7565 59.379C65.023 61.2997 67.208 68.9822 68.114 69.5157C68.8601 68.7688 68.8068 60.7662 68.4871 58.8455C68.4338 57.8852 67.5811 57.1917 66.6751 57.1917Z" fill="#5E696B"/>
<path d="M81.2245 128.735C80.1054 128.735 79.0395 127.988 78.7198 126.868C78.6665 126.761 76.3215 115.877 78.0802 115.344C79.8389 114.81 83.7293 125.267 83.7826 125.374C84.209 126.761 83.4096 128.255 82.0239 128.628C81.7042 128.682 81.4377 128.735 81.2245 128.735ZM78.2401 115.984C77.6539 116.838 78.8263 124.734 79.3593 126.601C79.679 127.615 80.6916 128.201 81.7042 127.881C82.7168 127.561 83.303 126.548 82.9832 125.534C82.5569 123.987 79.2527 116.411 78.2401 115.984Z" fill="#5E696B"/>
<path d="M64.8101 71.0096C64.3838 71.0096 63.5843 70.4761 61.6658 66.4748C60.5466 64.1274 59.534 61.5666 59.3209 60.9264C59.1077 60.2328 59.2143 59.5392 59.534 58.899C59.8538 58.2588 60.44 57.832 61.0796 57.6186C62.4652 57.1918 63.9574 57.9921 64.3304 59.3792C64.3837 59.4859 66.7287 70.3694 64.97 70.9029C64.97 70.9563 64.9167 71.0096 64.8101 71.0096ZM61.879 58.2588C61.7191 58.2588 61.5059 58.2588 61.346 58.3122C60.8664 58.4722 60.44 58.7923 60.2269 59.2191C59.9604 59.6459 59.9071 60.1795 60.067 60.6596C60.5999 62.5269 63.8508 69.7826 64.8634 70.2094C65.4496 69.3558 64.2772 61.4599 63.7442 59.5926C63.4778 58.7923 62.6784 58.2588 61.879 58.2588Z" fill="#5E696B"/>
<path d="M85.8078 127.028C85.488 127.028 85.1683 126.974 84.9018 126.868C84.2623 126.601 83.7293 126.121 83.4096 125.48C83.1431 124.894 82.2371 122.279 81.5443 119.772C80.1054 114.597 80.7982 114.33 81.118 114.17C82.8234 113.423 88.1527 123.186 88.1527 123.293C88.7389 124.627 88.1527 126.174 86.8736 126.761C86.5539 126.921 86.1808 127.028 85.8078 127.028ZM81.4377 114.81C80.9581 115.771 83.2497 123.4 84.0491 125.16C84.2623 125.641 84.6353 125.961 85.115 126.174C85.5946 126.334 86.1276 126.334 86.5539 126.121C87.5132 125.694 87.9395 124.574 87.5132 123.613C86.7138 121.799 82.4503 115.077 81.4377 114.81Z" fill="#5E696B"/>
<path d="M61.6657 72.1834C61.186 72.1834 60.3334 71.6499 57.9884 68.1287C56.5495 65.9414 55.1639 63.5406 54.8974 62.9537C54.631 62.3135 54.5777 61.62 54.8441 60.9264C55.1106 60.2862 55.5902 59.7527 56.2298 59.4326C56.8693 59.1658 57.5621 59.1125 58.2549 59.3792C58.8944 59.646 59.4274 60.1261 59.7471 60.7664C59.8004 60.8731 63.6908 71.3298 62.0387 72.0767C61.8789 72.13 61.7723 72.1834 61.6657 72.1834ZM57.2956 59.9661C57.0292 59.9661 56.7627 60.0194 56.4962 60.1261C56.0166 60.3395 55.6968 60.713 55.4837 61.1932C55.3238 61.6733 55.3238 62.2068 55.5369 62.6336C56.3363 64.3942 60.5998 71.1164 61.6124 71.3831C62.092 70.4228 59.8004 62.7937 59.001 61.0331C58.7878 60.5529 58.4148 60.2328 57.9351 60.0194C57.722 60.0194 57.5088 59.9661 57.2956 59.9661Z" fill="#5E696B"/>
<path d="M90.1245 124.68C89.9114 124.68 89.7515 124.68 89.5383 124.627C88.8455 124.467 88.2593 124.093 87.8862 123.453C87.8329 123.346 82.4503 113.583 84.0491 112.57C85.5946 111.556 92.2563 120.519 92.3096 120.626C92.6826 121.212 92.8425 121.906 92.6826 122.6C92.5227 123.293 92.1497 123.88 91.5101 124.253C91.0838 124.52 90.6042 124.68 90.1245 124.68ZM84.4221 113.21C84.1024 114.224 87.4598 121.426 88.4724 123.08C88.7389 123.507 89.1652 123.827 89.6449 123.933C90.1245 124.04 90.6575 123.933 91.0838 123.667C91.5102 123.4 91.8299 122.973 91.9365 122.493C92.0431 122.013 91.9365 121.479 91.67 121.052C90.6574 119.345 85.488 113.317 84.4221 113.21Z" fill="#5E696B"/>
<path d="M58.788 73.7838C56.8162 73.7838 50.8473 65.7812 50.794 65.6745C49.9946 64.4474 50.3677 62.7936 51.5934 62.0467C52.8192 61.2464 54.4713 61.6199 55.2174 62.8469C55.5371 63.3804 56.8162 65.8346 57.882 68.2353C60.0138 73.1436 59.4275 73.5171 59.0545 73.7305C59.0012 73.7305 58.8946 73.7838 58.788 73.7838ZM52.979 62.3134C52.606 62.3134 52.2862 62.4201 51.9665 62.6335C51.0605 63.2204 50.8473 64.3941 51.3802 65.2477C52.4461 66.9016 57.6156 72.9302 58.6814 73.0369C59.0012 72.0232 55.6437 64.8209 54.6311 63.167C54.2581 62.6335 53.6186 62.3134 52.979 62.3134Z" fill="#5E696B"/>
<path d="M94.0146 121.693C93.9613 121.693 93.908 121.693 93.8014 121.693C93.1086 121.639 92.4691 121.319 91.9895 120.786C91.5631 120.305 89.9643 118.065 88.5787 115.824C85.7541 111.289 86.3404 110.809 86.6068 110.542C86.9266 110.276 87.4596 109.795 91.5631 113.263C93.5883 114.97 95.5601 116.838 95.9865 117.318C96.9458 118.438 96.8392 120.092 95.72 121.052C95.2404 121.479 94.6542 121.693 94.0146 121.693ZM87.1398 111.129C86.9266 112.143 91.2967 118.865 92.5757 120.305C93.2685 121.106 94.4943 121.212 95.2404 120.519C96.0398 119.825 96.1464 118.598 95.4536 117.851C94.1745 116.358 88.2589 111.129 87.1398 111.129Z" fill="#5E696B"/>
<path d="M55.9635 75.8645C55.4306 75.8645 54.3114 75.3843 51.4869 72.9836C49.4617 71.2763 47.4899 69.4091 47.0635 68.9289C46.5839 68.3954 46.3707 67.7018 46.424 67.0083C46.4773 66.3147 46.7971 65.6745 47.33 65.1944C47.8629 64.7142 48.5557 64.5008 49.2486 64.5541C49.9414 64.6075 50.5809 64.9276 51.0605 65.4611C51.4869 65.9413 53.0857 68.182 54.4713 70.4227C57.2959 74.9575 56.7096 75.4377 56.4432 75.7044C56.3366 75.7578 56.23 75.8645 55.9635 75.8645ZM49.0887 65.2477C48.609 65.2477 48.1827 65.4078 47.8629 65.7279C47.4899 66.048 47.2234 66.5281 47.2234 67.0083C47.1701 67.5418 47.33 68.0219 47.703 68.3954C48.9821 69.8892 54.951 75.1176 56.0168 75.0642C56.23 74.0506 51.8599 67.3284 50.5809 65.8879C50.2611 65.5145 49.7815 65.2477 49.3019 65.2477C49.142 65.2477 49.142 65.2477 49.0887 65.2477Z" fill="#5E696B"/>
<path d="M97.4787 118.225C96.8925 118.225 96.253 118.011 95.7733 117.585C95.2937 117.158 93.3752 115.184 91.7231 113.157C88.3123 109.049 88.7919 108.515 89.0051 108.195C90.2308 106.808 99.1308 113.477 99.2374 113.583C100.357 114.544 100.463 116.197 99.5039 117.318C98.9177 117.958 98.2249 118.225 97.4787 118.225ZM89.538 108.728C89.4847 109.795 94.7608 115.771 96.1997 117.051C96.9991 117.745 98.2248 117.638 98.8644 116.838C99.1841 116.464 99.344 115.984 99.344 115.451C99.2907 114.917 99.0775 114.49 98.7045 114.17C97.2656 112.89 90.6039 108.568 89.538 108.728Z" fill="#5E696B"/>
<path d="M53.565 78.2652C52.9788 78.2652 51.753 77.8384 48.8752 76.0245C46.6368 74.6373 44.3985 73.0368 43.9189 72.61C43.3859 72.1299 43.0662 71.4897 43.0129 70.7961C42.9596 70.1025 43.1728 69.409 43.6524 68.8755C44.6117 67.7551 46.2638 67.6484 47.3829 68.6087C47.8626 69.0355 49.7811 71.0095 51.4332 73.0368C54.844 77.1448 54.3644 77.6783 54.1512 77.9984C53.9913 78.1051 53.8847 78.2652 53.565 78.2652ZM45.6243 68.7154C45.0913 68.7154 44.5584 68.9288 44.1853 69.3556C43.8656 69.7291 43.7057 70.2092 43.7057 70.7427C43.759 71.2763 43.9722 71.7031 44.3452 72.0232C45.8374 73.3036 52.4991 77.625 53.5117 77.4649C53.565 76.3979 48.2889 70.4226 46.85 69.1422C46.477 68.8755 46.0506 68.7154 45.6243 68.7154Z" fill="#5E696B"/>
<path d="M100.41 114.33C99.9305 114.33 99.3975 114.17 98.9712 113.904C98.8646 113.85 89.9646 107.181 90.9239 105.634C91.9365 104.087 101.689 109.422 101.796 109.475C103.021 110.276 103.395 111.876 102.595 113.103C102.222 113.69 101.636 114.117 100.943 114.277C100.783 114.33 100.57 114.33 100.41 114.33ZM99.3975 113.317C99.8239 113.583 100.357 113.69 100.836 113.583C101.316 113.477 101.742 113.157 102.009 112.73C102.595 111.823 102.329 110.649 101.423 110.116C99.7706 109.049 92.576 105.688 91.5634 106.061C91.67 107.075 97.7454 112.25 99.3975 113.317Z" fill="#5E696B"/>
<path d="M51.38 80.9861C50.6871 80.9861 49.4081 80.666 46.6369 79.4389C44.2386 78.3719 41.7871 77.0915 41.2542 76.7714C40.668 76.3979 40.2416 75.8111 40.0818 75.1175C39.9219 74.424 40.0818 73.7304 40.4548 73.1436C41.2542 71.9165 42.853 71.543 44.0788 72.3433C44.6117 72.6634 46.7967 74.3706 48.7153 76.1312C52.7123 79.7057 52.2859 80.2925 52.0728 80.6126C52.0195 80.7727 51.9129 80.9861 51.38 80.9861ZM42.6931 72.6634C42.0536 72.6634 41.4674 72.9835 41.0943 73.517C40.8279 73.9438 40.7213 74.4773 40.8279 74.9575C40.9345 75.4376 41.2542 75.8644 41.6806 76.1845C43.3327 77.2516 50.5273 80.6126 51.5398 80.2392C51.4333 79.1722 45.4111 73.9972 43.759 72.9301C43.386 72.7701 43.0129 72.6634 42.6931 72.6634Z" fill="#5E696B"/>
<path d="M102.755 110.009C102.382 110.009 102.009 109.956 101.689 109.795C101.583 109.742 91.7767 104.407 92.5761 102.753C93.3222 101.046 103.768 104.994 103.874 105.047C104.514 105.314 104.993 105.848 105.26 106.541C105.526 107.181 105.473 107.928 105.207 108.568C104.727 109.475 103.768 110.009 102.755 110.009ZM101.956 109.155C102.915 109.582 104.034 109.155 104.461 108.195C104.674 107.715 104.674 107.235 104.514 106.754C104.354 106.274 103.981 105.901 103.501 105.687C101.743 104.887 94.1217 102.593 93.1624 103.073C93.4821 104.034 100.197 108.302 101.956 109.155Z" fill="#5E696B"/>
<path d="M49.4618 83.9738C48.7157 83.9738 47.33 83.7604 44.9318 83.1202C42.4271 82.4267 39.8157 81.5197 39.2295 81.2529C37.8971 80.6661 37.3109 79.0656 37.9504 77.7852C38.2169 77.1449 38.7498 76.6648 39.4426 76.398C40.0822 76.1313 40.8283 76.1846 41.4678 76.4514C42.054 76.7181 44.4522 78.1053 46.6372 79.5457C51.0606 82.48 50.7941 83.1736 50.6342 83.547C50.4744 83.7071 50.3145 83.9738 49.4618 83.9738ZM40.3486 76.9315C40.1354 76.9315 39.9223 76.9849 39.6558 77.0382C39.1762 77.1983 38.8031 77.5717 38.5899 78.0519C38.1636 79.0122 38.5899 80.1326 39.5492 80.5594C41.3079 81.3596 48.9289 83.6537 49.8881 83.1736C49.6217 82.1599 42.9067 77.8919 41.148 77.0916C40.8815 76.9849 40.6151 76.9315 40.3486 76.9315Z" fill="#5E696B"/>
<path d="M104.46 105.421C104.194 105.421 103.981 105.367 103.714 105.314C103.608 105.261 93.1621 101.42 93.695 99.6056C94.2279 97.845 105.1 100.192 105.206 100.246C106.592 100.673 107.391 102.113 106.965 103.5C106.752 104.194 106.326 104.727 105.686 105.047C105.313 105.314 104.887 105.421 104.46 105.421ZM103.927 104.621C104.407 104.781 104.94 104.727 105.366 104.46C105.793 104.194 106.112 103.82 106.272 103.34C106.592 102.326 106.006 101.259 104.993 100.993C103.128 100.459 95.2405 99.2321 94.3878 99.8723C94.8142 100.833 102.062 104.087 103.927 104.621Z" fill="#5E696B"/>
<path d="M47.3299 87.2814C46.5305 87.2814 45.4113 87.2281 43.8125 87.0147C41.2011 86.6946 38.4832 86.1611 37.897 86.001C36.5113 85.5742 35.7119 84.1337 36.1383 82.7466C36.5646 81.3595 38.0035 80.5592 39.3892 80.9861C39.9754 81.1461 42.5335 82.1598 44.9317 83.3335C49.7281 85.6276 49.5682 86.3211 49.4083 86.6946C49.3017 86.8546 49.1952 87.2814 47.3299 87.2814ZM38.6431 81.5196C37.8437 81.5196 37.0443 82.0531 36.8311 82.9067C36.5113 83.9203 37.0976 84.9874 38.1101 85.2541C39.9754 85.7876 47.8628 87.0147 48.7155 86.3745C48.3425 85.4142 41.0413 82.1064 39.176 81.5729C38.9628 81.5729 38.803 81.5196 38.6431 81.5196Z" fill="#5E696B"/>
<path d="M105.526 100.673C105.42 100.673 105.26 100.673 105.153 100.619C105.047 100.619 94.1747 98.2719 94.3879 96.4046C94.6543 94.5907 105.793 95.3909 105.899 95.3909C107.338 95.6043 108.351 96.9381 108.138 98.3786C107.924 99.7123 106.805 100.673 105.526 100.673ZM95.1339 96.5113C95.6669 97.4182 103.341 99.6056 105.26 99.8724C106.326 100.032 107.285 99.2855 107.445 98.2719C107.605 97.2048 106.859 96.2445 105.846 96.0845C103.874 95.8711 95.8801 95.8177 95.1339 96.5113Z" fill="#5E696B"/>
<path d="M42.2139 91.0161C39.9223 91.0161 37.7905 90.9094 37.2043 90.8027C36.5115 90.696 35.872 90.3226 35.4989 89.7891C35.0726 89.2022 34.9127 88.5087 35.0193 87.8151C35.1259 87.1215 35.4989 86.4813 36.0319 86.1079C36.6181 85.6811 37.3109 85.521 38.0037 85.6277C38.1103 85.6277 48.9822 87.9751 48.769 89.8424C48.7157 90.2159 48.6091 90.9628 43.2798 91.0161C42.8534 91.0161 42.5337 91.0161 42.2139 91.0161ZM37.5774 86.3213C37.151 86.3213 36.778 86.428 36.4582 86.6947C36.0319 87.0148 35.7654 87.4416 35.7121 87.9751C35.6588 88.4553 35.7654 88.9888 36.0851 89.4156C36.4049 89.8424 36.8313 90.1092 37.3642 90.1625C39.2828 90.4293 47.2768 90.4826 48.0229 89.7891C47.49 88.8821 39.8157 86.6947 37.8971 86.428C37.7373 86.3213 37.684 86.3213 37.5774 86.3213Z" fill="#5E696B"/>
<path d="M105.846 95.7643C105.739 95.7643 94.6011 94.964 94.6011 93.1501C94.6011 91.3362 105.739 90.5359 105.846 90.5359C107.285 90.5359 108.457 91.7096 108.457 93.1501C108.511 94.5905 107.285 95.7643 105.846 95.7643ZM95.3472 93.1501C95.9867 94.0037 103.874 95.0707 105.846 95.0707C106.912 95.0707 107.765 94.2171 107.765 93.1501C107.765 92.0831 106.912 91.2294 105.846 91.2294C103.927 91.2294 96.04 92.2965 95.3472 93.1501Z" fill="#5E696B"/>
<path d="M37.2574 95.7643C35.8184 95.7643 34.646 94.5905 34.646 93.1501C34.646 91.7096 35.8184 90.5359 37.2574 90.5359C37.364 90.5359 48.5023 91.3362 48.5023 93.1501C48.5023 94.964 37.364 95.7643 37.2574 95.7643ZM37.2574 91.2294C36.1915 91.2294 35.3388 92.0831 35.3388 93.1501C35.3388 94.2171 36.1915 95.0707 37.2574 95.0707C39.1759 95.0707 47.1167 94.0037 47.7562 93.1501C47.0634 92.2965 39.1759 91.2294 37.2574 91.2294Z" fill="#5E696B"/>
<path d="M100.677 91.0162C97.6923 91.0162 94.548 90.8028 94.3881 89.8424C94.1217 88.0285 104.994 85.6278 105.153 85.6278C106.592 85.4143 107.925 86.428 108.138 87.8685C108.351 89.3089 107.338 90.6427 105.899 90.8561C105.846 90.8561 103.341 91.0162 100.677 91.0162ZM95.1342 89.7357C95.8803 90.4827 103.874 90.4293 105.793 90.1092C106.859 89.9492 107.552 88.9888 107.392 87.9218C107.232 86.8548 106.273 86.1613 105.207 86.3213C103.288 86.6414 95.6671 88.8288 95.1342 89.7357Z" fill="#5E696B"/>
<path d="M37.5774 100.673C36.9911 100.673 36.4582 100.513 36.0319 100.139C35.4456 99.7123 35.1259 99.1255 35.0193 98.4319C34.9127 97.7383 35.0726 97.0448 35.4989 96.4579C35.9253 95.8711 36.5115 95.551 37.2043 95.4443C37.8438 95.3376 40.5618 95.2309 43.2265 95.2842C48.5558 95.3909 48.6624 96.0845 48.7157 96.4579C48.769 96.8314 48.8756 97.5783 43.7594 99.1255C41.2546 99.9257 38.5899 100.566 37.9504 100.619C37.8438 100.619 37.684 100.673 37.5774 100.673ZM37.3109 96.1378C36.8313 96.1912 36.3516 96.4579 36.0319 96.8847C35.7121 97.3115 35.6055 97.7917 35.6588 98.3252C35.7121 98.8054 35.9786 99.2855 36.4049 99.6056C36.8313 99.9257 37.3109 100.032 37.8438 99.9791C39.7624 99.7123 47.4367 97.5249 47.9696 96.618C47.2235 95.8177 39.2295 95.8711 37.3109 96.1378Z" fill="#5E696B"/>
<path d="M95.9866 87.2815C94.7609 87.2815 93.8549 87.1215 93.695 86.6413C93.1621 84.8807 103.608 80.9862 103.714 80.9328C104.407 80.7194 105.1 80.8261 105.739 81.1462C106.379 81.4663 106.805 82.0532 107.018 82.6934C107.445 84.0805 106.645 85.5743 105.26 85.9478C105.153 86.0011 99.3441 87.2815 95.9866 87.2815ZM94.3878 86.4279C95.2405 87.0148 103.128 85.8411 104.993 85.3076C106.006 84.9874 106.592 83.9738 106.272 82.9601C106.112 82.48 105.793 82.0532 105.366 81.8398C104.94 81.573 104.407 81.5197 103.927 81.6797C102.062 82.1599 94.8142 85.4143 94.3878 86.4279Z" fill="#5E696B"/>
<path d="M38.6431 105.421C37.5239 105.421 36.458 104.674 36.1383 103.554C35.7119 102.166 36.5113 100.673 37.897 100.299C38.4832 100.139 41.2011 99.6056 43.8125 99.2855C49.0886 98.5919 49.3017 99.2855 49.4083 99.6589C49.5149 100.032 49.7281 100.726 44.9317 103.02C42.5868 104.14 40.0287 105.154 39.3892 105.367C39.1227 105.421 38.8562 105.421 38.6431 105.421ZM38.1101 100.993C37.0976 101.313 36.5113 102.326 36.8311 103.34C37.1509 104.354 38.2167 104.941 39.176 104.621C41.0413 104.087 48.2892 100.833 48.7155 99.819C47.8095 99.2321 39.9754 100.406 38.1101 100.993Z" fill="#5E696B"/>
<path d="M93.7484 83.9739C93.1089 83.9739 92.6825 83.8672 92.5227 83.5471C91.7765 81.8399 101.529 76.5048 101.636 76.5048C102.968 75.918 104.514 76.5048 105.1 77.7852C105.366 78.4255 105.42 79.119 105.153 79.8126C104.887 80.4528 104.407 80.9863 103.768 81.3064C103.768 81.3064 96.6795 83.9739 93.7484 83.9739ZM93.2155 83.227C94.1747 83.7072 101.796 81.4131 103.554 80.6128C104.034 80.3994 104.354 80.026 104.567 79.5458C104.727 79.0657 104.727 78.5322 104.514 78.1053C104.087 77.145 102.968 76.7182 102.009 77.145C100.197 77.9453 93.4819 82.2134 93.2155 83.227Z" fill="#5E696B"/>
<path d="M40.3484 110.009C40.0286 110.009 39.7088 109.956 39.4424 109.849C38.8029 109.582 38.2699 109.102 37.9502 108.462C37.6837 107.822 37.6304 107.128 37.8969 106.434C38.1633 105.794 38.643 105.261 39.2825 104.941C39.8687 104.674 42.4801 103.767 44.9849 103.073C50.1544 101.633 50.4208 102.326 50.5807 102.647C50.7406 103.02 51.0603 103.66 46.5837 106.648C44.3987 108.088 42.0005 109.475 41.4142 109.742C41.0945 109.956 40.7214 110.009 40.3484 110.009ZM49.4615 102.967C47.5963 102.967 41.1478 104.941 39.549 105.634C39.0693 105.848 38.7496 106.221 38.5364 106.701C38.3765 107.181 38.3765 107.715 38.5897 108.142C38.8029 108.622 39.1759 108.942 39.6556 109.155C40.1352 109.315 40.6681 109.315 41.0945 109.102C42.8532 108.302 49.5681 104.034 49.8346 103.02C49.7813 102.967 49.6214 102.967 49.4615 102.967Z" fill="#5E696B"/>
<path d="M91.7234 80.9328C91.3504 80.9328 91.0839 80.8261 90.9773 80.666C89.9647 79.1189 98.918 72.45 99.0246 72.3967C99.6108 72.0232 100.304 71.8632 100.996 72.0232C101.689 72.1833 102.276 72.5567 102.649 73.1969C103.448 74.424 103.075 76.0245 101.849 76.8248C101.743 76.8248 94.2815 80.9328 91.7234 80.9328ZM91.5635 80.2392C92.5761 80.6127 99.7707 77.1982 101.423 76.1846C102.329 75.5977 102.542 74.424 102.009 73.5704C101.743 73.1436 101.316 72.8235 100.837 72.7168C100.357 72.6101 99.824 72.7168 99.3976 72.9835C97.7455 73.9972 91.6701 79.1722 91.5635 80.2392Z" fill="#5E696B"/>
<path d="M42.6931 114.33C41.8404 114.33 40.9877 113.903 40.4548 113.103C40.0818 112.516 39.9219 111.823 40.0818 111.129C40.2416 110.436 40.6147 109.849 41.2542 109.475C41.7871 109.155 44.2386 107.875 46.6369 106.808C51.5398 104.674 51.9129 105.261 52.1261 105.634C52.3392 105.954 52.7123 106.594 48.7686 110.116C46.7967 111.876 44.665 113.583 44.1321 113.903C43.6524 114.17 43.1728 114.33 42.6931 114.33ZM51.3267 106.008C49.8345 106.008 43.2261 109.102 41.6806 110.116C41.2542 110.382 40.9345 110.809 40.8279 111.343C40.7213 111.823 40.8279 112.356 41.0943 112.783C41.6806 113.69 42.853 113.903 43.7057 113.37C45.3578 112.303 51.38 107.128 51.4866 106.061C51.4333 106.008 51.38 106.008 51.3267 106.008Z" fill="#5E696B"/>
<path d="M89.5382 78.2652C89.2184 78.2652 89.0585 78.1051 89.0053 77.9984C88.7388 77.6783 88.2592 77.1448 91.7232 73.0368C93.4286 71.0095 95.2939 69.0355 95.7735 68.6087C96.8927 67.6484 98.5448 67.7551 99.5041 68.8755C99.9837 69.409 100.197 70.1025 100.144 70.7961C100.09 71.4897 99.7705 72.1299 99.2376 72.61C98.758 73.0368 96.5196 74.6373 94.2813 76.0245C91.3502 77.8384 90.1244 78.2652 89.5382 78.2652ZM89.5382 77.5183C90.5508 77.6783 97.2657 73.3569 98.7047 72.0765C99.0777 71.7564 99.3442 71.2763 99.3442 70.7961C99.3975 70.2626 99.2376 69.7824 98.8645 69.409C98.1717 68.6087 96.946 68.502 96.1999 69.1956C94.7609 70.476 89.4849 76.4513 89.5382 77.5183Z" fill="#5E696B"/>
<path d="M45.6243 118.225C44.8782 118.225 44.1321 117.905 43.6525 117.318C42.6932 116.198 42.7998 114.544 43.9189 113.583C44.0255 113.53 52.9255 106.808 54.1513 108.195C54.4177 108.515 54.8974 109.049 51.4333 113.157C49.7279 115.184 47.8626 117.158 47.383 117.585C46.8501 118.065 46.2105 118.225 45.6243 118.225ZM53.4584 108.729C52.2327 108.729 45.7842 112.943 44.3453 114.17C43.9722 114.49 43.7058 114.971 43.7058 115.451C43.6525 115.984 43.8123 116.464 44.1854 116.838C44.8782 117.638 46.104 117.745 46.8501 117.051C48.3423 115.771 53.565 109.796 53.5117 108.729C53.5117 108.729 53.5117 108.729 53.4584 108.729Z" fill="#5E696B"/>
<path d="M87.0865 75.8645C86.8733 75.8645 86.7134 75.7578 86.6601 75.7044C86.3404 75.4377 85.8075 74.9575 88.632 70.4227C90.0176 68.182 91.6164 65.9413 92.0428 65.4611C92.5224 64.9276 93.1619 64.6075 93.8548 64.5541C94.5476 64.5008 95.2404 64.7142 95.7733 65.1944C96.8925 66.1547 96.9991 67.8085 96.0398 68.9289C95.6134 69.4091 93.6416 71.3297 91.6164 72.9836C88.7386 75.331 87.6194 75.8645 87.0865 75.8645ZM87.1398 75.1176C88.2589 75.1176 94.1745 69.8892 95.4536 68.4487C96.1464 67.6485 96.0398 66.4214 95.2404 65.7812C94.441 65.0877 93.2152 65.1944 92.5757 65.9946C91.2967 67.3817 86.9266 74.0506 87.1398 75.1176Z" fill="#5E696B"/>
<path d="M49.0886 121.693C48.4491 121.693 47.8629 121.479 47.3832 121.052C46.8503 120.572 46.5305 119.932 46.4772 119.238C46.4239 118.545 46.6371 117.851 47.1168 117.318C47.1701 117.211 55.0575 109.315 56.4431 110.542C56.7629 110.809 57.2958 111.289 54.4712 115.824C53.0856 118.065 51.4868 120.305 51.0605 120.786C50.5808 121.319 49.9413 121.639 49.2485 121.693C49.1952 121.693 49.1419 121.693 49.0886 121.693ZM47.6497 117.851C47.3299 118.225 47.1701 118.705 47.1701 119.238C47.2233 119.772 47.4365 120.199 47.8096 120.519C48.1826 120.839 48.6623 120.999 49.1952 120.999C49.7281 120.946 50.1545 120.732 50.4742 120.359C51.7533 118.865 56.1233 112.196 55.9102 111.183C54.8443 111.129 48.8754 116.358 47.6497 117.851Z" fill="#5E696B"/>
<path d="M84.3156 73.7837C84.209 73.7837 84.1024 73.7837 84.0491 73.7304C82.5036 72.7167 87.833 62.9535 87.8863 62.8468C88.2593 62.26 88.8455 61.8332 89.5384 61.6731C90.2312 61.5131 90.924 61.6731 91.5102 62.0466C92.0965 62.42 92.5228 63.0069 92.6827 63.7005C92.8426 64.394 92.6827 65.0876 92.3096 65.6744C92.2563 65.7278 86.2875 73.7837 84.3156 73.7837ZM90.0713 62.3133C89.9114 62.3133 89.8048 62.3133 89.645 62.3667C89.1653 62.4734 88.739 62.7935 88.4725 63.2203C87.4066 64.8742 84.0492 72.0765 84.4222 73.0902C85.4881 72.9835 90.6575 66.9015 91.7234 65.301C91.9899 64.8742 92.0965 64.3407 91.9899 63.8605C91.8833 63.3803 91.5635 62.9535 91.1372 62.6868C90.8174 62.42 90.4443 62.3133 90.0713 62.3133Z" fill="#5E696B"/>
<path d="M52.9791 124.68C52.4995 124.68 52.0198 124.52 51.5402 124.253C50.3144 123.453 49.9414 121.853 50.7408 120.626C50.7941 120.519 57.4558 111.609 59.0013 112.57C59.321 112.783 59.9606 113.157 57.8288 118.065C56.763 120.466 55.4839 122.92 55.1642 123.453C54.6845 124.2 53.8318 124.68 52.9791 124.68ZM51.3803 120.999C50.7941 121.906 51.0606 123.08 51.9665 123.613C52.8725 124.2 54.045 123.933 54.5779 123.026C55.6438 121.373 59.0013 114.17 58.6282 113.157C57.6156 113.317 52.4462 119.345 51.3803 120.999Z" fill="#5E696B"/>
<path d="M81.3312 72.13C81.2779 72.13 81.1713 72.13 81.118 72.0767C80.745 71.9166 80.1054 71.5965 81.5444 66.4749C82.2372 63.9674 83.1432 61.3532 83.4096 60.7664C83.6761 60.1261 84.2091 59.646 84.9019 59.3792C85.5414 59.1125 86.2875 59.1658 86.927 59.4326C88.2594 60.0194 88.8456 61.62 88.206 62.9004C88.1528 63.0604 83.1965 72.13 81.3312 72.13ZM85.8078 59.9661C85.5947 59.9661 85.3815 60.0194 85.115 60.0728C84.6354 60.2328 84.2623 60.6063 84.0492 61.0865C83.2498 62.847 80.9582 70.4762 81.4378 71.4365C82.4504 71.1697 86.7138 64.4475 87.5132 62.687C87.9396 61.7267 87.5132 60.6063 86.554 60.1795C86.3408 60.0194 86.0743 59.9661 85.8078 59.9661Z" fill="#5E696B"/>
<path d="M57.2956 127.028C56.9226 127.028 56.5495 126.921 56.2298 126.814C55.5902 126.548 55.1106 126.014 54.8441 125.321C54.5777 124.68 54.631 123.933 54.8974 123.293C55.1639 122.706 56.5495 120.306 57.9884 118.118C60.9196 113.69 61.6124 113.957 61.9854 114.117C63.6908 114.864 59.7471 125.321 59.6938 125.427C59.4274 126.067 58.8944 126.548 58.2016 126.814C57.9351 126.974 57.6154 127.028 57.2956 127.028ZM61.6657 114.81C60.6531 115.077 56.3896 121.799 55.5902 123.56C55.3771 124.04 55.3771 124.52 55.5369 125C55.6968 125.481 56.0699 125.854 56.5495 126.067C57.0292 126.281 57.5088 126.281 57.9884 126.121C58.4681 125.961 58.8411 125.587 59.0543 125.107C59.8537 123.4 62.1453 115.771 61.6657 114.81Z" fill="#5E696B"/>
<path d="M78.1869 70.9562C78.1336 70.9562 78.0803 70.9562 78.027 70.9562C76.2683 70.4227 78.6132 59.5391 78.6665 59.4324C79.0929 58.0453 80.5318 57.245 81.9174 57.6718C83.303 58.0987 84.1024 59.5391 83.6761 60.9262C83.7294 61.0329 79.9989 70.9562 78.1869 70.9562ZM81.2246 58.2587C80.4252 58.2587 79.6258 58.7922 79.4126 59.6458C78.8797 61.5131 77.6539 69.409 78.2935 70.2626C79.306 69.8358 82.6102 62.3134 83.0899 60.7128C83.4096 59.6992 82.8234 58.6322 81.8108 58.3654C81.5444 58.2587 81.3845 58.2587 81.2246 58.2587Z" fill="#5E696B"/>
<path d="M61.8789 128.735C61.6124 128.735 61.3992 128.682 61.1328 128.628C60.44 128.415 59.907 127.988 59.5873 127.348C59.2675 126.708 59.1609 126.014 59.3741 125.321C59.534 124.734 60.5465 122.173 61.719 119.772C64.0106 114.971 64.7034 115.131 65.0765 115.291C66.8352 115.824 64.4903 126.708 64.437 126.814C64.0639 127.988 62.998 128.735 61.8789 128.735ZM64.81 115.984C63.8507 116.358 60.5466 123.667 60.0136 125.534C59.8537 126.014 59.907 126.548 60.1735 126.974C60.44 127.401 60.813 127.721 61.2927 127.881C62.3052 128.202 63.3711 127.615 63.6376 126.601C64.2771 124.734 65.4495 116.891 64.81 115.984Z" fill="#5E696B"/>
<path d="M74.8826 70.2626H74.8293C73.0174 69.9958 73.8168 58.8455 73.8168 58.7388C74.0299 57.2984 75.3623 56.2847 76.8012 56.4981C78.2401 56.7115 79.2527 58.0453 79.0395 59.4857C79.0395 59.5924 76.6946 70.2626 74.8826 70.2626ZM76.4281 57.1917C75.4689 57.1917 74.6695 57.8852 74.5629 58.8455C74.2964 60.7662 74.2431 68.7688 74.9359 69.5157C75.8419 68.9822 78.0269 61.2997 78.2934 59.379C78.4533 58.312 77.7072 57.3517 76.6946 57.1917C76.588 57.245 76.5347 57.1917 76.4281 57.1917Z" fill="#5E696B"/>
<path d="M66.6755 129.749C66.5689 129.749 66.409 129.749 66.3025 129.695C65.6096 129.589 64.9701 129.215 64.5971 128.682C64.1707 128.095 64.0108 127.401 64.1174 126.708C64.224 126.068 64.8635 123.4 65.6097 120.893C67.2085 115.771 67.9013 115.878 68.2743 115.931C68.6474 115.984 69.3935 116.091 69.4468 121.426C69.5001 124.04 69.3402 126.815 69.2869 127.455C69.1803 128.148 68.8073 128.788 68.2743 129.162C67.7947 129.589 67.2085 129.749 66.6755 129.749ZM68.1677 116.731C67.2617 117.265 65.0767 124.947 64.8102 126.868C64.757 127.348 64.8635 127.882 65.1833 128.308C65.5031 128.735 65.9294 129.002 66.4623 129.055C66.942 129.109 67.4749 129.002 67.9013 128.682C68.3276 128.362 68.5941 127.935 68.6474 127.401C68.8072 125.481 68.8605 117.478 68.1677 116.731Z" fill="#5E696B"/>
</g>
<path d="M70.5 454C67.4265 454 65 451.493 65 448.5C65 445.426 67.5074 443 70.5 443C73.5736 443 76 445.507 76 448.5C76.0809 451.493 73.5736 454 70.5 454ZM70.5 443.971C68.0735 443.971 66.0515 445.993 66.0515 448.419C66.0515 450.846 68.0735 452.868 70.5 452.868C72.9265 452.868 74.9486 450.846 74.9486 448.419C74.9486 445.993 72.9265 443.971 70.5 443.971Z" fill="#98B2B9"/>
</svg>
