<svg width="89" height="318" viewBox="0 0 89 318" fill="none" xmlns="http://www.w3.org/2000/svg">
<path d="M52.24 266.12C52.24 262.067 50.8533 260.04 48.08 260.04C47.2267 260.04 46.5067 260.227 45.92 260.6C45.3067 260.947 44.7867 261.427 44.36 262.04C43.9067 262.653 43.52 263.36 43.2 264.16C42.88 264.933 42.56 265.76 42.24 266.64C41.8933 267.653 41.5067 268.613 41.08 269.52C40.6267 270.427 40.1067 271.213 39.52 271.88C38.9067 272.547 38.1867 273.08 37.36 273.48C36.5333 273.853 35.5333 274.04 34.36 274.04C31.9333 274.04 30.04 273.213 28.68 271.56C27.32 269.907 26.64 267.627 26.64 264.72C26.64 263.04 26.8267 261.52 27.2 260.16C27.5467 258.773 27.9333 257.76 28.36 257.12L31.52 258.36C31.1733 258.92 30.84 259.76 30.52 260.88C30.1733 261.973 30 263.253 30 264.72C30 265.467 30.08 266.16 30.24 266.8C30.4 267.44 30.64 268 30.96 268.48C31.28 268.96 31.6933 269.347 32.2 269.64C32.68 269.907 33.2533 270.04 33.92 270.04C34.6667 270.04 35.2933 269.893 35.8 269.6C36.3067 269.307 36.76 268.893 37.16 268.36C37.5333 267.827 37.88 267.213 38.2 266.52C38.52 265.8 38.84 265.013 39.16 264.16C39.64 262.96 40.12 261.867 40.6 260.88C41.08 259.867 41.6533 259 42.32 258.28C42.9867 257.533 43.7867 256.96 44.72 256.56C45.6267 256.16 46.7333 255.96 48.04 255.96C50.4667 255.96 52.3333 256.853 53.64 258.64C54.9467 260.4 55.6 262.893 55.6 266.12C55.6 267.213 55.52 268.227 55.36 269.16C55.2267 270.067 55.0667 270.88 54.88 271.6C54.6667 272.32 54.4533 272.947 54.24 273.48C54 273.987 53.8 274.387 53.64 274.68L50.44 273.52C50.7867 272.907 51.1733 271.973 51.6 270.72C52.0267 269.467 52.24 267.933 52.24 266.12ZM55 247.791L55 251.511L34.2 251.511L34.2 247.791L55 247.791ZM30.44 249.671C30.44 250.338 30.2267 250.911 29.8 251.391C29.3467 251.844 28.7467 252.071 28 252.071C27.2533 252.071 26.6667 251.844 26.24 251.391C25.7867 250.911 25.56 250.338 25.56 249.671C25.56 249.004 25.7867 248.444 26.24 247.991C26.6667 247.511 27.2533 247.271 28 247.271C28.7467 247.271 29.3467 247.511 29.8 247.991C30.2267 248.444 30.44 249.004 30.44 249.671ZM55.4 235.154C55.3467 237.447 54.8533 239.074 53.92 240.034C52.9867 240.994 51.5333 241.474 49.56 241.474L24.6 241.474L23.96 237.754L48.96 237.754C49.5733 237.754 50.08 237.7 50.48 237.594C50.88 237.487 51.2 237.314 51.44 237.074C51.68 236.834 51.8667 236.514 52 236.114C52.1067 235.714 52.2 235.22 52.28 234.634L55.4 235.154ZM34.2 214.216C38.0933 215.256 41.8267 216.483 45.4 217.896C48.9733 219.283 52.1733 220.63 55 221.936L55 225.296C52.1733 226.603 48.9733 227.963 45.4 229.376C41.8267 230.763 38.0933 231.976 34.2 233.016L34.2 229.016C35.5067 228.696 36.9067 228.323 38.4 227.896C39.8667 227.443 41.3333 226.976 42.8 226.496C44.24 225.99 45.64 225.483 47 224.976C48.36 224.47 49.5733 223.99 50.64 223.536C49.5733 223.083 48.36 222.603 47 222.096C45.64 221.59 44.24 221.096 42.8 220.616C41.3333 220.11 39.8667 219.643 38.4 219.216C36.9067 218.763 35.5067 218.376 34.2 218.056L34.2 214.216ZM44.64 212.085C42.8 212.085 41.2 211.818 39.84 211.285C38.4533 210.752 37.3067 210.045 36.4 209.165C35.4933 208.285 34.8133 207.272 34.36 206.125C33.9067 204.978 33.68 203.805 33.68 202.605C33.68 199.805 34.56 197.658 36.32 196.165C38.0533 194.672 40.7067 193.925 44.28 193.925C44.44 193.925 44.6533 193.925 44.92 193.925C45.16 193.925 45.3867 193.938 45.6 193.965L45.6 208.205C47.76 208.045 49.4 207.418 50.52 206.325C51.64 205.232 52.2 203.525 52.2 201.205C52.2 199.898 52.0933 198.805 51.88 197.925C51.64 197.018 51.4133 196.338 51.2 195.885L54.32 195.365C54.56 195.818 54.8133 196.618 55.08 197.765C55.3467 198.885 55.48 200.165 55.48 201.605C55.48 203.418 55.2133 204.992 54.68 206.325C54.12 207.632 53.36 208.712 52.4 209.565C51.44 210.418 50.3067 211.058 49 211.485C47.6667 211.885 46.2133 212.085 44.64 212.085ZM42.6 197.805C40.92 197.778 39.5467 198.205 38.48 199.085C37.3867 199.938 36.84 201.125 36.84 202.645C36.84 203.498 37.0133 204.258 37.36 204.925C37.68 205.565 38.1067 206.112 38.64 206.565C39.1733 207.018 39.7867 207.378 40.48 207.645C41.1733 207.885 41.88 208.045 42.6 208.125L42.6 197.805ZM33.76 180.901C33.76 180.581 33.7867 180.221 33.84 179.821C33.8667 179.395 33.92 178.981 34 178.581C34.0533 178.181 34.12 177.821 34.2 177.501C34.2533 177.155 34.3067 176.901 34.36 176.741L37.6 177.381C37.4933 177.675 37.3733 178.168 37.24 178.861C37.08 179.528 37 180.395 37 181.461C37 182.155 37.08 182.848 37.24 183.541C37.3733 184.208 37.4667 184.648 37.52 184.861L55 184.861L55 188.581L35.08 188.581C34.76 187.701 34.4667 186.608 34.2 185.301C33.9067 183.995 33.76 182.528 33.76 180.901Z" fill="#131D25"/>
<path d="M31.6565 67.9915C31.5499 67.9915 31.4966 67.9384 31.4434 67.8854C31.3368 67.7792 31.3901 67.62 31.4966 67.5138C38.7978 62.7369 52.7607 56.9515 52.9206 56.8984C64.3787 52.2277 72.7457 42.2492 75.4637 30.3069C75.517 30.1477 75.6236 30.0946 75.7835 30.0946C75.9434 30.1477 75.9966 30.2538 75.9966 30.4131C73.2787 42.5677 64.7517 52.6523 53.1871 57.4292C53.0272 57.4823 39.1176 63.2146 31.8697 67.9915C31.7631 67.9915 31.7098 67.9915 31.6565 67.9915Z" fill="#808485"/>
<path d="M12.151 104.827C11.9378 104.827 11.7779 104.668 11.7779 104.455L11.7246 103.235C11.7246 84.6046 23.7156 68.2569 41.5156 62.6308C46.9516 60.9323 52.7073 60.2954 58.4629 60.8262C60.5947 61.0385 62.7264 60.5077 64.5917 59.34C72.3725 54.4039 77.2755 46.1239 77.7552 37.0477C77.8085 35.6677 77.8084 34.2877 77.6486 32.9608C77.4354 30.4662 76.7426 28.9269 75.7833 28.7146C74.824 28.5023 73.545 29.7231 72.2659 31.8992C65.018 45.0092 51.215 53.0769 36.2929 53.0769C32.6689 53.0769 29.0983 52.5992 25.6342 51.6969C25.421 51.6439 25.3144 51.4315 25.3677 51.2723C25.421 51.06 25.6342 50.9539 25.7941 51.0069C29.2048 51.9092 32.7755 52.3869 36.2929 52.3869C51.0019 52.3869 64.5384 44.4254 71.733 31.6339C73.1719 29.0862 74.6641 27.8123 75.9965 28.0777C77.2755 28.3431 78.1815 30.0946 78.448 32.9608C78.5546 34.3408 78.6079 35.7739 78.5546 37.1539C78.0749 46.4423 73.012 54.9346 65.0713 59.9769C63.0994 61.1977 60.7545 61.7815 58.5162 61.5692C52.8671 61.0385 47.218 61.6754 41.8887 63.3208C24.3552 68.8408 12.5773 84.87 12.5773 103.235L12.6306 104.402C12.524 104.668 12.3641 104.827 12.151 104.827C12.2042 104.827 12.2042 104.827 12.151 104.827Z" fill="#808485"/>
<mask id="mask0_20_130" style="mask-type:luminance" maskUnits="userSpaceOnUse" x="12" y="58" width="77" height="74">
<path d="M12.2575 106.048L12.1509 103.288C12.1509 84.4454 24.5682 68.4693 41.7287 63.0554C45.779 61.7816 50.0958 61.0916 54.5725 61.0916C55.9048 61.0916 57.2371 61.1447 58.5161 61.3039C60.7545 61.5162 62.9928 60.9324 64.8581 59.7647C72.479 54.9347 79.3006 72.2377 79.8335 62.737C79.8868 61.3039 88.8401 75.5285 88.7335 74.1485C88.2006 68.5224 87.8808 105.092 85.1096 110.029C78.1281 122.502 78.288 131.259 62.9395 131.259C59.2622 131.259 22.0635 130.039 18.6527 129.136L12.2575 106.048Z" fill="white"/>
</mask>
<g mask="url(#mask0_20_130)">
<path d="M36.4526 86.6747C34.161 86.6747 27.4993 82.8531 27.3927 82.8C26.2736 82.057 26.0071 80.5708 26.7532 79.5093C27.1263 78.9785 27.6592 78.607 28.2987 78.5008C28.9382 78.3947 29.5778 78.5008 30.1107 78.8724C30.2173 78.9254 38.158 85.0293 37.1987 86.4623C37.0388 86.5685 36.7724 86.6747 36.4526 86.6747ZM28.7251 79.1377C28.6185 79.1377 28.5119 79.1377 28.4053 79.1908C27.9789 79.297 27.6059 79.5093 27.3394 79.8808C26.8065 80.6239 27.0197 81.6854 27.8191 82.2162C29.1514 83.1185 35.44 86.25 36.5592 85.9847C36.346 84.9231 31.0167 80.3054 29.6843 79.4031C29.4179 79.2439 29.0981 79.1377 28.7251 79.1377Z" fill="#808485"/>
<path d="M64.325 106.897C63.8453 106.897 63.419 106.738 62.9926 106.472C62.886 106.419 54.9453 100.315 55.9046 98.8823C56.1178 98.5639 56.4908 98.0331 60.8609 100.05C62.9926 101.005 65.1777 102.226 65.6573 102.492C66.1902 102.863 66.5633 103.394 66.6699 104.031C66.7764 104.668 66.6699 105.305 66.2968 105.835C65.9238 106.366 65.3908 106.738 64.7513 106.844C64.6447 106.844 64.4848 106.897 64.325 106.897ZM56.5441 99.3069C56.7573 100.368 62.0866 104.986 63.419 105.888C63.792 106.154 64.2184 106.207 64.698 106.154C65.1244 106.048 65.4974 105.835 65.7639 105.464C66.0304 105.092 66.0836 104.668 66.0304 104.19C65.9238 103.765 65.7106 103.394 65.3375 103.128C63.9519 102.226 57.61 99.0946 56.5441 99.3069Z" fill="#808485"/>
<path d="M46.5251 101.536C41.6221 101.536 37.5718 97.5554 37.5718 92.6192C37.5718 87.7361 41.5688 83.7023 46.5251 83.7023C51.4281 83.7023 55.4784 87.683 55.4784 92.6192C55.4784 97.5554 51.4814 101.536 46.5251 101.536ZM46.5251 84.4454C41.9951 84.4454 38.3179 88.1077 38.3179 92.6192C38.3179 97.1307 41.9951 100.793 46.5251 100.793C51.055 100.793 54.7323 97.1307 54.7323 92.6192C54.7323 88.1607 51.055 84.4454 46.5251 84.4454Z" fill="#808485"/>
<path d="M46.5253 116.345C33.4151 116.345 22.7031 105.729 22.7031 92.6192C22.7031 79.5092 33.3618 68.8938 46.5253 68.8938C59.6355 68.8938 70.3474 79.5092 70.3474 92.6192C70.3474 105.729 59.6887 116.345 46.5253 116.345ZM46.5253 69.6369C33.7881 69.6369 23.4492 79.9338 23.4492 92.6192C23.4492 105.305 33.7881 115.601 46.5253 115.601C59.2624 115.601 69.6013 105.305 69.6013 92.6192C69.6013 79.9869 59.2624 69.6369 46.5253 69.6369Z" fill="#808485"/>
<path d="M46.5252 104.615C39.9168 104.615 34.5342 99.2538 34.5342 92.6723C34.5342 86.0908 39.9168 80.73 46.5252 80.73C53.1336 80.73 58.5162 86.0908 58.5162 92.6723C58.5695 99.2538 53.1869 104.615 46.5252 104.615ZM46.5252 81.42C40.2899 81.42 35.227 86.4623 35.227 92.6723C35.227 98.8823 40.2899 103.925 46.5252 103.925C52.7605 103.925 57.8234 98.8823 57.8234 92.6723C57.8234 86.4623 52.7605 81.42 46.5252 81.42Z" fill="#808485"/>
<path d="M46.5252 81.42C44.8198 81.42 44.127 71.4415 44.127 71.3354C44.127 70.0084 45.1928 68.9469 46.5252 68.9469C47.8575 68.9469 48.9234 70.0084 48.9234 71.3354C48.9234 71.4415 48.2838 81.42 46.5252 81.42ZM46.5252 69.6369C45.6192 69.6369 44.8731 70.38 44.8731 71.2823C44.8731 72.8746 45.779 79.8277 46.5252 80.6238C47.2713 79.8807 48.1773 72.8746 48.1773 71.2823C48.2305 70.4331 47.4844 69.6369 46.5252 69.6369Z" fill="#808485"/>
<path d="M46.5252 116.345C45.1928 116.345 44.127 115.283 44.127 113.956C44.127 113.85 44.8198 103.872 46.5252 103.872C48.2305 103.872 48.9234 113.85 48.9234 113.956C48.9234 115.283 47.8575 116.345 46.5252 116.345ZM46.5252 104.668C45.779 105.411 44.8731 112.417 44.8731 114.009C44.8731 114.912 45.6192 115.655 46.5252 115.655C47.4311 115.655 48.1773 114.912 48.1773 114.009C48.2305 112.364 47.3246 105.411 46.5252 104.668Z" fill="#808485"/>
<path d="M46.5252 81.42C44.8198 81.42 44.127 71.4415 44.127 71.3354C44.127 70.0084 45.1928 68.9469 46.5252 68.9469C47.8575 68.9469 48.9234 70.0084 48.9234 71.3354C48.9234 71.4415 48.2838 81.42 46.5252 81.42ZM46.5252 69.6369C45.6192 69.6369 44.8731 70.38 44.8731 71.2823C44.8731 72.8746 45.779 79.8277 46.5252 80.6238C47.2713 79.8807 48.1773 72.8746 48.1773 71.2823C48.2305 70.4331 47.4844 69.6369 46.5252 69.6369Z" fill="#808485"/>
<path d="M46.5252 116.345C45.1928 116.345 44.127 115.283 44.127 113.956C44.127 113.85 44.8198 103.871 46.5252 103.871C48.2305 103.871 48.9234 113.85 48.9234 113.956C48.9234 115.283 47.8575 116.345 46.5252 116.345ZM46.5252 104.668C45.779 105.411 44.8731 112.417 44.8731 114.009C44.8731 114.911 45.6192 115.655 46.5252 115.655C47.4311 115.655 48.1773 114.911 48.1773 114.009C48.2305 112.364 47.3246 105.411 46.5252 104.668Z" fill="#808485"/>
<path d="M44.2332 81.6323C42.5278 81.6323 40.023 72.2907 39.9697 72.1846C39.7033 70.9107 40.5559 69.6369 41.835 69.3715C43.114 69.1061 44.3931 69.9553 44.6595 71.2292C44.6595 71.3353 45.9919 81.2607 44.2865 81.5792C44.2865 81.6323 44.2865 81.6323 44.2332 81.6323ZM42.3679 70.0615C42.2613 70.0615 42.1547 70.0615 42.0482 70.1146C41.1422 70.2738 40.5559 71.1761 40.7158 72.0784C41.0356 73.6177 43.2739 80.3053 44.1799 80.8892C44.7661 79.9869 44.2865 72.9807 44.02 71.4415C43.8601 70.6454 43.1673 70.0615 42.3679 70.0615Z" fill="#808485"/>
<path d="M50.735 115.973C50.2553 115.973 49.829 115.814 49.4027 115.548C48.8697 115.177 48.4966 114.646 48.3901 114.009C48.2835 113.478 48.017 110.984 47.9104 108.648C47.7505 103.871 48.3901 103.712 48.7631 103.659C49.1362 103.606 49.7757 103.447 51.4278 107.958C52.2272 110.135 52.9733 112.523 53.0799 113.054C53.1865 113.691 53.0799 114.328 52.7068 114.858C52.3338 115.389 51.8008 115.761 51.1613 115.867C51.0547 115.92 50.8949 115.973 50.735 115.973ZM48.8697 104.402C48.2835 105.305 48.7631 112.311 49.0296 113.85C49.1362 114.275 49.3493 114.646 49.7224 114.911C50.0955 115.177 50.5218 115.23 51.0015 115.177C51.4278 115.071 51.8009 114.858 52.0673 114.487C52.3338 114.115 52.3871 113.691 52.3338 113.213C52.0673 111.674 49.7757 104.986 48.8697 104.402Z" fill="#808485"/>
<path d="M41.942 82.3223C41.5157 82.3223 40.7163 81.8446 38.6911 78.5538C37.4654 76.5369 36.2929 74.3607 36.0797 73.83C35.8133 73.2461 35.8133 72.6092 36.0797 72.0253C36.3462 71.4415 36.7725 70.9638 37.3588 70.7515C38.5845 70.2207 39.9701 70.8046 40.5031 72.0253C40.7163 72.5561 41.4624 74.8915 41.9953 77.1738C43.1145 81.8446 42.4749 82.1099 42.1552 82.2161C42.1552 82.2692 42.0486 82.3223 41.942 82.3223ZM38.3713 71.2823C38.1582 71.2823 37.945 71.3353 37.7318 71.3884C37.3055 71.5476 36.9857 71.8661 36.8258 72.2907C36.666 72.7153 36.666 73.14 36.8258 73.5646C37.4121 75.0507 40.9294 81.1546 41.942 81.5261C42.3684 80.5176 40.5031 73.7238 39.9168 72.2907C39.6504 71.6538 39.0109 71.2823 38.3713 71.2823Z" fill="#808485"/>
<path d="M54.7326 114.752C54.4129 114.752 54.0931 114.699 53.8266 114.593C53.2404 114.328 52.7608 113.903 52.5476 113.319C52.4943 113.213 49.2967 103.765 50.8955 103.075C52.4943 102.438 56.9177 111.355 56.9709 111.461C57.2374 112.045 57.2374 112.682 56.9709 113.266C56.7045 113.85 56.2781 114.328 55.6919 114.54C55.3721 114.699 55.0524 114.752 54.7326 114.752ZM51.1619 103.712C50.7356 104.721 52.6009 111.515 53.1871 112.948C53.347 113.372 53.6667 113.691 54.0931 113.85C54.5194 114.009 54.9458 114.009 55.3721 113.85C55.7985 113.691 56.1182 113.372 56.2781 112.948C56.438 112.523 56.438 112.098 56.2781 111.674C55.6919 110.241 52.1745 104.137 51.1619 103.712Z" fill="#808485"/>
<path d="M39.9698 83.3838C38.1578 83.3838 32.7219 76.3246 32.6686 76.2715C32.2955 75.7407 32.1889 75.1038 32.2955 74.4669C32.4021 73.83 32.7752 73.2992 33.3081 72.9276C33.841 72.5561 34.4805 72.45 35.1201 72.5561C35.7596 72.6623 36.2925 73.0338 36.6656 73.5646C36.7189 73.6707 41.7285 82.3223 40.2895 83.2776C40.1829 83.3307 40.0764 83.3838 39.9698 83.3838ZM34.6404 73.2461C34.3207 73.2461 34.0009 73.3523 33.7344 73.5115C33.3614 73.7769 33.0949 74.1484 33.0416 74.573C32.935 74.9976 33.0416 75.4753 33.3081 75.8469C34.2141 77.1738 38.8506 82.4815 39.9165 82.6938C40.1296 81.6323 36.9853 75.3161 36.1326 74.0423C35.8662 73.6707 35.4931 73.4053 35.0668 73.3523C34.8536 73.2461 34.747 73.2461 34.6404 73.2461Z" fill="#808485"/>
<path d="M58.4628 112.788C57.6634 112.788 56.9173 112.417 56.491 111.727C56.4377 111.621 51.4281 102.969 52.867 102.014C53.1868 101.801 53.7197 101.43 57.0239 104.986C58.6227 106.685 60.1682 108.595 60.488 109.073C60.861 109.604 60.9676 110.241 60.861 110.878C60.7544 111.515 60.3814 112.045 59.8484 112.417C59.3688 112.629 58.8892 112.788 58.4628 112.788ZM57.0239 111.302C57.5568 112.045 58.5694 112.258 59.3688 111.78C59.7419 111.515 60.0083 111.143 60.0616 110.718C60.1682 110.294 60.0616 109.816 59.7952 109.445C58.8892 108.118 54.2526 102.81 53.1868 102.598C53.0269 103.659 56.1712 109.975 57.0239 111.302Z" fill="#808485"/>
<path d="M38.1049 84.87C36.0797 84.87 29.7378 79.35 29.6845 79.2969C29.2049 78.8192 28.9917 78.2353 28.9917 77.5984C28.9917 76.9615 29.2582 76.3777 29.6845 75.9C30.1109 75.4753 30.7504 75.21 31.3899 75.21C32.0294 75.21 32.6157 75.4753 33.0953 75.9C33.5216 76.3246 35.0671 78.1823 36.4528 80.093C39.2773 83.9677 38.7977 84.4454 38.5312 84.7107C38.4779 84.8169 38.318 84.87 38.1049 84.87ZM31.3899 75.9C30.9636 75.9 30.5372 76.0592 30.2175 76.3777C29.5779 77.0146 29.5779 78.0761 30.2175 78.713C31.3366 79.8277 36.9857 84.1269 37.9983 84.1269C37.9983 83.0653 33.6815 77.4923 32.5624 76.3777C32.2426 76.0592 31.8163 75.9 31.3899 75.9Z" fill="#808485"/>
<path d="M61.6606 110.135C61.0211 110.135 60.4348 109.869 59.9552 109.445C59.9019 109.391 53.2935 101.855 54.5193 100.634C55.745 99.413 63.3127 105.995 63.366 106.048C63.8456 106.525 64.0588 107.109 64.0588 107.746C64.0588 108.383 63.7923 108.967 63.366 109.445C62.9397 109.869 62.3001 110.135 61.6606 110.135ZM55.0522 101.111C55.0522 102.173 59.369 107.746 60.4881 108.861C61.1277 109.498 62.1935 109.498 62.8331 108.861C63.4726 108.224 63.4726 107.162 62.8331 106.525C61.7139 105.411 56.1714 101.111 55.0522 101.111Z" fill="#808485"/>
<path d="M34.9602 88.7977C34.2141 88.7977 33.0416 88.6385 31.0165 88.1608C28.7249 87.63 26.3799 86.8869 25.847 86.6746C24.6213 86.1969 24.035 84.7638 24.568 83.5431C24.8344 82.9592 25.2608 82.4815 25.847 82.2692C26.4332 82.0038 27.0728 82.0038 27.659 82.2692C28.1919 82.4815 30.3769 83.6492 32.4021 84.87C36.5057 87.3646 36.2392 88.0015 36.1326 88.32C36.026 88.5323 35.9195 88.7977 34.9602 88.7977ZM26.753 82.8C26.5398 82.8 26.3266 82.8531 26.1135 82.9062C25.6871 83.0654 25.3674 83.3838 25.2075 83.8085C24.8344 84.6577 25.2608 85.6131 26.1135 85.9846C27.6057 86.5685 34.4272 88.4262 35.3865 88.0015C34.9602 86.9931 28.8314 83.49 27.3925 82.9062C27.1793 82.8531 26.9662 82.8 26.753 82.8Z" fill="#808485"/>
<path d="M66.2965 103.182C65.9767 103.182 65.657 103.128 65.3905 103.022C65.2839 102.969 56.2773 98.5639 56.9701 96.9715C57.6097 95.3792 67.1492 98.5639 67.2558 98.6169C67.842 98.8823 68.3216 99.3069 68.5348 99.8908C68.8012 100.475 68.8012 101.112 68.5348 101.695C68.2683 102.279 67.842 102.757 67.2558 102.969C66.936 103.128 66.6162 103.182 66.2965 103.182ZM57.6629 97.2369C58.0893 98.2454 64.218 101.748 65.657 102.332C66.0833 102.492 66.5096 102.492 66.936 102.332C67.3623 102.173 67.6821 101.855 67.842 101.43C68.0019 101.005 68.0019 100.581 67.842 100.156C67.6821 99.7315 67.3623 99.4131 66.936 99.2539C65.4971 98.67 58.6755 96.8123 57.6629 97.2369Z" fill="#808485"/>
<path d="M31.7629 91.3454C28.7784 91.3454 25.1012 90.8677 25.0479 90.8677C23.7688 90.6023 22.9161 89.3285 23.1826 88.0546C23.4491 86.7808 24.7281 85.9316 26.0072 86.1969C26.1137 86.1969 35.8131 88.7977 35.4401 90.4962C35.3335 91.1331 33.7347 91.3454 31.7629 91.3454ZM25.5275 86.8339C24.7281 86.8339 24.0353 87.3646 23.8754 88.1608C23.7155 89.0631 24.3018 89.9654 25.2078 90.1246C26.7533 90.4431 33.8413 90.9208 34.694 90.2839C34.1078 89.3816 27.3928 87.1523 25.8473 86.8339C25.7407 86.8339 25.6341 86.8339 25.5275 86.8339Z" fill="#808485"/>
<path d="M67.523 99.2008C67.3631 99.2008 67.2032 99.2008 67.0433 99.1478C66.5104 99.0416 64.1122 98.3516 61.9272 97.5024C57.3972 95.857 57.5571 95.167 57.6104 94.8485C57.6637 94.477 57.8236 93.8401 62.62 93.9993C64.9649 94.1055 67.4164 94.3178 68.0026 94.477C68.6421 94.5832 69.1751 94.9547 69.5481 95.4855C69.9212 96.0162 70.0278 96.6532 69.9212 97.2901C69.8146 97.927 69.4415 98.4578 68.9086 98.8293C68.4822 99.0416 68.0026 99.2008 67.523 99.2008ZM58.3565 95.0078C58.9427 95.9101 65.6577 98.1393 67.2032 98.4578C67.6295 98.5639 68.1092 98.4578 68.4822 98.1924C68.8553 97.927 69.1218 97.5555 69.1751 97.1308C69.2816 96.7062 69.1751 96.2285 68.9086 95.857C68.6421 95.4855 68.2691 95.2201 67.8427 95.167C66.2972 94.8485 59.2625 94.3708 58.3565 95.0078Z" fill="#808485"/>
<path d="M25.1546 95.0607C23.8222 95.0607 22.7563 93.9992 22.7563 92.6723C22.7563 91.3454 23.8222 90.2838 25.1546 90.2838C25.2611 90.2838 35.2803 90.9738 35.2803 92.6723C35.2803 94.3707 25.2611 95.0607 25.1546 95.0607ZM25.1546 90.9738C24.2486 90.9738 23.5025 91.7169 23.5025 92.6192C23.5025 93.5215 24.2486 94.2646 25.1546 94.2646C26.7534 94.2646 33.7348 93.3623 34.5342 92.6192C33.7348 91.8761 26.7534 90.9738 25.1546 90.9738Z" fill="#808485"/>
<path d="M67.949 95.0607C67.8424 95.0607 57.8232 94.3707 57.8232 92.6723C57.8232 90.9738 67.8424 90.2838 67.949 90.2838C69.2813 90.2838 70.3472 91.3454 70.3472 92.6723C70.3472 93.9461 69.2813 95.0607 67.949 95.0607ZM58.5694 92.6723C59.3155 93.4154 66.3502 94.3177 67.949 94.3177C68.855 94.3177 69.6011 93.5746 69.6011 92.6723C69.6011 91.77 68.855 91.0269 67.949 91.0269C66.3502 90.9738 59.3688 91.8761 58.5694 92.6723Z" fill="#808485"/>
<path d="M25.5275 99.2008C24.4084 99.2008 23.3958 98.4047 23.1826 97.2901C22.9161 96.0162 23.7688 94.7424 25.0479 94.477C25.1545 94.477 35.1203 93.1501 35.4401 94.8485C35.7599 96.547 26.1137 99.1478 26.0072 99.1478C25.8473 99.2008 25.6874 99.2008 25.5275 99.2008ZM32.0293 94.6893C29.5778 94.6893 26.2203 94.9547 25.2078 95.167C24.3018 95.3262 23.7155 96.2285 23.8754 97.1308C24.0353 98.0332 24.9413 98.617 25.8473 98.4578C27.3928 98.1393 34.1078 95.9101 34.694 95.0078C34.4275 94.7955 33.3617 94.6893 32.0293 94.6893Z" fill="#808485"/>
<path d="M61.1278 91.2923C57.7703 91.2923 57.6637 90.7616 57.6104 90.4431C57.5571 90.0716 57.3972 89.4346 61.9272 87.7893C64.1122 86.9931 66.5104 86.25 67.0433 86.1439C67.6828 86.0377 68.3224 86.1439 68.8553 86.5154C69.3882 86.8869 69.7613 87.4177 69.8679 88.0546C69.9744 88.6916 69.8679 89.3285 69.4948 89.8593C69.1218 90.39 68.5888 90.7616 67.9493 90.8677C67.4164 90.9739 64.9116 91.2393 62.5667 91.3454C62.087 91.2923 61.5541 91.2923 61.1278 91.2923ZM58.3565 90.2839C59.2625 90.8677 66.2972 90.39 67.8427 90.1246C68.2691 90.0185 68.6421 89.8062 68.9086 89.4346C69.1751 89.0631 69.2283 88.6385 69.1751 88.1608C69.0685 87.7362 68.8553 87.3646 68.4822 87.0993C68.1092 86.8339 67.6828 86.7808 67.2032 86.8339C65.6577 87.1523 58.9427 89.3816 58.3565 90.2839Z" fill="#808485"/>
<path d="M26.753 103.182C26.4332 103.182 26.1135 103.128 25.847 103.022C25.2608 102.757 24.7811 102.332 24.568 101.748C24.0883 100.528 24.6213 99.1477 25.847 98.617C26.3799 98.4047 28.7249 97.6616 31.0165 97.1308C35.7063 96.0162 35.9728 96.6531 36.0794 96.9716C36.2392 97.29 36.4524 97.927 32.3488 100.422C30.3237 101.642 28.1386 102.81 27.6057 103.022C27.3925 103.128 27.0728 103.182 26.753 103.182ZM34.9602 97.1839C33.0949 97.1839 27.4458 98.7231 26.1668 99.2539C25.3141 99.6254 24.8877 100.581 25.2608 101.43C25.4207 101.855 25.7404 102.173 26.1668 102.332C26.5931 102.492 27.0195 102.492 27.4458 102.332C28.938 101.748 35.0668 98.2454 35.4398 97.237C35.3332 97.1839 35.1734 97.1839 34.9602 97.1839Z" fill="#808485"/>
<path d="M58.2492 88.7977C57.5564 88.7977 57.0768 88.6916 56.9702 88.3731C56.3307 86.7808 65.284 82.3754 65.3905 82.3223C65.9768 82.0569 66.6163 82.0569 67.2025 82.3223C67.7887 82.5877 68.2684 83.0123 68.4816 83.5962C68.748 84.18 68.748 84.8169 68.4816 85.4008C68.2151 85.9846 67.7887 86.4623 67.2025 86.6746C67.1492 86.7277 61.0205 88.7977 58.2492 88.7977ZM57.663 88.0546C58.6756 88.4792 65.4971 86.6216 66.936 86.0377C67.3624 85.8785 67.6822 85.56 67.842 85.1354C68.0019 84.7108 68.0019 84.2862 67.842 83.8616C67.6822 83.4369 67.3624 83.1185 66.936 82.9593C66.5097 82.8 66.0834 82.8 65.657 82.9593C64.2181 83.5431 58.0893 87.0462 57.663 88.0546Z" fill="#808485"/>
<path d="M28.7252 106.897C28.5653 106.897 28.4055 106.897 28.2456 106.844C27.6061 106.738 27.0731 106.366 26.7001 105.835C25.954 104.721 26.2737 103.235 27.3396 102.545C27.4462 102.492 36.133 97.5023 37.0923 98.9354C38.0516 100.369 30.1109 106.472 30.0043 106.525C29.6845 106.738 29.2049 106.897 28.7252 106.897ZM27.8193 103.129C27.0731 103.659 26.86 104.668 27.3396 105.464C27.6061 105.835 27.9791 106.101 28.4055 106.154C28.8318 106.26 29.3115 106.154 29.6845 105.889C31.0169 104.986 36.3462 100.369 36.5594 99.307C35.4402 99.0947 29.1516 102.226 27.8193 103.129Z" fill="#808485"/>
<path d="M56.5978 86.7277C56.1182 86.7277 56.0116 86.5685 55.9583 86.4092C54.999 84.9762 62.9397 78.8723 63.0463 78.8192C63.5793 78.4477 64.2188 78.3416 64.8583 78.4477C65.4978 78.5539 66.0308 78.9254 66.4038 79.4562C66.7769 79.9869 66.8835 80.6239 66.7769 81.2608C66.6703 81.8977 66.2973 82.4285 65.7643 82.8C65.2847 83.1185 63.0996 84.2862 60.9679 85.2416C58.4098 86.4092 57.1841 86.7277 56.5978 86.7277ZM56.5445 85.9846C57.6104 86.1969 63.9523 83.0654 65.2314 82.2162C65.6044 81.9508 65.8709 81.5792 65.9242 81.1546C66.0308 80.73 65.9242 80.2523 65.6577 79.8808C65.3913 79.5092 65.0182 79.2439 64.5919 79.1908C64.1655 79.0846 63.6859 79.1908 63.3128 79.4562C62.0871 80.3054 56.7577 84.9231 56.5445 85.9846Z" fill="#808485"/>
<path d="M31.3899 110.135C30.7504 110.135 30.1642 109.869 29.6845 109.445C29.2049 108.967 28.9917 108.383 28.9917 107.746C28.9917 107.109 29.2582 106.525 29.6845 106.048C29.7378 105.995 37.3055 99.413 38.5312 100.634C39.757 101.855 33.1486 109.391 33.0953 109.445C32.669 109.869 32.0294 110.135 31.3899 110.135ZM37.9983 101.111C36.9324 101.111 31.3366 105.411 30.2175 106.525C29.5779 107.162 29.5779 108.224 30.2175 108.861C30.857 109.498 31.9228 109.498 32.5624 108.861C33.7348 107.799 38.0516 102.226 37.9983 101.111Z" fill="#808485"/>
<path d="M54.9454 84.87C54.7855 84.87 54.6256 84.8169 54.519 84.7107C54.2525 84.4454 53.7729 83.9677 56.5975 80.093C57.9831 78.1823 59.5819 76.2715 59.955 75.9C60.3813 75.4753 61.0208 75.21 61.6603 75.21C62.2999 75.21 62.8861 75.4753 63.3657 75.9C63.8454 76.3777 64.0585 76.9615 64.0585 77.5984C64.0585 78.2353 63.7921 78.8192 63.3657 79.2969C63.3124 79.35 56.9705 84.87 54.9454 84.87ZM55.052 84.18C56.1711 84.18 61.7136 79.8807 62.8328 78.7661C63.4723 78.1292 63.4723 77.0677 62.8328 76.4307C62.1933 75.7938 61.1274 75.7938 60.4879 76.4307C59.3687 77.4923 55.052 83.0654 55.052 84.18Z" fill="#808485"/>
<path d="M34.6406 112.788C34.161 112.788 33.7346 112.629 33.3083 112.364C32.1891 111.621 31.9226 110.135 32.6687 109.073C32.722 108.967 38.8508 101.058 40.2897 102.014C41.7286 102.969 36.719 111.621 36.6657 111.727C36.2927 112.258 35.7598 112.629 35.1202 112.735C34.9604 112.735 34.8005 112.788 34.6406 112.788ZM33.255 109.445C32.722 110.188 32.9352 111.249 33.7346 111.78C34.1077 112.045 34.534 112.098 35.0137 112.045C35.44 111.939 35.8131 111.727 36.0795 111.355C36.9855 110.028 40.1298 103.712 39.8633 102.704C38.7975 102.81 34.161 108.118 33.255 109.445Z" fill="#808485"/>
<path d="M53.1868 83.4369C53.0269 83.4369 52.9203 83.3838 52.867 83.3307C51.4281 82.3754 56.4377 73.7238 56.491 73.6177C57.2371 72.5031 58.7293 72.2377 59.7952 72.9807C60.3281 73.3523 60.7011 73.8831 60.8077 74.52C60.9143 75.1569 60.8077 75.7938 60.4347 76.3246C60.1149 76.8023 58.5694 78.7131 56.9706 80.4115C54.5724 82.9061 53.6131 83.4369 53.1868 83.4369ZM58.4628 73.2461C57.9299 73.2461 57.3969 73.5115 57.0772 73.9892C56.1712 75.3161 53.0269 81.6323 53.2934 82.6407C54.3592 82.4284 58.9958 77.1207 59.9018 75.7938C60.1682 75.4223 60.2215 74.9977 60.1682 74.52C60.0616 74.0954 59.8484 73.7238 59.4754 73.4584C59.1023 73.3523 58.7826 73.2461 58.4628 73.2461Z" fill="#808485"/>
<path d="M38.3712 114.752C38.0515 114.752 37.7317 114.699 37.4652 114.593C36.879 114.328 36.3994 113.903 36.1862 113.319C35.9197 112.735 35.9197 112.098 36.1862 111.515C36.3994 110.984 37.5718 108.808 38.7976 106.791C41.3023 102.704 41.9419 102.969 42.2616 103.075C42.5814 103.235 43.2209 103.447 42.1017 108.118C41.5688 110.4 40.8227 112.735 40.6095 113.266C40.1832 114.168 39.2772 114.752 38.3712 114.752ZM41.9419 103.712C40.9293 104.137 37.4119 110.241 36.8257 111.674C36.6658 112.098 36.6658 112.523 36.8257 112.948C36.9856 113.372 37.3053 113.691 37.7317 113.85C38.5844 114.222 39.5437 113.797 39.9167 112.948C40.5029 111.515 42.3682 104.721 41.9419 103.712Z" fill="#808485"/>
<path d="M51.0549 82.2692C51.0016 82.2692 50.9483 82.2692 50.895 82.2161C49.2962 81.5792 52.4938 72.0784 52.5471 71.9723C52.8136 71.3884 53.2399 70.9107 53.8261 70.6984C54.4124 70.433 55.0519 70.433 55.6381 70.6984C56.2243 70.9638 56.704 71.3884 56.9171 71.9723C57.1836 72.5561 57.1836 73.193 56.9171 73.7769C56.9171 73.9361 52.7603 82.2692 51.0549 82.2692ZM54.7321 71.2823C54.519 71.2823 54.3058 71.3354 54.0926 71.3884C53.6663 71.5477 53.3465 71.8661 53.1866 72.2907C52.6004 73.7769 50.7351 80.5707 51.1615 81.5261C52.174 81.1015 55.6914 74.9977 56.2776 73.5646C56.4375 73.14 56.4375 72.7154 56.2776 72.2907C56.1177 71.8661 55.798 71.5477 55.3717 71.3884C55.1585 71.3354 54.9453 71.2823 54.7321 71.2823Z" fill="#808485"/>
<path d="M42.3683 115.92C42.2085 115.92 42.0486 115.92 41.8887 115.867C40.6097 115.602 39.757 114.328 40.0234 113.054C40.0234 112.948 42.6881 103.341 44.3402 103.659C46.0456 103.978 44.7132 113.903 44.7132 114.009C44.5001 115.177 43.4875 115.92 42.3683 115.92ZM40.7162 113.213C40.5564 114.115 41.1426 115.018 42.0486 115.177C42.9546 115.336 43.8606 114.752 44.0204 113.85C44.3402 112.311 44.8198 105.252 44.1803 104.402C43.2743 104.986 41.036 111.674 40.7162 113.213Z" fill="#808485"/>
<path d="M48.9235 81.6323C48.8702 81.6323 48.8169 81.6323 48.7636 81.6323C48.3906 81.5792 47.751 81.42 47.9109 76.6431C48.0175 74.3077 48.2307 71.8662 48.3906 71.2823C48.4971 70.6454 48.8702 70.1146 49.4031 69.7431C49.9361 69.3715 50.5756 69.2654 51.2151 69.3715C51.8546 69.4777 52.3876 69.8492 52.7606 70.38C53.1337 70.9108 53.2403 71.5477 53.1337 72.1846C53.0271 72.7154 52.3343 75.1038 51.4816 77.28C49.9894 81.2077 49.2965 81.6323 48.9235 81.6323ZM50.7355 70.0615C50.4157 70.0615 50.0959 70.1677 49.8295 70.3269C49.4564 70.5923 49.19 70.9638 49.1367 71.3885C48.8169 72.9277 48.3373 79.9869 48.9768 80.8362C49.8828 80.2523 52.1211 73.5646 52.4409 72.0254C52.5474 71.6008 52.4409 71.1231 52.1744 70.7515C51.9079 70.38 51.5349 70.1146 51.1085 70.0615C50.9486 70.0615 50.8421 70.0615 50.7355 70.0615Z" fill="#808485"/>
<path d="M46.5249 129.455C45.086 129.455 43.9136 128.287 43.9136 126.854C43.9136 126.748 44.713 115.655 46.5249 115.655C48.3902 115.655 49.1363 126.748 49.1363 126.854C49.1896 128.287 48.0172 129.455 46.5249 129.455ZM46.5249 116.398C45.6723 117.035 44.6064 124.89 44.6064 126.854C44.6064 127.915 45.4591 128.765 46.5249 128.765C47.5908 128.765 48.4435 127.915 48.4435 126.854C48.4435 124.89 47.3776 117.035 46.5249 116.398Z" fill="#808485"/>
<path d="M46.5249 69.6369C44.6597 69.6369 43.9136 58.5438 43.9136 58.4377C43.9136 57.0046 45.086 55.8369 46.5249 55.8369C47.9639 55.8369 49.1363 57.0046 49.1363 58.4377C49.1896 58.5969 48.3902 69.6369 46.5249 69.6369ZM46.5249 56.58C45.4591 56.58 44.6064 57.4292 44.6064 58.4908C44.6064 60.4015 45.6723 68.31 46.5249 68.9469C47.3776 68.31 48.4435 60.4546 48.4435 58.4908C48.4435 57.4292 47.5908 56.58 46.5249 56.58Z" fill="#808485"/>
<path d="M51.428 129.083C50.1489 129.083 49.0298 128.128 48.8166 126.854C48.8166 126.748 47.9639 115.655 49.8292 115.389C51.6944 115.124 54.0393 125.952 54.0393 126.111C54.2525 127.544 53.2399 128.871 51.801 129.083C51.6944 129.083 51.5345 129.083 51.428 129.083ZM49.5627 126.748C49.7226 127.809 50.6819 128.499 51.7477 128.34C52.8136 128.181 53.5064 127.225 53.3465 126.164C53.08 124.253 50.895 116.61 49.989 116.079C49.1896 116.875 49.2429 124.837 49.5627 126.748Z" fill="#808485"/>
<path d="M43.114 69.9023C42.6877 69.9023 41.9949 69.4776 40.5559 64.9661C39.7565 62.4715 39.117 59.8176 39.0637 59.1807C38.9571 58.4907 39.117 57.8007 39.5434 57.2169C39.9697 56.633 40.5559 56.3146 41.2487 56.2084C42.6877 55.9961 44.02 57.0046 44.2332 58.4376C44.3398 59.0746 44.4463 61.7815 44.3931 64.4353C44.2865 69.743 43.5937 69.8492 43.2206 69.9023C43.2206 69.9023 43.1673 69.9023 43.114 69.9023ZM41.6751 56.8984C41.5685 56.8984 41.5152 56.8984 41.4086 56.8984C40.929 56.9515 40.4493 57.2169 40.1296 57.6415C39.8098 58.0661 39.7032 58.5438 39.7565 59.0746C40.023 60.9853 42.208 68.6284 43.114 69.1592C43.8601 68.4161 43.8068 60.4546 43.4871 58.5438C43.4338 57.5884 42.5811 56.8984 41.6751 56.8984Z" fill="#808485"/>
<path d="M56.2245 128.075C55.1054 128.075 54.0395 127.332 53.7198 126.217C53.6665 126.111 51.3215 115.283 53.0802 114.752C54.8389 114.222 58.7293 124.625 58.7826 124.731C59.209 126.111 58.4096 127.597 57.0239 127.968C56.7042 128.022 56.4377 128.075 56.2245 128.075ZM53.2401 115.389C52.6539 116.238 53.8263 124.094 54.3593 125.952C54.679 126.96 55.6916 127.544 56.7042 127.225C57.7168 126.907 58.303 125.898 57.9832 124.89C57.5569 123.351 54.2527 115.814 53.2401 115.389Z" fill="#808485"/>
<path d="M39.8101 70.6454C39.3838 70.6454 38.5843 70.1146 36.6658 66.1339C35.5466 63.7985 34.534 61.2508 34.3209 60.6139C34.1077 59.9239 34.2143 59.2339 34.534 58.597C34.8538 57.96 35.44 57.5354 36.0796 57.3231C37.4652 56.8985 38.9574 57.6947 39.3304 59.0747C39.3837 59.1808 41.7287 70.0085 39.97 70.5393C39.97 70.5923 39.9167 70.6454 39.8101 70.6454ZM36.879 57.96C36.7191 57.96 36.5059 57.96 36.346 58.0131C35.8664 58.1723 35.44 58.4908 35.2269 58.9154C34.9604 59.34 34.9071 59.8708 35.067 60.3485C35.5999 62.2062 38.8508 69.4247 39.8634 69.8493C40.4496 69 39.2772 61.1446 38.7442 59.287C38.4778 58.4908 37.6784 57.96 36.879 57.96Z" fill="#808485"/>
<path d="M60.8078 126.376C60.488 126.376 60.1683 126.323 59.9018 126.217C59.2623 125.952 58.7293 125.474 58.4096 124.837C58.1431 124.253 57.2371 121.652 56.5443 119.158C55.1054 114.009 55.7982 113.744 56.118 113.585C57.8234 112.842 63.1527 122.555 63.1527 122.661C63.7389 123.988 63.1527 125.527 61.8736 126.111C61.5539 126.27 61.1808 126.376 60.8078 126.376ZM56.4377 114.222C55.9581 115.177 58.2497 122.767 59.0491 124.518C59.2623 124.996 59.6353 125.315 60.115 125.527C60.5946 125.686 61.1276 125.686 61.5539 125.474C62.5132 125.049 62.9395 123.935 62.5132 122.979C61.7138 121.175 57.4503 114.487 56.4377 114.222Z" fill="#808485"/>
<path d="M36.6657 71.8131C36.186 71.8131 35.3334 71.2823 32.9884 67.7792C31.5495 65.6031 30.1639 63.2146 29.8974 62.6308C29.631 61.9939 29.5777 61.3039 29.8441 60.6139C30.1106 59.9769 30.5902 59.4462 31.2298 59.1277C31.8693 58.8623 32.5621 58.8092 33.2549 59.0746C33.8944 59.34 34.4274 59.8177 34.7471 60.4546C34.8004 60.5608 38.6908 70.9639 37.0387 71.7069C36.8789 71.76 36.7723 71.8131 36.6657 71.8131ZM32.2956 59.6585C32.0292 59.6585 31.7627 59.7115 31.4962 59.8177C31.0166 60.03 30.6968 60.4015 30.4837 60.8792C30.3238 61.3569 30.3238 61.8877 30.5369 62.3123C31.3363 64.0639 35.5998 70.7515 36.6124 71.0169C37.092 70.0615 34.8004 62.4715 34.001 60.72C33.7878 60.2423 33.4148 59.9239 32.9351 59.7115C32.722 59.7115 32.5088 59.6585 32.2956 59.6585Z" fill="#808485"/>
<path d="M65.1245 124.041C64.9114 124.041 64.7515 124.041 64.5383 123.988C63.8455 123.828 63.2593 123.457 62.8862 122.82C62.8329 122.714 57.4503 113.001 59.0491 111.992C60.5946 110.984 67.2563 119.901 67.3096 120.007C67.6826 120.591 67.8425 121.281 67.6826 121.971C67.5227 122.661 67.1497 123.245 66.5101 123.616C66.0838 123.882 65.6042 124.041 65.1245 124.041ZM59.4221 112.629C59.1024 113.638 62.4598 120.803 63.4724 122.448C63.7389 122.873 64.1652 123.192 64.6449 123.298C65.1245 123.404 65.6575 123.298 66.0838 123.032C66.5102 122.767 66.8299 122.342 66.9365 121.865C67.0431 121.387 66.9365 120.856 66.67 120.432C65.6574 118.733 60.488 112.735 59.4221 112.629Z" fill="#808485"/>
<path d="M33.788 73.4054C31.8162 73.4054 25.8473 65.4438 25.794 65.3377C24.9946 64.1169 25.3677 62.4715 26.5934 61.7285C27.8192 60.9323 29.4713 61.3038 30.2174 62.5246C30.5371 63.0554 31.8162 65.4969 32.882 67.8854C35.0138 72.7685 34.4275 73.14 34.0545 73.3523C34.0012 73.3523 33.8946 73.4054 33.788 73.4054ZM27.979 61.9938C27.606 61.9938 27.2862 62.1 26.9665 62.3123C26.0605 62.8961 25.8473 64.0638 26.3802 64.9131C27.4461 66.5585 32.6156 72.5561 33.6814 72.6623C34.0012 71.6538 30.6437 64.4885 29.6311 62.8431C29.2581 62.3123 28.6186 61.9938 27.979 61.9938Z" fill="#808485"/>
<path d="M69.0146 121.068C68.9613 121.068 68.908 121.068 68.8014 121.068C68.1086 121.015 67.4691 120.697 66.9895 120.166C66.5631 119.688 64.9643 117.459 63.5787 115.23C60.7541 110.718 61.3404 110.241 61.6068 109.975C61.9266 109.71 62.4596 109.232 66.5631 112.682C68.5883 114.381 70.5601 116.238 70.9865 116.716C71.9458 117.831 71.8392 119.476 70.72 120.431C70.2404 120.856 69.6542 121.068 69.0146 121.068ZM62.1398 110.559C61.9266 111.568 66.2967 118.255 67.5757 119.688C68.2685 120.485 69.4943 120.591 70.2404 119.901C71.0398 119.211 71.1464 117.99 70.4536 117.247C69.1745 115.761 63.2589 110.559 62.1398 110.559Z" fill="#808485"/>
<path d="M30.9635 75.4754C30.4306 75.4754 29.3114 74.9977 26.4869 72.6092C24.4617 70.9107 22.4899 69.053 22.0635 68.5754C21.5839 68.0446 21.3707 67.3546 21.424 66.6646C21.4773 65.9746 21.7971 65.3377 22.33 64.86C22.8629 64.3823 23.5557 64.17 24.2486 64.223C24.9414 64.2761 25.5809 64.5946 26.0605 65.1254C26.4869 65.603 28.0857 67.8323 29.4713 70.0615C32.2959 74.573 31.7096 75.0507 31.4432 75.3161C31.3366 75.3692 31.23 75.4754 30.9635 75.4754ZM24.0887 64.9131C23.609 64.9131 23.1827 65.0723 22.8629 65.3907C22.4899 65.7092 22.2234 66.1869 22.2234 66.6646C22.1701 67.1954 22.33 67.673 22.703 68.0446C23.9821 69.5307 29.951 74.7323 31.0168 74.6792C31.23 73.6707 26.8599 66.983 25.5809 65.55C25.2611 65.1784 24.7815 64.9131 24.3019 64.9131C24.142 64.9131 24.142 64.9131 24.0887 64.9131Z" fill="#808485"/>
<path d="M72.4787 117.618C71.8925 117.618 71.253 117.406 70.7733 116.981C70.2937 116.557 68.3752 114.593 66.7231 112.576C63.3123 108.489 63.7919 107.958 64.0051 107.64C65.2308 106.26 74.1308 112.895 74.2374 113.001C75.3566 113.956 75.4632 115.601 74.5039 116.716C73.9177 117.353 73.2249 117.618 72.4787 117.618ZM64.538 108.171C64.4847 109.232 69.7608 115.177 71.1997 116.451C71.9991 117.141 73.2248 117.035 73.8644 116.238C74.1841 115.867 74.344 115.389 74.344 114.858C74.2907 114.328 74.0775 113.903 73.7045 113.585C72.2656 112.311 65.6039 108.011 64.538 108.171Z" fill="#808485"/>
<path d="M28.565 77.8638C27.9788 77.8638 26.753 77.4392 23.8752 75.6345C21.6368 74.2545 19.3985 72.6622 18.9189 72.2376C18.3859 71.7599 18.0662 71.123 18.0129 70.433C17.9596 69.743 18.1728 69.053 18.6524 68.5222C19.6117 67.4076 21.2638 67.3015 22.3829 68.2569C22.8626 68.6815 24.7811 70.6453 26.4332 72.6622C29.844 76.7492 29.3644 77.2799 29.1512 77.5984C28.9913 77.7045 28.8847 77.8638 28.565 77.8638ZM20.6243 68.363C20.0913 68.363 19.5584 68.5753 19.1853 68.9999C18.8656 69.3715 18.7057 69.8492 18.7057 70.3799C18.759 70.9107 18.9722 71.3353 19.3452 71.6538C20.8374 72.9276 27.4991 77.2269 28.5117 77.0676C28.565 76.0061 23.2889 70.0615 21.85 68.7876C21.477 68.5222 21.0506 68.363 20.6243 68.363Z" fill="#808485"/>
<path d="M75.4101 113.744C74.9305 113.744 74.3975 113.585 73.9712 113.319C73.8646 113.266 64.9646 106.632 65.9239 105.092C66.9365 103.553 76.6891 108.861 76.7957 108.914C78.0215 109.71 78.3945 111.302 77.5951 112.523C77.2221 113.107 76.6358 113.532 75.943 113.691C75.7832 113.744 75.57 113.744 75.4101 113.744ZM74.3975 112.735C74.8239 113.001 75.3568 113.107 75.8364 113.001C76.3161 112.895 76.7424 112.576 77.0089 112.152C77.5951 111.249 77.3287 110.082 76.4227 109.551C74.7706 108.489 67.576 105.145 66.5634 105.517C66.67 106.525 72.7454 111.674 74.3975 112.735Z" fill="#808485"/>
<path d="M26.38 80.5708C25.6871 80.5708 24.4081 80.2523 21.6369 79.0316C19.2386 77.97 16.7871 76.6962 16.2542 76.3777C15.668 76.0062 15.2416 75.4223 15.0818 74.7323C14.9219 74.0423 15.0818 73.3523 15.4548 72.7685C16.2542 71.5477 17.853 71.1762 19.0788 71.9723C19.6117 72.2908 21.7967 73.9893 23.7153 75.7408C27.7123 79.297 27.2859 79.8808 27.0728 80.1993C27.0195 80.3585 26.9129 80.5708 26.38 80.5708ZM17.6931 72.2908C17.0536 72.2908 16.4674 72.6093 16.0943 73.14C15.8279 73.5647 15.7213 74.0954 15.8279 74.5731C15.9345 75.0508 16.2542 75.4754 16.6806 75.7939C18.3327 76.8554 25.5273 80.1993 26.5398 79.8277C26.4333 78.7662 20.4111 73.6177 18.759 72.5562C18.386 72.397 18.0129 72.2908 17.6931 72.2908Z" fill="#808485"/>
<path d="M77.7552 109.445C77.3821 109.445 77.0091 109.392 76.6893 109.232C76.5827 109.179 66.7767 103.872 67.5761 102.226C68.3222 100.528 78.7678 104.455 78.8743 104.509C79.5139 104.774 79.9935 105.305 80.26 105.995C80.5264 106.632 80.4731 107.375 80.2067 108.012C79.727 108.914 78.7678 109.445 77.7552 109.445ZM76.9558 108.595C77.9151 109.02 79.0342 108.595 79.4606 107.64C79.6737 107.162 79.6737 106.685 79.5139 106.207C79.354 105.729 78.9809 105.358 78.5013 105.145C76.7426 104.349 69.1217 102.067 68.1624 102.545C68.4821 103.5 75.1971 107.746 76.9558 108.595Z" fill="#808485"/>
<path d="M24.4618 83.5431C23.7157 83.5431 22.33 83.3308 19.9318 82.6938C17.4271 82.0038 14.8157 81.1015 14.2295 80.8361C12.8971 80.2523 12.3109 78.66 12.9504 77.3861C13.2169 76.7492 13.7498 76.2715 14.4426 76.0061C15.0822 75.7408 15.8283 75.7938 16.4678 76.0592C17.054 76.3246 19.4522 77.7046 21.6372 79.1377C26.0606 82.0569 25.7941 82.7469 25.6342 83.1185C25.4744 83.2777 25.3145 83.5431 24.4618 83.5431ZM15.3486 76.5369C15.1354 76.5369 14.9223 76.59 14.6558 76.6431C14.1762 76.8023 13.8031 77.1738 13.5899 77.6515C13.1636 78.6069 13.5899 79.7215 14.5492 80.1461C16.3079 80.9423 23.9289 83.2246 24.8881 82.7469C24.6217 81.7384 17.9067 77.4923 16.148 76.6961C15.8815 76.59 15.6151 76.5369 15.3486 76.5369Z" fill="#808485"/>
<path d="M79.4603 104.88C79.1938 104.88 78.9806 104.827 78.7142 104.774C78.6076 104.721 68.1621 100.899 68.695 99.0947C69.2279 97.3431 80.0998 99.6785 80.2064 99.7316C81.592 100.156 82.3914 101.589 81.9651 102.969C81.7519 103.659 81.3256 104.19 80.686 104.509C80.313 104.774 79.8866 104.88 79.4603 104.88ZM78.9273 104.084C79.407 104.243 79.9399 104.19 80.3663 103.925C80.7926 103.659 81.1124 103.288 81.2722 102.81C81.592 101.802 81.0058 100.74 79.9932 100.475C78.1279 99.9439 70.2405 98.7231 69.3878 99.36C69.8142 100.315 77.0621 103.553 78.9273 104.084Z" fill="#808485"/>
<path d="M22.3299 86.8339C21.5305 86.8339 20.4113 86.7808 18.8125 86.5685C16.2011 86.25 13.4832 85.7192 12.897 85.56C11.5113 85.1354 10.7119 83.7023 11.1383 82.3223C11.5646 80.9423 13.0035 80.1462 14.3892 80.5708C14.9754 80.73 17.5335 81.7385 19.9317 82.9062C24.7281 85.1885 24.5682 85.8785 24.4083 86.25C24.3017 86.4093 24.1952 86.8339 22.3299 86.8339ZM13.6431 81.1016C12.8437 81.1016 12.0443 81.6323 11.8311 82.4816C11.5113 83.49 12.0976 84.5516 13.1101 84.8169C14.9754 85.3477 22.8628 86.5685 23.7155 85.9316C23.3425 84.9762 16.0413 81.6854 14.176 81.1546C13.9628 81.1546 13.803 81.1016 13.6431 81.1016Z" fill="#808485"/>
<path d="M80.5262 100.156C80.4196 100.156 80.2597 100.156 80.1531 100.103C80.0465 100.103 69.1747 97.7677 69.3879 95.91C69.6543 94.1053 80.7926 94.9015 80.8992 94.9015C82.3381 95.1138 83.3507 96.4407 83.1376 97.8738C82.9244 99.2007 81.8052 100.156 80.5262 100.156ZM70.1339 96.0161C70.6669 96.9184 78.3411 99.0946 80.2597 99.36C81.3256 99.5192 82.2849 98.7761 82.4447 97.7677C82.6046 96.7061 81.8585 95.7507 80.8459 95.5915C78.8741 95.3792 70.8801 95.3261 70.1339 96.0161Z" fill="#808485"/>
<path d="M17.2139 90.5492C14.9223 90.5492 12.7905 90.4431 12.2043 90.3369C11.5115 90.2308 10.872 89.8592 10.4989 89.3285C10.0726 88.7446 9.91269 88.0546 10.0193 87.3646C10.1259 86.6746 10.4989 86.0377 11.0319 85.6662C11.6181 85.2415 12.3109 85.0823 13.0037 85.1885C13.1103 85.1885 23.9822 87.5238 23.769 89.3815C23.7157 89.7531 23.6091 90.4962 18.2798 90.5492C17.8534 90.5492 17.5337 90.5492 17.2139 90.5492ZM12.5774 85.8785C12.151 85.8785 11.778 85.9846 11.4582 86.25C11.0319 86.5685 10.7654 86.9931 10.7121 87.5238C10.6588 88.0015 10.7654 88.5323 11.0851 88.9569C11.4049 89.3815 11.8313 89.6469 12.3642 89.7C14.2828 89.9654 22.2768 90.0185 23.0229 89.3285C22.49 88.4262 14.8157 86.25 12.8971 85.9846C12.7373 85.8785 12.684 85.8785 12.5774 85.8785Z" fill="#808485"/>
<path d="M80.846 95.2731C80.7394 95.2731 69.6011 94.4769 69.6011 92.6723C69.6011 90.8677 80.7394 90.0715 80.846 90.0715C82.2849 90.0715 83.4574 91.2392 83.4574 92.6723C83.5107 94.1054 82.2849 95.2731 80.846 95.2731ZM70.3472 92.6723C70.9867 93.5215 78.8741 94.5831 80.846 94.5831C81.9119 94.5831 82.7646 93.7338 82.7646 92.6723C82.7646 91.6108 81.9119 90.7615 80.846 90.7615C78.9274 90.7615 71.04 91.8231 70.3472 92.6723Z" fill="#808485"/>
<path d="M12.2574 95.2731C10.8184 95.2731 9.646 94.1054 9.646 92.6723C9.646 91.2392 10.8184 90.0715 12.2574 90.0715C12.364 90.0715 23.5023 90.8677 23.5023 92.6723C23.5023 94.4769 12.364 95.2731 12.2574 95.2731ZM12.2574 90.7615C11.1915 90.7615 10.3388 91.6108 10.3388 92.6723C10.3388 93.7338 11.1915 94.5831 12.2574 94.5831C14.1759 94.5831 22.1167 93.5215 22.7562 92.6723C22.0634 91.8231 14.1759 90.7615 12.2574 90.7615Z" fill="#808485"/>
<path d="M75.6767 90.5492C72.6923 90.5492 69.548 90.3369 69.3881 89.3815C69.1217 87.5769 79.9935 85.1884 80.1534 85.1884C81.5923 84.9761 82.9246 85.9845 83.1378 87.4176C83.351 88.8507 82.3384 90.1776 80.8995 90.3899C80.8462 90.3899 78.3414 90.5492 75.6767 90.5492ZM70.1342 89.2753C70.8803 90.0184 78.8743 89.9653 80.7929 89.6469C81.8588 89.4876 82.5516 88.5322 82.3917 87.4707C82.2318 86.4092 81.2725 85.7192 80.2067 85.8784C78.2881 86.1969 70.6671 88.373 70.1342 89.2753Z" fill="#808485"/>
<path d="M12.5774 100.156C11.9911 100.156 11.4582 99.9969 11.0319 99.6254C10.4456 99.2007 10.1259 98.6169 10.0193 97.9269C9.91269 97.2369 10.0726 96.5469 10.4989 95.9631C10.9253 95.3792 11.5115 95.0607 12.2043 94.9546C12.8438 94.8484 15.5618 94.7423 18.2265 94.7954C23.5558 94.9015 23.6624 95.5915 23.7157 95.9631C23.769 96.3346 23.8756 97.0777 18.7594 98.6169C16.2546 99.4131 13.5899 100.05 12.9504 100.103C12.8438 100.103 12.684 100.156 12.5774 100.156ZM12.3109 95.6446C11.8313 95.6977 11.3516 95.9631 11.0319 96.3877C10.7121 96.8123 10.6055 97.29 10.6588 97.8208C10.7121 98.2984 10.9786 98.7761 11.4049 99.0946C11.8313 99.4131 12.3109 99.5192 12.8438 99.4661C14.7624 99.2007 22.4367 97.0246 22.9696 96.1223C22.2235 95.3261 14.2295 95.3792 12.3109 95.6446Z" fill="#808485"/>
<path d="M70.9866 86.8338C69.7609 86.8338 68.8549 86.6746 68.695 86.1969C68.1621 84.4454 78.6076 80.5708 78.7142 80.5177C79.407 80.3054 80.0998 80.4115 80.7393 80.73C81.3788 81.0485 81.8052 81.6323 82.0184 82.2692C82.4447 83.6492 81.6453 85.1354 80.2597 85.5069C80.1531 85.56 74.3441 86.8338 70.9866 86.8338ZM69.3878 85.9846C70.2405 86.5685 78.1279 85.4008 79.9932 84.87C81.0058 84.5515 81.592 83.5431 81.2722 82.5346C81.1124 82.0569 80.7926 81.6323 80.3662 81.42C79.9399 81.1546 79.407 81.1015 78.9273 81.2608C77.0621 81.7385 69.8142 84.9761 69.3878 85.9846Z" fill="#808485"/>
<path d="M13.6431 104.88C12.5239 104.88 11.458 104.137 11.1383 103.022C10.7119 101.642 11.5113 100.156 12.897 99.7846C13.4832 99.6254 16.2011 99.0946 18.8125 98.7761C24.0886 98.0861 24.3017 98.7761 24.4083 99.1477C24.5149 99.5192 24.7281 100.209 19.9317 102.492C17.5868 103.606 15.0287 104.615 14.3892 104.827C14.1227 104.88 13.8562 104.88 13.6431 104.88ZM13.1101 100.475C12.0976 100.793 11.5113 101.802 11.8311 102.81C12.1509 103.818 13.2167 104.402 14.176 104.084C16.0413 103.553 23.2892 100.315 23.7155 99.3069C22.8095 98.7231 14.9754 99.8908 13.1101 100.475Z" fill="#808485"/>
<path d="M68.7484 83.5431C68.1089 83.5431 67.6825 83.4369 67.5227 83.1185C66.7765 81.42 76.5292 76.1123 76.6358 76.1123C77.9682 75.5285 79.5137 76.1123 80.0999 77.3861C80.3664 78.0231 80.4197 78.7131 80.1532 79.4031C79.8867 80.04 79.4071 80.5708 78.7676 80.8892C78.7676 80.8892 71.6795 83.5431 68.7484 83.5431ZM68.2155 82.8C69.1747 83.2777 76.7957 80.9954 78.5544 80.1992C79.034 79.9869 79.3538 79.6154 79.567 79.1377C79.7268 78.66 79.7268 78.1292 79.5137 77.7046C79.0873 76.7492 77.9682 76.3246 77.0089 76.7492C75.1969 77.5454 68.4819 81.7915 68.2155 82.8Z" fill="#808485"/>
<path d="M15.3484 109.445C15.0286 109.445 14.7088 109.392 14.4424 109.285C13.8029 109.02 13.2699 108.542 12.9502 107.905C12.6837 107.269 12.6304 106.579 12.8969 105.889C13.1633 105.252 13.643 104.721 14.2825 104.402C14.8687 104.137 17.4801 103.235 19.9849 102.545C25.1544 101.112 25.4208 101.802 25.5807 102.12C25.7406 102.492 26.0603 103.128 21.5837 106.101C19.3987 107.534 17.0005 108.914 16.4142 109.179C16.0945 109.392 15.7214 109.445 15.3484 109.445ZM24.4615 102.439C22.5963 102.439 16.1478 104.402 14.549 105.092C14.0693 105.305 13.7496 105.676 13.5364 106.154C13.3765 106.632 13.3765 107.162 13.5897 107.587C13.8029 108.065 14.1759 108.383 14.6556 108.595C15.1352 108.755 15.6681 108.755 16.0945 108.542C17.8532 107.746 24.5681 103.5 24.8346 102.492C24.7813 102.439 24.6214 102.439 24.4615 102.439Z" fill="#808485"/>
<path d="M66.7234 80.5177C66.3504 80.5177 66.0839 80.4116 65.9773 80.2524C64.9647 78.7131 73.918 72.0785 74.0246 72.0254C74.6108 71.6539 75.3036 71.4947 75.9964 71.6539C76.6893 71.8131 77.2755 72.1847 77.6486 72.8216C78.448 74.0424 78.0749 75.6347 76.8492 76.4308C76.7426 76.4308 69.2815 80.5177 66.7234 80.5177ZM66.5635 79.8277C67.5761 80.1993 74.7707 76.8024 76.4228 75.7939C77.3288 75.21 77.542 74.0423 77.009 73.1931C76.7426 72.7685 76.3162 72.45 75.8366 72.3439C75.3569 72.2377 74.824 72.3439 74.3976 72.6093C72.7455 73.6177 66.6701 78.7662 66.5635 79.8277Z" fill="#808485"/>
<path d="M17.6931 113.744C16.8404 113.744 15.9877 113.319 15.4548 112.523C15.0818 111.939 14.9219 111.249 15.0818 110.559C15.2416 109.869 15.6147 109.285 16.2542 108.914C16.7871 108.595 19.2386 107.322 21.6369 106.26C26.5398 104.137 26.9129 104.721 27.1261 105.092C27.3392 105.411 27.7123 106.048 23.7686 109.551C21.7967 111.302 19.665 113.001 19.1321 113.319C18.6524 113.585 18.1728 113.744 17.6931 113.744ZM26.3267 105.464C24.8345 105.464 18.2261 108.542 16.6806 109.551C16.2542 109.816 15.9345 110.241 15.8279 110.772C15.7213 111.249 15.8279 111.78 16.0943 112.205C16.6806 113.107 17.853 113.319 18.7057 112.788C20.3578 111.727 26.38 106.578 26.4866 105.517C26.4333 105.464 26.38 105.464 26.3267 105.464Z" fill="#808485"/>
<path d="M64.5382 77.8638C64.2184 77.8638 64.0585 77.7045 64.0053 77.5984C63.7388 77.2799 63.2592 76.7492 66.7232 72.6622C68.4286 70.6453 70.2939 68.6815 70.7735 68.2569C71.8927 67.3015 73.5448 67.4076 74.5041 68.5222C74.9837 69.053 75.1969 69.743 75.1436 70.433C75.0903 71.123 74.7705 71.7599 74.2376 72.2376C73.758 72.6622 71.5196 74.2545 69.2813 75.6345C66.3502 77.4392 65.1244 77.8638 64.5382 77.8638ZM64.5382 77.1207C65.5508 77.2799 72.2657 72.9807 73.7047 71.7069C74.0777 71.3884 74.3442 70.9107 74.3442 70.433C74.3975 69.9022 74.2376 69.4246 73.8645 69.053C73.1717 68.2569 71.946 68.1507 71.1999 68.8407C69.7609 70.1145 64.4849 76.0592 64.5382 77.1207Z" fill="#808485"/>
<path d="M20.6243 117.618C19.8782 117.618 19.1321 117.3 18.6525 116.716C17.6932 115.602 17.7998 113.956 18.9189 113.001C19.0255 112.948 27.9255 106.26 29.1513 107.64C29.4177 107.958 29.8974 108.489 26.4333 112.576C24.7279 114.593 22.8626 116.557 22.383 116.982C21.8501 117.459 21.2105 117.618 20.6243 117.618ZM28.4584 108.171C27.2327 108.171 20.7842 112.364 19.3453 113.585C18.9722 113.903 18.7058 114.381 18.7058 114.858C18.6525 115.389 18.8123 115.867 19.1854 116.238C19.8782 117.035 21.104 117.141 21.8501 116.451C23.3423 115.177 28.565 109.232 28.5117 108.171C28.5117 108.171 28.5117 108.171 28.4584 108.171Z" fill="#808485"/>
<path d="M62.0865 75.4754C61.8733 75.4754 61.7134 75.3692 61.6601 75.3161C61.3404 75.0507 60.8075 74.573 63.632 70.0615C65.0176 67.8323 66.6164 65.603 67.0428 65.1254C67.5224 64.5946 68.1619 64.2761 68.8548 64.223C69.5476 64.17 70.2404 64.3823 70.7733 64.86C71.8925 65.8154 71.9991 67.4607 71.0398 68.5754C70.6134 69.053 68.6416 70.9638 66.6164 72.6092C63.7386 74.9446 62.6194 75.4754 62.0865 75.4754ZM62.1398 74.7323C63.2589 74.7323 69.1745 69.5307 70.4536 68.0977C71.1464 67.3015 71.0398 66.0807 70.2404 65.4438C69.441 64.7538 68.2152 64.86 67.5757 65.6561C66.2967 67.0361 61.9266 73.6707 62.1398 74.7323Z" fill="#808485"/>
<path d="M24.0886 121.068C23.4491 121.068 22.8629 120.856 22.3832 120.432C21.8503 119.954 21.5305 119.317 21.4772 118.627C21.4239 117.937 21.6371 117.247 22.1168 116.716C22.1701 116.61 30.0575 108.755 31.4431 109.975C31.7629 110.241 32.2958 110.718 29.4712 115.23C28.0856 117.459 26.4868 119.688 26.0605 120.166C25.5808 120.697 24.9413 121.015 24.2485 121.068C24.1952 121.068 24.1419 121.068 24.0886 121.068ZM22.6497 117.247C22.3299 117.618 22.1701 118.096 22.1701 118.627C22.2233 119.158 22.4365 119.582 22.8096 119.901C23.1826 120.219 23.6623 120.378 24.1952 120.378C24.7281 120.325 25.1545 120.113 25.4742 119.742C26.7533 118.255 31.1233 111.621 30.9102 110.612C29.8443 110.559 23.8754 115.761 22.6497 117.247Z" fill="#808485"/>
<path d="M59.3156 73.4054C59.209 73.4054 59.1024 73.4054 59.0491 73.3523C57.5036 72.3438 62.833 62.6307 62.8863 62.5246C63.2593 61.9407 63.8455 61.5161 64.5384 61.3569C65.2312 61.1977 65.924 61.3569 66.5102 61.7284C67.0965 62.1 67.5228 62.6838 67.6827 63.3738C67.8426 64.0638 67.6827 64.7538 67.3096 65.3377C67.2563 65.3907 61.2875 73.4054 59.3156 73.4054ZM65.0713 61.9938C64.9114 61.9938 64.8048 61.9938 64.645 62.0469C64.1653 62.153 63.739 62.4715 63.4725 62.8961C62.4066 64.5415 59.0492 71.7069 59.4222 72.7154C60.4881 72.6092 65.6575 66.5584 66.7234 64.9661C66.9899 64.5415 67.0965 64.0107 66.9899 63.533C66.8833 63.0554 66.5635 62.6307 66.1372 62.3654C65.8174 62.1 65.4443 61.9938 65.0713 61.9938Z" fill="#808485"/>
<path d="M27.9791 124.041C27.4995 124.041 27.0198 123.882 26.5402 123.616C25.3144 122.82 24.9414 121.228 25.7408 120.007C25.7941 119.901 32.4558 111.037 34.0013 111.992C34.321 112.205 34.9606 112.576 32.8288 117.459C31.763 119.848 30.4839 122.289 30.1642 122.82C29.6845 123.563 28.8318 124.041 27.9791 124.041ZM26.3803 120.378C25.7941 121.281 26.0606 122.448 26.9665 122.979C27.8725 123.563 29.045 123.298 29.5779 122.395C30.6438 120.75 34.0013 113.585 33.6282 112.576C32.6156 112.735 27.4462 118.733 26.3803 120.378Z" fill="#808485"/>
<path d="M56.3312 71.76C56.2779 71.76 56.1713 71.76 56.118 71.7069C55.745 71.5477 55.1054 71.2292 56.5444 66.1339C57.2372 63.6392 58.1432 61.0385 58.4096 60.4546C58.6761 59.8177 59.2091 59.34 59.9019 59.0746C60.5414 58.8092 61.2875 58.8623 61.927 59.1277C63.2594 59.7115 63.8456 61.3039 63.206 62.5777C63.1528 62.7369 58.1965 71.76 56.3312 71.76ZM60.8078 59.6585C60.5947 59.6585 60.3815 59.7115 60.115 59.7646C59.6354 59.9239 59.2623 60.2954 59.0492 60.7731C58.2498 62.5246 55.9582 70.1146 56.4378 71.07C57.4504 70.8046 61.7138 64.1169 62.5132 62.3654C62.9396 61.41 62.5132 60.2954 61.554 59.8708C61.3408 59.7115 61.0743 59.6585 60.8078 59.6585Z" fill="#808485"/>
<path d="M32.2956 126.376C31.9226 126.376 31.5495 126.27 31.2298 126.164C30.5902 125.899 30.1106 125.368 29.8441 124.678C29.5777 124.041 29.631 123.298 29.8974 122.661C30.1639 122.077 31.5495 119.689 32.9884 117.512C35.9196 113.107 36.6124 113.372 36.9854 113.532C38.6908 114.275 34.7471 124.678 34.6938 124.784C34.4274 125.421 33.8944 125.899 33.2016 126.164C32.9351 126.323 32.6154 126.376 32.2956 126.376ZM36.6657 114.222C35.6531 114.487 31.3896 121.175 30.5902 122.926C30.3771 123.404 30.3771 123.882 30.5369 124.359C30.6968 124.837 31.0699 125.209 31.5495 125.421C32.0292 125.633 32.5088 125.633 32.9884 125.474C33.4681 125.315 33.8411 124.943 34.0543 124.465C34.8537 122.767 37.1453 115.177 36.6657 114.222Z" fill="#808485"/>
<path d="M53.1869 70.5922C53.1336 70.5922 53.0803 70.5922 53.027 70.5922C51.2683 70.0615 53.6132 59.2338 53.6665 59.1276C54.0929 57.7476 55.5318 56.9515 56.9174 57.3761C58.303 57.8007 59.1024 59.2338 58.6761 60.6138C58.7294 60.7199 54.9989 70.5922 53.1869 70.5922ZM56.2246 57.9599C55.4252 57.9599 54.6258 58.4907 54.4126 59.3399C53.8797 61.1976 52.6539 69.053 53.2935 69.9022C54.306 69.4776 57.6102 61.9938 58.0899 60.4015C58.4096 59.393 57.8234 58.3315 56.8108 58.0661C56.5444 57.9599 56.3845 57.9599 56.2246 57.9599Z" fill="#808485"/>
<path d="M36.8789 128.075C36.6124 128.075 36.3992 128.022 36.1328 127.969C35.44 127.756 34.907 127.332 34.5873 126.695C34.2675 126.058 34.1609 125.368 34.3741 124.678C34.534 124.094 35.5465 121.546 36.719 119.158C39.0106 114.381 39.7034 114.54 40.0765 114.699C41.8352 115.23 39.4903 126.058 39.437 126.164C39.0639 127.332 37.998 128.075 36.8789 128.075ZM39.81 115.389C38.8507 115.761 35.5466 123.032 35.0136 124.89C34.8537 125.368 34.907 125.899 35.1735 126.323C35.44 126.748 35.813 127.066 36.2927 127.225C37.3052 127.544 38.3711 126.96 38.6376 125.952C39.2771 124.094 40.4495 116.292 39.81 115.389Z" fill="#808485"/>
<path d="M49.8826 69.9023H49.8293C48.0174 69.6369 48.8168 58.5438 48.8168 58.4376C49.0299 57.0046 50.3623 55.9961 51.8012 56.2084C53.2401 56.4207 54.2527 57.7476 54.0395 59.1807C54.0395 59.2869 51.6946 69.9023 49.8826 69.9023ZM51.4281 56.8984C50.4689 56.8984 49.6695 57.5884 49.5629 58.5438C49.2964 60.4546 49.2431 68.4161 49.9359 69.1592C50.8419 68.6284 53.0269 60.9853 53.2934 59.0746C53.4533 58.013 52.7072 57.0576 51.6946 56.8984C51.588 56.9515 51.5347 56.8984 51.4281 56.8984Z" fill="#808485"/>
<path d="M41.6755 129.083C41.5689 129.083 41.409 129.083 41.3025 129.03C40.6096 128.924 39.9701 128.552 39.5971 128.022C39.1707 127.438 39.0108 126.748 39.1174 126.058C39.224 125.421 39.8635 122.767 40.6097 120.272C42.2085 115.177 42.9013 115.283 43.2743 115.336C43.6474 115.389 44.3935 115.495 44.4468 120.803C44.5001 123.404 44.3402 126.164 44.2869 126.801C44.1803 127.491 43.8073 128.128 43.2743 128.499C42.7947 128.924 42.2085 129.083 41.6755 129.083ZM43.1677 116.132C42.2617 116.663 40.0767 124.306 39.8102 126.217C39.757 126.695 39.8635 127.225 40.1833 127.65C40.5031 128.075 40.9294 128.34 41.4623 128.393C41.942 128.446 42.4749 128.34 42.9013 128.022C43.3276 127.703 43.5941 127.278 43.6474 126.748C43.8072 124.837 43.8605 116.875 43.1677 116.132Z" fill="#808485"/>
</g>
<path d="M46.4991 318C43.4261 318 41 315.493 41 312.5C41 309.426 43.5069 307 46.4991 307C49.5721 307 51.9981 309.507 51.9981 312.5C52.079 315.493 49.5721 318 46.4991 318ZM46.4991 307.971C44.073 307.971 42.0513 309.993 42.0513 312.419C42.0513 314.846 44.073 316.868 46.4991 316.868C48.9251 316.868 50.9468 314.846 50.9468 312.419C50.9468 309.993 48.9251 307.971 46.4991 307.971Z" fill="#808485"/>
</svg>
