<svg width="89" height="415" viewBox="0 0 89 415" fill="none" xmlns="http://www.w3.org/2000/svg">
<path d="M56.24 369.12C56.24 365.067 54.8533 363.04 52.08 363.04C51.2267 363.04 50.5067 363.227 49.92 363.6C49.3067 363.947 48.7867 364.427 48.36 365.04C47.9067 365.653 47.52 366.36 47.2 367.16C46.88 367.933 46.56 368.76 46.24 369.64C45.8933 370.653 45.5067 371.613 45.08 372.52C44.6267 373.427 44.1067 374.213 43.52 374.88C42.9067 375.547 42.1867 376.08 41.36 376.48C40.5333 376.853 39.5333 377.04 38.36 377.04C35.9333 377.04 34.04 376.213 32.68 374.56C31.32 372.907 30.64 370.627 30.64 367.72C30.64 366.04 30.8267 364.52 31.2 363.16C31.5467 361.773 31.9333 360.76 32.36 360.12L35.52 361.36C35.1733 361.92 34.84 362.76 34.52 363.88C34.1733 364.973 34 366.253 34 367.72C34 368.467 34.08 369.16 34.24 369.8C34.4 370.44 34.64 371 34.96 371.48C35.28 371.96 35.6933 372.347 36.2 372.64C36.68 372.907 37.2533 373.04 37.92 373.04C38.6667 373.04 39.2933 372.893 39.8 372.6C40.3067 372.307 40.76 371.893 41.16 371.36C41.5333 370.827 41.88 370.213 42.2 369.52C42.52 368.8 42.84 368.013 43.16 367.16C43.64 365.96 44.12 364.867 44.6 363.88C45.08 362.867 45.6533 362 46.32 361.28C46.9867 360.533 47.7867 359.96 48.72 359.56C49.6267 359.16 50.7333 358.96 52.04 358.96C54.4667 358.96 56.3333 359.853 57.64 361.64C58.9467 363.4 59.6 365.893 59.6 369.12C59.6 370.213 59.52 371.227 59.36 372.16C59.2267 373.067 59.0667 373.88 58.88 374.6C58.6667 375.32 58.4533 375.947 58.24 376.48C58 376.987 57.8 377.387 57.64 377.68L54.44 376.52C54.7867 375.907 55.1733 374.973 55.6 373.72C56.0267 372.467 56.24 370.933 56.24 369.12ZM58.4 337.951C58.6133 338.804 58.84 339.938 59.08 341.351C59.32 342.738 59.44 344.351 59.44 346.191C59.44 347.791 59.2133 349.138 58.76 350.231C58.28 351.324 57.6133 352.204 56.76 352.871C55.9067 353.538 54.9067 354.018 53.76 354.311C52.5867 354.604 51.2933 354.751 49.88 354.751L38.2 354.751L38.2 351.031L49.08 351.031C51.6133 351.031 53.4267 350.631 54.52 349.831C55.6133 349.031 56.16 347.684 56.16 345.791C56.16 345.391 56.1467 344.978 56.12 344.551C56.0933 344.124 56.0667 343.724 56.04 343.351C55.9867 342.978 55.9467 342.644 55.92 342.351C55.8667 342.031 55.8133 341.804 55.76 341.671L38.2 341.671L38.2 337.951L58.4 337.951ZM48.64 317.102C46.2133 317.102 44.3467 317.702 43.04 318.902C41.7333 320.102 41.08 321.702 41.08 323.702C41.08 324.822 41.12 325.702 41.2 326.342C41.28 326.956 41.3733 327.449 41.48 327.822L54.6 327.822C54.9733 327.369 55.3333 326.716 55.68 325.862C56.0267 325.009 56.2 324.076 56.2 323.062C56.2 321.996 56.0133 321.089 55.64 320.342C55.24 319.569 54.7067 318.942 54.04 318.462C53.3467 317.982 52.5467 317.636 51.64 317.422C50.7067 317.209 49.7067 317.102 48.64 317.102ZM48.64 313.222C50.2133 313.222 51.6667 313.436 53 313.862C54.3333 314.262 55.48 314.862 56.44 315.662C57.4 316.462 58.1467 317.449 58.68 318.622C59.2133 319.769 59.48 321.089 59.48 322.582C59.48 323.782 59.32 324.849 59 325.782C58.68 326.689 58.3733 327.369 58.08 327.822L66.4 327.822L66.4 331.542L38.84 331.542C38.6267 330.662 38.4 329.569 38.16 328.262C37.8933 326.929 37.76 325.396 37.76 323.662C37.76 322.062 38.0133 320.622 38.52 319.342C39.0267 318.062 39.7467 316.969 40.68 316.062C41.6133 315.156 42.76 314.462 44.12 313.982C45.4533 313.476 46.96 313.222 48.64 313.222ZM48.64 293.547C46.2133 293.547 44.3467 294.147 43.04 295.347C41.7333 296.547 41.08 298.147 41.08 300.147C41.08 301.267 41.12 302.147 41.2 302.787C41.28 303.401 41.3733 303.894 41.48 304.267L54.6 304.267C54.9733 303.814 55.3333 303.161 55.68 302.307C56.0267 301.454 56.2 300.521 56.2 299.507C56.2 298.441 56.0133 297.534 55.64 296.787C55.24 296.014 54.7067 295.387 54.04 294.907C53.3467 294.427 52.5467 294.081 51.64 293.867C50.7067 293.654 49.7067 293.547 48.64 293.547ZM48.64 289.667C50.2133 289.667 51.6667 289.881 53 290.307C54.3333 290.707 55.48 291.307 56.44 292.107C57.4 292.907 58.1467 293.894 58.68 295.067C59.2133 296.214 59.48 297.534 59.48 299.027C59.48 300.227 59.32 301.294 59 302.227C58.68 303.134 58.3733 303.814 58.08 304.267L66.4 304.267L66.4 307.987L38.84 307.987C38.6267 307.107 38.4 306.014 38.16 304.707C37.8933 303.374 37.76 301.841 37.76 300.107C37.76 298.507 38.0133 297.067 38.52 295.787C39.0267 294.507 39.7467 293.414 40.68 292.507C41.6133 291.601 42.76 290.907 44.12 290.427C45.4533 289.921 46.96 289.667 48.64 289.667ZM48.6 266.073C50.2533 266.073 51.7467 266.313 53.08 266.793C54.4133 267.273 55.56 267.953 56.52 268.833C57.48 269.686 58.2267 270.713 58.76 271.913C59.2667 273.113 59.52 274.419 59.52 275.833C59.52 277.246 59.2667 278.553 58.76 279.753C58.2267 280.953 57.48 281.993 56.52 282.873C55.56 283.726 54.4133 284.393 53.08 284.873C51.7467 285.353 50.2533 285.593 48.6 285.593C46.9733 285.593 45.4933 285.353 44.16 284.873C42.8 284.393 41.64 283.726 40.68 282.873C39.72 281.993 38.9867 280.953 38.48 279.753C37.9467 278.553 37.68 277.246 37.68 275.833C37.68 274.419 37.9467 273.113 38.48 271.913C38.9867 270.713 39.72 269.686 40.68 268.833C41.64 267.953 42.8 267.273 44.16 266.793C45.4933 266.313 46.9733 266.073 48.6 266.073ZM48.6 269.953C46.2533 269.953 44.4 270.486 43.04 271.553C41.6533 272.593 40.96 274.019 40.96 275.833C40.96 277.646 41.6533 279.086 43.04 280.153C44.4 281.193 46.2533 281.713 48.6 281.713C50.9467 281.713 52.8133 281.193 54.2 280.153C55.56 279.086 56.24 277.646 56.24 275.833C56.24 274.019 55.56 272.593 54.2 271.553C52.8133 270.486 50.9467 269.953 48.6 269.953ZM37.76 253.159C37.76 252.839 37.7867 252.479 37.84 252.079C37.8667 251.652 37.92 251.239 38 250.839C38.0533 250.439 38.12 250.079 38.2 249.759C38.2533 249.412 38.3067 249.159 38.36 248.999L41.6 249.639C41.4933 249.932 41.3733 250.426 41.24 251.119C41.08 251.786 41 252.652 41 253.719C41 254.412 41.08 255.106 41.24 255.799C41.3733 256.466 41.4667 256.906 41.52 257.119L59 257.119L59 260.839L39.08 260.839C38.76 259.959 38.4667 258.866 38.2 257.559C37.9067 256.252 37.76 254.786 37.76 253.159ZM38.2 241.929L38.2 234.049L41.32 234.049L41.32 241.929L50.92 241.929C51.96 241.929 52.8267 241.849 53.52 241.689C54.1867 241.529 54.72 241.289 55.12 240.969C55.4933 240.649 55.76 240.249 55.92 239.769C56.08 239.289 56.16 238.729 56.16 238.089C56.16 236.969 56.04 236.076 55.8 235.409C55.5333 234.716 55.3467 234.236 55.24 233.969L58.32 233.249C58.5067 233.623 58.7333 234.276 59 235.209C59.2933 236.143 59.44 237.209 59.44 238.409C59.44 239.823 59.2667 240.996 58.92 241.929C58.5467 242.836 58 243.569 57.28 244.129C56.56 244.689 55.68 245.089 54.64 245.329C53.5733 245.543 52.3467 245.649 50.96 245.649L32.4 245.649L31.76 241.929L38.2 241.929ZM48.64 230.866C46.8 230.866 45.2 230.6 43.84 230.066C42.4533 229.533 41.3067 228.826 40.4 227.946C39.4933 227.066 38.8133 226.053 38.36 224.906C37.9067 223.76 37.68 222.586 37.68 221.386C37.68 218.586 38.56 216.44 40.32 214.946C42.0533 213.453 44.7067 212.706 48.28 212.706C48.44 212.706 48.6533 212.706 48.92 212.706C49.16 212.706 49.3867 212.72 49.6 212.746L49.6 226.986C51.76 226.826 53.4 226.2 54.52 225.106C55.64 224.013 56.2 222.306 56.2 219.986C56.2 218.68 56.0933 217.586 55.88 216.706C55.64 215.8 55.4133 215.12 55.2 214.666L58.32 214.146C58.56 214.6 58.8133 215.4 59.08 216.546C59.3467 217.666 59.48 218.946 59.48 220.386C59.48 222.2 59.2133 223.773 58.68 225.106C58.12 226.413 57.36 227.493 56.4 228.346C55.44 229.2 54.3067 229.84 53 230.266C51.6667 230.666 50.2133 230.866 48.64 230.866ZM46.6 216.586C44.92 216.56 43.5467 216.986 42.48 217.866C41.3867 218.72 40.84 219.906 40.84 221.426C40.84 222.28 41.0133 223.04 41.36 223.706C41.68 224.346 42.1067 224.893 42.64 225.346C43.1733 225.8 43.7867 226.16 44.48 226.426C45.1733 226.666 45.88 226.826 46.6 226.906L46.6 216.586ZM37.76 199.682C37.76 199.362 37.7867 199.002 37.84 198.602C37.8667 198.176 37.92 197.762 38 197.362C38.0533 196.962 38.12 196.602 38.2 196.282C38.2533 195.936 38.3067 195.682 38.36 195.522L41.6 196.162C41.4933 196.456 41.3733 196.949 41.24 197.642C41.08 198.309 41 199.176 41 200.242C41 200.936 41.08 201.629 41.24 202.322C41.3733 202.989 41.4667 203.429 41.52 203.642L59 203.642L59 207.362L39.08 207.362C38.76 206.482 38.4667 205.389 38.2 204.082C37.9067 202.776 37.76 201.309 37.76 199.682ZM56.32 187.093C56.32 185.573 56.12 184.453 55.72 183.733C55.32 182.986 54.68 182.613 53.8 182.613C52.8933 182.613 52.1733 182.973 51.64 183.693C51.1067 184.413 50.5067 185.599 49.84 187.253C49.52 188.053 49.2 188.826 48.88 189.573C48.5333 190.293 48.1333 190.919 47.68 191.453C47.2267 191.986 46.68 192.413 46.04 192.733C45.4 193.053 44.6133 193.213 43.68 193.213C41.84 193.213 40.3867 192.533 39.32 191.173C38.2267 189.813 37.68 187.959 37.68 185.613C37.68 185.026 37.72 184.439 37.8 183.853C37.8533 183.266 37.9333 182.719 38.04 182.213C38.12 181.706 38.2133 181.266 38.32 180.893C38.4267 180.493 38.52 180.186 38.6 179.973L41.8 180.653C41.5867 181.053 41.3733 181.679 41.16 182.533C40.92 183.386 40.8 184.413 40.8 185.613C40.8 186.653 41.0133 187.559 41.44 188.333C41.84 189.106 42.48 189.493 43.36 189.493C43.8133 189.493 44.2133 189.413 44.56 189.253C44.9067 189.066 45.2267 188.799 45.52 188.453C45.7867 188.079 46.04 187.626 46.28 187.093C46.52 186.559 46.7733 185.919 47.04 185.173C47.4133 184.186 47.7867 183.306 48.16 182.533C48.5067 181.759 48.92 181.106 49.4 180.573C49.88 180.013 50.4667 179.586 51.16 179.293C51.8267 178.999 52.6533 178.853 53.64 178.853C55.56 178.853 57.0133 179.573 58 181.013C58.9867 182.426 59.48 184.453 59.48 187.093C59.48 188.933 59.32 190.373 59 191.413C58.7067 192.453 58.48 193.159 58.32 193.533L55.12 192.853C55.28 192.426 55.52 191.746 55.84 190.813C56.16 189.879 56.32 188.639 56.32 187.093Z" fill="#131D25"/>
<path d="M31.6565 68.3421C31.5499 68.3421 31.4966 68.2888 31.4434 68.2354C31.3368 68.1287 31.3901 67.9687 31.4966 67.862C38.7978 63.0604 52.7607 57.2452 52.9206 57.1918C64.3787 52.497 72.7457 42.4671 75.4637 30.4632C75.517 30.3031 75.6236 30.2498 75.7835 30.2498C75.9434 30.3031 75.9966 30.4098 75.9966 30.5699C73.2787 42.7872 64.7517 52.9238 53.1871 57.7253C53.0272 57.7787 39.1176 63.5406 31.8697 68.3421C31.7631 68.3421 31.7098 68.3421 31.6565 68.3421Z" fill="#5E696B"/>
<path d="M12.151 105.367C11.9378 105.367 11.7779 105.207 11.7779 104.994L11.7246 103.767C11.7246 85.0409 23.7156 68.6089 41.5156 62.9537C46.9516 61.2465 52.7073 60.6063 58.4629 61.1398C60.5947 61.3532 62.7264 60.8197 64.5917 59.6459C72.3725 54.6843 77.2755 46.3616 77.7552 37.2387C77.8085 35.8516 77.8084 34.4644 77.6486 33.1307C77.4354 30.6232 76.7426 29.076 75.7833 28.8626C74.824 28.6492 73.545 29.8763 72.2659 32.0637C65.018 45.2413 51.215 53.3506 36.2929 53.3506C32.6689 53.3506 29.0983 52.8704 25.6342 51.9635C25.421 51.9101 25.3144 51.6967 25.3677 51.5366C25.421 51.3232 25.6342 51.2165 25.7941 51.2699C29.2048 52.1769 32.7755 52.657 36.2929 52.657C51.0019 52.657 64.5384 44.6544 71.733 31.7969C73.1719 29.2361 74.6641 27.9557 75.9965 28.2224C77.2755 28.4892 78.1815 30.2497 78.448 33.1307C78.5546 34.5178 78.6079 35.9583 78.5546 37.3454C78.0749 46.6817 73.012 55.2178 65.0713 60.2862C63.0994 61.5132 60.7545 62.1001 58.5162 61.8867C52.8671 61.3532 47.218 61.9934 41.8887 63.6472C24.3552 69.1957 12.5773 85.3076 12.5773 103.767L12.6306 104.941C12.524 105.207 12.3641 105.367 12.151 105.367C12.2042 105.367 12.2042 105.367 12.151 105.367Z" fill="#5E696B"/>
<mask id="mask0_20_384" style="mask-type:luminance" maskUnits="userSpaceOnUse" x="12" y="59" width="77" height="73">
<path d="M12.2575 106.595L12.1509 103.82C12.1509 84.8808 24.5682 68.8222 41.7287 63.3805C45.779 62.1001 50.0958 61.4065 54.5725 61.4065C55.9048 61.4065 57.2371 61.4599 58.5161 61.6199C60.7545 61.8333 62.9928 61.2464 64.8581 60.0727C72.479 55.2178 79.3006 72.6101 79.8335 63.0604C79.8868 61.6199 88.8401 75.9179 88.7335 74.5308C88.2006 68.8756 87.8808 105.634 85.1096 110.596C78.1281 123.133 78.288 131.936 62.9395 131.936C59.2622 131.936 22.0635 130.709 18.6527 129.802L12.2575 106.595Z" fill="white"/>
</mask>
<g mask="url(#mask0_20_384)">
<path d="M36.4526 87.1214C34.161 87.1214 27.4993 83.2802 27.3927 83.2268C26.2736 82.4799 26.0071 80.9861 26.7532 79.9191C27.1263 79.3856 27.6592 79.0121 28.2987 78.9054C28.9382 78.7987 29.5778 78.9054 30.1107 79.2789C30.2173 79.3322 38.158 85.4676 37.1987 86.908C37.0388 87.0147 36.7724 87.1214 36.4526 87.1214ZM28.7251 79.5456C28.6185 79.5456 28.5119 79.5456 28.4053 79.599C27.9789 79.7057 27.6059 79.9191 27.3394 80.2925C26.8065 81.0395 27.0197 82.1065 27.8191 82.64C29.1514 83.5469 35.44 86.6946 36.5592 86.4279C36.346 85.3609 31.0167 80.7194 29.6843 79.8124C29.4179 79.6523 29.0981 79.5456 28.7251 79.5456Z" fill="#5E696B"/>
<path d="M64.325 107.448C63.8453 107.448 63.419 107.288 62.9926 107.021C62.886 106.968 54.9453 100.833 55.9046 99.3921C56.1178 99.072 56.4908 98.5385 60.8609 100.566C62.9926 101.526 65.1777 102.753 65.6573 103.02C66.1902 103.393 66.5633 103.927 66.6699 104.567C66.7764 105.207 66.6699 105.848 66.2968 106.381C65.9238 106.915 65.3908 107.288 64.7513 107.395C64.6447 107.395 64.4848 107.448 64.325 107.448ZM56.5441 99.8189C56.7573 100.886 62.0866 105.527 63.419 106.434C63.792 106.701 64.2184 106.754 64.698 106.701C65.1244 106.594 65.4974 106.381 65.7639 106.008C66.0304 105.634 66.0836 105.207 66.0304 104.727C65.9238 104.3 65.7106 103.927 65.3375 103.66C63.9519 102.753 57.61 99.6055 56.5441 99.8189Z" fill="#5E696B"/>
<path d="M46.5251 102.06C41.6221 102.06 37.5718 98.0583 37.5718 93.0967C37.5718 88.1884 41.5688 84.1338 46.5251 84.1338C51.4281 84.1338 55.4784 88.1351 55.4784 93.0967C55.4784 98.0583 51.4814 102.06 46.5251 102.06ZM46.5251 84.8807C41.9951 84.8807 38.3179 88.5619 38.3179 93.0967C38.3179 97.6315 41.9951 101.313 46.5251 101.313C51.055 101.313 54.7323 97.6315 54.7323 93.0967C54.7323 88.6152 51.055 84.8807 46.5251 84.8807Z" fill="#5E696B"/>
<path d="M46.5253 116.945C33.4151 116.945 22.7031 106.274 22.7031 93.0968C22.7031 79.9192 33.3618 69.249 46.5253 69.249C59.6355 69.249 70.3474 79.9192 70.3474 93.0968C70.3474 106.274 59.6887 116.945 46.5253 116.945ZM46.5253 69.9959C33.7881 69.9959 23.4492 80.346 23.4492 93.0968C23.4492 105.848 33.7881 116.198 46.5253 116.198C59.2624 116.198 69.6013 105.848 69.6013 93.0968C69.6013 80.3993 59.2624 69.9959 46.5253 69.9959Z" fill="#5E696B"/>
<path d="M46.5252 105.154C39.9168 105.154 34.5342 99.7656 34.5342 93.1501C34.5342 86.5347 39.9168 81.1462 46.5252 81.1462C53.1336 81.1462 58.5162 86.5347 58.5162 93.1501C58.5695 99.7656 53.1869 105.154 46.5252 105.154ZM46.5252 81.8398C40.2899 81.8398 35.227 86.9081 35.227 93.1501C35.227 99.3922 40.2899 104.46 46.5252 104.46C52.7605 104.46 57.8234 99.3922 57.8234 93.1501C57.8234 86.9081 52.7605 81.8398 46.5252 81.8398Z" fill="#5E696B"/>
<path d="M46.5252 81.8397C44.8198 81.8397 44.127 71.8097 44.127 71.703C44.127 70.3693 45.1928 69.3022 46.5252 69.3022C47.8575 69.3022 48.9234 70.3693 48.9234 71.703C48.9234 71.8097 48.2838 81.8397 46.5252 81.8397ZM46.5252 69.9958C45.6192 69.9958 44.8731 70.7427 44.8731 71.6497C44.8731 73.2502 45.779 80.2391 46.5252 81.0394C47.2713 80.2925 48.1773 73.2502 48.1773 71.6497C48.2305 70.7961 47.4844 69.9958 46.5252 69.9958Z" fill="#5E696B"/>
<path d="M46.5252 116.945C45.1928 116.945 44.127 115.878 44.127 114.544C44.127 114.437 44.8198 104.407 46.5252 104.407C48.2305 104.407 48.9234 114.437 48.9234 114.544C48.9234 115.878 47.8575 116.945 46.5252 116.945ZM46.5252 105.207C45.779 105.954 44.8731 112.997 44.8731 114.597C44.8731 115.504 45.6192 116.251 46.5252 116.251C47.4311 116.251 48.1773 115.504 48.1773 114.597C48.2305 112.943 47.3246 105.954 46.5252 105.207Z" fill="#5E696B"/>
<path d="M46.5252 81.8397C44.8198 81.8397 44.127 71.8097 44.127 71.703C44.127 70.3693 45.1928 69.3022 46.5252 69.3022C47.8575 69.3022 48.9234 70.3693 48.9234 71.703C48.9234 71.8097 48.2838 81.8397 46.5252 81.8397ZM46.5252 69.9958C45.6192 69.9958 44.8731 70.7427 44.8731 71.6497C44.8731 73.2502 45.779 80.2391 46.5252 81.0394C47.2713 80.2925 48.1773 73.2502 48.1773 71.6497C48.2305 70.7961 47.4844 69.9958 46.5252 69.9958Z" fill="#5E696B"/>
<path d="M46.5252 116.944C45.1928 116.944 44.127 115.877 44.127 114.544C44.127 114.437 44.8198 104.407 46.5252 104.407C48.2305 104.407 48.9234 114.437 48.9234 114.544C48.9234 115.877 47.8575 116.944 46.5252 116.944ZM46.5252 105.207C45.779 105.954 44.8731 112.996 44.8731 114.597C44.8731 115.504 45.6192 116.251 46.5252 116.251C47.4311 116.251 48.1773 115.504 48.1773 114.597C48.2305 112.943 47.3246 105.954 46.5252 105.207Z" fill="#5E696B"/>
<path d="M44.2332 82.0531C42.5278 82.0531 40.023 72.6633 39.9697 72.5566C39.7033 71.2762 40.5559 69.9958 41.835 69.7291C43.114 69.4623 44.3931 70.3159 44.6595 71.5963C44.6595 71.703 45.9919 81.6796 44.2865 81.9997C44.2865 82.0531 44.2865 82.0531 44.2332 82.0531ZM42.3679 70.4226C42.2613 70.4226 42.1547 70.4226 42.0482 70.476C41.1422 70.636 40.5559 71.543 40.7158 72.4499C41.0356 73.9971 43.2739 80.7193 44.1799 81.3061C44.7661 80.3992 44.2865 73.3569 44.02 71.8097C43.8601 71.0095 43.1673 70.4226 42.3679 70.4226Z" fill="#5E696B"/>
<path d="M50.735 116.571C50.2553 116.571 49.829 116.411 49.4027 116.144C48.8697 115.771 48.4966 115.237 48.3901 114.597C48.2835 114.064 48.017 111.556 47.9104 109.209C47.7505 104.407 48.3901 104.247 48.7631 104.194C49.1362 104.14 49.7757 103.98 51.4278 108.515C52.2272 110.702 52.9733 113.103 53.0799 113.637C53.1865 114.277 53.0799 114.917 52.7068 115.451C52.3338 115.984 51.8008 116.358 51.1613 116.464C51.0547 116.518 50.8949 116.571 50.735 116.571ZM48.8697 104.941C48.2835 105.848 48.7631 112.89 49.0296 114.437C49.1362 114.864 49.3493 115.237 49.7224 115.504C50.0955 115.771 50.5218 115.824 51.0015 115.771C51.4278 115.664 51.8009 115.451 52.0673 115.077C52.3338 114.704 52.3871 114.277 52.3338 113.797C52.0673 112.25 49.7757 105.527 48.8697 104.941Z" fill="#5E696B"/>
<path d="M41.942 82.7467C41.5157 82.7467 40.7163 82.2666 38.6911 78.9588C37.4654 76.9315 36.2929 74.7441 36.0797 74.2106C35.8133 73.6238 35.8133 72.9835 36.0797 72.3967C36.3462 71.8098 36.7725 71.3297 37.3588 71.1163C38.5845 70.5828 39.9701 71.1696 40.5031 72.3967C40.7163 72.9302 41.4624 75.2776 41.9953 77.5717C43.1145 82.2666 42.4749 82.5333 42.1552 82.64C42.1552 82.6934 42.0486 82.7467 41.942 82.7467ZM38.3713 71.6498C38.1582 71.6498 37.945 71.7031 37.7318 71.7565C37.3055 71.9165 36.9857 72.2366 36.8258 72.6634C36.666 73.0902 36.666 73.5171 36.8258 73.9439C37.4121 75.4377 40.9294 81.573 41.942 81.9465C42.3684 80.9328 40.5031 74.1039 39.9168 72.6634C39.6504 72.0232 39.0109 71.6498 38.3713 71.6498Z" fill="#5E696B"/>
<path d="M54.7326 115.344C54.4129 115.344 54.0931 115.291 53.8266 115.184C53.2404 114.917 52.7608 114.49 52.5476 113.904C52.4943 113.797 49.2967 104.301 50.8955 103.607C52.4943 102.967 56.9177 111.93 56.9709 112.036C57.2374 112.623 57.2374 113.263 56.9709 113.85C56.7045 114.437 56.2781 114.917 55.6919 115.131C55.3721 115.291 55.0524 115.344 54.7326 115.344ZM51.1619 104.247C50.7356 105.261 52.6009 112.09 53.1871 113.53C53.347 113.957 53.6667 114.277 54.0931 114.437C54.5194 114.597 54.9458 114.597 55.3721 114.437C55.7985 114.277 56.1182 113.957 56.2781 113.53C56.438 113.103 56.438 112.677 56.2781 112.25C55.6919 110.809 52.1745 104.674 51.1619 104.247Z" fill="#5E696B"/>
<path d="M39.9698 83.8139C38.1578 83.8139 32.7219 76.7182 32.6686 76.6649C32.2955 76.1314 32.1889 75.4912 32.2955 74.851C32.4021 74.2107 32.7752 73.6772 33.3081 73.3038C33.841 72.9303 34.4805 72.8236 35.1201 72.9303C35.7596 73.037 36.2925 73.4105 36.6656 73.944C36.7189 74.0507 41.7285 82.7468 40.2895 83.7072C40.1829 83.7605 40.0764 83.8139 39.9698 83.8139ZM34.6404 73.6239C34.3207 73.6239 34.0009 73.7306 33.7344 73.8906C33.3614 74.1574 33.0949 74.5309 33.0416 74.9577C32.935 75.3845 33.0416 75.8646 33.3081 76.2381C34.2141 77.5718 38.8506 82.9069 39.9165 83.1203C40.1296 82.0533 36.9853 75.7046 36.1326 74.4241C35.8662 74.0507 35.4931 73.7839 35.0668 73.7306C34.8536 73.6239 34.747 73.6239 34.6404 73.6239Z" fill="#5E696B"/>
<path d="M58.4628 113.37C57.6634 113.37 56.9173 112.997 56.491 112.303C56.4377 112.196 51.4281 103.5 52.867 102.54C53.1868 102.326 53.7197 101.953 57.0239 105.527C58.6227 107.235 60.1682 109.155 60.488 109.635C60.861 110.169 60.9676 110.809 60.861 111.449C60.7544 112.09 60.3814 112.623 59.8484 112.997C59.3688 113.21 58.8892 113.37 58.4628 113.37ZM57.0239 111.876C57.5568 112.623 58.5694 112.837 59.3688 112.356C59.7419 112.09 60.0083 111.716 60.0616 111.289C60.1682 110.863 60.0616 110.382 59.7952 110.009C58.8892 108.675 54.2526 103.34 53.1868 103.127C53.0269 104.194 56.1712 110.542 57.0239 111.876Z" fill="#5E696B"/>
<path d="M38.1049 85.3075C36.0797 85.3075 29.7378 79.759 29.6845 79.7057C29.2049 79.2255 28.9917 78.6386 28.9917 77.9984C28.9917 77.3582 29.2582 76.7714 29.6845 76.2912C30.1109 75.8644 30.7504 75.5977 31.3899 75.5977C32.0294 75.5977 32.6157 75.8644 33.0953 76.2912C33.5216 76.718 35.0671 78.5853 36.4528 80.5059C39.2773 84.4005 38.7977 84.8807 38.5312 85.1474C38.4779 85.2541 38.318 85.3075 38.1049 85.3075ZM31.3899 76.2912C30.9636 76.2912 30.5372 76.4513 30.2175 76.7714C29.5779 77.4116 29.5779 78.4786 30.2175 79.1188C31.3366 80.2392 36.9857 84.5606 37.9983 84.5606C37.9983 83.4936 33.6815 77.8917 32.5624 76.7714C32.2426 76.4513 31.8163 76.2912 31.3899 76.2912Z" fill="#5E696B"/>
<path d="M61.6606 110.703C61.0211 110.703 60.4348 110.436 59.9552 110.009C59.9019 109.956 53.2935 102.38 54.5193 101.153C55.745 99.9257 63.3127 106.541 63.366 106.595C63.8456 107.075 64.0588 107.662 64.0588 108.302C64.0588 108.942 63.7923 109.529 63.366 110.009C62.9397 110.436 62.3001 110.703 61.6606 110.703ZM55.0522 101.633C55.0522 102.7 59.369 108.302 60.4881 109.422C61.1277 110.062 62.1935 110.062 62.8331 109.422C63.4726 108.782 63.4726 107.715 62.8331 107.075C61.7139 105.954 56.1714 101.633 55.0522 101.633Z" fill="#5E696B"/>
<path d="M34.9602 89.2556C34.2141 89.2556 33.0416 89.0956 31.0165 88.6154C28.7249 88.0819 26.3799 87.335 25.847 87.1216C24.6213 86.6414 24.035 85.201 24.568 83.9739C24.8344 83.387 25.2608 82.9069 25.847 82.6935C26.4332 82.4267 27.0728 82.4267 27.659 82.6935C28.1919 82.9069 30.3769 84.0806 32.4021 85.3077C36.5057 87.8151 36.2392 88.4553 36.1326 88.7754C36.026 88.9888 35.9195 89.2556 34.9602 89.2556ZM26.753 83.227C26.5398 83.227 26.3266 83.2803 26.1135 83.3337C25.6871 83.4937 25.3674 83.8138 25.2075 84.2406C24.8344 85.0942 25.2608 86.0546 26.1135 86.428C27.6057 87.0149 34.4272 88.8822 35.3865 88.4553C34.9602 87.4417 28.8314 83.9205 27.3925 83.3337C27.1793 83.2803 26.9662 83.227 26.753 83.227Z" fill="#5E696B"/>
<path d="M66.2965 103.714C65.9767 103.714 65.657 103.66 65.3905 103.554C65.2839 103.5 56.2773 99.0722 56.9701 97.4716C57.6097 95.8711 67.1492 99.0722 67.2558 99.1255C67.842 99.3923 68.3216 99.8191 68.5348 100.406C68.8012 100.993 68.8012 101.633 68.5348 102.22C68.2683 102.807 67.842 103.287 67.2558 103.5C66.936 103.66 66.6162 103.714 66.2965 103.714ZM57.6629 97.7384C58.0893 98.7521 64.218 102.273 65.657 102.86C66.0833 103.02 66.5096 103.02 66.936 102.86C67.3623 102.7 67.6821 102.38 67.842 101.953C68.0019 101.526 68.0019 101.099 67.842 100.673C67.6821 100.246 67.3623 99.9258 66.936 99.7657C65.4971 99.1789 58.6755 97.3116 57.6629 97.7384Z" fill="#5E696B"/>
<path d="M31.7629 91.8164C28.7784 91.8164 25.1012 91.3363 25.0479 91.3363C23.7688 91.0695 22.9161 89.7891 23.1826 88.5087C23.4491 87.2283 24.7281 86.3747 26.0072 86.6414C26.1137 86.6414 35.8131 89.2556 35.4401 90.9628C35.3335 91.603 33.7347 91.8164 31.7629 91.8164ZM25.5275 87.2816C24.7281 87.2816 24.0353 87.8151 23.8754 88.6154C23.7155 89.5223 24.3018 90.4293 25.2078 90.5894C26.7533 90.9095 33.8413 91.3896 34.694 90.7494C34.1078 89.8425 27.3928 87.6017 25.8473 87.2816C25.7407 87.2816 25.6341 87.2816 25.5275 87.2816Z" fill="#5E696B"/>
<path d="M67.523 99.7123C67.3631 99.7123 67.2032 99.7123 67.0433 99.659C66.5104 99.5523 64.1122 98.8587 61.9272 98.0051C57.3972 96.3512 57.5571 95.6576 57.6104 95.3375C57.6637 94.9641 57.8236 94.3239 62.62 94.4839C64.9649 94.5906 67.4164 94.804 68.0026 94.9641C68.6421 95.0708 69.1751 95.4442 69.5481 95.9778C69.9212 96.5113 70.0278 97.1515 69.9212 97.7917C69.8146 98.4319 69.4415 98.9654 68.9086 99.3388C68.4822 99.5522 68.0026 99.7123 67.523 99.7123ZM58.3565 95.4976C58.9427 96.4046 65.6577 98.6453 67.2032 98.9654C67.6295 99.0721 68.1092 98.9654 68.4822 98.6986C68.8553 98.4319 69.1218 98.0584 69.1751 97.6316C69.2816 97.2048 69.1751 96.7247 68.9086 96.3512C68.6421 95.9778 68.2691 95.711 67.8427 95.6577C66.2972 95.3375 59.2625 94.8574 58.3565 95.4976Z" fill="#5E696B"/>
<path d="M25.1546 95.5508C23.8222 95.5508 22.7563 94.4838 22.7563 93.15C22.7563 91.8163 23.8222 90.7493 25.1546 90.7493C25.2611 90.7493 35.2803 91.4428 35.2803 93.15C35.2803 94.8573 25.2611 95.5508 25.1546 95.5508ZM25.1546 91.4428C24.2486 91.4428 23.5025 92.1897 23.5025 93.0967C23.5025 94.0037 24.2486 94.7506 25.1546 94.7506C26.7534 94.7506 33.7348 93.8436 34.5342 93.0967C33.7348 92.3498 26.7534 91.4428 25.1546 91.4428Z" fill="#5E696B"/>
<path d="M67.949 95.5508C67.8424 95.5508 57.8232 94.8573 57.8232 93.15C57.8232 91.4428 67.8424 90.7493 67.949 90.7493C69.2813 90.7493 70.3472 91.8163 70.3472 93.15C70.3472 94.4305 69.2813 95.5508 67.949 95.5508ZM58.5694 93.15C59.3155 93.897 66.3502 94.8039 67.949 94.8039C68.855 94.8039 69.6011 94.057 69.6011 93.15C69.6011 92.2431 68.855 91.4962 67.949 91.4962C66.3502 91.4428 59.3688 92.3498 58.5694 93.15Z" fill="#5E696B"/>
<path d="M25.5275 99.7124C24.4084 99.7124 23.3958 98.9121 23.1826 97.7917C22.9161 96.5113 23.7688 95.2309 25.0479 94.9642C25.1545 94.9642 35.1203 93.6304 35.4401 95.3376C35.7599 97.0448 26.1137 99.659 26.0072 99.659C25.8473 99.7124 25.6874 99.7124 25.5275 99.7124ZM32.0293 95.1776C29.5778 95.1776 26.2203 95.4443 25.2078 95.6577C24.3018 95.8178 23.7155 96.7247 23.8754 97.6317C24.0353 98.5387 24.9413 99.1255 25.8473 98.9655C27.3928 98.6454 34.1078 96.4046 34.694 95.4977C34.4275 95.2843 33.3617 95.1776 32.0293 95.1776Z" fill="#5E696B"/>
<path d="M61.1278 91.7631C57.7703 91.7631 57.6637 91.2295 57.6104 90.9094C57.5571 90.536 57.3972 89.8958 61.9272 88.2419C64.1122 87.4417 66.5104 86.6947 67.0433 86.588C67.6828 86.4813 68.3224 86.588 68.8553 86.9615C69.3882 87.335 69.7613 87.8685 69.8679 88.5087C69.9744 89.1489 69.8679 89.7891 69.4948 90.3226C69.1218 90.8561 68.5888 91.2295 67.9493 91.3362C67.4164 91.443 64.9116 91.7097 62.5667 91.8164C62.087 91.7631 61.5541 91.7631 61.1278 91.7631ZM58.3565 90.7494C59.2625 91.3363 66.2972 90.8561 67.8427 90.5893C68.2691 90.4826 68.6421 90.2692 68.9086 89.8958C69.1751 89.5223 69.2283 89.0955 69.1751 88.6154C69.0685 88.1886 68.8553 87.8151 68.4822 87.5484C68.1092 87.2816 67.6828 87.2283 67.2032 87.2816C65.6577 87.6017 58.9427 89.8424 58.3565 90.7494Z" fill="#5E696B"/>
<path d="M26.753 103.713C26.4332 103.713 26.1135 103.66 25.847 103.553C25.2608 103.287 24.7811 102.86 24.568 102.273C24.0883 101.046 24.6213 99.6588 25.847 99.1253C26.3799 98.9119 28.7249 98.165 31.0165 97.6315C35.7063 96.5111 35.9728 97.1513 36.0794 97.4714C36.2392 97.7915 36.4524 98.4318 32.3488 100.939C30.3237 102.166 28.1386 103.34 27.6057 103.553C27.3925 103.66 27.0728 103.713 26.753 103.713ZM34.9602 97.6848C33.0949 97.6848 27.4458 99.232 26.1668 99.7655C25.3141 100.139 24.8877 101.099 25.2608 101.953C25.4207 102.38 25.7404 102.7 26.1668 102.86C26.5931 103.02 27.0195 103.02 27.4458 102.86C28.938 102.273 35.0668 98.7519 35.4398 97.7382C35.3332 97.6848 35.1734 97.6848 34.9602 97.6848Z" fill="#5E696B"/>
<path d="M58.2492 89.2555C57.5564 89.2555 57.0768 89.1488 56.9702 88.8287C56.3307 87.2281 65.284 82.8 65.3905 82.7467C65.9768 82.4799 66.6163 82.4799 67.2025 82.7467C67.7887 83.0134 68.2684 83.4403 68.4816 84.0271C68.748 84.614 68.748 85.2542 68.4816 85.841C68.2151 86.4279 67.7887 86.908 67.2025 87.1214C67.1492 87.1748 61.0205 89.2555 58.2492 89.2555ZM57.663 88.5086C58.6756 88.9354 65.4971 87.0681 66.936 86.4812C67.3624 86.3212 67.6822 86.0011 67.842 85.5743C68.0019 85.1475 68.0019 84.7207 67.842 84.2939C67.6822 83.8671 67.3624 83.547 66.936 83.3869C66.5097 83.2269 66.0834 83.2269 65.657 83.3869C64.2181 83.9738 58.0893 87.4949 57.663 88.5086Z" fill="#5E696B"/>
<path d="M28.7252 107.448C28.5653 107.448 28.4055 107.448 28.2456 107.395C27.6061 107.288 27.0731 106.915 26.7001 106.381C25.954 105.261 26.2737 103.767 27.3396 103.073C27.4462 103.02 36.133 98.005 37.0923 99.4454C38.0516 100.886 30.1109 107.021 30.0043 107.075C29.6845 107.288 29.2049 107.448 28.7252 107.448ZM27.8193 103.66C27.0731 104.194 26.86 105.207 27.3396 106.008C27.6061 106.381 27.9791 106.648 28.4055 106.701C28.8318 106.808 29.3115 106.701 29.6845 106.434C31.0169 105.527 36.3462 100.886 36.5594 99.8189C35.4402 99.6055 29.1516 102.753 27.8193 103.66Z" fill="#5E696B"/>
<path d="M56.5978 87.1749C56.1182 87.1749 56.0116 87.0149 55.9583 86.8548C54.999 85.4143 62.9397 79.279 63.0463 79.2257C63.5793 78.8522 64.2188 78.7455 64.8583 78.8522C65.4978 78.9589 66.0308 79.3324 66.4038 79.8659C66.7769 80.3994 66.8835 81.0396 66.7769 81.6798C66.6703 82.32 66.2973 82.8535 65.7643 83.227C65.2847 83.5471 63.0996 84.7208 60.9679 85.6811C58.4098 86.8548 57.1841 87.1749 56.5978 87.1749ZM56.5445 86.428C57.6104 86.6414 63.9523 83.4937 65.2314 82.6401C65.6044 82.3733 65.8709 81.9999 65.9242 81.5731C66.0308 81.1463 65.9242 80.6661 65.6577 80.2927C65.3913 79.9192 65.0182 79.6525 64.5919 79.5991C64.1655 79.4924 63.6859 79.5991 63.3128 79.8659C62.0871 80.7195 56.7577 85.361 56.5445 86.428Z" fill="#5E696B"/>
<path d="M31.3899 110.703C30.7504 110.703 30.1642 110.436 29.6845 110.009C29.2049 109.529 28.9917 108.942 28.9917 108.302C28.9917 107.662 29.2582 107.075 29.6845 106.595C29.7378 106.541 37.3055 99.9257 38.5312 101.153C39.757 102.38 33.1486 109.956 33.0953 110.009C32.669 110.436 32.0294 110.703 31.3899 110.703ZM37.9983 101.633C36.9324 101.633 31.3366 105.954 30.2175 107.075C29.5779 107.715 29.5779 108.782 30.2175 109.422C30.857 110.062 31.9228 110.062 32.5624 109.422C33.7348 108.355 38.0516 102.753 37.9983 101.633Z" fill="#5E696B"/>
<path d="M54.9454 85.3075C54.7855 85.3075 54.6256 85.2541 54.519 85.1474C54.2525 84.8807 53.7729 84.4005 56.5975 80.5059C57.9831 78.5853 59.5819 76.6647 59.955 76.2912C60.3813 75.8644 61.0208 75.5977 61.6603 75.5977C62.2999 75.5977 62.8861 75.8644 63.3657 76.2912C63.8454 76.7714 64.0585 77.3582 64.0585 77.9984C64.0585 78.6386 63.7921 79.2255 63.3657 79.7057C63.3124 79.759 56.9705 85.3075 54.9454 85.3075ZM55.052 84.6139C56.1711 84.6139 61.7136 80.2925 62.8328 79.1721C63.4723 78.5319 63.4723 77.4649 62.8328 76.8247C62.1933 76.1845 61.1274 76.1845 60.4879 76.8247C59.3687 77.8917 55.052 83.4936 55.052 84.6139Z" fill="#5E696B"/>
<path d="M34.6406 113.37C34.161 113.37 33.7346 113.21 33.3083 112.943C32.1891 112.196 31.9226 110.702 32.6687 109.635C32.722 109.529 38.8508 101.579 40.2897 102.54C41.7286 103.5 36.719 112.196 36.6657 112.303C36.2927 112.836 35.7598 113.21 35.1202 113.317C34.9604 113.317 34.8005 113.37 34.6406 113.37ZM33.255 110.009C32.722 110.756 32.9352 111.823 33.7346 112.356C34.1077 112.623 34.534 112.676 35.0137 112.623C35.44 112.516 35.8131 112.303 36.0795 111.929C36.9855 110.596 40.1298 104.247 39.8633 103.233C38.7975 103.34 34.161 108.675 33.255 110.009Z" fill="#5E696B"/>
<path d="M53.1868 83.867C53.0269 83.867 52.9203 83.8137 52.867 83.7603C51.4281 82.8 56.4377 74.1038 56.491 73.9971C57.2371 72.8768 58.7293 72.61 59.7952 73.3569C60.3281 73.7304 60.7011 74.2639 60.8077 74.9041C60.9143 75.5443 60.8077 76.1845 60.4347 76.718C60.1149 77.1982 58.5694 79.1188 56.9706 80.826C54.5724 83.3335 53.6131 83.867 53.1868 83.867ZM58.4628 73.6237C57.9299 73.6237 57.3969 73.8904 57.0772 74.3706C56.1712 75.7044 53.0269 82.0531 53.2934 83.0667C54.3592 82.8533 58.9958 77.5183 59.9018 76.1845C60.1682 75.8111 60.2215 75.3843 60.1682 74.9041C60.0616 74.4773 59.8484 74.1038 59.4754 73.8371C59.1023 73.7304 58.7826 73.6237 58.4628 73.6237Z" fill="#5E696B"/>
<path d="M38.3712 115.344C38.0515 115.344 37.7317 115.291 37.4652 115.184C36.879 114.917 36.3994 114.49 36.1862 113.904C35.9197 113.317 35.9197 112.676 36.1862 112.09C36.3994 111.556 37.5718 109.369 38.7976 107.341C41.3023 103.233 41.9419 103.5 42.2616 103.607C42.5814 103.767 43.2209 103.98 42.1017 108.675C41.5688 110.969 40.8227 113.317 40.6095 113.85C40.1832 114.757 39.2772 115.344 38.3712 115.344ZM41.9419 104.247C40.9293 104.674 37.4119 110.809 36.8257 112.25C36.6658 112.676 36.6658 113.103 36.8257 113.53C36.9856 113.957 37.3053 114.277 37.7317 114.437C38.5844 114.811 39.5437 114.384 39.9167 113.53C40.5029 112.09 42.3682 105.261 41.9419 104.247Z" fill="#5E696B"/>
<path d="M51.0549 82.6933C51.0016 82.6933 50.9483 82.6933 50.895 82.6399C49.2962 81.9997 52.4938 72.45 52.5471 72.3433C52.8136 71.7564 53.2399 71.2763 53.8261 71.0629C54.4124 70.7961 55.0519 70.7961 55.6381 71.0629C56.2243 71.3296 56.704 71.7564 56.9171 72.3433C57.1836 72.9301 57.1836 73.5703 56.9171 74.1572C56.9171 74.3172 52.7603 82.6933 51.0549 82.6933ZM54.7321 71.6497C54.519 71.6497 54.3058 71.7031 54.0926 71.7564C53.6663 71.9165 53.3465 72.2366 53.1866 72.6634C52.6004 74.1572 50.7351 80.9861 51.1615 81.9464C52.174 81.5196 55.6914 75.3843 56.2776 73.9438C56.4375 73.517 56.4375 73.0902 56.2776 72.6634C56.1177 72.2366 55.798 71.9165 55.3717 71.7564C55.1585 71.7031 54.9453 71.6497 54.7321 71.6497Z" fill="#5E696B"/>
<path d="M42.3683 116.518C42.2085 116.518 42.0486 116.518 41.8887 116.464C40.6097 116.197 39.757 114.917 40.0234 113.637C40.0234 113.53 42.6881 103.873 44.3402 104.194C46.0456 104.514 44.7132 114.49 44.7132 114.597C44.5001 115.771 43.4875 116.518 42.3683 116.518ZM40.7162 113.797C40.5564 114.704 41.1426 115.611 42.0486 115.771C42.9546 115.931 43.8606 115.344 44.0204 114.437C44.3402 112.89 44.8198 105.794 44.1803 104.94C43.2743 105.527 41.036 112.25 40.7162 113.797Z" fill="#5E696B"/>
<path d="M48.9235 82.0532C48.8702 82.0532 48.8169 82.0532 48.7636 82.0532C48.3906 81.9998 47.751 81.8398 47.9109 77.0382C48.0175 74.6908 48.2307 72.2366 48.3906 71.6498C48.4971 71.0096 48.8702 70.4761 49.4031 70.1026C49.9361 69.7292 50.5756 69.6225 51.2151 69.7292C51.8546 69.8359 52.3876 70.2093 52.7606 70.7428C53.1337 71.2763 53.2403 71.9165 53.1337 72.5567C53.0271 73.0903 52.3343 75.491 51.4816 77.6784C49.9894 81.6264 49.2965 82.0532 48.9235 82.0532ZM50.7355 70.4227C50.4157 70.4227 50.0959 70.5294 49.8295 70.6895C49.4564 70.9562 49.19 71.3297 49.1367 71.7565C48.8169 73.3037 48.3373 80.3993 48.9768 81.2529C49.8828 80.666 52.1211 73.9439 52.4409 72.3967C52.5474 71.9699 52.4409 71.4897 52.1744 71.1163C51.9079 70.7428 51.5349 70.4761 51.1085 70.4227C50.9486 70.4227 50.8421 70.4227 50.7355 70.4227Z" fill="#5E696B"/>
<path d="M46.5249 130.122C45.086 130.122 43.9136 128.948 43.9136 127.508C43.9136 127.401 44.713 116.251 46.5249 116.251C48.3902 116.251 49.1363 127.401 49.1363 127.508C49.1896 128.948 48.0172 130.122 46.5249 130.122ZM46.5249 116.998C45.6723 117.638 44.6064 125.534 44.6064 127.508C44.6064 128.575 45.4591 129.429 46.5249 129.429C47.5908 129.429 48.4435 128.575 48.4435 127.508C48.4435 125.534 47.3776 117.638 46.5249 116.998Z" fill="#5E696B"/>
<path d="M46.5249 69.9959C44.6597 69.9959 43.9136 58.8456 43.9136 58.7389C43.9136 57.2985 45.086 56.1248 46.5249 56.1248C47.9639 56.1248 49.1363 57.2985 49.1363 58.7389C49.1896 58.899 48.3902 69.9959 46.5249 69.9959ZM46.5249 56.8717C45.4591 56.8717 44.6064 57.7253 44.6064 58.7923C44.6064 60.7129 45.6723 68.6622 46.5249 69.3024C47.3776 68.6622 48.4435 60.7663 48.4435 58.7923C48.4435 57.7253 47.5908 56.8717 46.5249 56.8717Z" fill="#5E696B"/>
<path d="M51.428 129.749C50.1489 129.749 49.0298 128.788 48.8166 127.508C48.8166 127.401 47.9639 116.251 49.8292 115.984C51.6944 115.718 54.0393 126.601 54.0393 126.761C54.2525 128.202 53.2399 129.535 51.801 129.749C51.6944 129.749 51.5345 129.749 51.428 129.749ZM49.5627 127.401C49.7226 128.468 50.6819 129.162 51.7477 129.002C52.8136 128.842 53.5064 127.882 53.3465 126.815C53.08 124.894 50.895 117.211 49.989 116.678C49.1896 117.478 49.2429 125.481 49.5627 127.401Z" fill="#5E696B"/>
<path d="M43.114 70.2626C42.6877 70.2626 41.9949 69.8358 40.5559 65.301C39.7565 62.7935 39.117 60.126 39.0637 59.4857C38.9571 58.7922 39.117 58.0986 39.5434 57.5118C39.9697 56.9249 40.5559 56.6048 41.2487 56.4981C42.6877 56.2847 44.02 57.2984 44.2332 58.7388C44.3398 59.379 44.4463 62.0999 44.3931 64.7675C44.2865 70.1025 43.5937 70.2092 43.2206 70.2626C43.2206 70.2626 43.1673 70.2626 43.114 70.2626ZM41.6751 57.1917C41.5685 57.1917 41.5152 57.1917 41.4086 57.1917C40.929 57.245 40.4493 57.5118 40.1296 57.9386C39.8098 58.3654 39.7032 58.8455 39.7565 59.379C40.023 61.2997 42.208 68.9822 43.114 69.5157C43.8601 68.7688 43.8068 60.7662 43.4871 58.8455C43.4338 57.8852 42.5811 57.1917 41.6751 57.1917Z" fill="#5E696B"/>
<path d="M56.2245 128.735C55.1054 128.735 54.0395 127.988 53.7198 126.868C53.6665 126.761 51.3215 115.877 53.0802 115.344C54.8389 114.81 58.7293 125.267 58.7826 125.374C59.209 126.761 58.4096 128.255 57.0239 128.628C56.7042 128.682 56.4377 128.735 56.2245 128.735ZM53.2401 115.984C52.6539 116.838 53.8263 124.734 54.3593 126.601C54.679 127.615 55.6916 128.201 56.7042 127.881C57.7168 127.561 58.303 126.548 57.9832 125.534C57.5569 123.987 54.2527 116.411 53.2401 115.984Z" fill="#5E696B"/>
<path d="M39.8101 71.0096C39.3838 71.0096 38.5843 70.4761 36.6658 66.4748C35.5466 64.1274 34.534 61.5666 34.3209 60.9264C34.1077 60.2328 34.2143 59.5392 34.534 58.899C34.8538 58.2588 35.44 57.832 36.0796 57.6186C37.4652 57.1918 38.9574 57.9921 39.3304 59.3792C39.3837 59.4859 41.7287 70.3694 39.97 70.9029C39.97 70.9563 39.9167 71.0096 39.8101 71.0096ZM36.879 58.2588C36.7191 58.2588 36.5059 58.2588 36.346 58.3122C35.8664 58.4722 35.44 58.7923 35.2269 59.2191C34.9604 59.6459 34.9071 60.1795 35.067 60.6596C35.5999 62.5269 38.8508 69.7826 39.8634 70.2094C40.4496 69.3558 39.2772 61.4599 38.7442 59.5926C38.4778 58.7923 37.6784 58.2588 36.879 58.2588Z" fill="#5E696B"/>
<path d="M60.8078 127.028C60.488 127.028 60.1683 126.974 59.9018 126.868C59.2623 126.601 58.7293 126.121 58.4096 125.48C58.1431 124.894 57.2371 122.279 56.5443 119.772C55.1054 114.597 55.7982 114.33 56.118 114.17C57.8234 113.423 63.1527 123.186 63.1527 123.293C63.7389 124.627 63.1527 126.174 61.8736 126.761C61.5539 126.921 61.1808 127.028 60.8078 127.028ZM56.4377 114.81C55.9581 115.771 58.2497 123.4 59.0491 125.16C59.2623 125.641 59.6353 125.961 60.115 126.174C60.5946 126.334 61.1276 126.334 61.5539 126.121C62.5132 125.694 62.9395 124.574 62.5132 123.613C61.7138 121.799 57.4503 115.077 56.4377 114.81Z" fill="#5E696B"/>
<path d="M36.6657 72.1834C36.186 72.1834 35.3334 71.6499 32.9884 68.1287C31.5495 65.9414 30.1639 63.5406 29.8974 62.9537C29.631 62.3135 29.5777 61.62 29.8441 60.9264C30.1106 60.2862 30.5902 59.7527 31.2298 59.4326C31.8693 59.1658 32.5621 59.1125 33.2549 59.3792C33.8944 59.646 34.4274 60.1261 34.7471 60.7664C34.8004 60.8731 38.6908 71.3298 37.0387 72.0767C36.8789 72.13 36.7723 72.1834 36.6657 72.1834ZM32.2956 59.9661C32.0292 59.9661 31.7627 60.0194 31.4962 60.1261C31.0166 60.3395 30.6968 60.713 30.4837 61.1932C30.3238 61.6733 30.3238 62.2068 30.5369 62.6336C31.3363 64.3942 35.5998 71.1164 36.6124 71.3831C37.092 70.4228 34.8004 62.7937 34.001 61.0331C33.7878 60.5529 33.4148 60.2328 32.9351 60.0194C32.722 60.0194 32.5088 59.9661 32.2956 59.9661Z" fill="#5E696B"/>
<path d="M65.1245 124.68C64.9114 124.68 64.7515 124.68 64.5383 124.627C63.8455 124.467 63.2593 124.093 62.8862 123.453C62.8329 123.346 57.4503 113.583 59.0491 112.57C60.5946 111.556 67.2563 120.519 67.3096 120.626C67.6826 121.212 67.8425 121.906 67.6826 122.6C67.5227 123.293 67.1497 123.88 66.5101 124.253C66.0838 124.52 65.6042 124.68 65.1245 124.68ZM59.4221 113.21C59.1024 114.224 62.4598 121.426 63.4724 123.08C63.7389 123.507 64.1652 123.827 64.6449 123.933C65.1245 124.04 65.6575 123.933 66.0838 123.667C66.5102 123.4 66.8299 122.973 66.9365 122.493C67.0431 122.013 66.9365 121.479 66.67 121.052C65.6574 119.345 60.488 113.317 59.4221 113.21Z" fill="#5E696B"/>
<path d="M33.788 73.7838C31.8162 73.7838 25.8473 65.7812 25.794 65.6745C24.9946 64.4474 25.3677 62.7936 26.5934 62.0467C27.8192 61.2464 29.4713 61.6199 30.2174 62.8469C30.5371 63.3804 31.8162 65.8346 32.882 68.2353C35.0138 73.1436 34.4275 73.5171 34.0545 73.7305C34.0012 73.7305 33.8946 73.7838 33.788 73.7838ZM27.979 62.3134C27.606 62.3134 27.2862 62.4201 26.9665 62.6335C26.0605 63.2204 25.8473 64.3941 26.3802 65.2477C27.4461 66.9016 32.6156 72.9302 33.6814 73.0369C34.0012 72.0232 30.6437 64.8209 29.6311 63.167C29.2581 62.6335 28.6186 62.3134 27.979 62.3134Z" fill="#5E696B"/>
<path d="M69.0146 121.693C68.9613 121.693 68.908 121.693 68.8014 121.693C68.1086 121.639 67.4691 121.319 66.9895 120.786C66.5631 120.305 64.9643 118.065 63.5787 115.824C60.7541 111.289 61.3404 110.809 61.6068 110.542C61.9266 110.276 62.4596 109.795 66.5631 113.263C68.5883 114.97 70.5601 116.838 70.9865 117.318C71.9458 118.438 71.8392 120.092 70.72 121.052C70.2404 121.479 69.6542 121.693 69.0146 121.693ZM62.1398 111.129C61.9266 112.143 66.2967 118.865 67.5757 120.305C68.2685 121.106 69.4943 121.212 70.2404 120.519C71.0398 119.825 71.1464 118.598 70.4536 117.851C69.1745 116.358 63.2589 111.129 62.1398 111.129Z" fill="#5E696B"/>
<path d="M30.9635 75.8645C30.4306 75.8645 29.3114 75.3843 26.4869 72.9836C24.4617 71.2763 22.4899 69.4091 22.0635 68.9289C21.5839 68.3954 21.3707 67.7018 21.424 67.0083C21.4773 66.3147 21.7971 65.6745 22.33 65.1944C22.8629 64.7142 23.5557 64.5008 24.2486 64.5541C24.9414 64.6075 25.5809 64.9276 26.0605 65.4611C26.4869 65.9413 28.0857 68.182 29.4713 70.4227C32.2959 74.9575 31.7096 75.4377 31.4432 75.7044C31.3366 75.7578 31.23 75.8645 30.9635 75.8645ZM24.0887 65.2477C23.609 65.2477 23.1827 65.4078 22.8629 65.7279C22.4899 66.048 22.2234 66.5281 22.2234 67.0083C22.1701 67.5418 22.33 68.0219 22.703 68.3954C23.9821 69.8892 29.951 75.1176 31.0168 75.0642C31.23 74.0506 26.8599 67.3284 25.5809 65.8879C25.2611 65.5145 24.7815 65.2477 24.3019 65.2477C24.142 65.2477 24.142 65.2477 24.0887 65.2477Z" fill="#5E696B"/>
<path d="M72.4787 118.225C71.8925 118.225 71.253 118.011 70.7733 117.585C70.2937 117.158 68.3752 115.184 66.7231 113.157C63.3123 109.049 63.7919 108.515 64.0051 108.195C65.2308 106.808 74.1308 113.477 74.2374 113.583C75.3566 114.544 75.4632 116.197 74.5039 117.318C73.9177 117.958 73.2249 118.225 72.4787 118.225ZM64.538 108.728C64.4847 109.795 69.7608 115.771 71.1997 117.051C71.9991 117.745 73.2248 117.638 73.8644 116.838C74.1841 116.464 74.344 115.984 74.344 115.451C74.2907 114.917 74.0775 114.49 73.7045 114.17C72.2656 112.89 65.6039 108.568 64.538 108.728Z" fill="#5E696B"/>
<path d="M28.565 78.2652C27.9788 78.2652 26.753 77.8384 23.8752 76.0245C21.6368 74.6373 19.3985 73.0368 18.9189 72.61C18.3859 72.1299 18.0662 71.4897 18.0129 70.7961C17.9596 70.1025 18.1728 69.409 18.6524 68.8755C19.6117 67.7551 21.2638 67.6484 22.3829 68.6087C22.8626 69.0355 24.7811 71.0095 26.4332 73.0368C29.844 77.1448 29.3644 77.6783 29.1512 77.9984C28.9913 78.1051 28.8847 78.2652 28.565 78.2652ZM20.6243 68.7154C20.0913 68.7154 19.5584 68.9288 19.1853 69.3556C18.8656 69.7291 18.7057 70.2092 18.7057 70.7427C18.759 71.2763 18.9722 71.7031 19.3452 72.0232C20.8374 73.3036 27.4991 77.625 28.5117 77.4649C28.565 76.3979 23.2889 70.4226 21.85 69.1422C21.477 68.8755 21.0506 68.7154 20.6243 68.7154Z" fill="#5E696B"/>
<path d="M75.4101 114.33C74.9305 114.33 74.3975 114.17 73.9712 113.904C73.8646 113.85 64.9646 107.181 65.9239 105.634C66.9365 104.087 76.6891 109.422 76.7957 109.475C78.0215 110.276 78.3945 111.876 77.5951 113.103C77.2221 113.69 76.6358 114.117 75.943 114.277C75.7832 114.33 75.57 114.33 75.4101 114.33ZM74.3975 113.317C74.8239 113.583 75.3568 113.69 75.8364 113.583C76.3161 113.477 76.7424 113.157 77.0089 112.73C77.5951 111.823 77.3287 110.649 76.4227 110.116C74.7706 109.049 67.576 105.688 66.5634 106.061C66.67 107.075 72.7454 112.25 74.3975 113.317Z" fill="#5E696B"/>
<path d="M26.38 80.9861C25.6871 80.9861 24.4081 80.666 21.6369 79.4389C19.2386 78.3719 16.7871 77.0915 16.2542 76.7714C15.668 76.3979 15.2416 75.8111 15.0818 75.1175C14.9219 74.424 15.0818 73.7304 15.4548 73.1436C16.2542 71.9165 17.853 71.543 19.0788 72.3433C19.6117 72.6634 21.7967 74.3706 23.7153 76.1312C27.7123 79.7057 27.2859 80.2925 27.0728 80.6126C27.0195 80.7727 26.9129 80.9861 26.38 80.9861ZM17.6931 72.6634C17.0536 72.6634 16.4674 72.9835 16.0943 73.517C15.8279 73.9438 15.7213 74.4773 15.8279 74.9575C15.9345 75.4376 16.2542 75.8644 16.6806 76.1845C18.3327 77.2516 25.5273 80.6126 26.5398 80.2392C26.4333 79.1722 20.4111 73.9972 18.759 72.9301C18.386 72.7701 18.0129 72.6634 17.6931 72.6634Z" fill="#5E696B"/>
<path d="M77.7552 110.009C77.3821 110.009 77.0091 109.956 76.6893 109.795C76.5827 109.742 66.7767 104.407 67.5761 102.753C68.3222 101.046 78.7678 104.994 78.8743 105.047C79.5139 105.314 79.9935 105.848 80.26 106.541C80.5264 107.181 80.4731 107.928 80.2067 108.568C79.727 109.475 78.7678 110.009 77.7552 110.009ZM76.9558 109.155C77.9151 109.582 79.0342 109.155 79.4606 108.195C79.6737 107.715 79.6737 107.235 79.5139 106.754C79.354 106.274 78.9809 105.901 78.5013 105.687C76.7426 104.887 69.1217 102.593 68.1624 103.073C68.4821 104.034 75.1971 108.302 76.9558 109.155Z" fill="#5E696B"/>
<path d="M24.4618 83.9738C23.7157 83.9738 22.33 83.7604 19.9318 83.1202C17.4271 82.4267 14.8157 81.5197 14.2295 81.2529C12.8971 80.6661 12.3109 79.0656 12.9504 77.7852C13.2169 77.1449 13.7498 76.6648 14.4426 76.398C15.0822 76.1313 15.8283 76.1846 16.4678 76.4514C17.054 76.7181 19.4522 78.1053 21.6372 79.5457C26.0606 82.48 25.7941 83.1736 25.6342 83.547C25.4744 83.7071 25.3145 83.9738 24.4618 83.9738ZM15.3486 76.9315C15.1354 76.9315 14.9223 76.9849 14.6558 77.0382C14.1762 77.1983 13.8031 77.5717 13.5899 78.0519C13.1636 79.0122 13.5899 80.1326 14.5492 80.5594C16.3079 81.3596 23.9289 83.6537 24.8881 83.1736C24.6217 82.1599 17.9067 77.8919 16.148 77.0916C15.8815 76.9849 15.6151 76.9315 15.3486 76.9315Z" fill="#5E696B"/>
<path d="M79.4603 105.421C79.1938 105.421 78.9806 105.367 78.7142 105.314C78.6076 105.261 68.1621 101.42 68.695 99.6056C69.2279 97.845 80.0998 100.192 80.2064 100.246C81.592 100.673 82.3914 102.113 81.9651 103.5C81.7519 104.194 81.3256 104.727 80.686 105.047C80.313 105.314 79.8866 105.421 79.4603 105.421ZM78.9273 104.621C79.407 104.781 79.9399 104.727 80.3663 104.46C80.7926 104.194 81.1124 103.82 81.2722 103.34C81.592 102.326 81.0058 101.259 79.9932 100.993C78.1279 100.459 70.2405 99.2321 69.3878 99.8723C69.8142 100.833 77.0621 104.087 78.9273 104.621Z" fill="#5E696B"/>
<path d="M22.3299 87.2814C21.5305 87.2814 20.4113 87.2281 18.8125 87.0147C16.2011 86.6946 13.4832 86.1611 12.897 86.001C11.5113 85.5742 10.7119 84.1337 11.1383 82.7466C11.5646 81.3595 13.0035 80.5592 14.3892 80.9861C14.9754 81.1461 17.5335 82.1598 19.9317 83.3335C24.7281 85.6276 24.5682 86.3211 24.4083 86.6946C24.3017 86.8546 24.1952 87.2814 22.3299 87.2814ZM13.6431 81.5196C12.8437 81.5196 12.0443 82.0531 11.8311 82.9067C11.5113 83.9203 12.0976 84.9874 13.1101 85.2541C14.9754 85.7876 22.8628 87.0147 23.7155 86.3745C23.3425 85.4142 16.0413 82.1064 14.176 81.5729C13.9628 81.5729 13.803 81.5196 13.6431 81.5196Z" fill="#5E696B"/>
<path d="M80.5262 100.673C80.4196 100.673 80.2597 100.673 80.1531 100.619C80.0465 100.619 69.1747 98.2719 69.3879 96.4046C69.6543 94.5907 80.7926 95.3909 80.8992 95.3909C82.3381 95.6043 83.3507 96.9381 83.1376 98.3786C82.9244 99.7123 81.8052 100.673 80.5262 100.673ZM70.1339 96.5113C70.6669 97.4182 78.3411 99.6056 80.2597 99.8724C81.3256 100.032 82.2849 99.2855 82.4447 98.2719C82.6046 97.2048 81.8585 96.2445 80.8459 96.0845C78.8741 95.8711 70.8801 95.8177 70.1339 96.5113Z" fill="#5E696B"/>
<path d="M17.2139 91.0161C14.9223 91.0161 12.7905 90.9094 12.2043 90.8027C11.5115 90.696 10.872 90.3226 10.4989 89.7891C10.0726 89.2022 9.91269 88.5087 10.0193 87.8151C10.1259 87.1215 10.4989 86.4813 11.0319 86.1079C11.6181 85.6811 12.3109 85.521 13.0037 85.6277C13.1103 85.6277 23.9822 87.9751 23.769 89.8424C23.7157 90.2159 23.6091 90.9628 18.2798 91.0161C17.8534 91.0161 17.5337 91.0161 17.2139 91.0161ZM12.5774 86.3213C12.151 86.3213 11.778 86.428 11.4582 86.6947C11.0319 87.0148 10.7654 87.4416 10.7121 87.9751C10.6588 88.4553 10.7654 88.9888 11.0851 89.4156C11.4049 89.8424 11.8313 90.1092 12.3642 90.1625C14.2828 90.4293 22.2768 90.4826 23.0229 89.7891C22.49 88.8821 14.8157 86.6947 12.8971 86.428C12.7373 86.3213 12.684 86.3213 12.5774 86.3213Z" fill="#5E696B"/>
<path d="M80.846 95.7643C80.7394 95.7643 69.6011 94.964 69.6011 93.1501C69.6011 91.3362 80.7394 90.5359 80.846 90.5359C82.2849 90.5359 83.4574 91.7096 83.4574 93.1501C83.5107 94.5905 82.2849 95.7643 80.846 95.7643ZM70.3472 93.1501C70.9867 94.0037 78.8741 95.0707 80.846 95.0707C81.9119 95.0707 82.7646 94.2171 82.7646 93.1501C82.7646 92.0831 81.9119 91.2294 80.846 91.2294C78.9274 91.2294 71.04 92.2965 70.3472 93.1501Z" fill="#5E696B"/>
<path d="M12.2574 95.7643C10.8184 95.7643 9.646 94.5905 9.646 93.1501C9.646 91.7096 10.8184 90.5359 12.2574 90.5359C12.364 90.5359 23.5023 91.3362 23.5023 93.1501C23.5023 94.964 12.364 95.7643 12.2574 95.7643ZM12.2574 91.2294C11.1915 91.2294 10.3388 92.0831 10.3388 93.1501C10.3388 94.2171 11.1915 95.0707 12.2574 95.0707C14.1759 95.0707 22.1167 94.0037 22.7562 93.1501C22.0634 92.2965 14.1759 91.2294 12.2574 91.2294Z" fill="#5E696B"/>
<path d="M75.6767 91.0162C72.6923 91.0162 69.548 90.8028 69.3881 89.8424C69.1217 88.0285 79.9935 85.6278 80.1534 85.6278C81.5923 85.4143 82.9246 86.428 83.1378 87.8685C83.351 89.3089 82.3384 90.6427 80.8995 90.8561C80.8462 90.8561 78.3414 91.0162 75.6767 91.0162ZM70.1342 89.7357C70.8803 90.4827 78.8743 90.4293 80.7929 90.1092C81.8588 89.9492 82.5516 88.9888 82.3917 87.9218C82.2318 86.8548 81.2725 86.1613 80.2067 86.3213C78.2881 86.6414 70.6671 88.8288 70.1342 89.7357Z" fill="#5E696B"/>
<path d="M12.5774 100.673C11.9911 100.673 11.4582 100.513 11.0319 100.139C10.4456 99.7123 10.1259 99.1255 10.0193 98.4319C9.91269 97.7383 10.0726 97.0448 10.4989 96.4579C10.9253 95.8711 11.5115 95.551 12.2043 95.4443C12.8438 95.3376 15.5618 95.2309 18.2265 95.2842C23.5558 95.3909 23.6624 96.0845 23.7157 96.4579C23.769 96.8314 23.8756 97.5783 18.7594 99.1255C16.2546 99.9257 13.5899 100.566 12.9504 100.619C12.8438 100.619 12.684 100.673 12.5774 100.673ZM12.3109 96.1378C11.8313 96.1912 11.3516 96.4579 11.0319 96.8847C10.7121 97.3115 10.6055 97.7917 10.6588 98.3252C10.7121 98.8054 10.9786 99.2855 11.4049 99.6056C11.8313 99.9257 12.3109 100.032 12.8438 99.9791C14.7624 99.7123 22.4367 97.5249 22.9696 96.618C22.2235 95.8177 14.2295 95.8711 12.3109 96.1378Z" fill="#5E696B"/>
<path d="M70.9866 87.2815C69.7609 87.2815 68.8549 87.1215 68.695 86.6413C68.1621 84.8807 78.6076 80.9862 78.7142 80.9328C79.407 80.7194 80.0998 80.8261 80.7393 81.1462C81.3788 81.4663 81.8052 82.0532 82.0184 82.6934C82.4447 84.0805 81.6453 85.5743 80.2597 85.9478C80.1531 86.0011 74.3441 87.2815 70.9866 87.2815ZM69.3878 86.4279C70.2405 87.0148 78.1279 85.8411 79.9932 85.3076C81.0058 84.9874 81.592 83.9738 81.2722 82.9601C81.1124 82.48 80.7926 82.0532 80.3662 81.8398C79.9399 81.573 79.407 81.5197 78.9273 81.6797C77.0621 82.1599 69.8142 85.4143 69.3878 86.4279Z" fill="#5E696B"/>
<path d="M13.6431 105.421C12.5239 105.421 11.458 104.674 11.1383 103.554C10.7119 102.166 11.5113 100.673 12.897 100.299C13.4832 100.139 16.2011 99.6056 18.8125 99.2855C24.0886 98.5919 24.3017 99.2855 24.4083 99.6589C24.5149 100.032 24.7281 100.726 19.9317 103.02C17.5868 104.14 15.0287 105.154 14.3892 105.367C14.1227 105.421 13.8562 105.421 13.6431 105.421ZM13.1101 100.993C12.0976 101.313 11.5113 102.326 11.8311 103.34C12.1509 104.354 13.2167 104.941 14.176 104.621C16.0413 104.087 23.2892 100.833 23.7155 99.819C22.8095 99.2321 14.9754 100.406 13.1101 100.993Z" fill="#5E696B"/>
<path d="M68.7484 83.9739C68.1089 83.9739 67.6825 83.8672 67.5227 83.5471C66.7765 81.8399 76.5292 76.5048 76.6358 76.5048C77.9682 75.918 79.5137 76.5048 80.0999 77.7852C80.3664 78.4255 80.4197 79.119 80.1532 79.8126C79.8867 80.4528 79.4071 80.9863 78.7676 81.3064C78.7676 81.3064 71.6795 83.9739 68.7484 83.9739ZM68.2155 83.227C69.1747 83.7072 76.7957 81.4131 78.5544 80.6128C79.034 80.3994 79.3538 80.026 79.567 79.5458C79.7268 79.0657 79.7268 78.5322 79.5137 78.1053C79.0873 77.145 77.9682 76.7182 77.0089 77.145C75.1969 77.9453 68.4819 82.2134 68.2155 83.227Z" fill="#5E696B"/>
<path d="M15.3484 110.009C15.0286 110.009 14.7088 109.956 14.4424 109.849C13.8029 109.582 13.2699 109.102 12.9502 108.462C12.6837 107.822 12.6304 107.128 12.8969 106.434C13.1633 105.794 13.643 105.261 14.2825 104.941C14.8687 104.674 17.4801 103.767 19.9849 103.073C25.1544 101.633 25.4208 102.326 25.5807 102.647C25.7406 103.02 26.0603 103.66 21.5837 106.648C19.3987 108.088 17.0005 109.475 16.4142 109.742C16.0945 109.956 15.7214 110.009 15.3484 110.009ZM24.4615 102.967C22.5963 102.967 16.1478 104.941 14.549 105.634C14.0693 105.848 13.7496 106.221 13.5364 106.701C13.3765 107.181 13.3765 107.715 13.5897 108.142C13.8029 108.622 14.1759 108.942 14.6556 109.155C15.1352 109.315 15.6681 109.315 16.0945 109.102C17.8532 108.302 24.5681 104.034 24.8346 103.02C24.7813 102.967 24.6214 102.967 24.4615 102.967Z" fill="#5E696B"/>
<path d="M66.7234 80.9328C66.3504 80.9328 66.0839 80.8261 65.9773 80.666C64.9647 79.1189 73.918 72.45 74.0246 72.3967C74.6108 72.0232 75.3036 71.8632 75.9964 72.0232C76.6893 72.1833 77.2755 72.5567 77.6486 73.1969C78.448 74.424 78.0749 76.0245 76.8492 76.8248C76.7426 76.8248 69.2815 80.9328 66.7234 80.9328ZM66.5635 80.2392C67.5761 80.6127 74.7707 77.1982 76.4228 76.1846C77.3288 75.5977 77.542 74.424 77.009 73.5704C76.7426 73.1436 76.3162 72.8235 75.8366 72.7168C75.3569 72.6101 74.824 72.7168 74.3976 72.9835C72.7455 73.9972 66.6701 79.1722 66.5635 80.2392Z" fill="#5E696B"/>
<path d="M17.6931 114.33C16.8404 114.33 15.9877 113.903 15.4548 113.103C15.0818 112.516 14.9219 111.823 15.0818 111.129C15.2416 110.436 15.6147 109.849 16.2542 109.475C16.7871 109.155 19.2386 107.875 21.6369 106.808C26.5398 104.674 26.9129 105.261 27.1261 105.634C27.3392 105.954 27.7123 106.594 23.7686 110.116C21.7967 111.876 19.665 113.583 19.1321 113.903C18.6524 114.17 18.1728 114.33 17.6931 114.33ZM26.3267 106.008C24.8345 106.008 18.2261 109.102 16.6806 110.116C16.2542 110.382 15.9345 110.809 15.8279 111.343C15.7213 111.823 15.8279 112.356 16.0943 112.783C16.6806 113.69 17.853 113.903 18.7057 113.37C20.3578 112.303 26.38 107.128 26.4866 106.061C26.4333 106.008 26.38 106.008 26.3267 106.008Z" fill="#5E696B"/>
<path d="M64.5382 78.2652C64.2184 78.2652 64.0585 78.1051 64.0053 77.9984C63.7388 77.6783 63.2592 77.1448 66.7232 73.0368C68.4286 71.0095 70.2939 69.0355 70.7735 68.6087C71.8927 67.6484 73.5448 67.7551 74.5041 68.8755C74.9837 69.409 75.1969 70.1025 75.1436 70.7961C75.0903 71.4897 74.7705 72.1299 74.2376 72.61C73.758 73.0368 71.5196 74.6373 69.2813 76.0245C66.3502 77.8384 65.1244 78.2652 64.5382 78.2652ZM64.5382 77.5183C65.5508 77.6783 72.2657 73.3569 73.7047 72.0765C74.0777 71.7564 74.3442 71.2763 74.3442 70.7961C74.3975 70.2626 74.2376 69.7824 73.8645 69.409C73.1717 68.6087 71.946 68.502 71.1999 69.1956C69.7609 70.476 64.4849 76.4513 64.5382 77.5183Z" fill="#5E696B"/>
<path d="M20.6243 118.225C19.8782 118.225 19.1321 117.905 18.6525 117.318C17.6932 116.198 17.7998 114.544 18.9189 113.583C19.0255 113.53 27.9255 106.808 29.1513 108.195C29.4177 108.515 29.8974 109.049 26.4333 113.157C24.7279 115.184 22.8626 117.158 22.383 117.585C21.8501 118.065 21.2105 118.225 20.6243 118.225ZM28.4584 108.729C27.2327 108.729 20.7842 112.943 19.3453 114.17C18.9722 114.49 18.7058 114.971 18.7058 115.451C18.6525 115.984 18.8123 116.464 19.1854 116.838C19.8782 117.638 21.104 117.745 21.8501 117.051C23.3423 115.771 28.565 109.796 28.5117 108.729C28.5117 108.729 28.5117 108.729 28.4584 108.729Z" fill="#5E696B"/>
<path d="M62.0865 75.8645C61.8733 75.8645 61.7134 75.7578 61.6601 75.7044C61.3404 75.4377 60.8075 74.9575 63.632 70.4227C65.0176 68.182 66.6164 65.9413 67.0428 65.4611C67.5224 64.9276 68.1619 64.6075 68.8548 64.5541C69.5476 64.5008 70.2404 64.7142 70.7733 65.1944C71.8925 66.1547 71.9991 67.8085 71.0398 68.9289C70.6134 69.4091 68.6416 71.3297 66.6164 72.9836C63.7386 75.331 62.6194 75.8645 62.0865 75.8645ZM62.1398 75.1176C63.2589 75.1176 69.1745 69.8892 70.4536 68.4487C71.1464 67.6485 71.0398 66.4214 70.2404 65.7812C69.441 65.0877 68.2152 65.1944 67.5757 65.9946C66.2967 67.3817 61.9266 74.0506 62.1398 75.1176Z" fill="#5E696B"/>
<path d="M24.0886 121.693C23.4491 121.693 22.8629 121.479 22.3832 121.052C21.8503 120.572 21.5305 119.932 21.4772 119.238C21.4239 118.545 21.6371 117.851 22.1168 117.318C22.1701 117.211 30.0575 109.315 31.4431 110.542C31.7629 110.809 32.2958 111.289 29.4712 115.824C28.0856 118.065 26.4868 120.305 26.0605 120.786C25.5808 121.319 24.9413 121.639 24.2485 121.693C24.1952 121.693 24.1419 121.693 24.0886 121.693ZM22.6497 117.851C22.3299 118.225 22.1701 118.705 22.1701 119.238C22.2233 119.772 22.4365 120.199 22.8096 120.519C23.1826 120.839 23.6623 120.999 24.1952 120.999C24.7281 120.946 25.1545 120.732 25.4742 120.359C26.7533 118.865 31.1233 112.196 30.9102 111.183C29.8443 111.129 23.8754 116.358 22.6497 117.851Z" fill="#5E696B"/>
<path d="M59.3156 73.7837C59.209 73.7837 59.1024 73.7837 59.0491 73.7304C57.5036 72.7167 62.833 62.9535 62.8863 62.8468C63.2593 62.26 63.8455 61.8332 64.5384 61.6731C65.2312 61.5131 65.924 61.6731 66.5102 62.0466C67.0965 62.42 67.5228 63.0069 67.6827 63.7005C67.8426 64.394 67.6827 65.0876 67.3096 65.6744C67.2563 65.7278 61.2875 73.7837 59.3156 73.7837ZM65.0713 62.3133C64.9114 62.3133 64.8048 62.3133 64.645 62.3667C64.1653 62.4734 63.739 62.7935 63.4725 63.2203C62.4066 64.8742 59.0492 72.0765 59.4222 73.0902C60.4881 72.9835 65.6575 66.9015 66.7234 65.301C66.9899 64.8742 67.0965 64.3407 66.9899 63.8605C66.8833 63.3803 66.5635 62.9535 66.1372 62.6868C65.8174 62.42 65.4443 62.3133 65.0713 62.3133Z" fill="#5E696B"/>
<path d="M27.9791 124.68C27.4995 124.68 27.0198 124.52 26.5402 124.253C25.3144 123.453 24.9414 121.853 25.7408 120.626C25.7941 120.519 32.4558 111.609 34.0013 112.57C34.321 112.783 34.9606 113.157 32.8288 118.065C31.763 120.466 30.4839 122.92 30.1642 123.453C29.6845 124.2 28.8318 124.68 27.9791 124.68ZM26.3803 120.999C25.7941 121.906 26.0606 123.08 26.9665 123.613C27.8725 124.2 29.045 123.933 29.5779 123.026C30.6438 121.373 34.0013 114.17 33.6282 113.157C32.6156 113.317 27.4462 119.345 26.3803 120.999Z" fill="#5E696B"/>
<path d="M56.3312 72.13C56.2779 72.13 56.1713 72.13 56.118 72.0767C55.745 71.9166 55.1054 71.5965 56.5444 66.4749C57.2372 63.9674 58.1432 61.3532 58.4096 60.7664C58.6761 60.1261 59.2091 59.646 59.9019 59.3792C60.5414 59.1125 61.2875 59.1658 61.927 59.4326C63.2594 60.0194 63.8456 61.62 63.206 62.9004C63.1528 63.0604 58.1965 72.13 56.3312 72.13ZM60.8078 59.9661C60.5947 59.9661 60.3815 60.0194 60.115 60.0728C59.6354 60.2328 59.2623 60.6063 59.0492 61.0865C58.2498 62.847 55.9582 70.4762 56.4378 71.4365C57.4504 71.1697 61.7138 64.4475 62.5132 62.687C62.9396 61.7267 62.5132 60.6063 61.554 60.1795C61.3408 60.0194 61.0743 59.9661 60.8078 59.9661Z" fill="#5E696B"/>
<path d="M32.2956 127.028C31.9226 127.028 31.5495 126.921 31.2298 126.814C30.5902 126.548 30.1106 126.014 29.8441 125.321C29.5777 124.68 29.631 123.933 29.8974 123.293C30.1639 122.706 31.5495 120.306 32.9884 118.118C35.9196 113.69 36.6124 113.957 36.9854 114.117C38.6908 114.864 34.7471 125.321 34.6938 125.427C34.4274 126.067 33.8944 126.548 33.2016 126.814C32.9351 126.974 32.6154 127.028 32.2956 127.028ZM36.6657 114.81C35.6531 115.077 31.3896 121.799 30.5902 123.56C30.3771 124.04 30.3771 124.52 30.5369 125C30.6968 125.481 31.0699 125.854 31.5495 126.067C32.0292 126.281 32.5088 126.281 32.9884 126.121C33.4681 125.961 33.8411 125.587 34.0543 125.107C34.8537 123.4 37.1453 115.771 36.6657 114.81Z" fill="#5E696B"/>
<path d="M53.1869 70.9562C53.1336 70.9562 53.0803 70.9562 53.027 70.9562C51.2683 70.4227 53.6132 59.5391 53.6665 59.4324C54.0929 58.0453 55.5318 57.245 56.9174 57.6718C58.303 58.0987 59.1024 59.5391 58.6761 60.9262C58.7294 61.0329 54.9989 70.9562 53.1869 70.9562ZM56.2246 58.2587C55.4252 58.2587 54.6258 58.7922 54.4126 59.6458C53.8797 61.5131 52.6539 69.409 53.2935 70.2626C54.306 69.8358 57.6102 62.3134 58.0899 60.7128C58.4096 59.6992 57.8234 58.6322 56.8108 58.3654C56.5444 58.2587 56.3845 58.2587 56.2246 58.2587Z" fill="#5E696B"/>
<path d="M36.8789 128.735C36.6124 128.735 36.3992 128.682 36.1328 128.628C35.44 128.415 34.907 127.988 34.5873 127.348C34.2675 126.708 34.1609 126.014 34.3741 125.321C34.534 124.734 35.5465 122.173 36.719 119.772C39.0106 114.971 39.7034 115.131 40.0765 115.291C41.8352 115.824 39.4903 126.708 39.437 126.814C39.0639 127.988 37.998 128.735 36.8789 128.735ZM39.81 115.984C38.8507 116.358 35.5466 123.667 35.0136 125.534C34.8537 126.014 34.907 126.548 35.1735 126.974C35.44 127.401 35.813 127.721 36.2927 127.881C37.3052 128.202 38.3711 127.615 38.6376 126.601C39.2771 124.734 40.4495 116.891 39.81 115.984Z" fill="#5E696B"/>
<path d="M49.8826 70.2626H49.8293C48.0174 69.9958 48.8168 58.8455 48.8168 58.7388C49.0299 57.2984 50.3623 56.2847 51.8012 56.4981C53.2401 56.7115 54.2527 58.0453 54.0395 59.4857C54.0395 59.5924 51.6946 70.2626 49.8826 70.2626ZM51.4281 57.1917C50.4689 57.1917 49.6695 57.8852 49.5629 58.8455C49.2964 60.7662 49.2431 68.7688 49.9359 69.5157C50.8419 68.9822 53.0269 61.2997 53.2934 59.379C53.4533 58.312 52.7072 57.3517 51.6946 57.1917C51.588 57.245 51.5347 57.1917 51.4281 57.1917Z" fill="#5E696B"/>
<path d="M41.6755 129.749C41.5689 129.749 41.409 129.749 41.3025 129.695C40.6096 129.589 39.9701 129.215 39.5971 128.682C39.1707 128.095 39.0108 127.401 39.1174 126.708C39.224 126.068 39.8635 123.4 40.6097 120.893C42.2085 115.771 42.9013 115.878 43.2743 115.931C43.6474 115.984 44.3935 116.091 44.4468 121.426C44.5001 124.04 44.3402 126.815 44.2869 127.455C44.1803 128.148 43.8073 128.788 43.2743 129.162C42.7947 129.589 42.2085 129.749 41.6755 129.749ZM43.1677 116.731C42.2617 117.265 40.0767 124.947 39.8102 126.868C39.757 127.348 39.8635 127.882 40.1833 128.308C40.5031 128.735 40.9294 129.002 41.4623 129.055C41.942 129.109 42.4749 129.002 42.9013 128.682C43.3276 128.362 43.5941 127.935 43.6474 127.401C43.8072 125.481 43.8605 117.478 43.1677 116.731Z" fill="#5E696B"/>
</g>
<path d="M45.5 415C42.4265 415 40 412.493 40 409.5C40 406.426 42.5074 404 45.5 404C48.5736 404 51 406.507 51 409.5C51.0809 412.493 48.5736 415 45.5 415ZM45.5 404.971C43.0735 404.971 41.0515 406.993 41.0515 409.419C41.0515 411.846 43.0735 413.868 45.5 413.868C47.9265 413.868 49.9486 411.846 49.9486 409.419C49.9486 406.993 47.9265 404.971 45.5 404.971Z" fill="#98B2B9"/>
</svg>
