<?xml version="1.0" encoding="UTF-8"?>
<svg id="Layer_2" data-name="Layer 2" xmlns="http://www.w3.org/2000/svg" viewBox="0 0 609.63 628.81">
  <defs>
    <style>
      .cls-1 {
        fill: none;
        stroke: #fff;
        stroke-miterlimit: 10;
        stroke-width: 3.64px;
      }
    </style>
  </defs>
  <g id="Layer_1-2" data-name="Layer 1">
    <g>
      <g>
        <g>
          <line class="cls-1" x1="14.21" x2="14.21" y2="28.42"/>
          <line class="cls-1" y1="14.21" x2="28.42" y2="14.21"/>
        </g>
        <g>
          <line class="cls-1" x1="97.24" y1=".1" x2="97.24" y2="28.52"/>
          <line class="cls-1" x1="83.03" y1="14.31" x2="111.45" y2="14.31"/>
        </g>
        <g>
          <line class="cls-1" x1="180.27" y1=".2" x2="180.27" y2="28.62"/>
          <line class="cls-1" x1="166.06" y1="14.41" x2="194.48" y2="14.41"/>
        </g>
        <g>
          <line class="cls-1" x1="263.3" y1=".3" x2="263.3" y2="28.73"/>
          <line class="cls-1" x1="249.09" y1="14.51" x2="277.51" y2="14.51"/>
        </g>
        <g>
          <line class="cls-1" x1="346.33" y1=".41" x2="346.33" y2="28.83"/>
          <line class="cls-1" x1="332.12" y1="14.62" x2="360.54" y2="14.62"/>
        </g>
        <g>
          <line class="cls-1" x1="429.36" y1=".51" x2="429.36" y2="28.93"/>
          <line class="cls-1" x1="415.15" y1="14.72" x2="443.57" y2="14.72"/>
        </g>
        <g>
          <line class="cls-1" x1="512.39" y1=".61" x2="512.39" y2="29.03"/>
          <line class="cls-1" x1="498.18" y1="14.82" x2="526.6" y2="14.82"/>
        </g>
        <g>
          <line class="cls-1" x1="595.42" y1=".71" x2="595.42" y2="29.13"/>
          <line class="cls-1" x1="581.21" y1="14.92" x2="609.63" y2="14.92"/>
        </g>
      </g>
      <g>
        <g>
          <line class="cls-1" x1="14.21" y1="66.63" x2="14.21" y2="95.05"/>
          <line class="cls-1" y1="80.84" x2="28.42" y2="80.84"/>
        </g>
        <g>
          <line class="cls-1" x1="97.24" y1="66.73" x2="97.24" y2="95.15"/>
          <line class="cls-1" x1="83.03" y1="80.94" x2="111.45" y2="80.94"/>
        </g>
        <g>
          <line class="cls-1" x1="180.27" y1="66.83" x2="180.27" y2="95.26"/>
          <line class="cls-1" x1="166.06" y1="81.04" x2="194.48" y2="81.04"/>
        </g>
        <g>
          <line class="cls-1" x1="263.3" y1="66.94" x2="263.3" y2="95.36"/>
          <line class="cls-1" x1="249.09" y1="81.15" x2="277.51" y2="81.15"/>
        </g>
        <g>
          <line class="cls-1" x1="346.33" y1="67.04" x2="346.33" y2="95.46"/>
          <line class="cls-1" x1="332.12" y1="81.25" x2="360.54" y2="81.25"/>
        </g>
        <g>
          <line class="cls-1" x1="429.36" y1="67.14" x2="429.36" y2="95.56"/>
          <line class="cls-1" x1="415.15" y1="81.35" x2="443.57" y2="81.35"/>
        </g>
        <g>
          <line class="cls-1" x1="512.39" y1="67.24" x2="512.39" y2="95.66"/>
          <line class="cls-1" x1="498.18" y1="81.45" x2="526.6" y2="81.45"/>
        </g>
        <g>
          <line class="cls-1" x1="595.42" y1="67.34" x2="595.42" y2="95.76"/>
          <line class="cls-1" x1="581.21" y1="81.55" x2="609.63" y2="81.55"/>
        </g>
      </g>
      <g>
        <g>
          <line class="cls-1" x1="14.21" y1="133.26" x2="14.21" y2="161.68"/>
          <line class="cls-1" y1="147.47" x2="28.42" y2="147.47"/>
        </g>
        <g>
          <line class="cls-1" x1="97.24" y1="133.36" x2="97.24" y2="161.78"/>
          <line class="cls-1" x1="83.03" y1="147.57" x2="111.45" y2="147.57"/>
        </g>
        <g>
          <line class="cls-1" x1="180.27" y1="133.47" x2="180.27" y2="161.89"/>
          <line class="cls-1" x1="166.06" y1="147.68" x2="194.48" y2="147.68"/>
        </g>
        <g>
          <line class="cls-1" x1="263.3" y1="133.57" x2="263.3" y2="161.99"/>
          <line class="cls-1" x1="249.09" y1="147.78" x2="277.51" y2="147.78"/>
        </g>
        <g>
          <line class="cls-1" x1="346.33" y1="133.67" x2="346.33" y2="162.09"/>
          <line class="cls-1" x1="332.12" y1="147.88" x2="360.54" y2="147.88"/>
        </g>
        <g>
          <line class="cls-1" x1="429.36" y1="133.77" x2="429.36" y2="162.19"/>
          <line class="cls-1" x1="415.15" y1="147.98" x2="443.57" y2="147.98"/>
        </g>
        <g>
          <line class="cls-1" x1="512.39" y1="133.87" x2="512.39" y2="162.29"/>
          <line class="cls-1" x1="498.18" y1="148.08" x2="526.6" y2="148.08"/>
        </g>
        <g>
          <line class="cls-1" x1="595.42" y1="133.97" x2="595.42" y2="162.39"/>
          <line class="cls-1" x1="581.21" y1="148.18" x2="609.63" y2="148.18"/>
        </g>
      </g>
      <g>
        <g>
          <line class="cls-1" x1="14.21" y1="199.89" x2="14.21" y2="228.31"/>
          <line class="cls-1" y1="214.1" x2="28.42" y2="214.1"/>
        </g>
        <g>
          <line class="cls-1" x1="97.24" y1="200" x2="97.24" y2="228.42"/>
          <line class="cls-1" x1="83.03" y1="214.21" x2="111.45" y2="214.21"/>
        </g>
        <g>
          <line class="cls-1" x1="180.27" y1="200.1" x2="180.27" y2="228.52"/>
          <line class="cls-1" x1="166.06" y1="214.31" x2="194.48" y2="214.31"/>
        </g>
        <g>
          <line class="cls-1" x1="263.3" y1="200.2" x2="263.3" y2="228.62"/>
          <line class="cls-1" x1="249.09" y1="214.41" x2="277.51" y2="214.41"/>
        </g>
        <g>
          <line class="cls-1" x1="346.33" y1="200.3" x2="346.33" y2="228.72"/>
          <line class="cls-1" x1="332.12" y1="214.51" x2="360.54" y2="214.51"/>
        </g>
        <g>
          <line class="cls-1" x1="429.36" y1="200.4" x2="429.36" y2="228.82"/>
          <line class="cls-1" x1="415.15" y1="214.61" x2="443.57" y2="214.61"/>
        </g>
        <g>
          <line class="cls-1" x1="512.39" y1="200.5" x2="512.39" y2="228.92"/>
          <line class="cls-1" x1="498.18" y1="214.71" x2="526.6" y2="214.71"/>
        </g>
        <g>
          <line class="cls-1" x1="595.42" y1="200.6" x2="595.42" y2="229.03"/>
          <line class="cls-1" x1="581.21" y1="214.81" x2="609.63" y2="214.81"/>
        </g>
      </g>
      <g>
        <g>
          <line class="cls-1" x1="14.21" y1="266.52" x2="14.21" y2="294.95"/>
          <line class="cls-1" y1="280.74" x2="28.42" y2="280.74"/>
        </g>
        <g>
          <line class="cls-1" x1="97.24" y1="266.63" x2="97.24" y2="295.05"/>
          <line class="cls-1" x1="83.03" y1="280.84" x2="111.45" y2="280.84"/>
        </g>
        <g>
          <line class="cls-1" x1="180.27" y1="266.73" x2="180.27" y2="295.15"/>
          <line class="cls-1" x1="166.06" y1="280.94" x2="194.48" y2="280.94"/>
        </g>
        <g>
          <line class="cls-1" x1="263.3" y1="266.83" x2="263.3" y2="295.25"/>
          <line class="cls-1" x1="249.09" y1="281.04" x2="277.51" y2="281.04"/>
        </g>
        <g>
          <line class="cls-1" x1="346.33" y1="266.93" x2="346.33" y2="295.35"/>
          <line class="cls-1" x1="332.12" y1="281.14" x2="360.54" y2="281.14"/>
        </g>
        <g>
          <line class="cls-1" x1="429.36" y1="267.03" x2="429.36" y2="295.45"/>
          <line class="cls-1" x1="415.15" y1="281.24" x2="443.57" y2="281.24"/>
        </g>
        <g>
          <line class="cls-1" x1="512.39" y1="267.13" x2="512.39" y2="295.55"/>
          <line class="cls-1" x1="498.18" y1="281.34" x2="526.6" y2="281.34"/>
        </g>
        <g>
          <line class="cls-1" x1="595.42" y1="267.24" x2="595.42" y2="295.66"/>
          <line class="cls-1" x1="581.21" y1="281.45" x2="609.63" y2="281.45"/>
        </g>
      </g>
      <g>
        <g>
          <line class="cls-1" x1="14.21" y1="333.16" x2="14.21" y2="361.58"/>
          <line class="cls-1" y1="347.37" x2="28.42" y2="347.37"/>
        </g>
        <g>
          <line class="cls-1" x1="97.24" y1="333.26" x2="97.24" y2="361.68"/>
          <line class="cls-1" x1="83.03" y1="347.47" x2="111.45" y2="347.47"/>
        </g>
        <g>
          <line class="cls-1" x1="180.27" y1="333.36" x2="180.27" y2="361.78"/>
          <line class="cls-1" x1="166.06" y1="347.57" x2="194.48" y2="347.57"/>
        </g>
        <g>
          <line class="cls-1" x1="263.3" y1="333.46" x2="263.3" y2="361.88"/>
          <line class="cls-1" x1="249.09" y1="347.67" x2="277.51" y2="347.67"/>
        </g>
        <g>
          <line class="cls-1" x1="346.33" y1="333.56" x2="346.33" y2="361.98"/>
          <line class="cls-1" x1="332.12" y1="347.77" x2="360.54" y2="347.77"/>
        </g>
        <g>
          <line class="cls-1" x1="429.36" y1="333.66" x2="429.36" y2="362.08"/>
          <line class="cls-1" x1="415.15" y1="347.87" x2="443.57" y2="347.87"/>
        </g>
        <g>
          <line class="cls-1" x1="512.39" y1="333.76" x2="512.39" y2="362.19"/>
          <line class="cls-1" x1="498.18" y1="347.98" x2="526.6" y2="347.98"/>
        </g>
        <g>
          <line class="cls-1" x1="595.42" y1="333.87" x2="595.42" y2="362.29"/>
          <line class="cls-1" x1="581.21" y1="348.08" x2="609.63" y2="348.08"/>
        </g>
      </g>
      <g>
        <g>
          <line class="cls-1" x1="14.21" y1="399.79" x2="14.21" y2="428.21"/>
          <line class="cls-1" y1="414" x2="28.42" y2="414"/>
        </g>
        <g>
          <line class="cls-1" x1="97.24" y1="399.89" x2="97.24" y2="428.31"/>
          <line class="cls-1" x1="83.03" y1="414.1" x2="111.45" y2="414.1"/>
        </g>
        <g>
          <line class="cls-1" x1="180.27" y1="399.99" x2="180.27" y2="428.41"/>
          <line class="cls-1" x1="166.06" y1="414.2" x2="194.48" y2="414.2"/>
        </g>
        <g>
          <line class="cls-1" x1="263.3" y1="400.09" x2="263.3" y2="428.51"/>
          <line class="cls-1" x1="249.09" y1="414.3" x2="277.51" y2="414.3"/>
        </g>
        <g>
          <line class="cls-1" x1="346.33" y1="400.19" x2="346.33" y2="428.61"/>
          <line class="cls-1" x1="332.12" y1="414.4" x2="360.54" y2="414.4"/>
        </g>
        <g>
          <line class="cls-1" x1="429.36" y1="400.29" x2="429.36" y2="428.72"/>
          <line class="cls-1" x1="415.15" y1="414.51" x2="443.57" y2="414.51"/>
        </g>
        <g>
          <line class="cls-1" x1="512.39" y1="400.4" x2="512.39" y2="428.82"/>
          <line class="cls-1" x1="498.18" y1="414.61" x2="526.6" y2="414.61"/>
        </g>
        <g>
          <line class="cls-1" x1="595.42" y1="400.5" x2="595.42" y2="428.92"/>
          <line class="cls-1" x1="581.21" y1="414.71" x2="609.63" y2="414.71"/>
        </g>
      </g>
      <g>
        <g>
          <line class="cls-1" x1="14.21" y1="466.42" x2="14.21" y2="494.84"/>
          <line class="cls-1" y1="480.63" x2="28.42" y2="480.63"/>
        </g>
        <g>
          <line class="cls-1" x1="97.24" y1="466.52" x2="97.24" y2="494.94"/>
          <line class="cls-1" x1="83.03" y1="480.73" x2="111.45" y2="480.73"/>
        </g>
        <g>
          <line class="cls-1" x1="180.27" y1="466.62" x2="180.27" y2="495.04"/>
          <line class="cls-1" x1="166.06" y1="480.83" x2="194.48" y2="480.83"/>
        </g>
        <g>
          <line class="cls-1" x1="263.3" y1="466.72" x2="263.3" y2="495.14"/>
          <line class="cls-1" x1="249.09" y1="480.93" x2="277.51" y2="480.93"/>
        </g>
        <g>
          <line class="cls-1" x1="346.33" y1="466.82" x2="346.33" y2="495.25"/>
          <line class="cls-1" x1="332.12" y1="481.03" x2="360.54" y2="481.03"/>
        </g>
        <g>
          <line class="cls-1" x1="429.36" y1="466.93" x2="429.36" y2="495.35"/>
          <line class="cls-1" x1="415.15" y1="481.14" x2="443.57" y2="481.14"/>
        </g>
        <g>
          <line class="cls-1" x1="512.39" y1="467.03" x2="512.39" y2="495.45"/>
          <line class="cls-1" x1="498.18" y1="481.24" x2="526.6" y2="481.24"/>
        </g>
        <g>
          <line class="cls-1" x1="595.42" y1="467.13" x2="595.42" y2="495.55"/>
          <line class="cls-1" x1="581.21" y1="481.34" x2="609.63" y2="481.34"/>
        </g>
      </g>
      <g>
        <g>
          <line class="cls-1" x1="14.21" y1="533.05" x2="14.21" y2="561.47"/>
          <line class="cls-1" y1="547.26" x2="28.42" y2="547.26"/>
        </g>
        <g>
          <line class="cls-1" x1="97.24" y1="533.15" x2="97.24" y2="561.57"/>
          <line class="cls-1" x1="83.03" y1="547.36" x2="111.45" y2="547.36"/>
        </g>
        <g>
          <line class="cls-1" x1="180.27" y1="533.25" x2="180.27" y2="561.67"/>
          <line class="cls-1" x1="166.06" y1="547.46" x2="194.48" y2="547.46"/>
        </g>
        <g>
          <line class="cls-1" x1="263.3" y1="533.35" x2="263.3" y2="561.77"/>
          <line class="cls-1" x1="249.09" y1="547.56" x2="277.51" y2="547.56"/>
        </g>
        <g>
          <line class="cls-1" x1="346.33" y1="533.46" x2="346.33" y2="561.88"/>
          <line class="cls-1" x1="332.12" y1="547.67" x2="360.54" y2="547.67"/>
        </g>
        <g>
          <line class="cls-1" x1="429.36" y1="533.56" x2="429.36" y2="561.98"/>
          <line class="cls-1" x1="415.15" y1="547.77" x2="443.57" y2="547.77"/>
        </g>
        <g>
          <line class="cls-1" x1="512.39" y1="533.66" x2="512.39" y2="562.08"/>
          <line class="cls-1" x1="498.18" y1="547.87" x2="526.6" y2="547.87"/>
        </g>
        <g>
          <line class="cls-1" x1="595.42" y1="533.76" x2="595.42" y2="562.18"/>
          <line class="cls-1" x1="581.21" y1="547.97" x2="609.63" y2="547.97"/>
        </g>
      </g>
      <g>
        <g>
          <line class="cls-1" x1="14.21" y1="599.68" x2="14.21" y2="628.1"/>
          <line class="cls-1" y1="613.89" x2="28.42" y2="613.89"/>
        </g>
        <g>
          <line class="cls-1" x1="97.24" y1="599.78" x2="97.24" y2="628.2"/>
          <line class="cls-1" x1="83.03" y1="613.99" x2="111.45" y2="613.99"/>
        </g>
        <g>
          <line class="cls-1" x1="180.27" y1="599.88" x2="180.27" y2="628.3"/>
          <line class="cls-1" x1="166.06" y1="614.09" x2="194.48" y2="614.09"/>
        </g>
        <g>
          <line class="cls-1" x1="263.3" y1="599.99" x2="263.3" y2="628.41"/>
          <line class="cls-1" x1="249.09" y1="614.2" x2="277.51" y2="614.2"/>
        </g>
        <g>
          <line class="cls-1" x1="346.33" y1="600.09" x2="346.33" y2="628.51"/>
          <line class="cls-1" x1="332.12" y1="614.3" x2="360.54" y2="614.3"/>
        </g>
        <g>
          <line class="cls-1" x1="429.36" y1="600.19" x2="429.36" y2="628.61"/>
          <line class="cls-1" x1="415.15" y1="614.4" x2="443.57" y2="614.4"/>
        </g>
        <g>
          <line class="cls-1" x1="512.39" y1="600.29" x2="512.39" y2="628.71"/>
          <line class="cls-1" x1="498.18" y1="614.5" x2="526.6" y2="614.5"/>
        </g>
        <g>
          <line class="cls-1" x1="595.42" y1="600.39" x2="595.42" y2="628.81"/>
          <line class="cls-1" x1="581.21" y1="614.6" x2="609.63" y2="614.6"/>
        </g>
      </g>
    </g>
  </g>
</svg>