<?xml version="1.0" encoding="UTF-8"?>
<svg xmlns="http://www.w3.org/2000/svg" xmlns:xlink="http://www.w3.org/1999/xlink" viewBox="0 0 778.38 1435.85">
  <defs>
    <style>
      .cls-1, .cls-2, .cls-3, .cls-4 {
        fill: none;
      }

      .cls-2 {
        stroke-width: 3.08px;
      }

      .cls-2, .cls-3, .cls-4, .cls-5 {
        stroke: #00c0f1;
        stroke-linecap: round;
        stroke-linejoin: round;
      }

      .cls-6 {
        filter: url(#luminosity-noclip-6);
      }

      .cls-7 {
        filter: url(#luminosity-noclip-7);
      }

      .cls-8 {
        filter: url(#luminosity-noclip-3);
      }

      .cls-9 {
        filter: url(#luminosity-noclip-4);
      }

      .cls-10 {
        filter: url(#luminosity-noclip-5);
      }

      .cls-11 {
        clip-path: url(#clippath);
      }

      .cls-12 {
        mask: url(#mask);
      }

      .cls-13 {
        filter: url(#luminosity-noclip);
      }

      .cls-14 {
        fill: url(#radial-gradient-6);
      }

      .cls-14, .cls-15, .cls-16, .cls-17, .cls-18, .cls-19, .cls-20 {
        mix-blend-mode: screen;
      }

      .cls-15 {
        fill: url(#radial-gradient-7);
      }

      .cls-3, .cls-5 {
        stroke-width: 3.33px;
      }

      .cls-4 {
        stroke-width: 3.32px;
      }

      .cls-21 {
        clip-path: url(#clippath-1);
      }

      .cls-16 {
        fill: url(#radial-gradient-5);
      }

      .cls-16, .cls-17, .cls-18, .cls-19 {
        opacity: .59;
      }

      .cls-17 {
        fill: url(#radial-gradient-3);
      }

      .cls-18 {
        fill: url(#radial-gradient-4);
      }

      .cls-19 {
        fill: url(#radial-gradient-2);
      }

      .cls-22 {
        isolation: isolate;
      }

      .cls-20 {
        fill: url(#radial-gradient);
      }

      .cls-23 {
        mask: url(#mask-3);
      }

      .cls-24 {
        mask: url(#mask-2);
      }

      .cls-25 {
        mask: url(#mask-5);
      }

      .cls-26 {
        mask: url(#mask-4);
      }

      .cls-27 {
        mask: url(#mask-1);
      }

      .cls-28 {
        mask: url(#mask-6);
      }
    </style>
    <clipPath id="clippath">
      <rect class="cls-1" x="249.33" y="0" width="529.05" height="1435.85" transform="translate(1027.71 1435.85) rotate(-180)"/>
    </clipPath>
    <filter id="luminosity-noclip" x="301.22" y="669.61" width="426.52" height="711.7" color-interpolation-filters="sRGB" filterUnits="userSpaceOnUse">
      <feFlood flood-color="#fff" result="bg"/>
      <feBlend in="SourceGraphic" in2="bg"/>
    </filter>
    <mask id="mask" x="301.22" y="669.61" width="426.52" height="711.7" maskUnits="userSpaceOnUse">
      <g class="cls-13">
        <circle cx="444.02" cy="1306.78" r="17.47"/>
      </g>
    </mask>
    <filter id="luminosity-noclip-2" x="301.22" y="-8931.22" width="426.52" height="32766" color-interpolation-filters="sRGB" filterUnits="userSpaceOnUse">
      <feFlood flood-color="#fff" result="bg"/>
      <feBlend in="SourceGraphic" in2="bg"/>
    </filter>
    <mask id="mask-1" x="301.22" y="-8931.22" width="426.52" height="32766" maskUnits="userSpaceOnUse"/>
    <filter id="luminosity-noclip-3" x="386.32" y="725.98" width="278.7" height="569.99" color-interpolation-filters="sRGB" filterUnits="userSpaceOnUse">
      <feFlood flood-color="#fff" result="bg"/>
      <feBlend in="SourceGraphic" in2="bg"/>
    </filter>
    <mask id="mask-2" x="386.32" y="725.98" width="278.7" height="569.99" maskUnits="userSpaceOnUse">
      <g class="cls-8">
        <g>
          <path d="m462.38,1222.69c0-8.83,7.16-15.99,15.99-15.99s15.99,7.16,15.99,15.99-7.16,15.99-15.99,15.99c-8.83,0-15.99-7.16-15.99-15.99Z"/>
          <path d="m386.32,1258.41c0-20.74,16.82-37.56,37.56-37.56,20.74,0,37.56,16.82,37.56,37.56s-16.82,37.56-37.56,37.56c-20.74,0-37.56-16.82-37.56-37.56Z"/>
        </g>
      </g>
    </mask>
    <filter id="luminosity-noclip-4" x="415.02" y="725.98" width="286.18" height="553.66" color-interpolation-filters="sRGB" filterUnits="userSpaceOnUse">
      <feFlood flood-color="#fff" result="bg"/>
      <feBlend in="SourceGraphic" in2="bg"/>
    </filter>
    <mask id="mask-3" x="415.02" y="725.98" width="286.18" height="553.66" maskUnits="userSpaceOnUse">
      <g class="cls-9">
        <circle class="cls-5" cx="661.97" cy="999.25" r="37.56"/>
      </g>
    </mask>
    <clipPath id="clippath-1">
      <path class="cls-1" d="m283.67,509.45l-.66-16.14c0-110.25,72.31-203.59,172.09-235.25,23.57-7.48,48.65-11.54,74.7-11.54,7.77,0,15.46.37,23.04,1.09,12.93,1.22,25.93-2.04,36.9-9.01,44.27-28.14,84.18,72.8,87.06,17.5.43-8.23,52.53,74.71,51.79,66.77-3.04-32.93-5.12,180.78-21.22,209.67-40.67,72.97-39.7,124.18-129.17,124.18-21.33,0-238.05-7.22-257.72-12.48l-36.82-134.79Z"/>
    </clipPath>
    <radialGradient id="radial-gradient" cx="2721.91" cy="306.13" fx="2721.91" fy="306.13" r="23.37" gradientTransform="translate(-2178.17 53.7) rotate(.66)" gradientUnits="userSpaceOnUse">
      <stop offset="0" stop-color="#fff"/>
      <stop offset=".12" stop-color="#b0e1f5"/>
      <stop offset=".24" stop-color="#63c3ec"/>
      <stop offset=".3" stop-color="#45b8e9"/>
      <stop offset=".36" stop-color="#45b8e9" stop-opacity=".82"/>
      <stop offset=".45" stop-color="#45b8e9" stop-opacity=".6"/>
      <stop offset=".54" stop-color="#45b8e9" stop-opacity=".42"/>
      <stop offset=".63" stop-color="#45b8e9" stop-opacity=".27"/>
      <stop offset=".72" stop-color="#45b8e9" stop-opacity=".15"/>
      <stop offset=".81" stop-color="#45b8e9" stop-opacity=".07"/>
      <stop offset=".9" stop-color="#45b8e9" stop-opacity=".02"/>
      <stop offset="1" stop-color="#45b8e9" stop-opacity="0"/>
    </radialGradient>
    <radialGradient id="radial-gradient-2" cx="3134.06" cy="165726.4" fx="3134.06" fy="165726.4" r="57.88" gradientTransform="translate(-10696.33 3525.19) rotate(-90) scale(1 .07)" gradientUnits="userSpaceOnUse">
      <stop offset="0" stop-color="#0fbfe7"/>
      <stop offset="0" stop-color="#0fbfe7" stop-opacity=".98"/>
      <stop offset=".12" stop-color="#0fbfe7" stop-opacity=".75"/>
      <stop offset=".23" stop-color="#0fbfe7" stop-opacity=".55"/>
      <stop offset=".34" stop-color="#0fbfe7" stop-opacity=".38"/>
      <stop offset=".46" stop-color="#0fbfe7" stop-opacity=".24"/>
      <stop offset=".58" stop-color="#0fbfe7" stop-opacity=".14"/>
      <stop offset=".71" stop-color="#0fbfe7" stop-opacity=".06"/>
      <stop offset=".84" stop-color="#0fbfe7" stop-opacity=".01"/>
      <stop offset="1" stop-color="#0fbfe7" stop-opacity="0"/>
    </radialGradient>
    <radialGradient id="radial-gradient-3" cx="2325.48" cy="168012.09" fx="2325.48" fy="168012.09" r="57.88" gradientTransform="translate(2863.58 11780.5) rotate(-180) scale(1 .07)" xlink:href="#radial-gradient-2"/>
    <radialGradient id="radial-gradient-4" cx="3131.73" cy="165789.06" fx="3131.73" fy="165789.06" r="52.27" xlink:href="#radial-gradient-2"/>
    <radialGradient id="radial-gradient-5" cx="2321.23" cy="167977.71" fx="2321.23" fy="167977.71" r="52.26" gradientTransform="translate(2863.58 11780.5) rotate(-180) scale(1 .07)" xlink:href="#radial-gradient-2"/>
    <radialGradient id="radial-gradient-6" cx="2186.34" cy="2243.78" fx="2186.34" fy="2243.78" r="9.34" gradientTransform="translate(-5439.1 3639.99) rotate(-43.58) scale(2.97 .84)" gradientUnits="userSpaceOnUse">
      <stop offset="0" stop-color="#fff"/>
      <stop offset="0" stop-color="#edf8fc"/>
      <stop offset=".03" stop-color="#c6e9f8"/>
      <stop offset=".06" stop-color="#a3dbf4"/>
      <stop offset=".09" stop-color="#85d0f0"/>
      <stop offset=".12" stop-color="#6dc7ed"/>
      <stop offset=".16" stop-color="#5bc0eb"/>
      <stop offset=".2" stop-color="#4ebbea"/>
      <stop offset=".26" stop-color="#47b8e9"/>
      <stop offset=".38" stop-color="#45b8e9"/>
      <stop offset=".45" stop-color="#45b8e9" stop-opacity=".81"/>
      <stop offset=".56" stop-color="#45b8e9" stop-opacity=".57"/>
      <stop offset=".66" stop-color="#45b8e9" stop-opacity=".37"/>
      <stop offset=".76" stop-color="#45b8e9" stop-opacity=".21"/>
      <stop offset=".85" stop-color="#45b8e9" stop-opacity=".09"/>
      <stop offset=".94" stop-color="#45b8e9" stop-opacity=".02"/>
      <stop offset="1" stop-color="#45b8e9" stop-opacity="0"/>
    </radialGradient>
    <radialGradient id="radial-gradient-7" cx="2151.95" cy="349.3" fx="2151.95" fy="349.3" r="9.34" gradientTransform="translate(-5736 308.75) rotate(-1.67) scale(2.97 .84)" xlink:href="#radial-gradient-6"/>
    <filter id="luminosity-noclip-5" x="266.8" y="691.25" width="260.8" height="103.64" color-interpolation-filters="sRGB" filterUnits="userSpaceOnUse">
      <feFlood flood-color="#fff" result="bg"/>
      <feBlend in="SourceGraphic" in2="bg"/>
    </filter>
    <mask id="mask-4" x="266.8" y="691.25" width="260.8" height="103.64" maskUnits="userSpaceOnUse">
      <g class="cls-10">
        <g>
          <path d="m268.27,772.8l4.39-6.26c-9.94,14.2,16.58,32.76,26.52,18.57l-4.39,6.26c-7.93,11.32-34.45-7.24-26.52-18.57Z"/>
          <path d="m299.7,784.34c2.53-3.62,2.52-8.39.44-12.72l-5.97,8.52c-4.96,7.08-19.72-3.26-14.76-10.34l6.11-8.73c-4.98-.66-9.71.94-12.34,4.7-4.12,5.88-1.52,14.8,5.8,19.93,7.32,5.13,16.6,4.52,20.71-1.36Z"/>
          <path d="m283.94,755.72l5.22-5.59c-9.46,10.14,14.22,32.22,23.67,22.08l-5.22,5.59c-7.54,8.09-31.22-13.99-23.67-22.08Z"/>
          <path d="m313.33,771.66c2.41-2.58,2.53-6.74.75-10.97l-5.68,6.09c-4.71,5.05-17.89-7.24-13.18-12.29l5.82-6.24c-4.52-1.69-8.88-1.34-11.38,1.34-3.92,4.2-1.79,12.55,4.74,18.64,6.54,6.1,15.01,7.63,18.93,3.43Z"/>
          <path d="m304.19,738.45l5.94-4.81c-8.08,6.54,12.29,31.7,20.37,25.16l-5.94,4.81c-6.45,5.22-26.82-19.94-20.37-25.16Z"/>
          <path d="m330.94,758.44c2.06-1.67,2.15-5.27.61-9.42l-4.85,3.93c-4.03,3.26-15.37-10.74-11.34-14.01l4.97-4.02c-3.89-2.59-7.62-3.37-9.76-1.64-3.35,2.71-1.5,10.54,4.12,17.49,5.63,6.95,12.9,10.38,16.25,7.67Z"/>
          <path d="m326.25,724.02l6.56-3.94c-5.94,3.57,10.73,31.32,16.67,27.75l-6.56,3.94c-4.74,2.85-21.41-24.9-16.67-27.75Z"/>
          <path d="m349.8,747.64c1.51-.91,1.44-4.07.08-8.15l-3.57,2.14c-2.96,1.78-12.24-13.67-9.28-15.45l3.65-2.2c-3.09-3.35-5.99-5.05-7.56-4.1-2.46,1.48-.72,8.89,3.88,16.55,4.6,7.66,10.33,12.68,12.79,11.2Z"/>
          <path d="m353.03,710.62l7.04-2.99c-3.19,1.35,9.46,31.15,12.65,29.8l-7.04,2.99c-2.55,1.08-15.19-28.72-12.65-29.8Z"/>
          <path d="m372.89,737.36c.81-.35.46-3.18-.75-7.22l-1.92.81c-1.59.68-8.63-15.91-7.04-16.59l1.96-.83c-2.17-3.92-4.06-6.33-4.91-5.97-1.32.56.44,7.69,3.93,15.91,3.49,8.23,7.4,14.44,8.72,13.88Z"/>
          <path d="m522.65,704.65l-6.93-3.23c15.71,7.32,2.03,36.66-13.68,29.34l6.93,3.23c12.53,5.84,26.21-23.49,13.68-29.34Z"/>
          <path d="m501.19,730.36c-4-1.87-6.38-6-6.74-10.8l9.43,4.4c7.83,3.65,15.45-12.68,7.62-16.33l-9.66-4.5c3.98-3.06,8.88-4.04,13.03-2.1,6.51,3.03,8.72,12.06,4.94,20.16-3.78,8.1-12.12,12.21-18.62,9.18Z"/>
          <path d="m500.53,697.69l-7.31-2.24c13.26,4.05,3.79,35.01-9.47,30.96l7.31,2.24c10.58,3.23,20.04-27.72,9.47-30.96Z"/>
          <path d="m483.04,726.19c-3.38-1.03-5.56-4.57-6.13-9.13l7.96,2.43c6.61,2.02,11.88-15.21,5.27-17.23l-8.15-2.49c3.07-3.72,7.02-5.6,10.52-4.53,5.49,1.68,7.83,9.97,5.21,18.52-2.61,8.55-9.18,14.12-14.68,12.44Z"/>
          <path d="m474.35,692.86l-7.55-1.2c10.27,1.63,5.21,33.6-5.07,31.97l7.55,1.2c8.19,1.3,13.26-30.67,5.07-31.97Z"/>
          <path d="m461.18,723.55c-2.62-.41-4.5-3.49-5.24-7.86l6.16.98c5.12.81,7.94-16.99,2.82-17.8l-6.32-1c2.07-4.19,4.92-6.72,7.63-6.29,4.25.67,6.57,8.38,5.17,17.21-1.4,8.83-5.98,15.44-10.24,14.77Z"/>
          <path d="m448.04,691.39l-7.65-.13c6.93.12,6.37,32.49-.57,32.37l7.65.13c5.53.1,6.1-32.27.57-32.37Z"/>
          <path d="m439.45,723.62c-1.77-.03-3.28-2.8-4.15-7.01l4.16.07c3.45.06,3.77-17.96.32-18.02l-4.26-.07c1-4.44,2.67-7.37,4.5-7.33,2.87.05,5.07,7.34,4.92,16.27-.16,8.94-2.61,16.14-5.48,16.09Z"/>
          <path d="m418.15,693.18l-7.59.93c3.44-.42,7.38,31.71,3.94,32.13l7.59-.93c2.74-.34-1.2-32.47-3.94-32.13Z"/>
          <path d="m414.32,726.26c-.88.11-1.99-2.52-2.96-6.63l2.07-.25c1.71-.21-.48-18.1-2.2-17.89l-2.12.26c-.08-4.48.36-7.51,1.27-7.62,1.43-.17,3.46,6.88,4.55,15.75,1.09,8.87.82,16.21-.61,16.38Z"/>
          <rect x="385.35" y="699.11" width="7.65" height="32.37" transform="translate(-171.85 125.08) rotate(-15)"/>
        </g>
      </g>
    </mask>
    <filter id="luminosity-noclip-6" x="381.48" y="702.7" width="281.88" height="575.28" color-interpolation-filters="sRGB" filterUnits="userSpaceOnUse">
      <feFlood flood-color="#fff" result="bg"/>
      <feBlend in="SourceGraphic" in2="bg"/>
    </filter>
    <filter id="luminosity-noclip-7" x="416.68" y="702.7" width="284.52" height="575.28" color-interpolation-filters="sRGB" filterUnits="userSpaceOnUse">
      <feFlood flood-color="#fff" result="bg"/>
      <feBlend in="SourceGraphic" in2="bg"/>
    </filter>
    <mask id="mask-6" x="416.68" y="702.7" width="284.52" height="575.28" maskUnits="userSpaceOnUse">
      <g class="cls-7">
        <circle class="cls-5" cx="661.97" cy="999.25" r="37.56"/>
      </g>
    </mask>
    <mask id="mask-5" x="381.48" y="702.7" width="281.88" height="575.28" maskUnits="userSpaceOnUse">
      <g class="cls-6">
        <g class="cls-28">
          <path d="m426.63,1277.98l2.82-3.91c.32-.45,32.61-45.58,57.1-109.85,22.57-59.23,42.94-147.29,11.85-230.5-21.32-57.05-45.14-100.64-70.8-129.57-9.12-10.28-12.77-23.88-10.01-37.32,2.74-13.38,11.41-24.39,23.76-30.21l71.96-33.92.58.31c21.78,11.63,43.12,26.88,61.71,44.12,32.75,30.37,56.86,66.22,71.66,106.58,33.39,91.06,6.37,169.22-5.16,202.59-21.18,61.27-59.27,114.83-113.23,159.2-29.65,24.38-63.48,45.31-97.82,60.53l-4.4,1.95Z"/>
        </g>
      </g>
    </mask>
  </defs>
  <g class="cls-22">
    <g id="Layer_2" data-name="Layer 2">
      <g id="Layer_1-2" data-name="Layer 1">
        <g class="cls-11">
          <g class="cls-12">
            <g>
              <g class="cls-27">
                <path class="cls-3" d="m573.76,671.28c10.64,4.38,21.09,9.62,31.28,15.72,34.81,20.85,64.77,50.52,84.36,83.54l.05.09c44.47,90.28,48.47,180.56,11.91,268.33-18.97,45.53-49.02,90.61-89.31,133.99-33.38,35.93-73.76,70.73-120.04,103.44-87.54,61.88-165.94,95.49-186.5,102.39l-2.61.88.98-2.58c25.62-67.54,66.15-204.51,49.82-363.05-7.62-73.99-19.52-140.22-35.49-197.66"/>
              </g>
              <path class="cls-3" d="m386.32,1258.41c0-20.74,16.82-37.56,37.56-37.56,20.74,0,37.56,16.82,37.56,37.56s-16.82,37.56-37.56,37.56c-20.74,0-37.56-16.82-37.56-37.56Z"/>
            </g>
          </g>
          <g class="cls-24">
            <g>
              <g class="cls-23">
                <path class="cls-3" d="m552.31,727.65c8.1,6.11,15.91,12.64,23.28,19.48,32.75,30.37,56.86,66.22,71.66,106.58,33.39,91.06,6.37,169.22-5.16,202.59-21.18,61.27-59.27,114.83-113.23,159.2-29.65,24.38-63.48,45.31-97.82,60.53l-4.4,1.95,2.82-3.91c.32-.45,32.61-45.58,57.1-109.85,22.57-59.23,42.94-147.29,11.85-230.5-21.32-57.05-45.14-100.64-70.8-129.57-9.12-10.28-12.77-23.88-10.01-37.32,1.66-8.12,5.51-15.36,11.03-21.11"/>
              </g>
              <path class="cls-3" d="m449.42,740.84c-20.64,13.74-24.98,43.15-7.89,62.42,21,23.67,46.16,63.38,71.05,129.98,52.54,140.58-38.32,294.63-63.11,332.7"/>
            </g>
          </g>
          <g>
            <path class="cls-3" d="m581.57,694.2c15.62,12.04,49.01,41.45,74.97,89.65,27.89,51.79,39.46,104.16,43.02,123.38,3.92-26.8,5.92-80.72-26.74-134.15-27.39-44.81-65.77-67.82-91.25-78.88Z"/>
            <g>
              <path class="cls-3" d="m482.22,700c6.1-12.49,18.93-21.1,33.77-21.1,20.74,0,37.56,16.82,37.56,37.56s-16.82,37.56-37.56,37.56c-18.69,0-34.2-13.65-37.08-31.53"/>
              <path class="cls-3" d="m497.95,696.3c4.78-4.28,11.1-6.89,18.03-6.89,14.94,0,27.05,12.11,27.05,27.05s-12.11,27.05-27.05,27.05c-10.31,0-19.27-5.77-23.83-14.25"/>
              <path class="cls-3" d="m501.49,698.12c3.18-1.32,6.67-2.05,10.34-2.05,14.94,0,27.05,12.11,27.05,27.05,0,3.85-.82,7.51-2.27,10.83,4-4.72,6.43-10.81,6.43-17.48,0-14.94-12.11-27.05-27.05-27.05-6.93,0-13.24,2.61-18.02,6.89"/>
            </g>
          </g>
          <g>
            <path class="cls-2" d="m653.23,67.12c-15.78,71.23-65.86,129.55-132.03,156.71,0,0-77.18,7.67-141.08,56.23-81.8,63.91-94.58,135.48-97.14,163.6"/>
            <path class="cls-3" d="m283.25,500.3l-.24-6.99c0-110.25,72.31-203.59,172.09-235.25,23.57-7.48,48.65-11.54,74.7-11.54,7.77,0,15.46.37,23.04,1.09,12.93,1.22,25.93-2.04,36.9-9.01,44.27-28.14,74.63-76.57,77.51-131.87.43-8.23.26-16.33-.48-24.28-3.04-32.93-19.04-35.8-35.14-6.92-40.67,72.97-191.44,125.78-218.28,135.11-26.84,9.34-144.42,88.58-149.54,206.17"/>
            <g class="cls-21">
              <g>
                <g>
                  <path class="cls-3" d="m386.31,352.13c5.44,3.64,44.27,35.96,40.63,41.41-3.64,5.44-48.36-18.05-53.8-21.69-5.44-3.64-6.91-11-3.27-16.45,3.64-5.44,11-6.91,16.45-3.27Z"/>
                  <path class="cls-3" d="m580.41,510.34c-5.44-3.64-44.27-35.96-40.63-41.41,3.64-5.44,48.36,18.05,53.8,21.69,5.44,3.64,6.91,11,3.27,16.45-3.64,5.44-11,6.91-16.45,3.27Z"/>
                </g>
                <path class="cls-3" d="m433.44,431.23c0-27.57,22.35-49.92,49.92-49.92,27.57,0,49.92,22.35,49.92,49.92s-22.35,49.92-49.92,49.92c-27.57,0-49.92-22.35-49.92-49.92Z"/>
                <path class="cls-3" d="m346.86,431.23c0-75.39,61.11-136.5,136.5-136.5,75.39,0,136.5,61.11,136.5,136.5s-61.11,136.5-136.5,136.5c-75.39,0-136.5-61.11-136.5-136.5Z"/>
                <path class="cls-3" d="m415.5,431.23c0-37.48,30.38-67.86,67.86-67.86,37.48,0,67.86,30.38,67.86,67.86s-30.38,67.86-67.86,67.86c-37.48,0-67.86-30.38-67.86-67.86Z"/>
                <path class="cls-3" d="m495.22,306.59c0,6.55-5.31,56.78-11.86,56.78-6.55,0-11.86-50.24-11.86-56.78s5.31-11.86,11.86-11.86c6.55,0,11.86,5.31,11.86,11.86Z"/>
                <path class="cls-3" d="m471.5,555.88c0-6.55,5.31-56.78,11.86-56.78,6.55,0,11.86,50.24,11.86,56.78s-5.31,11.86-11.86,11.86c-6.55,0-11.86-5.31-11.86-11.86Z"/>
                <g>
                  <path class="cls-3" d="m495.22,306.59c0,6.55-5.31,56.78-11.86,56.78-6.55,0-11.86-50.24-11.86-56.78s5.31-11.86,11.86-11.86c6.55,0,11.86,5.31,11.86,11.86Z"/>
                  <path class="cls-3" d="m471.5,555.88c0-6.55,5.31-56.78,11.86-56.78,6.55,0,11.86,50.24,11.86,56.78s-5.31,11.86-11.86,11.86c-6.55,0-11.86-5.31-11.86-11.86Z"/>
                </g>
                <g>
                  <path class="cls-3" d="m470.67,306.67c1.28,6.42,5.87,56.73-.55,58.01-6.42,1.28-21.43-46.96-22.71-53.38-1.28-6.42,2.89-12.66,9.32-13.94,6.42-1.28,12.66,2.89,13.94,9.32Z"/>
                  <path class="cls-3" d="m496.05,555.8c-1.28-6.42-5.87-56.73.55-58.01,6.42-1.28,21.43,46.96,22.71,53.38,1.28,6.42-2.89,12.66-9.32,13.94-6.42,1.28-12.66-2.89-13.94-9.32Z"/>
                </g>
                <g>
                  <path class="cls-3" d="m446.61,311.54c2.51,6.05,16.83,54.49,10.78,57-6.05,2.51-30.18-41.88-32.68-47.93-2.51-6.05.37-12.99,6.42-15.49,6.05-2.51,12.99.37,15.49,6.42Z"/>
                  <path class="cls-3" d="m520.11,550.93c-2.51-6.05-16.83-54.49-10.78-57,6.05-2.51,30.18,41.88,32.68,47.93,2.51,6.05-.37,12.99-6.42,15.49-6.05,2.51-12.99-.37-15.49-6.42Z"/>
                </g>
                <g>
                  <path class="cls-3" d="m423.97,321.01c3.64,5.44,27.13,50.16,21.69,53.8-5.44,3.64-37.77-35.18-41.41-40.63-3.64-5.44-2.17-12.81,3.27-16.45,5.44-3.64,12.81-2.17,16.45,3.27Z"/>
                  <path class="cls-3" d="m542.75,541.46c-3.64-5.44-27.13-50.16-21.69-53.8,5.44-3.64,37.77,35.18,41.41,40.63,3.64,5.44,2.17,12.81-3.27,16.45-5.44,3.64-12.81,2.17-16.45-3.27Z"/>
                </g>
                <g>
                  <path class="cls-3" d="m403.61,334.71c4.63,4.63,36.4,43.91,31.77,48.54-4.63,4.63-43.91-27.14-48.54-31.77-4.63-4.63-4.63-12.14,0-16.77,4.63-4.63,12.14-4.63,16.77,0Z"/>
                  <path class="cls-3" d="m563.11,527.75c-4.63-4.63-36.4-43.91-31.77-48.54,4.63-4.63,43.91,27.14,48.54,31.77,4.63,4.63,4.63,12.14,0,16.77-4.63,4.63-12.14,4.63-16.77,0Z"/>
                </g>
                <g>
                  <path class="cls-3" d="m372.74,372.58c6.05,2.51,50.43,26.63,47.93,32.68-2.51,6.05-50.95-8.27-57-10.78-6.05-2.51-8.92-9.44-6.42-15.49,2.51-6.05,9.44-8.92,15.49-6.42Z"/>
                  <path class="cls-3" d="m593.98,489.89c-6.05-2.51-50.43-26.63-47.93-32.68,2.51-6.05,50.95,8.27,57,10.78,6.05,2.51,8.92,9.44,6.42,15.49-2.51,6.05-9.44,8.92-15.49,6.42Z"/>
                </g>
                <g>
                  <path class="cls-3" d="m363.42,395.29c6.42,1.28,54.66,16.28,53.38,22.71-1.28,6.42-51.58,1.83-58.01.55-6.42-1.28-10.59-7.52-9.32-13.94,1.28-6.42,7.52-10.59,13.94-9.32Z"/>
                  <path class="cls-3" d="m603.3,467.18c-6.42-1.28-54.66-16.28-53.38-22.71,1.28-6.42,51.58-1.83,58.01-.55,6.42,1.28,10.59,7.52,9.32,13.94-1.28,6.42-7.52,10.59-13.94,9.32Z"/>
                </g>
                <g>
                  <path class="cls-3" d="m358.72,419.38c6.55,0,56.78,5.31,56.78,11.86,0,6.55-50.24,11.86-56.78,11.86-6.55,0-11.86-5.31-11.86-11.86,0-6.55,5.31-11.86,11.86-11.86Z"/>
                  <path class="cls-3" d="m608.01,443.09c-6.55,0-56.78-5.31-56.78-11.86,0-6.55,50.24-11.86,56.78-11.86,6.55,0,11.86,5.31,11.86,11.86,0,6.55-5.31,11.86-11.86,11.86Z"/>
                </g>
                <g>
                  <path class="cls-3" d="m358.8,443.92c6.42-1.28,56.73-5.87,58.01.55s-46.96,21.43-53.38,22.71c-6.42,1.28-12.66-2.89-13.94-9.32-1.28-6.42,2.89-12.66,9.32-13.94Z"/>
                  <path class="cls-3" d="m607.92,418.54c-6.42,1.28-56.73,5.87-58.01-.55-1.28-6.42,46.96-21.43,53.38-22.71,6.42-1.28,12.66,2.89,13.94,9.32,1.28,6.42-2.89,12.66-9.32,13.94Z"/>
                </g>
                <g>
                  <path class="cls-3" d="m363.67,467.98c6.05-2.51,54.49-16.83,57-10.78,2.51,6.05-41.88,30.18-47.93,32.68-6.05,2.51-12.99-.37-15.49-6.42-2.51-6.05.37-12.99,6.42-15.49Z"/>
                  <path class="cls-3" d="m603.05,394.49c-6.05,2.51-54.49,16.83-57,10.78-2.51-6.05,41.88-30.18,47.93-32.68,6.05-2.51,12.99.37,15.49,6.42,2.51,6.05-.37,12.99-6.42,15.49Z"/>
                </g>
                <g>
                  <path class="cls-3" d="m373.13,490.62c5.44-3.64,50.16-27.13,53.8-21.69,3.64,5.44-35.18,37.77-40.63,41.41-5.44,3.64-12.81,2.17-16.45-3.27-3.64-5.44-2.17-12.81,3.27-16.45Z"/>
                  <path class="cls-3" d="m593.59,371.84c-5.44,3.64-50.16,27.13-53.8,21.69-3.64-5.44,35.18-37.77,40.63-41.41,5.44-3.64,12.81-2.17,16.45,3.27,3.64,5.44,2.17,12.81-3.27,16.45Z"/>
                </g>
                <g>
                  <path class="cls-3" d="m386.84,510.99c4.63-4.63,43.91-36.4,48.54-31.77,4.63,4.63-27.14,43.91-31.77,48.54-4.63,4.63-12.14,4.63-16.77,0-4.63-4.63-4.63-12.14,0-16.77Z"/>
                  <path class="cls-3" d="m579.88,351.48c-4.63,4.63-43.91,36.4-48.54,31.77-4.63-4.63,27.14-43.91,31.77-48.54,4.63-4.63,12.14-4.63,16.77,0,4.63,4.63,4.63,12.14,0,16.77Z"/>
                </g>
                <g>
                  <path class="cls-3" d="m404.25,528.28c3.64-5.44,35.96-44.27,41.41-40.63,5.44,3.64-18.05,48.36-21.69,53.8-3.64,5.44-11,6.91-16.45,3.27-5.44-3.64-6.91-11-3.27-16.45Z"/>
                  <path class="cls-3" d="m562.47,334.18c-3.64,5.44-35.96,44.27-41.41,40.63-5.44-3.64,18.05-48.36,21.69-53.8,3.64-5.44,11-6.91,16.45-3.27,5.44,3.64,6.91,11,3.27,16.45Z"/>
                </g>
                <g>
                  <path class="cls-3" d="m424.71,541.85c2.51-6.05,26.63-50.43,32.68-47.93s-8.27,50.95-10.78,57c-2.51,6.05-9.44,8.92-15.49,6.42-6.05-2.51-8.92-9.44-6.42-15.49Z"/>
                  <path class="cls-3" d="m542.01,320.61c-2.51,6.05-26.63,50.43-32.68,47.93-6.05-2.51,8.27-50.95,10.78-57,2.51-6.05,9.44-8.92,15.49-6.42,6.05,2.51,8.92,9.44,6.42,15.49Z"/>
                </g>
                <g>
                  <path class="cls-3" d="m447.41,551.17c1.28-6.42,16.28-54.66,22.71-53.38,6.42,1.28,1.83,51.58.55,58.01-1.28,6.42-7.52,10.59-13.94,9.32-6.42-1.28-10.59-7.52-9.32-13.94Z"/>
                  <path class="cls-3" d="m519.31,311.3c-1.28,6.42-16.28,54.66-22.71,53.38-6.42-1.28-1.83-51.58-.55-58.01,1.28-6.42,7.52-10.59,13.94-9.32,6.42,1.28,10.59,7.52,9.32,13.94Z"/>
                </g>
                <g>
                  <path class="cls-3" d="m470.15,631.02c0-7.3,5.92-63.28,13.21-63.28,7.3,0,13.21,55.98,13.21,63.28s-5.92,13.21-13.21,13.21c-7.3,0-13.21-5.92-13.21-13.21Z"/>
                  <path class="cls-3" d="m496.57,231.45c0,7.3-5.92,63.28-13.21,63.28-7.3,0-13.21-55.98-13.21-63.28s5.92-13.21,13.21-13.21,13.21,5.92,13.21,13.21Z"/>
                  <path class="cls-3" d="m498.71,630.86c-1.04-7.22-3.15-63.48,4.07-64.52,7.22-1.04,21.05,53.53,22.08,60.76,1.04,7.22-3.97,13.92-11.2,14.96-7.22,1.04-13.92-3.97-14.96-11.2Z"/>
                  <path class="cls-3" d="m468.01,231.6c1.04,7.22,3.15,63.48-4.07,64.52-7.22,1.04-21.05-53.53-22.08-60.76-1.04-7.22,3.97-13.92,11.2-14.96,7.22-1.04,13.92,3.97,14.96,11.2Z"/>
                  <path class="cls-3" d="m526.97,626.65c-2.06-7-12.15-62.38-5.15-64.44,7-2.06,28.45,49.99,30.51,57,2.06,7-1.95,14.34-8.96,16.4-7,2.06-14.34-1.95-16.4-8.96Z"/>
                  <path class="cls-3" d="m439.75,235.82c2.06,7,12.15,62.38,5.15,64.44-7,2.06-28.45-49.99-30.51-57-2.06-7,1.95-14.34,8.96-16.4,7-2.06,14.34,1.95,16.4,8.96Z"/>
                  <path class="cls-3" d="m554.33,618.45c-3.03-6.64-20.91-60.02-14.27-63.05,6.64-3.03,35.28,45.44,38.31,52.07,3.03,6.64.11,14.48-6.53,17.51-6.64,3.03-14.48.11-17.51-6.53Z"/>
                  <path class="cls-3" d="m412.39,244.02c3.03,6.64,20.91,60.02,14.27,63.05-6.64,3.03-35.28-45.44-38.31-52.07-3.03-6.64-.11-14.48,6.53-17.51,6.64-3.03,14.48-.11,17.51,6.53Z"/>
                  <path class="cls-3" d="m580.26,606.44c-3.95-6.14-29.24-56.43-23.1-60.38,6.14-3.95,41.38,39.95,45.33,46.09,3.95,6.14,2.17,14.31-3.97,18.26-6.14,3.95-14.31,2.17-18.26-3.97Z"/>
                  <path class="cls-3" d="m386.46,256.02c3.95,6.14,29.24,56.43,23.1,60.38-6.14,3.95-41.38-39.95-45.33-46.09-3.95-6.14-2.17-14.31,3.97-18.26,6.14-3.95,14.31-2.17,18.26,3.97Z"/>
                  <path class="cls-3" d="m604.2,590.87c-4.78-5.51-36.97-51.7-31.46-56.48,5.51-4.78,46.65,33.66,51.43,39.17,4.78,5.51,4.18,13.86-1.33,18.64-5.51,4.78-13.86,4.18-18.64-1.33Z"/>
                  <path class="cls-3" d="m362.52,271.59c4.78,5.51,36.97,51.7,31.46,56.48-5.51,4.78-46.65-33.66-51.43-39.17-4.78-5.51-4.18-13.86,1.33-18.64,5.51-4.78,13.86-4.18,18.64,1.33Z"/>
                  <path class="cls-3" d="m625.69,572.05c-5.51-4.78-43.95-45.91-39.17-51.43,4.78-5.51,50.96,26.68,56.48,31.46,5.51,4.78,6.11,13.12,1.33,18.64-4.78,5.51-13.12,6.11-18.64,1.33Z"/>
                  <path class="cls-3" d="m341.03,290.42c5.51,4.78,43.95,45.91,39.17,51.43-4.78,5.51-50.96-26.68-56.48-31.46-5.51-4.78-6.11-13.12-1.33-18.64,4.78-5.51,13.12-6.11,18.64-1.33Z"/>
                  <path class="cls-3" d="m644.29,550.36c-6.14-3.95-50.04-39.19-46.09-45.33,3.95-6.14,54.24,19.15,60.38,23.1,6.14,3.95,7.92,12.12,3.97,18.26-3.95,6.14-12.12,7.92-18.26,3.97Z"/>
                  <path class="cls-3" d="m322.44,312.11c6.14,3.95,50.04,39.19,46.09,45.33-3.95,6.14-54.24-19.15-60.38-23.1-6.14-3.95-7.92-12.12-3.97-18.26,3.95-6.14,12.12-7.92,18.26-3.97Z"/>
                  <path class="cls-3" d="m659.6,526.24c-6.64-3.03-55.11-31.67-52.07-38.31,3.03-6.64,56.41,11.24,63.05,14.27,6.64,3.03,9.56,10.87,6.53,17.51-3.03,6.64-10.87,9.56-17.51,6.53Z"/>
                  <path class="cls-3" d="m307.12,336.22c6.64,3.03,55.11,31.67,52.07,38.31-3.03,6.64-56.41-11.24-63.05-14.27-6.64-3.03-9.56-10.87-6.53-17.51,3.03-6.64,10.87-9.56,17.51-6.53Z"/>
                  <path class="cls-3" d="m671.33,500.2c-7-2.06-59.05-23.5-57-30.51,2.06-7,57.44,3.1,64.44,5.15,7,2.06,11.01,9.4,8.96,16.4-2.06,7-9.4,11.01-16.4,8.96Z"/>
                  <path class="cls-3" d="m295.39,362.27c7,2.06,59.05,23.5,57,30.51-2.06,7-57.44-3.1-64.44-5.15-7-2.06-11.01-9.4-8.96-16.4,2.06-7,9.4-11.01,16.4-8.96Z"/>
                  <path class="cls-3" d="m679.23,472.74c-7.22-1.04-61.8-14.86-60.76-22.08,1.04-7.22,57.3-5.11,64.52-4.07,7.22,1.04,12.24,7.74,11.2,14.96-1.04,7.22-7.74,12.24-14.96,11.2Z"/>
                  <path class="cls-3" d="m287.49,389.72c7.22,1.04,61.8,14.86,60.76,22.08-1.04,7.22-57.3,5.11-64.52,4.07-7.22-1.04-12.24-7.74-11.2-14.96,1.04-7.22,7.74-12.24,14.96-11.2Z"/>
                  <path class="cls-3" d="m683.14,444.45c-7.3,0-63.28-5.92-63.28-13.21,0-7.3,55.98-13.21,63.28-13.21s13.21,5.92,13.21,13.21c0,7.3-5.92,13.21-13.21,13.21Z"/>
                  <path class="cls-3" d="m283.58,418.02c7.3,0,63.28,5.92,63.28,13.21,0,7.3-55.98,13.21-63.28,13.21-7.3,0-13.21-5.92-13.21-13.21,0-7.3,5.92-13.21,13.21-13.21Z"/>
                  <path class="cls-3" d="m682.99,415.88c-7.22,1.04-63.48,3.15-64.52-4.07-1.04-7.22,53.53-21.05,60.76-22.08s13.92,3.97,14.96,11.2c1.04,7.22-3.97,13.92-11.2,14.96Z"/>
                  <path class="cls-3" d="m283.73,446.59c7.22-1.04,63.48-3.15,64.52,4.07,1.04,7.22-53.53,21.05-60.76,22.08-7.22,1.04-13.92-3.97-14.96-11.2-1.04-7.22,3.97-13.92,11.2-14.96Z"/>
                  <path class="cls-3" d="m678.77,387.62c-7,2.06-62.38,12.15-64.44,5.15-2.06-7,49.99-28.45,57-30.51,7-2.06,14.34,1.95,16.4,8.96s-1.95,14.34-8.96,16.4Z"/>
                  <path class="cls-3" d="m287.95,474.84c7-2.06,62.38-12.15,64.44-5.15,2.06,7-49.99,28.45-57,30.51-7,2.06-14.34-1.95-16.4-8.96-2.06-7,1.95-14.34,8.96-16.4Z"/>
                  <path class="cls-3" d="m670.58,360.26c-6.64,3.03-60.02,20.91-63.05,14.27-3.03-6.64,45.44-35.28,52.07-38.31,6.64-3.03,14.48-.11,17.51,6.53,3.03,6.64.11,14.48-6.53,17.51Z"/>
                  <path class="cls-3" d="m296.14,502.21c6.64-3.03,60.02-20.91,63.05-14.27,3.03,6.64-45.44,35.28-52.07,38.31-6.64,3.03-14.48.11-17.51-6.53-3.03-6.64-.11-14.48,6.53-17.51Z"/>
                  <path class="cls-3" d="m658.57,334.34c-6.14,3.95-56.43,29.24-60.38,23.1-3.95-6.14,39.95-41.38,46.09-45.33,6.14-3.95,14.31-2.17,18.26,3.97,3.95,6.14,2.17,14.31-3.97,18.26Z"/>
                  <path class="cls-3" d="m308.15,528.13c6.14-3.95,56.43-29.24,60.38-23.1,3.95,6.14-39.95,41.38-46.09,45.33-6.14,3.95-14.31,2.17-18.26-3.97-3.95-6.14-2.17-14.31,3.97-18.26Z"/>
                  <path class="cls-3" d="m643,310.39c-5.51,4.78-51.7,36.97-56.48,31.46-4.78-5.51,33.66-46.65,39.17-51.43,5.51-4.78,13.86-4.18,18.64,1.33,4.78,5.51,4.18,13.86-1.33,18.64Z"/>
                  <path class="cls-3" d="m323.72,552.08c5.51-4.78,51.7-36.97,56.48-31.46,4.78,5.51-33.66,46.65-39.17,51.43-5.51,4.78-13.86,4.18-18.64-1.33-4.78-5.51-4.18-13.86,1.33-18.64Z"/>
                  <path class="cls-3" d="m624.18,288.9c-4.78,5.51-45.91,43.95-51.43,39.17-5.51-4.78,26.68-50.96,31.46-56.48,4.78-5.51,13.12-6.11,18.64-1.33,5.51,4.78,6.11,13.12,1.33,18.64Z"/>
                  <path class="cls-3" d="m342.54,573.57c4.78-5.51,45.91-43.95,51.43-39.17,5.51,4.78-26.68,50.96-31.46,56.48-4.78,5.51-13.12,6.11-18.64,1.33-5.51-4.78-6.11-13.12-1.33-18.64Z"/>
                  <path class="cls-3" d="m602.49,270.31c-3.95,6.14-39.19,50.04-45.33,46.09-6.14-3.95,19.15-54.24,23.1-60.38,3.95-6.14,12.12-7.92,18.26-3.97,6.14,3.95,7.92,12.12,3.97,18.26Z"/>
                  <path class="cls-3" d="m364.23,592.16c3.95-6.14,39.19-50.04,45.33-46.09,6.14,3.95-19.15,54.24-23.1,60.38-3.95,6.14-12.12,7.92-18.26,3.97-6.14-3.95-7.92-12.12-3.97-18.26Z"/>
                  <path class="cls-3" d="m578.37,254.99c-3.03,6.64-31.67,55.11-38.31,52.07-6.64-3.03,11.24-56.41,14.27-63.05,3.03-6.64,10.87-9.56,17.51-6.53,6.64,3.03,9.56,10.87,6.53,17.51Z"/>
                  <path class="cls-3" d="m388.35,607.47c3.03-6.64,31.67-55.11,38.31-52.07,6.64,3.03-11.24,56.41-14.27,63.05-3.03,6.64-10.87,9.56-17.51,6.53-6.64-3.03-9.56-10.87-6.53-17.51Z"/>
                  <path class="cls-3" d="m552.32,243.26c-2.06,7-23.5,59.05-30.51,57-7-2.06,3.1-57.44,5.15-64.44,2.06-7,9.4-11.01,16.4-8.96,7,2.06,11.01,9.4,8.96,16.4Z"/>
                  <path class="cls-3" d="m414.4,619.2c2.06-7,23.5-59.05,30.51-57,7,2.06-3.1,57.44-5.15,64.44-2.06,7-9.4,11.01-16.4,8.96-7-2.06-11.01-9.4-8.96-16.4Z"/>
                  <path class="cls-3" d="m524.87,235.36c-1.04,7.22-14.86,61.8-22.08,60.76-7.22-1.04-5.11-57.3-4.07-64.52,1.04-7.22,7.74-12.24,14.96-11.2,7.22,1.04,12.24,7.74,11.2,14.96Z"/>
                  <path class="cls-3" d="m441.85,627.1c1.04-7.22,14.86-61.8,22.08-60.76,7.22,1.04,5.11,57.3,4.07,64.52-1.04,7.22-7.74,12.24-14.96,11.2-7.22-1.04-12.24-7.74-11.2-14.96Z"/>
                </g>
                <g>
                  <path class="cls-20" d="m516.85,390.86c-.15,12.9,10.19,23.48,23.1,23.63,12.9.15,23.49-10.19,23.63-23.1.15-12.9-10.19-23.48-23.1-23.63-12.91-.15-23.48,10.19-23.64,23.1Z"/>
                  <path class="cls-19" d="m538.1,332.18c2.34,0,4.25,26.39,4.25,58.95,0,32.56-1.9,58.95-4.25,58.95s-4.25-26.39-4.25-58.95,1.9-58.95,4.25-58.95Z"/>
                  <path class="cls-17" d="m479.15,391.13c0-2.35,26.39-4.25,58.95-4.25,32.56,0,58.95,1.9,58.95,4.25,0,2.34-26.39,4.25-58.95,4.25-32.56,0-58.95-1.9-58.95-4.25Z"/>
                  <path class="cls-18" d="m542.35,340.23c2.12,0,3.84,23.83,3.84,53.23s-1.72,53.23-3.84,53.23c-2.12,0-3.84-23.83-3.84-53.23s1.72-53.23,3.84-53.23Z"/>
                  <path class="cls-16" d="m489.12,393.46c0-2.12,23.83-3.83,53.23-3.83s53.23,1.72,53.23,3.83-23.83,3.84-53.23,3.84c-29.4,0-53.23-1.72-53.23-3.84Z"/>
                </g>
                <path class="cls-14" d="m558.79,547.18c3,3.15,14.45-2.86,25.57-13.44,11.12-10.58,17.7-21.72,14.69-24.87-3-3.15-14.45,2.86-25.57,13.45-11.12,10.58-17.69,21.71-14.69,24.87Z"/>
                <path class="cls-15" d="m644.17,418.34c.13,4.35,12.67,7.52,28.01,7.08,15.34-.45,27.68-4.34,27.55-8.69-.13-4.35-12.66-7.52-28.01-7.08-15.34.45-27.67,4.34-27.55,8.69Z"/>
              </g>
            </g>
          </g>
          <polygon class="cls-3" points="259.96 651.31 311.15 562.64 208.76 562.64 259.96 651.31"/>
          <path class="cls-3" d="m547.45,695.89c28.83-20.25,47.72-51.53,52.58-85.96"/>
          <path class="cls-3" d="m262.51,907.29c4.72-11.22,17.83-40.02,39.55-70.22,16.29-22.64,34.16-41.62,53.13-56.43,23.74-18.54,49.27-30.54,75.88-35.68,17.25-3.33,33.93-8.02,49.98-14.04"/>
          <g class="cls-26">
            <path class="cls-3" d="m281.22,788.95c-1.31-.26-2.57-.84-3.68-1.73-3.72-2.99-4.33-8.42-1.35-12.15.89-1.11,90.8-110.89,240.78-66,4.58,1.37,7.18,6.19,5.81,10.77-1.37,4.57-6.22,7.2-10.77,5.8-138.53-41.49-218.96,56.07-222.32,60.24-2.1,2.61-5.4,3.68-8.47,3.06Z"/>
          </g>
          <g>
            <path class="cls-3" d="m268.27,772.8l4.39-6.26c-9.94,14.2,16.58,32.76,26.52,18.57l-4.39,6.26c-7.93,11.32-34.45-7.24-26.52-18.57Z"/>
            <path class="cls-3" d="m296.31,777.08l-2.14,3.06c-4.96,7.08-19.72-3.26-14.76-10.34l4.08-5.82"/>
            <path class="cls-3" d="m282.45,760.96c-3.79.22-7.18,1.85-9.26,4.82-4.12,5.88-1.52,14.8,5.8,19.93,7.32,5.13,16.6,4.52,20.71-1.36,1.07-1.53,1.68-3.26,1.88-5.07"/>
            <path class="cls-3" d="m283.94,755.72l5.22-5.59c-9.46,10.14,14.22,32.22,23.67,22.08l-5.22,5.59c-7.54,8.09-31.22-13.99-23.67-22.08Z"/>
            <path class="cls-3" d="m313.33,771.66c2.41-2.58,2.53-6.74.75-10.97l-5.68,6.09c-4.71,5.05-17.89-7.24-13.18-12.29l5.82-6.24c-4.52-1.69-8.88-1.34-11.38,1.34-3.92,4.2-1.79,12.55,4.74,18.64,6.54,6.1,15.01,7.63,18.93,3.43Z"/>
            <path class="cls-3" d="m304.19,738.45l5.94-4.81c-8.08,6.54,12.29,31.7,20.37,25.16l-5.94,4.81c-6.45,5.22-26.82-19.94-20.37-25.16Z"/>
            <path class="cls-3" d="m330.94,758.44c2.06-1.67,2.15-5.27.61-9.42l-4.85,3.93c-4.03,3.26-15.37-10.74-11.34-14.01l4.97-4.02c-3.89-2.59-7.62-3.37-9.76-1.64-3.35,2.71-1.5,10.54,4.12,17.49,5.63,6.95,12.9,10.38,16.25,7.67Z"/>
            <path class="cls-3" d="m326.25,724.02l6.56-3.94c-5.94,3.57,10.73,31.32,16.67,27.75l-6.56,3.94c-4.74,2.85-21.41-24.9-16.67-27.75Z"/>
            <path class="cls-3" d="m349.8,747.64c1.51-.91,1.44-4.07.08-8.15l-3.57,2.14c-2.96,1.78-12.24-13.67-9.28-15.45l3.65-2.2c-3.09-3.35-5.99-5.05-7.56-4.1-2.46,1.48-.72,8.89,3.88,16.55,4.6,7.66,10.33,12.68,12.79,11.2Z"/>
            <path class="cls-3" d="m353.03,710.62l7.04-2.99c-3.19,1.35,9.46,31.15,12.65,29.8l-7.04,2.99c-2.55,1.08-15.19-28.72-12.65-29.8Z"/>
            <path class="cls-3" d="m372.89,737.36c.81-.35.46-3.18-.75-7.22l-1.92.81c-1.59.68-8.63-15.91-7.04-16.59l1.96-.83c-2.17-3.92-4.06-6.33-4.91-5.97-1.32.56.44,7.69,3.93,15.91,3.49,8.23,7.4,14.44,8.72,13.88Z"/>
            <path class="cls-3" d="m522.65,704.65l-6.93-3.23c15.71,7.32,2.03,36.66-13.68,29.34l6.93,3.23c12.53,5.84,26.21-23.49,13.68-29.34Z"/>
            <path class="cls-3" d="m504.58,701.41c3.36-1.64,7.05-1.9,10.29-.39,6.51,3.03,8.72,12.06,4.94,20.16-3.78,8.1-12.12,12.21-18.62,9.18-1.74-.81-3.18-2.05-4.27-3.59"/>
            <path class="cls-3" d="m500.58,722.42l3.3,1.54c7.83,3.65,15.45-12.68,7.62-16.33l-6.57-3.06"/>
            <path class="cls-3" d="m500.53,697.69l-7.31-2.24c13.26,4.05,3.79,35.01-9.47,30.96l7.31,2.24c10.58,3.23,20.04-27.72,9.47-30.96Z"/>
            <path class="cls-3" d="m483.04,726.19c-3.38-1.03-5.56-4.57-6.13-9.13l7.96,2.43c6.61,2.02,11.88-15.21,5.27-17.23l-8.15-2.49c3.07-3.72,7.02-5.6,10.52-4.53,5.49,1.68,7.83,9.97,5.21,18.52-2.61,8.55-9.18,14.12-14.68,12.44Z"/>
            <path class="cls-3" d="m474.35,692.86l-7.55-1.2c10.27,1.63,5.21,33.6-5.07,31.97l7.55,1.2c8.19,1.3,13.26-30.67,5.07-31.97Z"/>
            <path class="cls-3" d="m461.18,723.55c-2.62-.41-4.5-3.49-5.24-7.86l6.16.98c5.12.81,7.94-16.99,2.82-17.8l-6.32-1c2.07-4.19,4.92-6.72,7.63-6.29,4.25.67,6.57,8.38,5.17,17.21-1.4,8.83-5.98,15.44-10.24,14.77Z"/>
            <path class="cls-3" d="m448.04,691.39l-7.65-.13c6.93.12,6.37,32.49-.57,32.37l7.65.13c5.53.1,6.1-32.27.57-32.37Z"/>
            <path class="cls-3" d="m439.45,723.62c-1.77-.03-3.28-2.8-4.15-7.01l4.16.07c3.45.06,3.77-17.96.32-18.02l-4.26-.07c1-4.44,2.67-7.37,4.5-7.33,2.87.05,5.07,7.34,4.92,16.27-.16,8.94-2.61,16.14-5.48,16.09Z"/>
            <path class="cls-3" d="m418.15,693.18l-7.59.93c3.44-.42,7.38,31.71,3.94,32.13l7.59-.93c2.74-.34-1.2-32.47-3.94-32.13Z"/>
            <path class="cls-3" d="m414.32,726.26c-.88.11-1.99-2.52-2.96-6.63l2.07-.25c1.71-.21-.48-18.1-2.2-17.89l-2.12.26c-.08-4.48.36-7.51,1.27-7.62,1.43-.17,3.46,6.88,4.55,15.75,1.09,8.87.82,16.21-.61,16.38Z"/>
            <rect class="cls-3" x="385.35" y="699.11" width="7.65" height="32.37" transform="translate(-171.85 125.08) rotate(-15)"/>
          </g>
          <path class="cls-3" d="m517.24,1161.59c0-10.57,8.57-19.14,19.14-19.14,10.57,0,19.14,8.57,19.14,19.14s-8.57,19.14-19.14,19.14c-10.57,0-19.14-8.57-19.14-19.14Z"/>
          <g>
            <circle class="cls-3" cx="661.97" cy="999.25" r="37.56"/>
            <circle class="cls-3" cx="661.97" cy="999.25" r="27.05"/>
            <path class="cls-3" d="m657.81,978.86c14.94,0,27.05,12.11,27.05,27.05,0,3.85-.82,7.51-2.27,10.83,4-4.72,6.43-10.81,6.43-17.48,0-14.94-12.11-27.05-27.05-27.05-11.08,0-20.6,6.68-24.78,16.22,4.96-5.84,12.35-9.56,20.62-9.56Z"/>
          </g>
          <g>
            <path class="cls-3" d="m462.38,1222.69c0-8.83,7.16-15.99,15.99-15.99s15.99,7.16,15.99,15.99-7.16,15.99-15.99,15.99c-8.83,0-15.99-7.16-15.99-15.99Z"/>
            <path class="cls-4" d="m469.69,1222.69c0-4.79,3.89-8.68,8.68-8.68,4.79,0,8.68,3.89,8.68,8.68s-3.89,8.68-8.68,8.68c-4.79,0-8.68-3.89-8.68-8.68Z"/>
            <path class="cls-4" d="m477.03,1216.15c4.79,0,8.68,3.89,8.68,8.68,0,1.24-.26,2.41-.73,3.47,1.28-1.51,2.06-3.47,2.06-5.61,0-4.79-3.89-8.68-8.68-8.68-3.56,0-6.61,2.14-7.95,5.21,1.59-1.88,3.96-3.07,6.62-3.07Z"/>
          </g>
          <g>
            <circle class="cls-3" cx="423.88" cy="1258.41" r="27.05"/>
            <path class="cls-3" d="m419.72,1238.02c14.94,0,27.05,12.11,27.05,27.05,0,3.85-.82,7.51-2.27,10.83,4-4.72,6.43-10.81,6.43-17.48,0-14.94-12.11-27.05-27.05-27.05-11.08,0-20.6,6.68-24.78,16.22,4.96-5.84,12.35-9.56,20.62-9.56Z"/>
          </g>
          <g>
            <circle class="cls-3" cx="444.02" cy="1306.78" r="17.47"/>
            <circle class="cls-3" cx="444.02" cy="1306.78" r="10.41"/>
            <path class="cls-3" d="m442.42,1298.93c5.75,0,10.41,4.66,10.41,10.41,0,1.48-.31,2.89-.87,4.17,1.54-1.82,2.47-4.16,2.47-6.73,0-5.75-4.66-10.41-10.41-10.41-4.27,0-7.93,2.57-9.54,6.24,1.91-2.25,4.75-3.68,7.94-3.68Z"/>
          </g>
          <g>
            <circle class="cls-3" cx="466.08" cy="775.02" r="27.86"/>
            <circle class="cls-3" cx="466.08" cy="775.02" r="20.06"/>
            <path class="cls-3" d="m462.99,759.89c11.08,0,20.06,8.98,20.06,20.06,0,2.86-.61,5.57-1.68,8.03,2.97-3.5,4.77-8.02,4.77-12.97,0-11.08-8.98-20.06-20.06-20.06-8.22,0-15.28,4.95-18.38,12.03,3.68-4.34,9.16-7.09,15.29-7.09Z"/>
          </g>
          <path class="cls-3" d="m622.85,907.52l-70.62-.1c-10.53-.02-19.36-7.61-21.32-17.59-.26,1.34-.41,2.71-.41,4.12-.02,11.97,9.76,21.78,21.73,21.79l70.62.1c11.97.02,21.78-9.76,21.79-21.73,0-1.44-.14-2.84-.41-4.2-1.96,10.01-10.82,17.63-21.38,17.61Z"/>
          <path class="cls-3" d="m530.5,893.94h0c.02-11.97,9.83-21.75,21.79-21.73l70.62.1c11.97.02,21.75,9.83,21.73,21.79h0c-.02,11.97-9.83,21.75-21.79,21.73l-70.62-.1c-11.97-.02-21.75-9.83-21.73-21.79Z"/>
          <path class="cls-3" d="m593.73,836.79l-70.62-.1c-10.53-.02-19.36-7.61-21.32-17.59-.26,1.34-.41,2.71-.41,4.12-.02,11.97,9.76,21.78,21.73,21.79l70.62.1c11.97.02,21.78-9.76,21.79-21.73,0-1.44-.14-2.84-.41-4.2-1.96,10.01-10.82,17.63-21.38,17.61Z"/>
          <path class="cls-3" d="m501.38,823.22h0c.02-11.97,9.83-21.75,21.79-21.73l70.62.1c11.97.02,21.75,9.83,21.73,21.79h0c-.02,11.97-9.83,21.75-21.79,21.73l-70.62-.1c-11.97-.02-21.75-9.83-21.73-21.79Z"/>
          <path class="cls-3" d="m523.27,165.03v-.07c-77.44-42.32-166.27-66.39-260.74-66.39S79.13,122.67,1.67,165.03"/>
          <g class="cls-25">
            <g>
              <path class="cls-3" d="m449.1,1195.83c-37.08-4.57-66.02-36.43-65.96-74.69l.35-243.84c.05-31,19.1-57.74,46.07-69.15"/>
              <path class="cls-3" d="m414.39,1121.3l.35-243.75c.05-33.07,24.33-60.71,55.93-66.07-3.67-.64-7.44-.99-11.29-.99h-1.05c-36.92-.06-67.17,30.11-67.23,67.03l-.35,243.75c-.05,36.92,30.11,67.17,67.03,67.23h1.05c3.85,0,7.62-.33,11.3-.96-31.58-5.46-55.79-33.16-55.74-66.24Z"/>
              <polygon class="cls-3" points="521.25 1007.41 521.6 1027.82 487.12 1024.69 486.9 1011.71 521.25 1007.41"/>
              <polygon class="cls-3" points="521.25 971.92 521.6 992.33 487.12 989.2 486.9 976.22 521.25 971.92"/>
              <polygon class="cls-3" points="509.09 936.43 509.44 956.83 474.97 953.71 474.74 940.72 509.09 936.43"/>
              <polygon class="cls-3" points="501.89 900.93 502.24 921.34 467.77 918.22 467.54 905.23 501.89 900.93"/>
              <polygon class="cls-3" points="485.01 865.44 485.36 885.85 450.88 882.72 450.66 869.74 485.01 865.44"/>
              <polygon class="cls-3" points="467.32 829.95 467.67 850.36 433.19 847.23 432.97 834.25 467.32 829.95"/>
              <polygon class="cls-3" points="521.25 1042.9 521.6 1063.31 487.12 1060.19 486.9 1047.2 521.25 1042.9"/>
              <polygon class="cls-3" points="521.25 1078.4 521.6 1098.8 487.12 1095.68 486.9 1082.69 521.25 1078.4"/>
              <polygon class="cls-3" points="509.09 1113.89 509.44 1134.3 474.97 1131.17 474.74 1118.19 509.09 1113.89"/>
              <polygon class="cls-3" points="492.82 1149.38 493.16 1169.79 458.69 1166.67 458.47 1153.68 492.82 1149.38"/>
              <polygon class="cls-3" points="483.08 1184.87 483.43 1205.28 448.95 1202.16 448.73 1189.17 483.08 1184.87"/>
            </g>
          </g>
        </g>
      </g>
    </g>
  </g>
</svg>