<svg width="86" height="26" viewBox="0 0 86 26" fill="none" xmlns="http://www.w3.org/2000/svg">
<path d="M48.4611 10.6736C48.8878 10.1443 49.3705 9.66304 49.9006 9.23837C50.2244 8.98827 50.6329 8.87571 51.0384 8.92486C51.4439 8.97402 51.814 9.18097 52.0693 9.50125C52.3245 9.82154 52.4445 10.2296 52.4035 10.6378C52.3624 11.046 52.1637 11.4217 51.8498 11.6843C50.7563 12.5663 49.9986 13.7996 49.7041 15.1769C49.4096 16.5541 49.5964 17.9913 50.2329 19.2465C50.8695 20.5017 51.917 21.4983 53.1993 22.0688C54.4815 22.6392 55.9202 22.7486 57.2734 22.3786C58.6265 22.0086 59.8115 21.1818 60.629 20.0372C61.4464 18.8926 61.8465 17.5001 61.7618 16.094C61.6771 14.6879 61.1129 13.354 60.1641 12.3167C59.2152 11.2794 57.9397 10.602 56.552 10.3985C56.1476 10.3328 55.7852 10.1098 55.5431 9.77792C55.301 9.44599 55.1986 9.03171 55.258 8.62457C55.3174 8.21743 55.5339 7.85011 55.8607 7.60197C56.1875 7.35382 56.5983 7.24476 57.0045 7.29835C59.0129 7.59648 60.8671 8.55251 62.279 10.0179C63.691 11.4833 64.5816 13.3761 64.8125 15.4022C65.0435 17.4283 64.6019 19.4743 63.5563 21.2224C62.5107 22.9705 60.9196 24.3228 59.0302 25.0692C57.1409 25.8157 55.059 25.9145 53.108 25.3503C51.157 24.7861 49.4461 23.5905 48.2411 21.9492C47.0361 20.3079 46.4044 18.3128 46.4442 16.2739C46.4839 14.2349 47.1929 12.2662 48.4611 10.6736Z" fill="white"/>
<path d="M35.9777 25.715C35.2971 25.715 34.6184 25.6407 33.9539 25.4936C33.5502 25.4042 33.1986 25.1581 32.9764 24.8095C32.7541 24.4608 32.6794 24.0382 32.7688 23.6345C32.8581 23.2308 33.1042 22.8791 33.4528 22.6568C33.8014 22.4346 34.224 22.3599 34.6277 22.4493C35.9966 22.7554 37.4291 22.5805 38.6841 21.9541C39.9392 21.3277 40.9401 20.2881 41.5186 19.0101C42.097 17.7322 42.2175 16.294 41.8599 14.9375C41.5023 13.5811 40.6884 12.3893 39.5551 11.5627C38.4219 10.7361 37.0385 10.3252 35.6377 10.3991C34.237 10.473 32.9046 11.0272 31.8646 11.9685C30.8246 12.9098 30.1405 14.1806 29.9276 15.5671C29.7147 16.9536 29.9859 18.3712 30.6956 19.5812C30.9056 19.9374 30.9654 20.3624 30.8621 20.7627C30.7587 21.163 30.5006 21.5059 30.1444 21.7159C29.7883 21.9259 29.3633 21.9857 28.963 21.8824C28.5627 21.779 28.2199 21.5208 28.0099 21.1646C26.9824 19.4138 26.5617 17.3727 26.8132 15.3582C27.0647 13.3438 27.9744 11.4688 29.4008 10.0244C30.8273 8.58009 32.6908 7.64726 34.7018 7.37084C36.7128 7.09442 38.7588 7.48987 40.522 8.49578C42.2852 9.50169 43.6669 11.0617 44.4526 12.9336C45.2382 14.8055 45.3837 16.8845 44.8666 18.8476C44.3495 20.8107 43.1986 22.5481 41.5927 23.7899C39.9869 25.0318 38.0159 25.7085 35.986 25.715H35.9777Z" fill="white"/>
<path d="M66.0793 13.5933C66.6454 12.4841 67.5532 11.5585 68.686 10.9357C69.8189 10.3129 71.125 10.0212 72.4365 10.0982C72.8815 10.1239 73.3193 9.98307 73.6534 9.70681C73.9875 9.43055 74.1906 9.04145 74.218 8.62512C74.2454 8.20878 74.0949 7.79931 73.7996 7.48679C73.5042 7.17426 73.0883 6.98428 72.6432 6.95864C71.1268 6.86677 69.6081 7.1031 68.2052 7.64926C66.8023 8.19542 65.5528 9.03673 64.5539 10.1078L64.4961 10.1727C65.227 11.2209 65.7623 12.3775 66.0793 13.5933Z" fill="white"/>
<path d="M23.0065 6.9393C21.5921 6.93995 20.1994 7.30153 18.9505 7.99235C17.7015 8.68316 16.6346 9.68213 15.843 10.9017C14.8029 9.30358 13.2972 8.09489 11.5476 7.45339C9.7979 6.81188 7.89653 6.77142 6.12311 7.33795C4.34968 7.90448 2.79779 9.0481 1.69568 10.6006C0.593572 12.1531 -0.00059269 14.0326 0.000570197 15.9626V23.7688C-0.00494525 23.9764 0.0295989 24.1831 0.102161 24.3766C0.174724 24.5701 0.283832 24.7465 0.423038 24.8954C0.562245 25.0442 0.728725 25.1626 0.91264 25.2434C1.09656 25.3242 1.29418 25.3658 1.49382 25.3658C1.69346 25.3658 1.89108 25.3242 2.075 25.2434C2.25891 25.1626 2.42539 25.0442 2.5646 24.8954C2.70381 24.7465 2.81292 24.5701 2.88548 24.3766C2.95804 24.1831 2.99258 23.9764 2.98707 23.7688V15.9626C2.98707 15.1868 3.13396 14.4185 3.41934 13.7017C3.70473 12.985 4.12302 12.3337 4.65035 11.7851C5.17767 11.2364 5.8037 10.8013 6.49268 10.5044C7.18167 10.2075 7.92011 10.0546 8.66586 10.0546C9.41161 10.0546 10.1501 10.2075 10.839 10.5044C11.528 10.8013 12.1541 11.2364 12.6814 11.7851C13.2087 12.3337 13.627 12.985 13.9124 13.7017C14.1978 14.4185 14.3447 15.1868 14.3447 15.9626C14.3447 15.9769 14.3447 15.9899 14.3447 16.003C14.3391 16.2106 14.3737 16.4173 14.4462 16.6108C14.5188 16.8043 14.6279 16.9807 14.7671 17.1295C14.9063 17.2784 15.0728 17.3968 15.2567 17.4776C15.4406 17.5584 15.6383 17.6 15.8379 17.6C16.0376 17.6 16.2352 17.5584 16.4191 17.4776C16.603 17.3968 16.7695 17.2784 16.9087 17.1295C17.0479 16.9807 17.157 16.8043 17.2296 16.6108C17.3021 16.4173 17.3367 16.2106 17.3312 16.003C17.3312 15.9899 17.3312 15.9769 17.3312 15.9626C17.3282 14.8594 17.6226 13.7773 18.181 12.8394C18.7395 11.9015 19.5395 11.1452 20.4903 10.6566C21.4411 10.1679 22.5045 9.96642 23.5599 10.075C24.6152 10.1835 25.6202 10.5978 26.4606 11.2706C26.9045 10.337 27.4739 9.47374 28.1517 8.70696C26.6637 7.55798 24.8596 6.93816 23.0065 6.9393Z" fill="white"/>
<path d="M84.4293 0.285091H78.6767C78.481 0.284936 78.2871 0.3241 78.1062 0.400344C77.9253 0.476588 77.761 0.588418 77.6225 0.729442C77.484 0.870466 77.3742 1.03792 77.2992 1.22223C77.2243 1.40655 77.1857 1.60411 77.1857 1.80362V16.3274C77.1679 17.6893 76.6986 19.0049 75.8542 20.0605C75.0097 21.1161 73.8398 21.8496 72.5347 22.1416C71.2295 22.4337 69.8658 22.2671 68.6652 21.6691C67.4646 21.0711 66.4978 20.0767 65.922 18.8477C65.6353 20.0397 65.1519 21.1734 64.4922 22.2002C65.3303 23.1916 66.3681 23.9875 67.5349 24.5337C68.7017 25.0799 69.9702 25.3636 71.2541 25.3656C71.4516 25.3656 71.6503 25.3585 71.8489 25.3456C74.0975 25.196 76.2079 24.1868 77.758 22.5199C79.3082 20.853 80.1841 18.6511 80.2104 16.3544V3.36806H84.4778C84.6788 3.3681 84.8777 3.32729 85.0631 3.24802C85.2484 3.16875 85.4163 3.05261 85.5571 2.90639C85.6979 2.76017 85.8086 2.58681 85.8829 2.39645C85.9571 2.20609 85.9934 2.00255 85.9895 1.79774C85.9736 1.38826 85.8018 1.00122 85.5105 0.718793C85.2191 0.436366 84.8313 0.280788 84.4293 0.285091Z" fill="white"/>
</svg>
