<svg width="130" height="39" viewBox="0 0 130 39" fill="none" xmlns="http://www.w3.org/2000/svg">
<path d="M73.2628 15.7057C73.9079 14.9054 74.6376 14.1779 75.4392 13.5359C75.9286 13.1578 76.5462 12.9876 77.1592 13.0619C77.7723 13.1362 78.3318 13.4491 78.7177 13.9333C79.1036 14.4175 79.285 15.0344 79.223 15.6515C79.1609 16.2686 78.8604 16.8367 78.386 17.2337C76.7328 18.567 75.5872 20.4316 75.142 22.5138C74.6968 24.5959 74.9792 26.7686 75.9415 28.6662C76.9039 30.5638 78.4875 32.0705 80.426 32.933C82.3645 33.7954 84.5396 33.9608 86.5853 33.4014C88.631 32.8421 90.4225 31.592 91.6583 29.8616C92.8941 28.1312 93.4989 26.026 93.3709 23.9002C93.2429 21.7745 92.39 19.7579 90.9555 18.1897C89.521 16.6215 87.5926 15.5975 85.4947 15.2898C84.8834 15.1904 84.3355 14.8534 83.9695 14.3516C83.6034 13.8498 83.4486 13.2234 83.5384 12.6079C83.6283 11.9924 83.9555 11.4371 84.4496 11.062C84.9436 10.6868 85.5647 10.5219 86.1788 10.6029C89.2151 11.0537 92.0183 12.499 94.1529 14.7144C96.2875 16.9298 97.6339 19.7914 97.9831 22.8544C98.3322 25.9175 97.6646 29.0107 96.0838 31.6534C94.5031 34.2962 92.0977 36.3406 89.2413 37.4691C86.385 38.5975 83.2376 38.7469 80.2881 37.8939C77.3385 37.041 74.752 35.2335 72.9302 32.7522C71.1085 30.2709 70.1535 27.2547 70.2136 24.1722C70.2737 21.0897 71.3456 18.1134 73.2628 15.7057Z" fill="black"/>
<path d="M54.392 38.4454C53.363 38.4454 52.3371 38.3331 51.3324 38.1106C50.7222 37.9755 50.1905 37.6035 49.8545 37.0764C49.5185 36.5493 49.4057 35.9103 49.5408 35.3C49.6758 34.6897 50.0478 34.1581 50.5749 33.822C51.1019 33.486 51.7408 33.3731 52.3511 33.5082C54.4205 33.971 56.5862 33.7066 58.4836 32.7596C60.381 31.8127 61.8943 30.2409 62.7687 28.3089C63.6432 26.3769 63.8254 24.2026 63.2848 22.1519C62.7442 20.1013 61.5136 18.2995 59.8004 17.0498C58.0871 15.8001 55.9957 15.1789 53.8781 15.2906C51.7605 15.4024 49.746 16.2403 48.1737 17.6633C46.6014 19.0863 45.5673 21.0076 45.2455 23.1037C44.9236 25.1999 45.3336 27.3429 46.4065 29.1722C46.7239 29.7107 46.8144 30.3532 46.6582 30.9584C46.5019 31.5637 46.1116 32.082 45.5732 32.3995C45.0348 32.7169 44.3923 32.8074 43.7871 32.6512C43.182 32.4949 42.6637 32.1046 42.3462 31.5661C40.7928 28.9192 40.1568 25.8334 40.5371 22.7879C40.9173 19.7425 42.2925 16.9078 44.449 14.7243C46.6056 12.5407 49.4228 11.1304 52.4631 10.7125C55.5033 10.2946 58.5965 10.8925 61.2621 12.4132C63.9278 13.934 66.0167 16.2925 67.2044 19.1224C68.3921 21.9524 68.6121 25.0953 67.8303 28.0632C67.0485 31.0311 65.3086 33.6577 62.8808 35.535C60.4531 37.4124 57.4734 38.4355 54.4046 38.4454H54.392Z" fill="black"/>
<path d="M99.8993 20.1199C100.755 18.4429 102.128 17.0437 103.84 16.1021C105.553 15.1605 107.527 14.7196 109.51 14.836C110.183 14.8748 110.845 14.6619 111.35 14.2442C111.855 13.8266 112.162 13.2384 112.204 12.6089C112.245 11.9795 112.017 11.3605 111.571 10.888C111.124 10.4155 110.496 10.1283 109.823 10.0895C107.53 9.95065 105.234 10.3079 103.113 11.1336C100.992 11.9593 99.1034 13.2312 97.5932 14.8505L97.5059 14.9486C98.6108 16.5332 99.4202 18.2818 99.8993 20.1199Z" fill="black"/>
<path d="M34.7814 10.0603C32.643 10.0613 30.5375 10.6079 28.6494 11.6523C26.7613 12.6967 25.1483 14.2069 23.9516 16.0507C22.3791 13.6346 20.1029 11.8073 17.4577 10.8375C14.8125 9.86767 11.938 9.8065 9.25695 10.663C6.57587 11.5195 4.22972 13.2484 2.56354 15.5955C0.897367 17.9426 -0.000896033 20.784 0.000862027 23.7019V35.5032C-0.00747626 35.8171 0.0447478 36.1296 0.154448 36.4221C0.264148 36.7146 0.429099 36.9813 0.639552 37.2064C0.850006 37.4315 1.10169 37.6104 1.37974 37.7326C1.65778 37.8547 1.95654 37.9177 2.25837 37.9177C2.56019 37.9177 2.85895 37.8547 3.137 37.7326C3.41504 37.6104 3.66673 37.4315 3.87718 37.2064C4.08763 36.9813 4.25259 36.7146 4.36229 36.4221C4.47199 36.1296 4.52421 35.8171 4.51587 35.5032V23.7019C4.51587 22.5289 4.73794 21.3675 5.16938 20.2838C5.60083 19.2002 6.23322 18.2155 7.03043 17.3862C7.82764 16.5568 8.77407 15.8989 9.81568 15.45C10.8573 15.0011 11.9737 14.7701 13.1011 14.7701C14.2285 14.7701 15.3449 15.0011 16.3865 15.45C17.4282 15.8989 18.3746 16.5568 19.1718 17.3862C19.969 18.2155 20.6014 19.2002 21.0328 20.2838C21.4643 21.3675 21.6864 22.5289 21.6864 23.7019C21.6864 23.7234 21.6864 23.7431 21.6864 23.7628C21.678 24.0767 21.7302 24.3892 21.8399 24.6817C21.9496 24.9742 22.1146 25.2409 22.325 25.466C22.5355 25.6911 22.7872 25.87 23.0652 25.9921C23.3433 26.1143 23.642 26.1773 23.9439 26.1773C24.2457 26.1773 24.5444 26.1143 24.8225 25.9921C25.1005 25.87 25.3522 25.6911 25.5627 25.466C25.7731 25.2409 25.9381 24.9742 26.0478 24.6817C26.1575 24.3892 26.2097 24.0767 26.2014 23.7628C26.2014 23.7431 26.2014 23.7234 26.2014 23.7019C26.1969 22.0339 26.642 20.3981 27.4862 18.9801C28.3305 17.5621 29.54 16.4188 30.9774 15.6801C32.4148 14.9413 34.0225 14.6367 35.618 14.8008C37.2135 14.9649 38.7327 15.5912 40.0033 16.6085C40.6744 15.1969 41.5353 13.8919 42.5599 12.7327C40.3103 10.9956 37.5829 10.0586 34.7814 10.0603Z" fill="black"/>
<path d="M127.641 0.000375534H118.944C118.648 0.000141714 118.355 0.0593499 118.082 0.174616C117.808 0.289883 117.56 0.458947 117.35 0.672148C117.141 0.88535 116.975 1.13851 116.862 1.41715C116.748 1.6958 116.69 1.99447 116.69 2.2961V24.2532C116.663 26.3121 115.954 28.3012 114.677 29.897C113.401 31.4929 111.632 32.6017 109.659 33.0432C107.685 33.4847 105.624 33.233 103.809 32.3289C101.994 31.4247 100.532 29.9215 99.6615 28.0634C99.2282 29.8656 98.4973 31.5795 97.5 33.1318C98.7671 34.6306 100.336 35.8338 102.1 36.6596C103.864 37.4853 105.782 37.9143 107.723 37.9172C108.021 37.9172 108.322 37.9065 108.622 37.887C112.021 37.6608 115.212 36.1352 117.555 33.6151C119.899 31.095 121.223 27.7662 121.263 24.2941V4.66123H127.714C128.018 4.66129 128.319 4.59959 128.599 4.47975C128.879 4.35991 129.133 4.18432 129.346 3.96327C129.559 3.74222 129.726 3.48014 129.839 3.19235C129.951 2.90456 130.006 2.59685 130 2.2872C129.976 1.66815 129.716 1.08303 129.276 0.65605C128.835 0.229074 128.249 -0.00612876 127.641 0.000375534Z" fill="black"/>
</svg>
