<svg xmlns="http://www.w3.org/2000/svg" width="160" height="40.942" viewBox="0 0 160 40.942">
  <g id="Group_13049" data-name="Group 13049" transform="translate(0 0)">
    <g id="Group_8202" data-name="Group 8202" transform="translate(1.65 1.638)">
      <path id="Path_186" data-name="Path 186" d="M48.283,7.2a8.1,8.1,0,0,0-.965.058,8.478,8.478,0,0,0-2.31.623C39.82,10.084,36,17.387,36,26.034s3.82,15.949,9.007,18.153a8.479,8.479,0,0,0,2.31.623,8.1,8.1,0,0,0,.965.058c6.773,0,12.283-8.449,12.283-18.834S55.056,7.2,48.283,7.2" transform="translate(-29.462 -7.2)" fill="#f8cc5d"/>
      <path id="Path_187" data-name="Path 187" d="M13.08,57.6H8.222a27.351,27.351,0,0,0-.968,6.551h4.914A29.071,29.071,0,0,1,13.08,57.6" transform="translate(-7.254 -46.136)" fill="#f8cc5d"/>
      <path id="Path_188" data-name="Path 188" d="M20.9,28.8h-4.6a19.983,19.983,0,0,0-2.52,4.913h4.824A22.543,22.543,0,0,1,20.9,28.8" transform="translate(-12.301 -23.887)" fill="#f8cc5d"/>
      <path id="Path_189" data-name="Path 189" d="M12.168,93.6H7.254a27.352,27.352,0,0,0,.968,6.551H13.08a29.07,29.07,0,0,1-.912-6.551" transform="translate(-7.254 -73.948)" fill="#f8cc5d"/>
      <path id="Path_190" data-name="Path 190" d="M38.683,7.258a8.1,8.1,0,0,0-.965-.058A9.591,9.591,0,0,0,30.8,10.475h4.4a14.348,14.348,0,0,1,3.482-3.217" transform="translate(-25.448 -7.2)" fill="#f8cc5d"/>
      <path id="Path_191" data-name="Path 191" d="M18.612,129.6H13.788a19.983,19.983,0,0,0,2.52,4.913h4.6a22.555,22.555,0,0,1-2.292-4.913" transform="translate(-12.302 -101.759)" fill="#f8cc5d"/>
      <path id="Path_192" data-name="Path 192" d="M35.2,158.4H30.8a9.591,9.591,0,0,0,6.914,3.275,8.09,8.09,0,0,0,.965-.058A14.353,14.353,0,0,1,35.2,158.4" transform="translate(-25.447 -124.008)" fill="#f8cc5d"/>
    </g>
    <path id="Path_193" data-name="Path 193" d="M20.471,0H13.92C10.138,0,6.606,2.174,3.975,6.121A26.094,26.094,0,0,0,0,20.471,26.094,26.094,0,0,0,3.975,34.822c2.631,3.947,6.163,6.121,9.946,6.121h6.551c3.782,0,7.314-2.174,9.946-6.121a26.094,26.094,0,0,0,3.975-14.351A26.094,26.094,0,0,0,30.417,6.121C27.785,2.174,24.253,0,20.471,0M13.92,1.638a8.1,8.1,0,0,1,.965.058A14.349,14.349,0,0,0,11.4,4.913h-4.4A9.591,9.591,0,0,1,13.92,1.638M5.656,6.551h4.6A22.554,22.554,0,0,0,7.96,11.464H3.136a19.983,19.983,0,0,1,2.52-4.913M2.618,13.1H7.476a29.07,29.07,0,0,0-.912,6.551H1.65A27.351,27.351,0,0,1,2.618,13.1M1.65,21.29H6.564a29.07,29.07,0,0,0,.912,6.551H2.618A27.351,27.351,0,0,1,1.65,21.29m4.006,13.1a19.983,19.983,0,0,1-2.52-4.913H7.96a22.554,22.554,0,0,0,2.292,4.913ZM13.92,39.3a9.591,9.591,0,0,1-6.914-3.275h4.4a14.349,14.349,0,0,0,3.482,3.217,8.1,8.1,0,0,1-.965.058m6.551,0a8.1,8.1,0,0,1-.965-.058,8.478,8.478,0,0,1-2.31-.623c-5.188-2.2-9.007-9.506-9.007-18.153S12.008,4.522,17.2,2.319a8.478,8.478,0,0,1,2.31-.623,8.1,8.1,0,0,1,.965-.058c6.773,0,12.283,8.449,12.283,18.834S27.244,39.3,20.471,39.3" transform="translate(0 0)" fill="#1f343e"/>
    <path id="Path_195" data-name="Path 195" d="M74.9,43.629l-4.536,1.183.666-6.51a.768.768,0,0,0-.217-.613.594.594,0,0,0-.568-.172l-5.33,1.39a.6.6,0,0,0-.425.562L63.751,51.85a.766.766,0,0,0,.23.593.591.591,0,0,0,.557.161l5.28-1.377.506,9.468a.721.721,0,0,0,.543.676.54.54,0,0,0,.244-.006.575.575,0,0,0,.4-.43L75.67,44.515a.764.764,0,0,0-.164-.676.6.6,0,0,0-.6-.21" transform="translate(-49.25 -28.97)" fill="#1f343e"/>
    <path id="Path_196" data-name="Path 196" d="M224.912,44.222q-.107.5-.223.965t-.224.885a3.156,3.156,0,0,0-.107.777q0,.179-.34.429a5.814,5.814,0,0,1-.787.483q-.447.233-.876.421a6.253,6.253,0,0,1-.608.241q-.554.144-1.1.278t-1.1.294q.554.34,1.082.671t1.082.652l.474.278q.259.152.509.322a2.267,2.267,0,0,1,.438.384,1.193,1.193,0,0,1,.259.483,7.212,7.212,0,0,1,.286,1.654q.054.885.054,1.707a14.039,14.039,0,0,0,.1,1.662q.1.823.188,1.68.089.68.152,1.368t.152,1.367q-.894-.143-1.725-.232a16.126,16.126,0,0,0-1.725-.089q-.465,0-.9-.018t-.885-.054q.25-.894.42-1.788a9.65,9.65,0,0,0,.17-1.806q0-.875-.018-1.752t-.018-1.752a2.531,2.531,0,0,0-.215-.938,2.923,2.923,0,0,0-.483-.832,1.233,1.233,0,0,0-.527-.169q-.438-.081-.956-.143t-.974-.1q-.456-.036-.581-.054.036,1.52.125,3.021t.089,3.021a4.935,4.935,0,0,0,.063.8q.062.384.152.777-.823-.143-1.609-.241a13.263,13.263,0,0,0-1.644-.1h-.885c-.292,0-.581-.011-.867-.036a10.117,10.117,0,0,0,.34-1.734q.089-.858.116-1.716t.027-1.716q0-.858.053-1.752.089-1.394.1-2.8t.009-2.8q0-1.411-.125-2.789t-.125-2.789a6.47,6.47,0,0,0-.107-1.162,6.215,6.215,0,0,1-.107-1.108,1.083,1.083,0,0,0-.116-.4q-.116-.259-.187-.4.518-.036,1.046-.054c.351-.011.7-.018,1.046-.018a14.67,14.67,0,0,1,1.984.135,14.533,14.533,0,0,0,1.966.134,10.291,10.291,0,0,0,1.135-.062,10.237,10.237,0,0,1,1.135-.063,5.967,5.967,0,0,1,.8.081q.536.081,1.1.223a7.253,7.253,0,0,1,1.028.34,1.166,1.166,0,0,1,.59.429,7.048,7.048,0,0,0,.858,1.19,5.387,5.387,0,0,1,.823,1.224,1.4,1.4,0,0,1,.161.447c.036.179.065.367.089.564s.039.387.045.572.009.342.009.473a4.922,4.922,0,0,1-.107,1.037m-4.71-1.045a7.071,7.071,0,0,0-.214-.76,7.66,7.66,0,0,0-.286-.723.988.988,0,0,0-.295-.421.672.672,0,0,0-.384-.08c-.161.006-.289.008-.384.008q-.375,0-.778.036c-.268.024-.533.036-.8.036q-.322,0-.635-.018t-.653-.054a9.05,9.05,0,0,1-.107,1.377,9.017,9.017,0,0,0-.107,1.376,16.632,16.632,0,0,0,.107,1.877q.107.949.2,1.859a5.646,5.646,0,0,1,.635-.322q.438-.2.93-.375t.948-.312a2.693,2.693,0,0,1,.67-.135.833.833,0,0,0,.7-.322,2.091,2.091,0,0,0,.366-.777,4.9,4.9,0,0,0,.143-.939c.018-.322.027-.583.027-.787a2.823,2.823,0,0,0-.081-.545" transform="translate(-163.162 -28.97)" fill="#fff"/>
    <path id="Path_197" data-name="Path 197" d="M278.506,65.642a16.232,16.232,0,0,0-1.636-.081q-.768,0-1.528.045t-1.546.134a18.1,18.1,0,0,1-.107-1.931q0-.392.027-.759a4.681,4.681,0,0,1,.116-.742q-.912.09-1.788.17a11.984,11.984,0,0,0-1.752.294,4.91,4.91,0,0,0-.259.661,4.159,4.159,0,0,0-.143.644,5.9,5.9,0,0,0-.054.653q-.009.331-.027.688-1.287.107-2.574.161t-2.592.161q.518-1.3,1.09-2.583t1.117-2.566q.545-1.287,1.037-2.6a24.257,24.257,0,0,0,.831-2.691,27.037,27.037,0,0,1,.858-2.761q.5-1.349,1.064-2.673t1.153-2.636q.59-1.314,1.126-2.655,1,2.664,1.85,5.319t1.475,5.407a17.488,17.488,0,0,0,.617,1.994q.366.974.742,1.975.626,1.627,1.278,3.245t1.225,3.3q-.8-.089-1.6-.169m-5.872-12.166-1.323,5.6,2.056-.25Z" transform="translate(-204.448 -34.435)" fill="#fff"/>
    <path id="Path_198" data-name="Path 198" d="M337.227,52.776a12.345,12.345,0,0,0-.063,1.242,9.094,9.094,0,0,0,.054.993,8.98,8.98,0,0,1,.053.974h-.626a10.759,10.759,0,0,1-1.77-.072,14.275,14.275,0,0,0-1.77-.107,5.406,5.406,0,0,1-.688-.044c-.232-.03-.456-.063-.671-.1a11.677,11.677,0,0,1,.17,1.216q.062.68.089,1.395t.027,1.422v1.278a10.123,10.123,0,0,0,.152,1.77,10.037,10.037,0,0,1,.152,1.752q0,.412-.018.814t-.018.795a15.373,15.373,0,0,0,.205,2.512,19.092,19.092,0,0,0,.563,2.422q-.518,0-1.037-.018T331.015,71a21.171,21.171,0,0,0-2.306.125q-1.144.125-2.27.214l-.036-.59a9.3,9.3,0,0,1,.081-1.474q.1-.724.232-1.448t.259-1.448a11.911,11.911,0,0,0,.161-1.458,19.66,19.66,0,0,0,.045-2.288q-.045-1.126-.045-2.252,0-.572.054-1.126t.134-1.09q.08-.536.161-1.09t.116-1.126h-.179a5.161,5.161,0,0,0-1.421.089q-.706.144-1.385.286a1.743,1.743,0,0,1-.617.232q-.456.107-.974.188t-1,.133c-.322.036-.56.06-.715.072q.143-.572.277-1.153a5.272,5.272,0,0,0,.134-1.189q0-1.055-.072-2.109t-.071-2.109q.769.251,1.529.5t1.537.456q.778.205,1.564.34a9.448,9.448,0,0,0,1.591.134h8.277a2.6,2.6,0,0,0,.643-.1q.375-.1.626-.188-.054.627-.116,1.243" transform="translate(-248.224 -38.928)" fill="#fff"/>
    <path id="Path_199" data-name="Path 199" d="M403.452,54.95q-.536-.062-1.046-.125t-1.037-.1q-.527-.036-1.171-.036a13.882,13.882,0,0,0-1.671.1,13.779,13.779,0,0,1-1.654.1,3.993,3.993,0,0,1-.6-.044q-.3-.045-.6-.1a12.8,12.8,0,0,1,.179,1.6q.036.778.036,1.617,0,.322.018.671t.054.688q1.072-.161,2.02-.25t1.868-.169q.921-.081,1.868-.179t2-.26l.179,3.968q-.447-.017-.822-.026t-.733-.045q-.357-.036-.724-.107c-.244-.047-.521-.113-.831-.2a7.233,7.233,0,0,0-.992-.2q-.545-.07-1.108-.107T397.57,61.7c-.369-.011-.709-.024-1.019-.036l-.2,4.719h1.394q.876,0,1.627-.053t1.484-.116q.733-.062,1.484-.117t1.627-.054l.125,4.04q-.572-.036-1.046-.062t-.921-.045l-.92-.036c-.316-.011-.664-.018-1.046-.018q-.679,0-1.439.01a7.4,7.4,0,0,0-1.439.151,10.112,10.112,0,0,1-2.038.232q-1.073.018-2.038.018-.554,0-1.073-.018c-.346-.011-.691-.018-1.037-.018q.125-.322.34-.884t.429-1.189q.215-.626.375-1.216a3.775,3.775,0,0,0,.161-.93q0-1.25-.072-2.493t-.161-2.485q-.089-1.243-.161-2.485t-.072-2.495q0-1.162.018-2.314t.054-2.333a7.558,7.558,0,0,0,.947.3,4.182,4.182,0,0,0,.983.116h.268q1.18-.2,2.35-.358a17.106,17.106,0,0,1,2.333-.161q.733,0,1.43-.062t1.385-.161q.688-.1,1.377-.215t1.4-.224q-.035.393-.053.778t-.018.759a12.961,12.961,0,0,0,.081,1.412q.08.734.134,1.412-.643-.054-1.18-.116" transform="translate(-302.14 -39.171)" fill="#fff"/>
    <path id="Path_200" data-name="Path 200" d="M467.1,53.974q-.053.573-.152,1.269t-.232,1.44q-.134.742-.295,1.394a11.912,11.912,0,0,1-.34,1.153,2.452,2.452,0,0,1-.358.715q-.25.268-.59.643a9.35,9.35,0,0,1-.733.725,5.384,5.384,0,0,1-.8.59,1.509,1.509,0,0,1-.777.241,4.417,4.417,0,0,1-.849-.1q-.491-.1-1.019-.232t-1.028-.286q-.5-.152-.876-.26.035,1.895.143,3.8t.143,3.816a6.635,6.635,0,0,0-1.359-.322q-.7-.089-1.394-.133t-1.394-.107a8.313,8.313,0,0,1-1.377-.242q.143-.607.286-1.242a9.3,9.3,0,0,0,.2-1.261,3.834,3.834,0,0,1,.125-.67q.089-.313.188-.608t.2-.6a2.524,2.524,0,0,0,.116-.643q.107-1.055.125-2.109t.018-2.091c0-.274-.009-.551-.027-.831a5.612,5.612,0,0,0-.116-.832,11.166,11.166,0,0,1-.17-1.555q-.027-.751-.027-1.555a23.172,23.172,0,0,0-.2-2.994q-.2-1.511-.411-2.977a3.378,3.378,0,0,0,.688.206q.4.08.822.125t.831.062q.411.018.733.018,1.233,0,2.467-.054t2.467-.054a4.2,4.2,0,0,1,1.707.393,6.365,6.365,0,0,1,1.627,1.047,5.7,5.7,0,0,1,1.216,1.492,3.519,3.519,0,0,1,.474,1.752c0,.2-.018.494-.054.876m-4.5,1.3q-.018-.411-.054-.866t-.089-.832a1.341,1.341,0,0,0-.107-.447,1.282,1.282,0,0,0-.59-.268q-.5-.143-1.108-.294t-1.171-.268q-.563-.116-.813-.188.054,1.431.107,2.852t.107,2.851q.518.054,1.046.135a7.153,7.153,0,0,0,1.081.08.945.945,0,0,0,.331-.071,2.63,2.63,0,0,0,.375-.179,3.663,3.663,0,0,0,.358-.232,2.422,2.422,0,0,0,.277-.232A.674.674,0,0,0,462.5,57a3.247,3.247,0,0,0,.081-.429,3.643,3.643,0,0,0,.027-.429v-.331q0-.124-.018-.536" transform="translate(-350.592 -37.167)" fill="#fff"/>
    <path id="Path_201" data-name="Path 201" d="M528.207,58.535q-.14,2.333-.14,4.674a10.767,10.767,0,0,0,.054,1.082,10.713,10.713,0,0,1,.054,1.081q0,.215-.054.689t-.143,1.081q-.09.608-.206,1.261t-.259,1.216a9.2,9.2,0,0,1-.3.965,1.032,1.032,0,0,1-.295.491q-.322.215-.724.456a7.729,7.729,0,0,1-.822.429,6.648,6.648,0,0,1-.849.312,2.933,2.933,0,0,1-.822.125,3.525,3.525,0,0,1-.983-.2q-.626-.2-1.3-.483t-1.269-.58q-.6-.3-.921-.492a4.527,4.527,0,0,1-1.618-1.564A7.391,7.391,0,0,1,516.76,67a11.9,11.9,0,0,1-.331-2.314q-.053-1.189-.054-2.244,0-1.036.1-2.064t.215-2.065q.116-1.036.214-2.074t.1-2.074a6.715,6.715,0,0,0-.071-.983q-.072-.483-.179-.983.555.054,1.1.1t1.1.044a15.629,15.629,0,0,0,1.791-.107,20.237,20.237,0,0,0-.477,2.181q-.206,1.233-.341,2.538t-.207,2.566q-.071,1.26-.071,2.261,0,.268.009.814t.054,1.206q.045.662.116,1.359a11.113,11.113,0,0,0,.206,1.3,4.989,4.989,0,0,0,.331,1.019.943.943,0,0,0,.483.527q.233.054.474.089a3.259,3.259,0,0,0,.492.036,1.989,1.989,0,0,0,.492-.071,1.944,1.944,0,0,0,.518-.214,1.425,1.425,0,0,0,.4-.348.75.75,0,0,0,.161-.474,17.559,17.559,0,0,1,.09-1.788,17.478,17.478,0,0,0,.089-1.77q0-1.894-.107-3.78t-.107-3.835a6.037,6.037,0,0,1,.107-1.135,4.54,4.54,0,0,0,.071-1.136q1.238.09,2.494.125t2.494.179q-.168,2.324-.307,4.657" transform="translate(-398.922 -40.324)" fill="#fff"/>
    <path id="Path_202" data-name="Path 202" d="M587.436,53.613q-.161.814-.3,1.617a22.174,22.174,0,0,0-.277,2.557q-.062,1.27-.241,2.556-.2,1.662-.456,3.307a21.351,21.351,0,0,0-.259,3.325q0,1.126.107,2.27t.143,2.27q-1.322-.089-2.619-.133t-2.618-.17q.089-.929.169-1.859t.081-1.859a8.784,8.784,0,0,0-.223-2.064,7.924,7.924,0,0,0-.644-1.744,11.13,11.13,0,0,0-1-1.6q-.581-.778-1.278-1.636-.036.965-.027,1.94a10.577,10.577,0,0,1-.152,1.9q-.2,1.18-.375,2.324a15.149,15.149,0,0,0-.179,2.342,8.853,8.853,0,0,0,.045.9q.045.438.134.884-.536,0-1.1.018t-1.117.018a5.676,5.676,0,0,1-1.046-.1q-.528-.1-1.046-.242.322-2.7.617-5.381a49.848,49.848,0,0,0,.295-5.452,17.119,17.119,0,0,0-.125-2.056q-.125-1.036-.3-2.082t-.384-2.092q-.206-1.046-.367-2.047a10.873,10.873,0,0,0,1.6.125h1.6q.626,0,1.243.036l1.242.071a11.263,11.263,0,0,1,.34,1.466q.143.841.3,1.69t.349,1.617a5.13,5.13,0,0,0,.483,1.269,14.74,14.74,0,0,0,.974,1.529,13.717,13.717,0,0,1,.956,1.51q.339.608.661,1.207t.626,1.206q.107-1.519.2-3.039t.089-3.039a10.274,10.274,0,0,0-.34-2.7,25.164,25.164,0,0,0-.858-2.574q.68.018,1.35.063t1.35.1q.679.054,1.359.1t1.359.026q-.161.8-.322,1.618" transform="translate(-442.577 -39.657)" fill="#fff"/>
    <path id="Path_203" data-name="Path 203" d="M652.02,51.824q-.894,1.01-1.806,1.993t-1.823,1.976q-.911.992-1.752,2.046.143.179.509.617l.831.991q.465.554.965,1.172l.93,1.144q.429.527.715.9a1.739,1.739,0,0,1,.3.483,7.045,7.045,0,0,0,.456,1.233q.277.573.59,1.108t.608,1.09a8.051,8.051,0,0,1,.51,1.18q-1.233.054-2.333.143a12.575,12.575,0,0,0-2.279.411,15.069,15.069,0,0,0-.572-2.431,8.47,8.47,0,0,0-1.162-2.253,18.848,18.848,0,0,1-1.341-2.181q-.59-1.126-1.215-2.253-.036.68-.107,1.341a12.439,12.439,0,0,0-.072,1.341,16.3,16.3,0,0,0,.089,1.708q.089.849.224,1.68t.277,1.662q.143.831.25,1.671H644.3a6.766,6.766,0,0,1-1.1-.054q-.545-.072-1.09-.169l-1.091-.2a7.622,7.622,0,0,0-1.117-.117q.143-1.645.384-3.28a22.715,22.715,0,0,0,.241-3.317q0-1.5-.134-3.208t-.348-3.468q-.215-1.761-.474-3.468t-.51-3.209q.572.107,1.171.179a10.153,10.153,0,0,0,1.207.072q.786,0,1.591-.036a3.9,3.9,0,0,0,1.519-.375v2.27a12.95,12.95,0,0,1-.08,1.448q-.081.715-.17,1.422t-.17,1.421a12.753,12.753,0,0,0-.08,1.43c0,.132,0,.26.009.385a1.8,1.8,0,0,0,.063.384q.733-1.109,1.332-2.145t1.126-2.082q.527-1.046.992-2.155t.912-2.378a10.363,10.363,0,0,0,1.278.554q.652.233,1.3.421l1.314.375q.661.188,1.323.42-.786,1.09-1.681,2.1" transform="translate(-493.7 -37.046)" fill="#fff"/>
  </g>
</svg>
